%TF.GenerationSoftware,KiCad,Pcbnew,(5.1.10)-1*%
%TF.CreationDate,2021-10-20T09:03:38+02:00*%
%TF.ProjectId,Drvce,44727663-652e-46b6-9963-61645f706362,rev?*%
%TF.SameCoordinates,Original*%
%TF.FileFunction,Soldermask,Top*%
%TF.FilePolarity,Negative*%
%FSLAX46Y46*%
G04 Gerber Fmt 4.6, Leading zero omitted, Abs format (unit mm)*
G04 Created by KiCad (PCBNEW (5.1.10)-1) date 2021-10-20 09:03:38*
%MOMM*%
%LPD*%
G01*
G04 APERTURE LIST*
%ADD10C,2.000000*%
%ADD11C,1.152000*%
%ADD12C,1.500000*%
%ADD13R,1.500000X1.000000*%
%ADD14C,0.900000*%
G04 APERTURE END LIST*
D10*
X106007942Y-144304000D02*
G75*
G03*
X106007942Y-144304000I-851942J0D01*
G01*
X50381942Y-150400000D02*
G75*
G03*
X50381942Y-150400000I-851942J0D01*
G01*
X55588942Y-150908000D02*
G75*
G03*
X55588942Y-150908000I-851942J0D01*
G01*
X60668942Y-151162000D02*
G75*
G03*
X60668942Y-151162000I-851942J0D01*
G01*
X65748942Y-151289000D02*
G75*
G03*
X65748942Y-151289000I-851942J0D01*
G01*
X75908942Y-150654000D02*
G75*
G03*
X75908942Y-150654000I-851942J0D01*
G01*
X70828942Y-151035000D02*
G75*
G03*
X70828942Y-151035000I-851942J0D01*
G01*
X80988942Y-150273000D02*
G75*
G03*
X80988942Y-150273000I-851942J0D01*
G01*
X86068942Y-149384000D02*
G75*
G03*
X86068942Y-149384000I-851942J0D01*
G01*
X91148942Y-148495000D02*
G75*
G03*
X91148942Y-148495000I-851942J0D01*
G01*
X96101942Y-147352000D02*
G75*
G03*
X96101942Y-147352000I-851942J0D01*
G01*
X101054942Y-146082000D02*
G75*
G03*
X101054942Y-146082000I-851942J0D01*
G01*
X110833942Y-142653000D02*
G75*
G03*
X110833942Y-142653000I-851942J0D01*
G01*
X115659942Y-141002000D02*
G75*
G03*
X115659942Y-141002000I-851942J0D01*
G01*
X120358942Y-138843000D02*
G75*
G03*
X120358942Y-138843000I-851942J0D01*
G01*
X125057942Y-136557000D02*
G75*
G03*
X125057942Y-136557000I-851942J0D01*
G01*
X129629942Y-134144000D02*
G75*
G03*
X129629942Y-134144000I-851942J0D01*
G01*
X134074942Y-131477000D02*
G75*
G03*
X134074942Y-131477000I-851942J0D01*
G01*
X58763942Y-119412000D02*
G75*
G03*
X58763942Y-119412000I-851942J0D01*
G01*
X63843942Y-119031000D02*
G75*
G03*
X63843942Y-119031000I-851942J0D01*
G01*
X69050942Y-118650000D02*
G75*
G03*
X69050942Y-118650000I-851942J0D01*
G01*
X74003942Y-118142000D02*
G75*
G03*
X74003942Y-118142000I-851942J0D01*
G01*
X78956942Y-117253000D02*
G75*
G03*
X78956942Y-117253000I-851942J0D01*
G01*
X84036942Y-116110000D02*
G75*
G03*
X84036942Y-116110000I-851942J0D01*
G01*
X88862942Y-114967000D02*
G75*
G03*
X88862942Y-114967000I-851942J0D01*
G01*
X93561942Y-113697000D02*
G75*
G03*
X93561942Y-113697000I-851942J0D01*
G01*
X98387942Y-112173000D02*
G75*
G03*
X98387942Y-112173000I-851942J0D01*
G01*
X102959942Y-110522000D02*
G75*
G03*
X102959942Y-110522000I-851942J0D01*
G01*
X107404942Y-108617000D02*
G75*
G03*
X107404942Y-108617000I-851942J0D01*
G01*
X111849942Y-106712000D02*
G75*
G03*
X111849942Y-106712000I-851942J0D01*
G01*
X116167942Y-104426000D02*
G75*
G03*
X116167942Y-104426000I-851942J0D01*
G01*
X120612942Y-102140000D02*
G75*
G03*
X120612942Y-102140000I-851942J0D01*
G01*
X124803942Y-99600000D02*
G75*
G03*
X124803942Y-99600000I-851942J0D01*
G01*
X80353942Y-91726000D02*
G75*
G03*
X80353942Y-91726000I-851942J0D01*
G01*
X85179942Y-90456000D02*
G75*
G03*
X85179942Y-90456000I-851942J0D01*
G01*
X89751942Y-88932000D02*
G75*
G03*
X89751942Y-88932000I-851942J0D01*
G01*
X94323942Y-87281000D02*
G75*
G03*
X94323942Y-87281000I-851942J0D01*
G01*
X98895942Y-85249000D02*
G75*
G03*
X98895942Y-85249000I-851942J0D01*
G01*
X103213942Y-83217000D02*
G75*
G03*
X103213942Y-83217000I-851942J0D01*
G01*
X107404942Y-80931000D02*
G75*
G03*
X107404942Y-80931000I-851942J0D01*
G01*
X111595942Y-78518000D02*
G75*
G03*
X111595942Y-78518000I-851942J0D01*
G01*
X119596942Y-73311000D02*
G75*
G03*
X119596942Y-73311000I-851942J0D01*
G01*
X115659942Y-76105000D02*
G75*
G03*
X115659942Y-76105000I-851942J0D01*
G01*
D11*
%TO.C,REF\u002A\u002A*%
X98750000Y-60750000D03*
%TD*%
%TO.C,REF\u002A\u002A*%
X99250000Y-196000000D03*
%TD*%
D12*
%TO.C,R3*%
X101000000Y-91750000D03*
X97600000Y-91750000D03*
%TD*%
D13*
%TO.C,D15*%
X101510000Y-37033000D03*
X101510000Y-33833000D03*
X96610000Y-37033000D03*
X96610000Y-33833000D03*
%TD*%
%TO.C,D14*%
X107225000Y-67767000D03*
X107225000Y-64567000D03*
X102325000Y-67767000D03*
X102325000Y-64567000D03*
%TD*%
%TO.C,D13*%
X89318000Y-76403000D03*
X89318000Y-73203000D03*
X84418000Y-76403000D03*
X84418000Y-73203000D03*
%TD*%
%TO.C,D12*%
X74512000Y-102667000D03*
X74512000Y-105867000D03*
X79412000Y-102667000D03*
X79412000Y-105867000D03*
%TD*%
%TO.C,D11*%
X94260500Y-98539500D03*
X94260500Y-101739500D03*
X99160500Y-98539500D03*
X99160500Y-101739500D03*
%TD*%
%TO.C,D10*%
X112104000Y-91872000D03*
X112104000Y-95072000D03*
X117004000Y-91872000D03*
X117004000Y-95072000D03*
%TD*%
%TO.C,D9*%
X132828200Y-117411300D03*
X132828200Y-114211300D03*
X127928200Y-117411300D03*
X127928200Y-114211300D03*
%TD*%
%TO.C,D8*%
X116508700Y-125717100D03*
X116508700Y-122517100D03*
X111608700Y-125717100D03*
X111608700Y-122517100D03*
%TD*%
%TO.C,D7*%
X140168800Y-150609100D03*
X140168800Y-147409100D03*
X135268800Y-150609100D03*
X135268800Y-147409100D03*
%TD*%
%TO.C,D6*%
X122782500Y-158394200D03*
X122782500Y-155194200D03*
X117882500Y-158394200D03*
X117882500Y-155194200D03*
%TD*%
%TO.C,D5*%
X101510000Y-163969500D03*
X101510000Y-160769500D03*
X96610000Y-163969500D03*
X96610000Y-160769500D03*
%TD*%
%TO.C,D4*%
X94652000Y-133006900D03*
X94652000Y-129806900D03*
X89752000Y-133006900D03*
X89752000Y-129806900D03*
%TD*%
%TO.C,D3*%
X73062000Y-136347000D03*
X73062000Y-133147000D03*
X68162000Y-136347000D03*
X68162000Y-133147000D03*
%TD*%
%TO.C,D2*%
X51842500Y-162166500D03*
X51842500Y-165366500D03*
X56742500Y-162166500D03*
X56742500Y-165366500D03*
%TD*%
D14*
%TO.C,SW1*%
X148538613Y-147638813D03*
X150466976Y-149936947D03*
%TD*%
D13*
%TO.C,D1*%
X78523000Y-166573000D03*
X78523000Y-163373000D03*
X73623000Y-166573000D03*
X73623000Y-163373000D03*
%TD*%
M02*
