%TF.GenerationSoftware,KiCad,Pcbnew,(5.1.10)-1*%
%TF.CreationDate,2021-10-20T09:03:38+02:00*%
%TF.ProjectId,Drvce,44727663-652e-46b6-9963-61645f706362,rev?*%
%TF.SameCoordinates,Original*%
%TF.FileFunction,Profile,NP*%
%FSLAX46Y46*%
G04 Gerber Fmt 4.6, Leading zero omitted, Abs format (unit mm)*
G04 Created by KiCad (PCBNEW (5.1.10)-1) date 2021-10-20 09:03:38*
%MOMM*%
%LPD*%
G01*
G04 APERTURE LIST*
%TA.AperFunction,Profile*%
%ADD10C,0.200000*%
%TD*%
G04 APERTURE END LIST*
D10*
X109855000Y-196215000D02*
X108585000Y-197485000D01*
X89027000Y-196151500D02*
X90360500Y-197485000D01*
X109855000Y-173374694D02*
X120119125Y-173374694D01*
X89027000Y-173456499D02*
X78836541Y-173492358D01*
X107472911Y-36841155D02*
X117586936Y-28222272D01*
X90360500Y-197485000D02*
X108585000Y-197485000D01*
X110675697Y-49941898D02*
X107472911Y-36841155D01*
X34013967Y-163864614D02*
X35015845Y-164332222D01*
X35015845Y-164332222D02*
X36021112Y-164784463D01*
X36021112Y-164784463D02*
X37029693Y-165221615D01*
X37029693Y-165221615D02*
X38041513Y-165643953D01*
X38041513Y-165643953D02*
X39056496Y-166051756D01*
X39056496Y-166051756D02*
X40074567Y-166445299D01*
X40074567Y-166445299D02*
X41095650Y-166824860D01*
X41095650Y-166824860D02*
X42119670Y-167190716D01*
X42119670Y-167190716D02*
X43146552Y-167543144D01*
X43146552Y-167543144D02*
X44176219Y-167882422D01*
X44176219Y-167882422D02*
X45208598Y-168208825D01*
X45208598Y-168208825D02*
X46243611Y-168522630D01*
X46243611Y-168522630D02*
X47281185Y-168824116D01*
X47281185Y-168824116D02*
X48321243Y-169113559D01*
X48321243Y-169113559D02*
X49363710Y-169391236D01*
X49363710Y-169391236D02*
X50408511Y-169657423D01*
X50408511Y-169657423D02*
X51455571Y-169912399D01*
X51455571Y-169912399D02*
X52504813Y-170156439D01*
X52504813Y-170156439D02*
X53556163Y-170389821D01*
X53556163Y-170389821D02*
X54609545Y-170612822D01*
X54609545Y-170612822D02*
X55664883Y-170825719D01*
X55664883Y-170825719D02*
X56722103Y-171028789D01*
X56722103Y-171028789D02*
X57781129Y-171222308D01*
X57781129Y-171222308D02*
X58841886Y-171406555D01*
X58841886Y-171406555D02*
X59904297Y-171581805D01*
X59904297Y-171581805D02*
X60968289Y-171748336D01*
X60968289Y-171748336D02*
X62033784Y-171906425D01*
X62033784Y-171906425D02*
X63100709Y-172056349D01*
X63100709Y-172056349D02*
X64168987Y-172198385D01*
X64168987Y-172198385D02*
X65238543Y-172332809D01*
X65238543Y-172332809D02*
X66309302Y-172459899D01*
X66309302Y-172459899D02*
X67381189Y-172579933D01*
X61996380Y-130848787D02*
X34013967Y-163864614D01*
X121796778Y-92270606D02*
X122332706Y-92190183D01*
X122332706Y-92190183D02*
X122865944Y-92101797D01*
X122865944Y-92101797D02*
X123395551Y-92006136D01*
X123395551Y-92006136D02*
X123920588Y-91903891D01*
X123920588Y-91903891D02*
X124440117Y-91795751D01*
X124440117Y-91795751D02*
X124953198Y-91682406D01*
X124953198Y-91682406D02*
X125458891Y-91564545D01*
X125458891Y-91564545D02*
X125956257Y-91442859D01*
X125956257Y-91442859D02*
X126444358Y-91318036D01*
X126444358Y-91318036D02*
X126922253Y-91190767D01*
X126922253Y-91190767D02*
X127389004Y-91061742D01*
X127389004Y-91061742D02*
X127843672Y-90931649D01*
X127843672Y-90931649D02*
X128285316Y-90801179D01*
X128285316Y-90801179D02*
X128712998Y-90671022D01*
X128712998Y-90671022D02*
X129125778Y-90541867D01*
X129125778Y-90541867D02*
X129522718Y-90414404D01*
X129522718Y-90414404D02*
X129902878Y-90289322D01*
X129902878Y-90289322D02*
X130265318Y-90167312D01*
X130265318Y-90167312D02*
X130609100Y-90049062D01*
X130609100Y-90049062D02*
X130933284Y-89935264D01*
X130933284Y-89935264D02*
X131236931Y-89826605D01*
X131236931Y-89826605D02*
X131519101Y-89723777D01*
X131519101Y-89723777D02*
X131778856Y-89627469D01*
X131778856Y-89627469D02*
X132015256Y-89538370D01*
X132015256Y-89538370D02*
X132227362Y-89457170D01*
X132227362Y-89457170D02*
X132414235Y-89384559D01*
X132414235Y-89384559D02*
X132708522Y-89267863D01*
X132708522Y-89267863D02*
X132937222Y-89174479D01*
X132937222Y-89174479D02*
X132952970Y-89167886D01*
X149808350Y-125755531D02*
X121796778Y-92270606D01*
X67381189Y-172579933D02*
X67737838Y-172618329D01*
X67737838Y-172618329D02*
X68094601Y-172655986D01*
X68094601Y-172655986D02*
X68451475Y-172692914D01*
X68451475Y-172692914D02*
X68808457Y-172729122D01*
X68808457Y-172729122D02*
X69165545Y-172764622D01*
X69165545Y-172764622D02*
X69522734Y-172799423D01*
X69522734Y-172799423D02*
X69880023Y-172833535D01*
X69880023Y-172833535D02*
X70237410Y-172866970D01*
X70237410Y-172866970D02*
X70594890Y-172899736D01*
X70594890Y-172899736D02*
X70952462Y-172931843D01*
X70952462Y-172931843D02*
X71310122Y-172963304D01*
X71310122Y-172963304D02*
X71667868Y-172994126D01*
X71667868Y-172994126D02*
X72025697Y-173024321D01*
X72025697Y-173024321D02*
X72383606Y-173053899D01*
X72383606Y-173053899D02*
X72741593Y-173082870D01*
X72741593Y-173082870D02*
X73099655Y-173111244D01*
X73099655Y-173111244D02*
X73457788Y-173139031D01*
X73457788Y-173139031D02*
X73815991Y-173166241D01*
X73815991Y-173166241D02*
X74174260Y-173192886D01*
X74174260Y-173192886D02*
X74532593Y-173218974D01*
X74532593Y-173218974D02*
X74890987Y-173244516D01*
X74890987Y-173244516D02*
X75249438Y-173269522D01*
X75249438Y-173269522D02*
X75607945Y-173294003D01*
X75607945Y-173294003D02*
X75966505Y-173317968D01*
X75966505Y-173317968D02*
X76325114Y-173341428D01*
X76325114Y-173341428D02*
X76683771Y-173364393D01*
X76683771Y-173364393D02*
X77042471Y-173386874D01*
X77042471Y-173386874D02*
X77401213Y-173408879D01*
X77401213Y-173408879D02*
X77759994Y-173430420D01*
X77759994Y-173430420D02*
X78118811Y-173451507D01*
X78118811Y-173451507D02*
X78477660Y-173472149D01*
X78477660Y-173472149D02*
X78836541Y-173492358D01*
X109855000Y-196215000D02*
X109855000Y-173374694D01*
X136714033Y-130636055D02*
X137356191Y-130515310D01*
X137356191Y-130515310D02*
X137993524Y-130381307D01*
X137993524Y-130381307D02*
X138625012Y-130235166D01*
X138625012Y-130235166D02*
X139249635Y-130078010D01*
X139249635Y-130078010D02*
X139866371Y-129910957D01*
X139866371Y-129910957D02*
X140474200Y-129735130D01*
X140474200Y-129735130D02*
X141072102Y-129551648D01*
X141072102Y-129551648D02*
X141659057Y-129361634D01*
X141659057Y-129361634D02*
X142234043Y-129166207D01*
X142234043Y-129166207D02*
X142796040Y-128966488D01*
X142796040Y-128966488D02*
X143344028Y-128763599D01*
X143344028Y-128763599D02*
X143876987Y-128558661D01*
X143876987Y-128558661D02*
X144393895Y-128352793D01*
X144393895Y-128352793D02*
X144893732Y-128147117D01*
X144893732Y-128147117D02*
X145375478Y-127942754D01*
X145375478Y-127942754D02*
X145838113Y-127740825D01*
X145838113Y-127740825D02*
X146280615Y-127542449D01*
X146280615Y-127542449D02*
X146701965Y-127348750D01*
X146701965Y-127348750D02*
X147101141Y-127160846D01*
X147101141Y-127160846D02*
X147477124Y-126979859D01*
X147477124Y-126979859D02*
X147828893Y-126806911D01*
X147828893Y-126806911D02*
X148155426Y-126643120D01*
X148155426Y-126643120D02*
X148455705Y-126489610D01*
X148455705Y-126489610D02*
X148728708Y-126347499D01*
X148728708Y-126347499D02*
X148973415Y-126217910D01*
X148973415Y-126217910D02*
X149188805Y-126101963D01*
X149188805Y-126101963D02*
X149373858Y-126000779D01*
X149373858Y-126000779D02*
X149648871Y-125847182D01*
X149648871Y-125847182D02*
X149808350Y-125755531D01*
X164883993Y-163492007D02*
X136714033Y-130636055D01*
X131566939Y-172397187D02*
X132638124Y-172271052D01*
X132638124Y-172271052D02*
X133708142Y-172137866D01*
X133708142Y-172137866D02*
X134776915Y-171997354D01*
X134776915Y-171997354D02*
X135844367Y-171849237D01*
X135844367Y-171849237D02*
X136910421Y-171693241D01*
X136910421Y-171693241D02*
X137974999Y-171529087D01*
X137974999Y-171529087D02*
X139038025Y-171356500D01*
X139038025Y-171356500D02*
X140099422Y-171175203D01*
X140099422Y-171175203D02*
X141159112Y-170984919D01*
X141159112Y-170984919D02*
X142217019Y-170785372D01*
X142217019Y-170785372D02*
X143273065Y-170576286D01*
X143273065Y-170576286D02*
X144327174Y-170357383D01*
X144327174Y-170357383D02*
X145379269Y-170128387D01*
X145379269Y-170128387D02*
X146429273Y-169889022D01*
X146429273Y-169889022D02*
X147477109Y-169639011D01*
X147477109Y-169639011D02*
X148522700Y-169378078D01*
X148522700Y-169378078D02*
X149565968Y-169105945D01*
X149565968Y-169105945D02*
X150606837Y-168822337D01*
X150606837Y-168822337D02*
X151645230Y-168526976D01*
X151645230Y-168526976D02*
X152681070Y-168219587D01*
X152681070Y-168219587D02*
X153714280Y-167899893D01*
X153714280Y-167899893D02*
X154744783Y-167567616D01*
X154744783Y-167567616D02*
X155772502Y-167222482D01*
X155772502Y-167222482D02*
X156797360Y-166864212D01*
X156797360Y-166864212D02*
X157819281Y-166492530D01*
X157819281Y-166492530D02*
X158838186Y-166107161D01*
X158838186Y-166107161D02*
X159853999Y-165707827D01*
X159853999Y-165707827D02*
X160866643Y-165294252D01*
X160866643Y-165294252D02*
X161876042Y-164866158D01*
X161876042Y-164866158D02*
X162882118Y-164423271D01*
X162882118Y-164423271D02*
X163884793Y-163965312D01*
X163884793Y-163965312D02*
X164883993Y-163492007D01*
X120119125Y-173374694D02*
X120477816Y-173352443D01*
X120477816Y-173352443D02*
X120836475Y-173329760D01*
X120836475Y-173329760D02*
X121195098Y-173306632D01*
X121195098Y-173306632D02*
X121553683Y-173283051D01*
X121553683Y-173283051D02*
X121912226Y-173259005D01*
X121912226Y-173259005D02*
X122270725Y-173234485D01*
X122270725Y-173234485D02*
X122629178Y-173209480D01*
X122629178Y-173209480D02*
X122987580Y-173183981D01*
X122987580Y-173183981D02*
X123345930Y-173157977D01*
X123345930Y-173157977D02*
X123704224Y-173131458D01*
X123704224Y-173131458D02*
X124062460Y-173104414D01*
X124062460Y-173104414D02*
X124420635Y-173076834D01*
X124420635Y-173076834D02*
X124778746Y-173048710D01*
X124778746Y-173048710D02*
X125136790Y-173020029D01*
X125136790Y-173020029D02*
X125494764Y-172990783D01*
X125494764Y-172990783D02*
X125852666Y-172960961D01*
X125852666Y-172960961D02*
X126210493Y-172930552D01*
X126210493Y-172930552D02*
X126568242Y-172899548D01*
X126568242Y-172899548D02*
X126925910Y-172867937D01*
X126925910Y-172867937D02*
X127283493Y-172835709D01*
X127283493Y-172835709D02*
X127640991Y-172802855D01*
X127640991Y-172802855D02*
X127998399Y-172769364D01*
X127998399Y-172769364D02*
X128355715Y-172735225D01*
X128355715Y-172735225D02*
X128712935Y-172700430D01*
X128712935Y-172700430D02*
X129070058Y-172664967D01*
X129070058Y-172664967D02*
X129427080Y-172628827D01*
X129427080Y-172628827D02*
X129783998Y-172591998D01*
X129783998Y-172591998D02*
X130140811Y-172554472D01*
X130140811Y-172554472D02*
X130497513Y-172516238D01*
X130497513Y-172516238D02*
X130854104Y-172477286D01*
X130854104Y-172477286D02*
X131210580Y-172437606D01*
X131210580Y-172437606D02*
X131566939Y-172397187D01*
X48874485Y-126042905D02*
X49461426Y-126376223D01*
X49461426Y-126376223D02*
X50050715Y-126695376D01*
X50050715Y-126695376D02*
X50640974Y-127000599D01*
X50640974Y-127000599D02*
X51230828Y-127292126D01*
X51230828Y-127292126D02*
X51818901Y-127570193D01*
X51818901Y-127570193D02*
X52403817Y-127835035D01*
X52403817Y-127835035D02*
X52984200Y-128086886D01*
X52984200Y-128086886D02*
X53558675Y-128325982D01*
X53558675Y-128325982D02*
X54125866Y-128552558D01*
X54125866Y-128552558D02*
X54684397Y-128766849D01*
X54684397Y-128766849D02*
X55232891Y-128969089D01*
X55232891Y-128969089D02*
X55769974Y-129159514D01*
X55769974Y-129159514D02*
X56294270Y-129338360D01*
X56294270Y-129338360D02*
X56804402Y-129505860D01*
X56804402Y-129505860D02*
X57298994Y-129662250D01*
X57298994Y-129662250D02*
X57776672Y-129807765D01*
X57776672Y-129807765D02*
X58236058Y-129942639D01*
X58236058Y-129942639D02*
X58675778Y-130067109D01*
X58675778Y-130067109D02*
X59094455Y-130181410D01*
X59094455Y-130181410D02*
X59490714Y-130285775D01*
X59490714Y-130285775D02*
X59863179Y-130380440D01*
X59863179Y-130380440D02*
X60210473Y-130465640D01*
X60210473Y-130465640D02*
X60531222Y-130541611D01*
X60531222Y-130541611D02*
X60824048Y-130608587D01*
X60824048Y-130608587D02*
X61087577Y-130666803D01*
X61087577Y-130666803D02*
X61320433Y-130716495D01*
X61320433Y-130716495D02*
X61521240Y-130757896D01*
X61521240Y-130757896D02*
X61821202Y-130816771D01*
X61821202Y-130816771D02*
X61996380Y-130848787D01*
X99026108Y-15153808D02*
X93980000Y-27178000D01*
X104140603Y-27149071D02*
X99026108Y-15153808D01*
X132952970Y-89167886D02*
X101787488Y-44545820D01*
X101787488Y-44545820D02*
X110675697Y-49941898D01*
X117586936Y-28222272D02*
X104140603Y-27149071D01*
X89027000Y-173456499D02*
X89027000Y-196151500D01*
X76694931Y-92399018D02*
X48874485Y-126042905D01*
X65521252Y-89359874D02*
X66032065Y-89567331D01*
X66032065Y-89567331D02*
X66543478Y-89766253D01*
X66543478Y-89766253D02*
X67054388Y-89956767D01*
X67054388Y-89956767D02*
X67563693Y-90139002D01*
X67563693Y-90139002D02*
X68070289Y-90313084D01*
X68070289Y-90313084D02*
X68573073Y-90479142D01*
X68573073Y-90479142D02*
X69070943Y-90637303D01*
X69070943Y-90637303D02*
X69562796Y-90787696D01*
X69562796Y-90787696D02*
X70047529Y-90930449D01*
X70047529Y-90930449D02*
X70524040Y-91065688D01*
X70524040Y-91065688D02*
X70991226Y-91193543D01*
X70991226Y-91193543D02*
X71447983Y-91314141D01*
X71447983Y-91314141D02*
X71893209Y-91427609D01*
X71893209Y-91427609D02*
X72325802Y-91534076D01*
X72325802Y-91534076D02*
X72744658Y-91633670D01*
X72744658Y-91633670D02*
X73148675Y-91726518D01*
X73148675Y-91726518D02*
X73536750Y-91812748D01*
X73536750Y-91812748D02*
X73907780Y-91892489D01*
X73907780Y-91892489D02*
X74260662Y-91965867D01*
X74260662Y-91965867D02*
X74594294Y-92033011D01*
X74594294Y-92033011D02*
X74907573Y-92094049D01*
X74907573Y-92094049D02*
X75199396Y-92149108D01*
X75199396Y-92149108D02*
X75468660Y-92198317D01*
X75468660Y-92198317D02*
X75714262Y-92241803D01*
X75714262Y-92241803D02*
X75935100Y-92279695D01*
X75935100Y-92279695D02*
X76298072Y-92339204D01*
X76298072Y-92339204D02*
X76548753Y-92377868D01*
X76548753Y-92377868D02*
X76694931Y-92399018D01*
X96432139Y-44561067D02*
X65521252Y-89359874D01*
X87574801Y-50007670D02*
X96432139Y-44561067D01*
X90702936Y-36888902D02*
X87574801Y-50007670D01*
X80539997Y-28327750D02*
X90702936Y-36888902D01*
X93980000Y-27178000D02*
X80539997Y-28327750D01*
M02*
