%TF.GenerationSoftware,KiCad,Pcbnew,(5.1.10)-1*%
%TF.CreationDate,2021-10-20T09:03:38+02:00*%
%TF.ProjectId,Drvce,44727663-652e-46b6-9963-61645f706362,rev?*%
%TF.SameCoordinates,Original*%
%TF.FileFunction,Legend,Bot*%
%TF.FilePolarity,Positive*%
%FSLAX46Y46*%
G04 Gerber Fmt 4.6, Leading zero omitted, Abs format (unit mm)*
G04 Created by KiCad (PCBNEW (5.1.10)-1) date 2021-10-20 09:03:38*
%MOMM*%
%LPD*%
G01*
G04 APERTURE LIST*
%ADD10C,0.250000*%
%ADD11C,0.150000*%
%ADD12C,0.010000*%
%ADD13C,0.100000*%
%ADD14C,0.120000*%
G04 APERTURE END LIST*
D10*
X138500000Y-125750000D02*
X138500000Y-124250000D01*
X137750000Y-125000000D02*
X139250000Y-125000000D01*
X143250000Y-164750000D02*
X144750000Y-164750000D01*
D11*
X103369047Y-154952380D02*
X103369047Y-155666666D01*
X103416666Y-155809523D01*
X103511904Y-155904761D01*
X103654761Y-155952380D01*
X103750000Y-155952380D01*
X102416666Y-155952380D02*
X102892857Y-155952380D01*
X102892857Y-154952380D01*
X101511904Y-155857142D02*
X101559523Y-155904761D01*
X101702380Y-155952380D01*
X101797619Y-155952380D01*
X101940476Y-155904761D01*
X102035714Y-155809523D01*
X102083333Y-155714285D01*
X102130952Y-155523809D01*
X102130952Y-155380952D01*
X102083333Y-155190476D01*
X102035714Y-155095238D01*
X101940476Y-155000000D01*
X101797619Y-154952380D01*
X101702380Y-154952380D01*
X101559523Y-155000000D01*
X101511904Y-155047619D01*
X100797619Y-154952380D02*
X100797619Y-155666666D01*
X100845238Y-155809523D01*
X100940476Y-155904761D01*
X101083333Y-155952380D01*
X101178571Y-155952380D01*
X99845238Y-155952380D02*
X100321428Y-155952380D01*
X100321428Y-154952380D01*
X98940476Y-155857142D02*
X98988095Y-155904761D01*
X99130952Y-155952380D01*
X99226190Y-155952380D01*
X99369047Y-155904761D01*
X99464285Y-155809523D01*
X99511904Y-155714285D01*
X99559523Y-155523809D01*
X99559523Y-155380952D01*
X99511904Y-155190476D01*
X99464285Y-155095238D01*
X99369047Y-155000000D01*
X99226190Y-154952380D01*
X99130952Y-154952380D01*
X98988095Y-155000000D01*
X98940476Y-155047619D01*
X98226190Y-154952380D02*
X98226190Y-155666666D01*
X98273809Y-155809523D01*
X98369047Y-155904761D01*
X98511904Y-155952380D01*
X98607142Y-155952380D01*
X97273809Y-155952380D02*
X97750000Y-155952380D01*
X97750000Y-154952380D01*
X96369047Y-155857142D02*
X96416666Y-155904761D01*
X96559523Y-155952380D01*
X96654761Y-155952380D01*
X96797619Y-155904761D01*
X96892857Y-155809523D01*
X96940476Y-155714285D01*
X96988095Y-155523809D01*
X96988095Y-155380952D01*
X96940476Y-155190476D01*
X96892857Y-155095238D01*
X96797619Y-155000000D01*
X96654761Y-154952380D01*
X96559523Y-154952380D01*
X96416666Y-155000000D01*
X96369047Y-155047619D01*
X95654761Y-154952380D02*
X95654761Y-155666666D01*
X95702380Y-155809523D01*
X95797619Y-155904761D01*
X95940476Y-155952380D01*
X96035714Y-155952380D01*
X94702380Y-155952380D02*
X95178571Y-155952380D01*
X95178571Y-154952380D01*
X93797619Y-155857142D02*
X93845238Y-155904761D01*
X93988095Y-155952380D01*
X94083333Y-155952380D01*
X94226190Y-155904761D01*
X94321428Y-155809523D01*
X94369047Y-155714285D01*
X94416666Y-155523809D01*
X94416666Y-155380952D01*
X94369047Y-155190476D01*
X94321428Y-155095238D01*
X94226190Y-155000000D01*
X94083333Y-154952380D01*
X93988095Y-154952380D01*
X93845238Y-155000000D01*
X93797619Y-155047619D01*
D12*
%TO.C,G\u002A\u002A\u002A*%
G36*
X155522226Y-159861882D02*
G01*
X155428672Y-159862489D01*
X155356206Y-159863604D01*
X155302675Y-159865315D01*
X155265924Y-159867708D01*
X155243798Y-159870867D01*
X155234143Y-159874881D01*
X155233497Y-159877894D01*
X155238015Y-159891888D01*
X155249337Y-159927758D01*
X155266721Y-159983127D01*
X155289428Y-160055619D01*
X155316715Y-160142856D01*
X155347842Y-160242462D01*
X155382068Y-160352060D01*
X155418651Y-160469272D01*
X155456851Y-160591721D01*
X155495926Y-160717031D01*
X155535135Y-160842825D01*
X155573738Y-160966725D01*
X155610992Y-161086355D01*
X155646157Y-161199338D01*
X155678493Y-161303296D01*
X155707257Y-161395853D01*
X155731708Y-161474631D01*
X155751106Y-161537255D01*
X155764710Y-161581346D01*
X155770267Y-161599513D01*
X155773555Y-161609978D01*
X155776027Y-161618697D01*
X155776584Y-161624594D01*
X155774129Y-161626590D01*
X155767564Y-161623609D01*
X155755791Y-161614573D01*
X155737711Y-161598403D01*
X155712228Y-161574024D01*
X155678242Y-161540357D01*
X155634657Y-161496324D01*
X155580373Y-161440849D01*
X155514294Y-161372854D01*
X155435320Y-161291261D01*
X155342355Y-161194992D01*
X155234300Y-161082971D01*
X155110057Y-160954120D01*
X155065036Y-160907431D01*
X154842650Y-160676812D01*
X154297004Y-160674500D01*
X154430108Y-160811025D01*
X154491724Y-160874209D01*
X154562556Y-160946825D01*
X154634078Y-161020129D01*
X154697759Y-161085379D01*
X154700853Y-161088548D01*
X154838493Y-161229546D01*
X154696076Y-161238557D01*
X154597975Y-161247690D01*
X154521371Y-161262014D01*
X154462664Y-161282807D01*
X154418254Y-161311347D01*
X154384541Y-161348913D01*
X154384314Y-161349240D01*
X154366562Y-161378352D01*
X154354260Y-161408784D01*
X154347775Y-161443295D01*
X154347476Y-161484644D01*
X154353728Y-161535589D01*
X154366901Y-161598887D01*
X154387361Y-161677298D01*
X154415476Y-161773579D01*
X154451614Y-161890490D01*
X154459972Y-161917017D01*
X154488131Y-162006581D01*
X154513613Y-162088380D01*
X154535452Y-162159253D01*
X154552681Y-162216037D01*
X154564335Y-162255572D01*
X154569448Y-162274695D01*
X154569600Y-162275792D01*
X154557266Y-162278662D01*
X154521725Y-162281218D01*
X154465169Y-162283405D01*
X154389789Y-162285169D01*
X154297777Y-162286457D01*
X154191325Y-162287213D01*
X154099700Y-162287400D01*
X153961704Y-162287745D01*
X153847090Y-162288773D01*
X153756247Y-162290474D01*
X153689563Y-162292837D01*
X153647424Y-162295851D01*
X153630219Y-162299506D01*
X153629800Y-162300238D01*
X153634844Y-162318321D01*
X153647744Y-162350535D01*
X153657970Y-162373263D01*
X153708563Y-162452402D01*
X153780499Y-162522019D01*
X153870817Y-162579964D01*
X153976555Y-162624091D01*
X154022003Y-162637263D01*
X154043930Y-162641980D01*
X154070953Y-162645832D01*
X154105469Y-162648877D01*
X154149875Y-162651172D01*
X154206568Y-162652775D01*
X154277943Y-162653745D01*
X154366399Y-162654139D01*
X154474331Y-162654016D01*
X154604136Y-162653433D01*
X154673429Y-162653016D01*
X154809383Y-162652120D01*
X154922313Y-162651242D01*
X155014594Y-162650262D01*
X155088601Y-162649062D01*
X155146711Y-162647523D01*
X155191299Y-162645525D01*
X155224740Y-162642950D01*
X155249409Y-162639679D01*
X155267682Y-162635593D01*
X155281935Y-162630573D01*
X155294542Y-162624499D01*
X155299850Y-162621642D01*
X155340166Y-162592519D01*
X155375917Y-162555358D01*
X155382048Y-162546888D01*
X155399392Y-162516541D01*
X155408734Y-162485292D01*
X155412115Y-162443808D01*
X155412124Y-162409495D01*
X155410640Y-162378662D01*
X155406524Y-162345169D01*
X155398933Y-162305691D01*
X155387026Y-162256902D01*
X155369962Y-162195475D01*
X155346900Y-162118084D01*
X155316998Y-162021403D01*
X155301352Y-161971558D01*
X155273293Y-161882238D01*
X155247894Y-161800981D01*
X155226114Y-161730886D01*
X155208911Y-161675052D01*
X155197244Y-161636579D01*
X155192072Y-161618567D01*
X155191901Y-161617670D01*
X155200644Y-161624031D01*
X155225054Y-161645421D01*
X155262403Y-161679353D01*
X155309962Y-161723342D01*
X155365002Y-161774902D01*
X155379225Y-161788318D01*
X155440109Y-161845460D01*
X155515033Y-161915198D01*
X155599198Y-161993097D01*
X155687799Y-162074722D01*
X155776035Y-162155637D01*
X155852300Y-162225221D01*
X155956833Y-162320272D01*
X156045153Y-162399787D01*
X156119962Y-162465179D01*
X156183963Y-162517865D01*
X156239857Y-162559260D01*
X156290348Y-162590778D01*
X156338137Y-162613834D01*
X156385926Y-162629845D01*
X156436419Y-162640224D01*
X156492317Y-162646387D01*
X156556323Y-162649749D01*
X156631138Y-162651726D01*
X156668275Y-162652523D01*
X156754442Y-162653824D01*
X156825151Y-162653709D01*
X156877835Y-162652243D01*
X156909927Y-162649493D01*
X156919100Y-162646136D01*
X156915223Y-162628588D01*
X156905152Y-162595017D01*
X156893700Y-162560449D01*
X156880260Y-162519636D01*
X156871053Y-162488332D01*
X156868300Y-162475155D01*
X156877016Y-162476479D01*
X156899764Y-162491242D01*
X156928625Y-162513820D01*
X156992368Y-162561558D01*
X157056841Y-162597135D01*
X157133127Y-162626968D01*
X157156689Y-162633259D01*
X157188539Y-162638384D01*
X157231596Y-162642517D01*
X157288778Y-162645834D01*
X157363003Y-162648509D01*
X157457188Y-162650717D01*
X157556841Y-162652384D01*
X157921532Y-162657730D01*
X157979864Y-162837188D01*
X158034582Y-162989088D01*
X158093623Y-163118811D01*
X158159275Y-163229496D01*
X158233826Y-163324286D01*
X158319565Y-163406320D01*
X158418780Y-163478739D01*
X158469990Y-163509929D01*
X158558818Y-163552916D01*
X158659579Y-163587761D01*
X158766752Y-163613667D01*
X158874817Y-163629835D01*
X158978253Y-163635468D01*
X159071540Y-163629769D01*
X159149159Y-163611940D01*
X159156672Y-163609138D01*
X159248079Y-163564121D01*
X159322856Y-163505474D01*
X159385328Y-163429131D01*
X159429040Y-163353210D01*
X159463734Y-163272158D01*
X159485257Y-163189983D01*
X159495514Y-163097812D01*
X159496562Y-163055750D01*
X159033292Y-163055750D01*
X159032920Y-163114904D01*
X159030595Y-163155552D01*
X159024922Y-163184578D01*
X159014506Y-163208869D01*
X158997949Y-163235311D01*
X158996451Y-163237529D01*
X158971788Y-163269784D01*
X158956053Y-163279925D01*
X158950208Y-163275629D01*
X158943882Y-163259240D01*
X158931059Y-163222222D01*
X158912929Y-163168153D01*
X158890684Y-163100611D01*
X158865517Y-163023176D01*
X158848483Y-162970252D01*
X158822848Y-162889189D01*
X158800497Y-162816358D01*
X158782423Y-162755167D01*
X158769613Y-162709024D01*
X158763059Y-162681336D01*
X158762656Y-162674810D01*
X158779907Y-162673745D01*
X158810751Y-162684908D01*
X158848730Y-162704939D01*
X158887386Y-162730477D01*
X158917273Y-162755256D01*
X158952799Y-162795355D01*
X158986959Y-162843653D01*
X158999518Y-162865250D01*
X159015364Y-162898125D01*
X159025322Y-162928922D01*
X159030735Y-162965203D01*
X159032943Y-163014531D01*
X159033292Y-163055750D01*
X159496562Y-163055750D01*
X159497050Y-163036193D01*
X159489859Y-162909329D01*
X159466625Y-162798646D01*
X159425367Y-162699171D01*
X159364103Y-162605932D01*
X159294282Y-162527323D01*
X159238669Y-162474105D01*
X159188822Y-162434552D01*
X159135424Y-162401891D01*
X159090800Y-162379436D01*
X158975887Y-162333335D01*
X158859371Y-162302215D01*
X158749180Y-162288058D01*
X158722423Y-162287400D01*
X158649262Y-162287400D01*
X158566221Y-162030225D01*
X158538575Y-161944589D01*
X158505365Y-161841691D01*
X158468820Y-161728439D01*
X158431172Y-161611745D01*
X158394648Y-161498521D01*
X158371573Y-161426975D01*
X158259967Y-161080899D01*
X157849884Y-161080900D01*
X157750722Y-161081211D01*
X157660196Y-161082094D01*
X157581299Y-161083472D01*
X157517023Y-161085269D01*
X157470359Y-161087409D01*
X157444301Y-161089816D01*
X157439800Y-161091362D01*
X157443491Y-161105217D01*
X157454073Y-161140915D01*
X157470812Y-161196071D01*
X157492974Y-161268301D01*
X157519823Y-161355220D01*
X157550626Y-161454444D01*
X157584647Y-161563587D01*
X157621152Y-161680264D01*
X157623950Y-161689191D01*
X157660580Y-161806134D01*
X157694786Y-161915547D01*
X157725834Y-162015071D01*
X157752992Y-162102347D01*
X157775529Y-162175018D01*
X157792709Y-162230724D01*
X157803803Y-162267107D01*
X157808075Y-162281808D01*
X157808100Y-162281979D01*
X157795852Y-162283170D01*
X157760915Y-162284271D01*
X157705999Y-162285253D01*
X157633816Y-162286084D01*
X157547076Y-162286737D01*
X157448489Y-162287181D01*
X157340767Y-162287388D01*
X157308453Y-162287400D01*
X156808806Y-162287400D01*
X156429785Y-161074550D01*
X156050765Y-159861700D01*
X155639024Y-159861700D01*
X155522226Y-159861882D01*
G37*
X155522226Y-159861882D02*
X155428672Y-159862489D01*
X155356206Y-159863604D01*
X155302675Y-159865315D01*
X155265924Y-159867708D01*
X155243798Y-159870867D01*
X155234143Y-159874881D01*
X155233497Y-159877894D01*
X155238015Y-159891888D01*
X155249337Y-159927758D01*
X155266721Y-159983127D01*
X155289428Y-160055619D01*
X155316715Y-160142856D01*
X155347842Y-160242462D01*
X155382068Y-160352060D01*
X155418651Y-160469272D01*
X155456851Y-160591721D01*
X155495926Y-160717031D01*
X155535135Y-160842825D01*
X155573738Y-160966725D01*
X155610992Y-161086355D01*
X155646157Y-161199338D01*
X155678493Y-161303296D01*
X155707257Y-161395853D01*
X155731708Y-161474631D01*
X155751106Y-161537255D01*
X155764710Y-161581346D01*
X155770267Y-161599513D01*
X155773555Y-161609978D01*
X155776027Y-161618697D01*
X155776584Y-161624594D01*
X155774129Y-161626590D01*
X155767564Y-161623609D01*
X155755791Y-161614573D01*
X155737711Y-161598403D01*
X155712228Y-161574024D01*
X155678242Y-161540357D01*
X155634657Y-161496324D01*
X155580373Y-161440849D01*
X155514294Y-161372854D01*
X155435320Y-161291261D01*
X155342355Y-161194992D01*
X155234300Y-161082971D01*
X155110057Y-160954120D01*
X155065036Y-160907431D01*
X154842650Y-160676812D01*
X154297004Y-160674500D01*
X154430108Y-160811025D01*
X154491724Y-160874209D01*
X154562556Y-160946825D01*
X154634078Y-161020129D01*
X154697759Y-161085379D01*
X154700853Y-161088548D01*
X154838493Y-161229546D01*
X154696076Y-161238557D01*
X154597975Y-161247690D01*
X154521371Y-161262014D01*
X154462664Y-161282807D01*
X154418254Y-161311347D01*
X154384541Y-161348913D01*
X154384314Y-161349240D01*
X154366562Y-161378352D01*
X154354260Y-161408784D01*
X154347775Y-161443295D01*
X154347476Y-161484644D01*
X154353728Y-161535589D01*
X154366901Y-161598887D01*
X154387361Y-161677298D01*
X154415476Y-161773579D01*
X154451614Y-161890490D01*
X154459972Y-161917017D01*
X154488131Y-162006581D01*
X154513613Y-162088380D01*
X154535452Y-162159253D01*
X154552681Y-162216037D01*
X154564335Y-162255572D01*
X154569448Y-162274695D01*
X154569600Y-162275792D01*
X154557266Y-162278662D01*
X154521725Y-162281218D01*
X154465169Y-162283405D01*
X154389789Y-162285169D01*
X154297777Y-162286457D01*
X154191325Y-162287213D01*
X154099700Y-162287400D01*
X153961704Y-162287745D01*
X153847090Y-162288773D01*
X153756247Y-162290474D01*
X153689563Y-162292837D01*
X153647424Y-162295851D01*
X153630219Y-162299506D01*
X153629800Y-162300238D01*
X153634844Y-162318321D01*
X153647744Y-162350535D01*
X153657970Y-162373263D01*
X153708563Y-162452402D01*
X153780499Y-162522019D01*
X153870817Y-162579964D01*
X153976555Y-162624091D01*
X154022003Y-162637263D01*
X154043930Y-162641980D01*
X154070953Y-162645832D01*
X154105469Y-162648877D01*
X154149875Y-162651172D01*
X154206568Y-162652775D01*
X154277943Y-162653745D01*
X154366399Y-162654139D01*
X154474331Y-162654016D01*
X154604136Y-162653433D01*
X154673429Y-162653016D01*
X154809383Y-162652120D01*
X154922313Y-162651242D01*
X155014594Y-162650262D01*
X155088601Y-162649062D01*
X155146711Y-162647523D01*
X155191299Y-162645525D01*
X155224740Y-162642950D01*
X155249409Y-162639679D01*
X155267682Y-162635593D01*
X155281935Y-162630573D01*
X155294542Y-162624499D01*
X155299850Y-162621642D01*
X155340166Y-162592519D01*
X155375917Y-162555358D01*
X155382048Y-162546888D01*
X155399392Y-162516541D01*
X155408734Y-162485292D01*
X155412115Y-162443808D01*
X155412124Y-162409495D01*
X155410640Y-162378662D01*
X155406524Y-162345169D01*
X155398933Y-162305691D01*
X155387026Y-162256902D01*
X155369962Y-162195475D01*
X155346900Y-162118084D01*
X155316998Y-162021403D01*
X155301352Y-161971558D01*
X155273293Y-161882238D01*
X155247894Y-161800981D01*
X155226114Y-161730886D01*
X155208911Y-161675052D01*
X155197244Y-161636579D01*
X155192072Y-161618567D01*
X155191901Y-161617670D01*
X155200644Y-161624031D01*
X155225054Y-161645421D01*
X155262403Y-161679353D01*
X155309962Y-161723342D01*
X155365002Y-161774902D01*
X155379225Y-161788318D01*
X155440109Y-161845460D01*
X155515033Y-161915198D01*
X155599198Y-161993097D01*
X155687799Y-162074722D01*
X155776035Y-162155637D01*
X155852300Y-162225221D01*
X155956833Y-162320272D01*
X156045153Y-162399787D01*
X156119962Y-162465179D01*
X156183963Y-162517865D01*
X156239857Y-162559260D01*
X156290348Y-162590778D01*
X156338137Y-162613834D01*
X156385926Y-162629845D01*
X156436419Y-162640224D01*
X156492317Y-162646387D01*
X156556323Y-162649749D01*
X156631138Y-162651726D01*
X156668275Y-162652523D01*
X156754442Y-162653824D01*
X156825151Y-162653709D01*
X156877835Y-162652243D01*
X156909927Y-162649493D01*
X156919100Y-162646136D01*
X156915223Y-162628588D01*
X156905152Y-162595017D01*
X156893700Y-162560449D01*
X156880260Y-162519636D01*
X156871053Y-162488332D01*
X156868300Y-162475155D01*
X156877016Y-162476479D01*
X156899764Y-162491242D01*
X156928625Y-162513820D01*
X156992368Y-162561558D01*
X157056841Y-162597135D01*
X157133127Y-162626968D01*
X157156689Y-162633259D01*
X157188539Y-162638384D01*
X157231596Y-162642517D01*
X157288778Y-162645834D01*
X157363003Y-162648509D01*
X157457188Y-162650717D01*
X157556841Y-162652384D01*
X157921532Y-162657730D01*
X157979864Y-162837188D01*
X158034582Y-162989088D01*
X158093623Y-163118811D01*
X158159275Y-163229496D01*
X158233826Y-163324286D01*
X158319565Y-163406320D01*
X158418780Y-163478739D01*
X158469990Y-163509929D01*
X158558818Y-163552916D01*
X158659579Y-163587761D01*
X158766752Y-163613667D01*
X158874817Y-163629835D01*
X158978253Y-163635468D01*
X159071540Y-163629769D01*
X159149159Y-163611940D01*
X159156672Y-163609138D01*
X159248079Y-163564121D01*
X159322856Y-163505474D01*
X159385328Y-163429131D01*
X159429040Y-163353210D01*
X159463734Y-163272158D01*
X159485257Y-163189983D01*
X159495514Y-163097812D01*
X159496562Y-163055750D01*
X159033292Y-163055750D01*
X159032920Y-163114904D01*
X159030595Y-163155552D01*
X159024922Y-163184578D01*
X159014506Y-163208869D01*
X158997949Y-163235311D01*
X158996451Y-163237529D01*
X158971788Y-163269784D01*
X158956053Y-163279925D01*
X158950208Y-163275629D01*
X158943882Y-163259240D01*
X158931059Y-163222222D01*
X158912929Y-163168153D01*
X158890684Y-163100611D01*
X158865517Y-163023176D01*
X158848483Y-162970252D01*
X158822848Y-162889189D01*
X158800497Y-162816358D01*
X158782423Y-162755167D01*
X158769613Y-162709024D01*
X158763059Y-162681336D01*
X158762656Y-162674810D01*
X158779907Y-162673745D01*
X158810751Y-162684908D01*
X158848730Y-162704939D01*
X158887386Y-162730477D01*
X158917273Y-162755256D01*
X158952799Y-162795355D01*
X158986959Y-162843653D01*
X158999518Y-162865250D01*
X159015364Y-162898125D01*
X159025322Y-162928922D01*
X159030735Y-162965203D01*
X159032943Y-163014531D01*
X159033292Y-163055750D01*
X159496562Y-163055750D01*
X159497050Y-163036193D01*
X159489859Y-162909329D01*
X159466625Y-162798646D01*
X159425367Y-162699171D01*
X159364103Y-162605932D01*
X159294282Y-162527323D01*
X159238669Y-162474105D01*
X159188822Y-162434552D01*
X159135424Y-162401891D01*
X159090800Y-162379436D01*
X158975887Y-162333335D01*
X158859371Y-162302215D01*
X158749180Y-162288058D01*
X158722423Y-162287400D01*
X158649262Y-162287400D01*
X158566221Y-162030225D01*
X158538575Y-161944589D01*
X158505365Y-161841691D01*
X158468820Y-161728439D01*
X158431172Y-161611745D01*
X158394648Y-161498521D01*
X158371573Y-161426975D01*
X158259967Y-161080899D01*
X157849884Y-161080900D01*
X157750722Y-161081211D01*
X157660196Y-161082094D01*
X157581299Y-161083472D01*
X157517023Y-161085269D01*
X157470359Y-161087409D01*
X157444301Y-161089816D01*
X157439800Y-161091362D01*
X157443491Y-161105217D01*
X157454073Y-161140915D01*
X157470812Y-161196071D01*
X157492974Y-161268301D01*
X157519823Y-161355220D01*
X157550626Y-161454444D01*
X157584647Y-161563587D01*
X157621152Y-161680264D01*
X157623950Y-161689191D01*
X157660580Y-161806134D01*
X157694786Y-161915547D01*
X157725834Y-162015071D01*
X157752992Y-162102347D01*
X157775529Y-162175018D01*
X157792709Y-162230724D01*
X157803803Y-162267107D01*
X157808075Y-162281808D01*
X157808100Y-162281979D01*
X157795852Y-162283170D01*
X157760915Y-162284271D01*
X157705999Y-162285253D01*
X157633816Y-162286084D01*
X157547076Y-162286737D01*
X157448489Y-162287181D01*
X157340767Y-162287388D01*
X157308453Y-162287400D01*
X156808806Y-162287400D01*
X156429785Y-161074550D01*
X156050765Y-159861700D01*
X155639024Y-159861700D01*
X155522226Y-159861882D01*
G36*
X157645153Y-159596974D02*
G01*
X157569815Y-159603335D01*
X157520679Y-159612654D01*
X157428563Y-159646881D01*
X157337302Y-159698235D01*
X157253589Y-159761864D01*
X157184118Y-159832918D01*
X157149067Y-159881943D01*
X157109122Y-159970807D01*
X157087725Y-160070568D01*
X157084812Y-160174844D01*
X157100318Y-160277248D01*
X157134178Y-160371397D01*
X157154395Y-160407800D01*
X157222111Y-160493832D01*
X157308026Y-160568931D01*
X157405669Y-160628216D01*
X157491276Y-160662001D01*
X157548038Y-160674259D01*
X157617757Y-160682485D01*
X157692635Y-160686460D01*
X157764873Y-160685966D01*
X157826672Y-160680783D01*
X157865250Y-160672500D01*
X157980459Y-160626752D01*
X158074874Y-160572454D01*
X158152350Y-160507194D01*
X158182232Y-160474187D01*
X158239831Y-160395542D01*
X158277332Y-160318639D01*
X158297250Y-160235956D01*
X158302104Y-160139972D01*
X158301465Y-160117897D01*
X158297556Y-160056654D01*
X158289935Y-160010221D01*
X158276132Y-159968038D01*
X158256335Y-159924879D01*
X158195746Y-159829884D01*
X158115483Y-159746220D01*
X158020078Y-159677521D01*
X157914063Y-159627421D01*
X157866922Y-159612654D01*
X157804002Y-159601633D01*
X157726647Y-159596406D01*
X157645153Y-159596974D01*
G37*
X157645153Y-159596974D02*
X157569815Y-159603335D01*
X157520679Y-159612654D01*
X157428563Y-159646881D01*
X157337302Y-159698235D01*
X157253589Y-159761864D01*
X157184118Y-159832918D01*
X157149067Y-159881943D01*
X157109122Y-159970807D01*
X157087725Y-160070568D01*
X157084812Y-160174844D01*
X157100318Y-160277248D01*
X157134178Y-160371397D01*
X157154395Y-160407800D01*
X157222111Y-160493832D01*
X157308026Y-160568931D01*
X157405669Y-160628216D01*
X157491276Y-160662001D01*
X157548038Y-160674259D01*
X157617757Y-160682485D01*
X157692635Y-160686460D01*
X157764873Y-160685966D01*
X157826672Y-160680783D01*
X157865250Y-160672500D01*
X157980459Y-160626752D01*
X158074874Y-160572454D01*
X158152350Y-160507194D01*
X158182232Y-160474187D01*
X158239831Y-160395542D01*
X158277332Y-160318639D01*
X158297250Y-160235956D01*
X158302104Y-160139972D01*
X158301465Y-160117897D01*
X158297556Y-160056654D01*
X158289935Y-160010221D01*
X158276132Y-159968038D01*
X158256335Y-159924879D01*
X158195746Y-159829884D01*
X158115483Y-159746220D01*
X158020078Y-159677521D01*
X157914063Y-159627421D01*
X157866922Y-159612654D01*
X157804002Y-159601633D01*
X157726647Y-159596406D01*
X157645153Y-159596974D01*
D10*
%TO.C,REF\u002A\u002A*%
X124000000Y-137250000D02*
X124000000Y-139250000D01*
X123000000Y-134250000D02*
X125000000Y-134250000D01*
X124000000Y-133250000D02*
X124000000Y-135250000D01*
D13*
G36*
X128500000Y-140250000D02*
G01*
X128500000Y-132250000D01*
X125500000Y-132250000D01*
X125500000Y-140250000D01*
X128500000Y-140250000D01*
G37*
X128500000Y-140250000D02*
X128500000Y-132250000D01*
X125500000Y-132250000D01*
X125500000Y-140250000D01*
X128500000Y-140250000D01*
D14*
X70000000Y-119750000D02*
X70000000Y-168750000D01*
X70000000Y-119750000D02*
X129000000Y-119750000D01*
X70000000Y-168750000D02*
X129000000Y-168750000D01*
X129000000Y-119750000D02*
X129000000Y-168750000D01*
%TO.C,R4*%
X98998821Y-94490000D02*
X99324379Y-94490000D01*
X98998821Y-95510000D02*
X99324379Y-95510000D01*
%TO.C,R1*%
X91404221Y-108745000D02*
X91729779Y-108745000D01*
X91404221Y-109765000D02*
X91729779Y-109765000D01*
%TO.C,C16*%
X98490000Y-36412779D02*
X98490000Y-36087221D01*
X99510000Y-36412779D02*
X99510000Y-36087221D01*
D11*
%TO.C,U1*%
X96310000Y-112440000D02*
X94560000Y-112440000D01*
X96310000Y-107135000D02*
X101810000Y-107135000D01*
X96310000Y-112645000D02*
X101810000Y-112645000D01*
X96310000Y-107135000D02*
X96310000Y-107435000D01*
X101810000Y-107135000D02*
X101810000Y-107435000D01*
X101810000Y-112645000D02*
X101810000Y-112345000D01*
X96310000Y-112645000D02*
X96310000Y-112440000D01*
D14*
%TO.C,R2*%
X96327179Y-114845000D02*
X96001621Y-114845000D01*
X96327179Y-113825000D02*
X96001621Y-113825000D01*
%TO.C,C1*%
X103337221Y-113825000D02*
X103662779Y-113825000D01*
X103337221Y-114845000D02*
X103662779Y-114845000D01*
%TO.C,C2*%
X76510000Y-163984721D02*
X76510000Y-164310279D01*
X75490000Y-163984721D02*
X75490000Y-164310279D01*
%TO.C,C3*%
X54760000Y-162799721D02*
X54760000Y-163125279D01*
X53740000Y-162799721D02*
X53740000Y-163125279D01*
%TO.C,C4*%
X70240000Y-135662779D02*
X70240000Y-135337221D01*
X71260000Y-135662779D02*
X71260000Y-135337221D01*
%TO.C,C5*%
X91740000Y-132412779D02*
X91740000Y-132087221D01*
X92760000Y-132412779D02*
X92760000Y-132087221D01*
%TO.C,C6*%
X98490000Y-163162779D02*
X98490000Y-162837221D01*
X99510000Y-163162779D02*
X99510000Y-162837221D01*
%TO.C,C7*%
X119740000Y-157782479D02*
X119740000Y-157456921D01*
X120760000Y-157782479D02*
X120760000Y-157456921D01*
%TO.C,C8*%
X137240000Y-149971979D02*
X137240000Y-149646421D01*
X138260000Y-149971979D02*
X138260000Y-149646421D01*
%TO.C,C9*%
X113490000Y-125200279D02*
X113490000Y-124874721D01*
X114510000Y-125200279D02*
X114510000Y-124874721D01*
%TO.C,C10*%
X129740000Y-116799579D02*
X129740000Y-116474021D01*
X130760000Y-116799579D02*
X130760000Y-116474021D01*
%TO.C,C11*%
X115260000Y-92549721D02*
X115260000Y-92875279D01*
X114240000Y-92549721D02*
X114240000Y-92875279D01*
%TO.C,C12*%
X97260000Y-99151221D02*
X97260000Y-99476779D01*
X96240000Y-99151221D02*
X96240000Y-99476779D01*
%TO.C,C13*%
X77510000Y-103299721D02*
X77510000Y-103625279D01*
X76490000Y-103299721D02*
X76490000Y-103625279D01*
%TO.C,C14*%
X86490000Y-75791279D02*
X86490000Y-75465721D01*
X87510000Y-75791279D02*
X87510000Y-75465721D01*
%TO.C,C15*%
X104240000Y-67167979D02*
X104240000Y-66842421D01*
X105260000Y-67167979D02*
X105260000Y-66842421D01*
%TO.C,SW1*%
X152019169Y-151180046D02*
X151413994Y-151687848D01*
X146978760Y-146402142D02*
X147583935Y-145894340D01*
X147363570Y-148494251D02*
X148456309Y-149796527D01*
X148743312Y-145704751D02*
X152407202Y-150071204D01*
X151499175Y-146982177D02*
X150510978Y-147811373D01*
X150952978Y-146004543D02*
X151531487Y-146693983D01*
X149675354Y-146815515D02*
X150663552Y-145986319D01*
X151499175Y-146982177D02*
X151531487Y-146693983D01*
X150663552Y-145986319D02*
X150952978Y-146004543D01*
X149291933Y-150792384D02*
X149420490Y-150945593D01*
%TD*%
M02*
