M48
; DRILL file {KiCad (5.1.10)-1} date 10/20/21 09:03:39
; FORMAT={-:-/ absolute / inch / decimal}
; #@! TF.CreationDate,2021-10-20T09:03:39+02:00
; #@! TF.GenerationSoftware,Kicad,Pcbnew,(5.1.10)-1
; #@! TF.FileFunction,Plated,1,2,PTH
FMAT,2
INCH
T1C0.0157
T2C0.0315
T3C0.0454
%
G90
G05
T1
X2.0177Y-6.1614
X2.0374Y-6.4567
X2.0965Y-6.3878
X2.1358Y-6.4961
X2.3228Y-6.2598
X2.4409Y-5.2657
X2.687Y-5.315
X2.7854Y-5.2461
X2.7953Y-4.4587
X2.8248Y-5.3642
X2.9331Y-4.1142
X2.9429Y-6.5551
X2.9528Y-6.437
X2.9921Y-4.0453
X2.9921Y-6.5551
X3.0315Y-4.1634
X3.0315Y-6.7224
X3.0512Y-6.4272
X3.1004Y-6.1713
X3.3268Y-2.9528
X3.4252Y-2.8839
X3.4646Y-3.0118
X3.4843Y-3.2677
X3.6122Y-7.3327
X3.6122Y-7.4311
X3.6122Y-7.5295
X3.6319Y-4.8031
X3.6319Y-5.1181
X3.6713Y-5.2362
X3.6811Y-4.252
X3.7106Y-7.2343
X3.7106Y-7.3327
X3.7106Y-7.4311
X3.7106Y-7.5295
X3.7106Y-7.628
X3.7205Y-5.1673
X3.7697Y-2.4311
X3.7697Y-3.878
X3.7992Y-5.4823
X3.7992Y-6.3976
X3.8091Y-4.0059
X3.8091Y-7.2343
X3.8091Y-7.3327
X3.8091Y-7.4311
X3.8091Y-7.5295
X3.8091Y-7.628
X3.8976Y-1.3386
X3.8976Y-6.3386
X3.9075Y-7.2343
X3.9075Y-7.3327
X3.9075Y-7.4311
X3.9075Y-7.5295
X3.9075Y-7.628
X3.9286Y-6.4483
X3.937Y-1.4567
X4.0059Y-7.2343
X4.0059Y-7.3327
X4.0059Y-7.4311
X4.0059Y-7.5295
X4.0059Y-7.628
X4.1043Y-7.2343
X4.1043Y-7.3327
X4.1043Y-7.4311
X4.1043Y-7.5295
X4.1043Y-7.628
X4.124Y-2.5492
X4.1535Y-4.0059
X4.1634Y-2.6673
X4.1634Y-3.5433
X4.1732Y-4.498
X4.1732Y-6.0138
X4.2028Y-7.3327
X4.2028Y-7.4311
X4.2028Y-7.5295
X4.2815Y-2.9331
X4.3701Y-4.4882
X4.3996Y-4.8917
X4.4783Y-3.622
X4.4882Y-4.8327
X4.498Y-6.752
X4.5177Y-3.7402
X4.5276Y-4.9508
X4.6063Y-3.6713
X4.6949Y-5.1969
X4.7343Y-6.1122
X4.77Y-6.2365
X5.128Y-4.498
X5.1673Y-4.626
X5.2264Y-4.5571
X5.2461Y-5.5512
X5.4232Y-5.8071
X5.4626Y-5.935
X5.5217Y-5.8661
X5.5413Y-6.2205
T2
X3.8425Y-3.6122
X3.9764Y-3.6122
T3
X3.8878Y-2.3917
X3.9075Y-7.7165
T0
M30
