%TF.GenerationSoftware,KiCad,Pcbnew,(5.1.10)-1*%
%TF.CreationDate,2021-10-20T09:03:38+02:00*%
%TF.ProjectId,Drvce,44727663-652e-46b6-9963-61645f706362,rev?*%
%TF.SameCoordinates,Original*%
%TF.FileFunction,Copper,L2,Bot*%
%TF.FilePolarity,Positive*%
%FSLAX46Y46*%
G04 Gerber Fmt 4.6, Leading zero omitted, Abs format (unit mm)*
G04 Created by KiCad (PCBNEW (5.1.10)-1) date 2021-10-20 09:03:38*
%MOMM*%
%LPD*%
G01*
G04 APERTURE LIST*
%TA.AperFunction,ComponentPad*%
%ADD10C,1.152000*%
%TD*%
%TA.AperFunction,ComponentPad*%
%ADD11C,1.500000*%
%TD*%
%TA.AperFunction,SMDPad,CuDef*%
%ADD12R,1.700000X0.650000*%
%TD*%
%TA.AperFunction,SMDPad,CuDef*%
%ADD13C,0.150000*%
%TD*%
%TA.AperFunction,ViaPad*%
%ADD14C,0.800000*%
%TD*%
%TA.AperFunction,Conductor*%
%ADD15C,0.762000*%
%TD*%
%TA.AperFunction,Conductor*%
%ADD16C,1.778000*%
%TD*%
%TA.AperFunction,Conductor*%
%ADD17C,1.500000*%
%TD*%
%TA.AperFunction,Conductor*%
%ADD18C,0.635000*%
%TD*%
%TA.AperFunction,Conductor*%
%ADD19C,0.254000*%
%TD*%
%TA.AperFunction,Conductor*%
%ADD20C,0.150000*%
%TD*%
G04 APERTURE END LIST*
D10*
%TO.P,REF\u002A\u002A,1*%
%TO.N,N/C*%
X98750000Y-60750000D03*
%TD*%
%TO.P,REF\u002A\u002A,1*%
%TO.N,N/C*%
X99250000Y-196000000D03*
%TD*%
D11*
%TO.P,R3,2*%
%TO.N,+5V*%
X101000000Y-91750000D03*
%TO.P,R3,1*%
%TO.N,PB3_AI*%
X97600000Y-91750000D03*
%TD*%
%TO.P,R4,2*%
%TO.N,GND*%
%TA.AperFunction,SMDPad,CuDef*%
G36*
G01*
X99511600Y-95256250D02*
X99511600Y-94743750D01*
G75*
G02*
X99730350Y-94525000I218750J0D01*
G01*
X100167850Y-94525000D01*
G75*
G02*
X100386600Y-94743750I0J-218750D01*
G01*
X100386600Y-95256250D01*
G75*
G02*
X100167850Y-95475000I-218750J0D01*
G01*
X99730350Y-95475000D01*
G75*
G02*
X99511600Y-95256250I0J218750D01*
G01*
G37*
%TD.AperFunction*%
%TO.P,R4,1*%
%TO.N,PB3_AI*%
%TA.AperFunction,SMDPad,CuDef*%
G36*
G01*
X97936600Y-95256250D02*
X97936600Y-94743750D01*
G75*
G02*
X98155350Y-94525000I218750J0D01*
G01*
X98592850Y-94525000D01*
G75*
G02*
X98811600Y-94743750I0J-218750D01*
G01*
X98811600Y-95256250D01*
G75*
G02*
X98592850Y-95475000I-218750J0D01*
G01*
X98155350Y-95475000D01*
G75*
G02*
X97936600Y-95256250I0J218750D01*
G01*
G37*
%TD.AperFunction*%
%TD*%
%TO.P,R1,2*%
%TO.N,PB4*%
%TA.AperFunction,SMDPad,CuDef*%
G36*
G01*
X91917000Y-109511250D02*
X91917000Y-108998750D01*
G75*
G02*
X92135750Y-108780000I218750J0D01*
G01*
X92573250Y-108780000D01*
G75*
G02*
X92792000Y-108998750I0J-218750D01*
G01*
X92792000Y-109511250D01*
G75*
G02*
X92573250Y-109730000I-218750J0D01*
G01*
X92135750Y-109730000D01*
G75*
G02*
X91917000Y-109511250I0J218750D01*
G01*
G37*
%TD.AperFunction*%
%TO.P,R1,1*%
%TO.N,Net-(D1-Pad4)*%
%TA.AperFunction,SMDPad,CuDef*%
G36*
G01*
X90342000Y-109511250D02*
X90342000Y-108998750D01*
G75*
G02*
X90560750Y-108780000I218750J0D01*
G01*
X90998250Y-108780000D01*
G75*
G02*
X91217000Y-108998750I0J-218750D01*
G01*
X91217000Y-109511250D01*
G75*
G02*
X90998250Y-109730000I-218750J0D01*
G01*
X90560750Y-109730000D01*
G75*
G02*
X90342000Y-109511250I0J218750D01*
G01*
G37*
%TD.AperFunction*%
%TD*%
%TO.P,C16,2*%
%TO.N,GND*%
%TA.AperFunction,SMDPad,CuDef*%
G36*
G01*
X99256250Y-35900000D02*
X98743750Y-35900000D01*
G75*
G02*
X98525000Y-35681250I0J218750D01*
G01*
X98525000Y-35243750D01*
G75*
G02*
X98743750Y-35025000I218750J0D01*
G01*
X99256250Y-35025000D01*
G75*
G02*
X99475000Y-35243750I0J-218750D01*
G01*
X99475000Y-35681250D01*
G75*
G02*
X99256250Y-35900000I-218750J0D01*
G01*
G37*
%TD.AperFunction*%
%TO.P,C16,1*%
%TO.N,+5V*%
%TA.AperFunction,SMDPad,CuDef*%
G36*
G01*
X99256250Y-37475000D02*
X98743750Y-37475000D01*
G75*
G02*
X98525000Y-37256250I0J218750D01*
G01*
X98525000Y-36818750D01*
G75*
G02*
X98743750Y-36600000I218750J0D01*
G01*
X99256250Y-36600000D01*
G75*
G02*
X99475000Y-36818750I0J-218750D01*
G01*
X99475000Y-37256250D01*
G75*
G02*
X99256250Y-37475000I-218750J0D01*
G01*
G37*
%TD.AperFunction*%
%TD*%
D12*
%TO.P,U1,8*%
%TO.N,+5V*%
X102710000Y-111795000D03*
%TO.P,U1,7*%
%TO.N,Net-(U1-Pad7)*%
X102710000Y-110525000D03*
%TO.P,U1,6*%
%TO.N,Net-(U1-Pad6)*%
X102710000Y-109255000D03*
%TO.P,U1,5*%
%TO.N,Net-(U1-Pad5)*%
X102710000Y-107985000D03*
%TO.P,U1,4*%
%TO.N,GND*%
X95410000Y-107985000D03*
%TO.P,U1,3*%
%TO.N,PB4*%
X95410000Y-109255000D03*
%TO.P,U1,2*%
%TO.N,PB3_AI*%
X95410000Y-110525000D03*
%TO.P,U1,1*%
%TO.N,PB5_RESET*%
X95410000Y-111795000D03*
%TD*%
%TO.P,R2,2*%
%TO.N,PB5_RESET*%
%TA.AperFunction,SMDPad,CuDef*%
G36*
G01*
X95814400Y-114078750D02*
X95814400Y-114591250D01*
G75*
G02*
X95595650Y-114810000I-218750J0D01*
G01*
X95158150Y-114810000D01*
G75*
G02*
X94939400Y-114591250I0J218750D01*
G01*
X94939400Y-114078750D01*
G75*
G02*
X95158150Y-113860000I218750J0D01*
G01*
X95595650Y-113860000D01*
G75*
G02*
X95814400Y-114078750I0J-218750D01*
G01*
G37*
%TD.AperFunction*%
%TO.P,R2,1*%
%TO.N,+5V*%
%TA.AperFunction,SMDPad,CuDef*%
G36*
G01*
X97389400Y-114078750D02*
X97389400Y-114591250D01*
G75*
G02*
X97170650Y-114810000I-218750J0D01*
G01*
X96733150Y-114810000D01*
G75*
G02*
X96514400Y-114591250I0J218750D01*
G01*
X96514400Y-114078750D01*
G75*
G02*
X96733150Y-113860000I218750J0D01*
G01*
X97170650Y-113860000D01*
G75*
G02*
X97389400Y-114078750I0J-218750D01*
G01*
G37*
%TD.AperFunction*%
%TD*%
%TO.P,C1,2*%
%TO.N,GND*%
%TA.AperFunction,SMDPad,CuDef*%
G36*
G01*
X103850000Y-114591250D02*
X103850000Y-114078750D01*
G75*
G02*
X104068750Y-113860000I218750J0D01*
G01*
X104506250Y-113860000D01*
G75*
G02*
X104725000Y-114078750I0J-218750D01*
G01*
X104725000Y-114591250D01*
G75*
G02*
X104506250Y-114810000I-218750J0D01*
G01*
X104068750Y-114810000D01*
G75*
G02*
X103850000Y-114591250I0J218750D01*
G01*
G37*
%TD.AperFunction*%
%TO.P,C1,1*%
%TO.N,+5V*%
%TA.AperFunction,SMDPad,CuDef*%
G36*
G01*
X102275000Y-114591250D02*
X102275000Y-114078750D01*
G75*
G02*
X102493750Y-113860000I218750J0D01*
G01*
X102931250Y-113860000D01*
G75*
G02*
X103150000Y-114078750I0J-218750D01*
G01*
X103150000Y-114591250D01*
G75*
G02*
X102931250Y-114810000I-218750J0D01*
G01*
X102493750Y-114810000D01*
G75*
G02*
X102275000Y-114591250I0J218750D01*
G01*
G37*
%TD.AperFunction*%
%TD*%
%TO.P,C2,2*%
%TO.N,GND*%
%TA.AperFunction,SMDPad,CuDef*%
G36*
G01*
X75743750Y-164497500D02*
X76256250Y-164497500D01*
G75*
G02*
X76475000Y-164716250I0J-218750D01*
G01*
X76475000Y-165153750D01*
G75*
G02*
X76256250Y-165372500I-218750J0D01*
G01*
X75743750Y-165372500D01*
G75*
G02*
X75525000Y-165153750I0J218750D01*
G01*
X75525000Y-164716250D01*
G75*
G02*
X75743750Y-164497500I218750J0D01*
G01*
G37*
%TD.AperFunction*%
%TO.P,C2,1*%
%TO.N,+5V*%
%TA.AperFunction,SMDPad,CuDef*%
G36*
G01*
X75743750Y-162922500D02*
X76256250Y-162922500D01*
G75*
G02*
X76475000Y-163141250I0J-218750D01*
G01*
X76475000Y-163578750D01*
G75*
G02*
X76256250Y-163797500I-218750J0D01*
G01*
X75743750Y-163797500D01*
G75*
G02*
X75525000Y-163578750I0J218750D01*
G01*
X75525000Y-163141250D01*
G75*
G02*
X75743750Y-162922500I218750J0D01*
G01*
G37*
%TD.AperFunction*%
%TD*%
%TO.P,C3,2*%
%TO.N,GND*%
%TA.AperFunction,SMDPad,CuDef*%
G36*
G01*
X53993750Y-163312500D02*
X54506250Y-163312500D01*
G75*
G02*
X54725000Y-163531250I0J-218750D01*
G01*
X54725000Y-163968750D01*
G75*
G02*
X54506250Y-164187500I-218750J0D01*
G01*
X53993750Y-164187500D01*
G75*
G02*
X53775000Y-163968750I0J218750D01*
G01*
X53775000Y-163531250D01*
G75*
G02*
X53993750Y-163312500I218750J0D01*
G01*
G37*
%TD.AperFunction*%
%TO.P,C3,1*%
%TO.N,+5V*%
%TA.AperFunction,SMDPad,CuDef*%
G36*
G01*
X53993750Y-161737500D02*
X54506250Y-161737500D01*
G75*
G02*
X54725000Y-161956250I0J-218750D01*
G01*
X54725000Y-162393750D01*
G75*
G02*
X54506250Y-162612500I-218750J0D01*
G01*
X53993750Y-162612500D01*
G75*
G02*
X53775000Y-162393750I0J218750D01*
G01*
X53775000Y-161956250D01*
G75*
G02*
X53993750Y-161737500I218750J0D01*
G01*
G37*
%TD.AperFunction*%
%TD*%
%TO.P,C4,2*%
%TO.N,GND*%
%TA.AperFunction,SMDPad,CuDef*%
G36*
G01*
X71006250Y-135150000D02*
X70493750Y-135150000D01*
G75*
G02*
X70275000Y-134931250I0J218750D01*
G01*
X70275000Y-134493750D01*
G75*
G02*
X70493750Y-134275000I218750J0D01*
G01*
X71006250Y-134275000D01*
G75*
G02*
X71225000Y-134493750I0J-218750D01*
G01*
X71225000Y-134931250D01*
G75*
G02*
X71006250Y-135150000I-218750J0D01*
G01*
G37*
%TD.AperFunction*%
%TO.P,C4,1*%
%TO.N,+5V*%
%TA.AperFunction,SMDPad,CuDef*%
G36*
G01*
X71006250Y-136725000D02*
X70493750Y-136725000D01*
G75*
G02*
X70275000Y-136506250I0J218750D01*
G01*
X70275000Y-136068750D01*
G75*
G02*
X70493750Y-135850000I218750J0D01*
G01*
X71006250Y-135850000D01*
G75*
G02*
X71225000Y-136068750I0J-218750D01*
G01*
X71225000Y-136506250D01*
G75*
G02*
X71006250Y-136725000I-218750J0D01*
G01*
G37*
%TD.AperFunction*%
%TD*%
%TO.P,C5,2*%
%TO.N,GND*%
%TA.AperFunction,SMDPad,CuDef*%
G36*
G01*
X92506250Y-131900000D02*
X91993750Y-131900000D01*
G75*
G02*
X91775000Y-131681250I0J218750D01*
G01*
X91775000Y-131243750D01*
G75*
G02*
X91993750Y-131025000I218750J0D01*
G01*
X92506250Y-131025000D01*
G75*
G02*
X92725000Y-131243750I0J-218750D01*
G01*
X92725000Y-131681250D01*
G75*
G02*
X92506250Y-131900000I-218750J0D01*
G01*
G37*
%TD.AperFunction*%
%TO.P,C5,1*%
%TO.N,+5V*%
%TA.AperFunction,SMDPad,CuDef*%
G36*
G01*
X92506250Y-133475000D02*
X91993750Y-133475000D01*
G75*
G02*
X91775000Y-133256250I0J218750D01*
G01*
X91775000Y-132818750D01*
G75*
G02*
X91993750Y-132600000I218750J0D01*
G01*
X92506250Y-132600000D01*
G75*
G02*
X92725000Y-132818750I0J-218750D01*
G01*
X92725000Y-133256250D01*
G75*
G02*
X92506250Y-133475000I-218750J0D01*
G01*
G37*
%TD.AperFunction*%
%TD*%
%TO.P,C6,2*%
%TO.N,GND*%
%TA.AperFunction,SMDPad,CuDef*%
G36*
G01*
X99256250Y-162650000D02*
X98743750Y-162650000D01*
G75*
G02*
X98525000Y-162431250I0J218750D01*
G01*
X98525000Y-161993750D01*
G75*
G02*
X98743750Y-161775000I218750J0D01*
G01*
X99256250Y-161775000D01*
G75*
G02*
X99475000Y-161993750I0J-218750D01*
G01*
X99475000Y-162431250D01*
G75*
G02*
X99256250Y-162650000I-218750J0D01*
G01*
G37*
%TD.AperFunction*%
%TO.P,C6,1*%
%TO.N,+5V*%
%TA.AperFunction,SMDPad,CuDef*%
G36*
G01*
X99256250Y-164225000D02*
X98743750Y-164225000D01*
G75*
G02*
X98525000Y-164006250I0J218750D01*
G01*
X98525000Y-163568750D01*
G75*
G02*
X98743750Y-163350000I218750J0D01*
G01*
X99256250Y-163350000D01*
G75*
G02*
X99475000Y-163568750I0J-218750D01*
G01*
X99475000Y-164006250D01*
G75*
G02*
X99256250Y-164225000I-218750J0D01*
G01*
G37*
%TD.AperFunction*%
%TD*%
%TO.P,C7,2*%
%TO.N,GND*%
%TA.AperFunction,SMDPad,CuDef*%
G36*
G01*
X120506250Y-157269700D02*
X119993750Y-157269700D01*
G75*
G02*
X119775000Y-157050950I0J218750D01*
G01*
X119775000Y-156613450D01*
G75*
G02*
X119993750Y-156394700I218750J0D01*
G01*
X120506250Y-156394700D01*
G75*
G02*
X120725000Y-156613450I0J-218750D01*
G01*
X120725000Y-157050950D01*
G75*
G02*
X120506250Y-157269700I-218750J0D01*
G01*
G37*
%TD.AperFunction*%
%TO.P,C7,1*%
%TO.N,+5V*%
%TA.AperFunction,SMDPad,CuDef*%
G36*
G01*
X120506250Y-158844700D02*
X119993750Y-158844700D01*
G75*
G02*
X119775000Y-158625950I0J218750D01*
G01*
X119775000Y-158188450D01*
G75*
G02*
X119993750Y-157969700I218750J0D01*
G01*
X120506250Y-157969700D01*
G75*
G02*
X120725000Y-158188450I0J-218750D01*
G01*
X120725000Y-158625950D01*
G75*
G02*
X120506250Y-158844700I-218750J0D01*
G01*
G37*
%TD.AperFunction*%
%TD*%
%TO.P,C8,2*%
%TO.N,GND*%
%TA.AperFunction,SMDPad,CuDef*%
G36*
G01*
X138006250Y-149459200D02*
X137493750Y-149459200D01*
G75*
G02*
X137275000Y-149240450I0J218750D01*
G01*
X137275000Y-148802950D01*
G75*
G02*
X137493750Y-148584200I218750J0D01*
G01*
X138006250Y-148584200D01*
G75*
G02*
X138225000Y-148802950I0J-218750D01*
G01*
X138225000Y-149240450D01*
G75*
G02*
X138006250Y-149459200I-218750J0D01*
G01*
G37*
%TD.AperFunction*%
%TO.P,C8,1*%
%TO.N,+5V*%
%TA.AperFunction,SMDPad,CuDef*%
G36*
G01*
X138006250Y-151034200D02*
X137493750Y-151034200D01*
G75*
G02*
X137275000Y-150815450I0J218750D01*
G01*
X137275000Y-150377950D01*
G75*
G02*
X137493750Y-150159200I218750J0D01*
G01*
X138006250Y-150159200D01*
G75*
G02*
X138225000Y-150377950I0J-218750D01*
G01*
X138225000Y-150815450D01*
G75*
G02*
X138006250Y-151034200I-218750J0D01*
G01*
G37*
%TD.AperFunction*%
%TD*%
%TO.P,C9,2*%
%TO.N,GND*%
%TA.AperFunction,SMDPad,CuDef*%
G36*
G01*
X114256250Y-124687500D02*
X113743750Y-124687500D01*
G75*
G02*
X113525000Y-124468750I0J218750D01*
G01*
X113525000Y-124031250D01*
G75*
G02*
X113743750Y-123812500I218750J0D01*
G01*
X114256250Y-123812500D01*
G75*
G02*
X114475000Y-124031250I0J-218750D01*
G01*
X114475000Y-124468750D01*
G75*
G02*
X114256250Y-124687500I-218750J0D01*
G01*
G37*
%TD.AperFunction*%
%TO.P,C9,1*%
%TO.N,+5V*%
%TA.AperFunction,SMDPad,CuDef*%
G36*
G01*
X114256250Y-126262500D02*
X113743750Y-126262500D01*
G75*
G02*
X113525000Y-126043750I0J218750D01*
G01*
X113525000Y-125606250D01*
G75*
G02*
X113743750Y-125387500I218750J0D01*
G01*
X114256250Y-125387500D01*
G75*
G02*
X114475000Y-125606250I0J-218750D01*
G01*
X114475000Y-126043750D01*
G75*
G02*
X114256250Y-126262500I-218750J0D01*
G01*
G37*
%TD.AperFunction*%
%TD*%
%TO.P,C10,2*%
%TO.N,GND*%
%TA.AperFunction,SMDPad,CuDef*%
G36*
G01*
X130506250Y-116286800D02*
X129993750Y-116286800D01*
G75*
G02*
X129775000Y-116068050I0J218750D01*
G01*
X129775000Y-115630550D01*
G75*
G02*
X129993750Y-115411800I218750J0D01*
G01*
X130506250Y-115411800D01*
G75*
G02*
X130725000Y-115630550I0J-218750D01*
G01*
X130725000Y-116068050D01*
G75*
G02*
X130506250Y-116286800I-218750J0D01*
G01*
G37*
%TD.AperFunction*%
%TO.P,C10,1*%
%TO.N,+5V*%
%TA.AperFunction,SMDPad,CuDef*%
G36*
G01*
X130506250Y-117861800D02*
X129993750Y-117861800D01*
G75*
G02*
X129775000Y-117643050I0J218750D01*
G01*
X129775000Y-117205550D01*
G75*
G02*
X129993750Y-116986800I218750J0D01*
G01*
X130506250Y-116986800D01*
G75*
G02*
X130725000Y-117205550I0J-218750D01*
G01*
X130725000Y-117643050D01*
G75*
G02*
X130506250Y-117861800I-218750J0D01*
G01*
G37*
%TD.AperFunction*%
%TD*%
%TO.P,C11,2*%
%TO.N,GND*%
%TA.AperFunction,SMDPad,CuDef*%
G36*
G01*
X114493750Y-93062500D02*
X115006250Y-93062500D01*
G75*
G02*
X115225000Y-93281250I0J-218750D01*
G01*
X115225000Y-93718750D01*
G75*
G02*
X115006250Y-93937500I-218750J0D01*
G01*
X114493750Y-93937500D01*
G75*
G02*
X114275000Y-93718750I0J218750D01*
G01*
X114275000Y-93281250D01*
G75*
G02*
X114493750Y-93062500I218750J0D01*
G01*
G37*
%TD.AperFunction*%
%TO.P,C11,1*%
%TO.N,+5V*%
%TA.AperFunction,SMDPad,CuDef*%
G36*
G01*
X114493750Y-91487500D02*
X115006250Y-91487500D01*
G75*
G02*
X115225000Y-91706250I0J-218750D01*
G01*
X115225000Y-92143750D01*
G75*
G02*
X115006250Y-92362500I-218750J0D01*
G01*
X114493750Y-92362500D01*
G75*
G02*
X114275000Y-92143750I0J218750D01*
G01*
X114275000Y-91706250D01*
G75*
G02*
X114493750Y-91487500I218750J0D01*
G01*
G37*
%TD.AperFunction*%
%TD*%
%TO.P,C12,2*%
%TO.N,GND*%
%TA.AperFunction,SMDPad,CuDef*%
G36*
G01*
X96493750Y-99664000D02*
X97006250Y-99664000D01*
G75*
G02*
X97225000Y-99882750I0J-218750D01*
G01*
X97225000Y-100320250D01*
G75*
G02*
X97006250Y-100539000I-218750J0D01*
G01*
X96493750Y-100539000D01*
G75*
G02*
X96275000Y-100320250I0J218750D01*
G01*
X96275000Y-99882750D01*
G75*
G02*
X96493750Y-99664000I218750J0D01*
G01*
G37*
%TD.AperFunction*%
%TO.P,C12,1*%
%TO.N,+5V*%
%TA.AperFunction,SMDPad,CuDef*%
G36*
G01*
X96493750Y-98089000D02*
X97006250Y-98089000D01*
G75*
G02*
X97225000Y-98307750I0J-218750D01*
G01*
X97225000Y-98745250D01*
G75*
G02*
X97006250Y-98964000I-218750J0D01*
G01*
X96493750Y-98964000D01*
G75*
G02*
X96275000Y-98745250I0J218750D01*
G01*
X96275000Y-98307750D01*
G75*
G02*
X96493750Y-98089000I218750J0D01*
G01*
G37*
%TD.AperFunction*%
%TD*%
%TO.P,C13,2*%
%TO.N,GND*%
%TA.AperFunction,SMDPad,CuDef*%
G36*
G01*
X76743750Y-103812500D02*
X77256250Y-103812500D01*
G75*
G02*
X77475000Y-104031250I0J-218750D01*
G01*
X77475000Y-104468750D01*
G75*
G02*
X77256250Y-104687500I-218750J0D01*
G01*
X76743750Y-104687500D01*
G75*
G02*
X76525000Y-104468750I0J218750D01*
G01*
X76525000Y-104031250D01*
G75*
G02*
X76743750Y-103812500I218750J0D01*
G01*
G37*
%TD.AperFunction*%
%TO.P,C13,1*%
%TO.N,+5V*%
%TA.AperFunction,SMDPad,CuDef*%
G36*
G01*
X76743750Y-102237500D02*
X77256250Y-102237500D01*
G75*
G02*
X77475000Y-102456250I0J-218750D01*
G01*
X77475000Y-102893750D01*
G75*
G02*
X77256250Y-103112500I-218750J0D01*
G01*
X76743750Y-103112500D01*
G75*
G02*
X76525000Y-102893750I0J218750D01*
G01*
X76525000Y-102456250D01*
G75*
G02*
X76743750Y-102237500I218750J0D01*
G01*
G37*
%TD.AperFunction*%
%TD*%
%TO.P,C14,2*%
%TO.N,GND*%
%TA.AperFunction,SMDPad,CuDef*%
G36*
G01*
X87256250Y-75278500D02*
X86743750Y-75278500D01*
G75*
G02*
X86525000Y-75059750I0J218750D01*
G01*
X86525000Y-74622250D01*
G75*
G02*
X86743750Y-74403500I218750J0D01*
G01*
X87256250Y-74403500D01*
G75*
G02*
X87475000Y-74622250I0J-218750D01*
G01*
X87475000Y-75059750D01*
G75*
G02*
X87256250Y-75278500I-218750J0D01*
G01*
G37*
%TD.AperFunction*%
%TO.P,C14,1*%
%TO.N,+5V*%
%TA.AperFunction,SMDPad,CuDef*%
G36*
G01*
X87256250Y-76853500D02*
X86743750Y-76853500D01*
G75*
G02*
X86525000Y-76634750I0J218750D01*
G01*
X86525000Y-76197250D01*
G75*
G02*
X86743750Y-75978500I218750J0D01*
G01*
X87256250Y-75978500D01*
G75*
G02*
X87475000Y-76197250I0J-218750D01*
G01*
X87475000Y-76634750D01*
G75*
G02*
X87256250Y-76853500I-218750J0D01*
G01*
G37*
%TD.AperFunction*%
%TD*%
%TO.P,C15,2*%
%TO.N,GND*%
%TA.AperFunction,SMDPad,CuDef*%
G36*
G01*
X105006250Y-66655200D02*
X104493750Y-66655200D01*
G75*
G02*
X104275000Y-66436450I0J218750D01*
G01*
X104275000Y-65998950D01*
G75*
G02*
X104493750Y-65780200I218750J0D01*
G01*
X105006250Y-65780200D01*
G75*
G02*
X105225000Y-65998950I0J-218750D01*
G01*
X105225000Y-66436450D01*
G75*
G02*
X105006250Y-66655200I-218750J0D01*
G01*
G37*
%TD.AperFunction*%
%TO.P,C15,1*%
%TO.N,+5V*%
%TA.AperFunction,SMDPad,CuDef*%
G36*
G01*
X105006250Y-68230200D02*
X104493750Y-68230200D01*
G75*
G02*
X104275000Y-68011450I0J218750D01*
G01*
X104275000Y-67573950D01*
G75*
G02*
X104493750Y-67355200I218750J0D01*
G01*
X105006250Y-67355200D01*
G75*
G02*
X105225000Y-67573950I0J-218750D01*
G01*
X105225000Y-68011450D01*
G75*
G02*
X105006250Y-68230200I-218750J0D01*
G01*
G37*
%TD.AperFunction*%
%TD*%
%TO.P,J2,1*%
%TO.N,Net-(J2-Pad1)*%
%TA.AperFunction,SMDPad,CuDef*%
G36*
G01*
X138363248Y-122684886D02*
X136065114Y-124613248D01*
G75*
G02*
X133951866Y-124428362I-964181J1149067D01*
G01*
X133951866Y-124428362D01*
G75*
G02*
X134136752Y-122315114I1149067J964181D01*
G01*
X136434886Y-120386752D01*
G75*
G02*
X138548134Y-120571638I964181J-1149067D01*
G01*
X138548134Y-120571638D01*
G75*
G02*
X138363248Y-122684886I-1149067J-964181D01*
G01*
G37*
%TD.AperFunction*%
%TD*%
%TO.P,J3,1*%
%TO.N,GND*%
%TA.AperFunction,SMDPad,CuDef*%
G36*
G01*
X146315114Y-164863248D02*
X144386752Y-162565114D01*
G75*
G02*
X144571638Y-160451866I1149067J964181D01*
G01*
X144571638Y-160451866D01*
G75*
G02*
X146684886Y-160636752I964181J-1149067D01*
G01*
X148613248Y-162934886D01*
G75*
G02*
X148428362Y-165048134I-1149067J-964181D01*
G01*
X148428362Y-165048134D01*
G75*
G02*
X146315114Y-164863248I-964181J1149067D01*
G01*
G37*
%TD.AperFunction*%
%TD*%
%TA.AperFunction,SMDPad,CuDef*%
D13*
%TO.P,SW1,1*%
%TO.N,Net-(J2-Pad1)*%
G36*
X145908775Y-148409561D02*
G01*
X147057842Y-147445380D01*
X147507793Y-147981611D01*
X146358726Y-148945792D01*
X145908775Y-148409561D01*
G37*
%TD.AperFunction*%
%TA.AperFunction,SMDPad,CuDef*%
%TO.P,SW1,2*%
%TO.N,+5V*%
G36*
X147837138Y-150707695D02*
G01*
X148986205Y-149743514D01*
X149436156Y-150279745D01*
X148287089Y-151243926D01*
X147837138Y-150707695D01*
G37*
%TD.AperFunction*%
%TA.AperFunction,SMDPad,CuDef*%
%TO.P,SW1,3*%
%TO.N,N/C*%
G36*
X148801320Y-151856761D02*
G01*
X149950387Y-150892580D01*
X150400338Y-151428811D01*
X149251271Y-152392992D01*
X148801320Y-151856761D01*
G37*
%TD.AperFunction*%
%TA.AperFunction,SMDPad,CuDef*%
%TO.P,SW1,*%
%TO.N,*%
G36*
X147371457Y-145158845D02*
G01*
X147984293Y-144644615D01*
X148627081Y-145410659D01*
X148014245Y-145924889D01*
X147371457Y-145158845D01*
G37*
%TD.AperFunction*%
%TA.AperFunction,SMDPad,CuDef*%
G36*
X152063806Y-150750969D02*
G01*
X152676642Y-150236739D01*
X153319430Y-151002783D01*
X152706594Y-151517013D01*
X152063806Y-150750969D01*
G37*
%TD.AperFunction*%
%TA.AperFunction,SMDPad,CuDef*%
G36*
X150370848Y-152171530D02*
G01*
X150983684Y-151657300D01*
X151626472Y-152423344D01*
X151013636Y-152937574D01*
X150370848Y-152171530D01*
G37*
%TD.AperFunction*%
%TA.AperFunction,SMDPad,CuDef*%
G36*
X145678499Y-146579405D02*
G01*
X146291335Y-146065175D01*
X146934123Y-146831219D01*
X146321287Y-147345449D01*
X145678499Y-146579405D01*
G37*
%TD.AperFunction*%
%TD*%
D14*
%TO.N,GND*%
X94250000Y-193750000D03*
X94250000Y-183750000D03*
X94250000Y-188750000D03*
X94250000Y-186250000D03*
X94250000Y-191250000D03*
X96750000Y-193750000D03*
X96750000Y-183750000D03*
X96750000Y-188750000D03*
X96750000Y-186250000D03*
X96750000Y-191250000D03*
X99250000Y-193750000D03*
X99250000Y-183750000D03*
X99250000Y-188750000D03*
X99250000Y-186250000D03*
X99250000Y-191250000D03*
X101750000Y-193750000D03*
X101750000Y-183750000D03*
X101750000Y-188750000D03*
X101750000Y-186250000D03*
X101750000Y-191250000D03*
X104250000Y-193750000D03*
X104250000Y-183750000D03*
X104250000Y-188750000D03*
X104250000Y-186250000D03*
X104250000Y-191250000D03*
X106750000Y-188750000D03*
X106750000Y-186250000D03*
X106750000Y-191250000D03*
X99000000Y-34000000D03*
X104750000Y-64750000D03*
X87000000Y-73250000D03*
X114750000Y-95000000D03*
X54250000Y-165000000D03*
X76000000Y-166500000D03*
X99000000Y-161000000D03*
X137750000Y-147500000D03*
X120250000Y-155250000D03*
X70750000Y-133250000D03*
X92250000Y-130000000D03*
X114000000Y-122750000D03*
X130250000Y-114250000D03*
X77000000Y-105750000D03*
X96750000Y-101750000D03*
X106000000Y-114250000D03*
X93500000Y-108000000D03*
X91750000Y-191250000D03*
X91750000Y-188750000D03*
X91750000Y-186250000D03*
X95750000Y-61750000D03*
X108750000Y-74500000D03*
X88500000Y-83000000D03*
X105750000Y-90000000D03*
X105500000Y-101750000D03*
X111000000Y-114000000D03*
X71000000Y-113250000D03*
X92250000Y-122000000D03*
X62000000Y-133750000D03*
X96500000Y-139250000D03*
X119250000Y-132000000D03*
X133250000Y-141000000D03*
X106000000Y-152750000D03*
X78750000Y-156750000D03*
X59000000Y-159000000D03*
X77000000Y-170750000D03*
X114250000Y-171500000D03*
X140750000Y-158000000D03*
X51250000Y-156500000D03*
%TO.N,+5V*%
X100000000Y-37000000D03*
X105750000Y-67750000D03*
X88000000Y-76500000D03*
X76000000Y-102750000D03*
X113750000Y-92000000D03*
X95750000Y-98500000D03*
X131250000Y-117500000D03*
X115000000Y-125750000D03*
X138750000Y-150750000D03*
X121157200Y-158407200D03*
X99787500Y-163787500D03*
X75000000Y-163500000D03*
X53250000Y-162250000D03*
X93250000Y-133000000D03*
X71750000Y-136250000D03*
%TO.N,Net-(D1-Pad4)*%
X77500000Y-163250000D03*
%TO.N,Net-(D1-Pad2)*%
X74750000Y-166500000D03*
%TO.N,Net-(D2-Pad2)*%
X51750000Y-164000000D03*
X68250000Y-135000000D03*
%TO.N,Net-(D4-Pad2)*%
X94500000Y-131250000D03*
X96500000Y-162500000D03*
%TO.N,Net-(D10-Pad4)*%
X117000000Y-93250000D03*
X132750000Y-115750000D03*
%TO.N,Net-(D12-Pad2)*%
X84500000Y-75000000D03*
X74500000Y-104500000D03*
%TO.N,Net-(D7-Pad2)*%
X111750000Y-124250000D03*
X140250000Y-149000000D03*
%TD*%
D15*
%TO.N,GND*%
X99000000Y-35462500D02*
X99000000Y-34000000D01*
X104750000Y-66217700D02*
X104750000Y-64750000D01*
X87000000Y-74841000D02*
X87000000Y-73250000D01*
X114750000Y-93500000D02*
X114750000Y-95000000D01*
X76000000Y-164935000D02*
X76000000Y-166500000D01*
X99000000Y-162212500D02*
X99000000Y-161000000D01*
X137750000Y-149021700D02*
X137750000Y-147500000D01*
X120250000Y-156832200D02*
X120250000Y-155250000D01*
X70750000Y-134712500D02*
X70750000Y-133250000D01*
X92250000Y-131462500D02*
X92250000Y-130000000D01*
X114000000Y-124250000D02*
X114000000Y-122750000D01*
X130250000Y-115849300D02*
X130250000Y-114250000D01*
X77000000Y-104250000D02*
X77000000Y-105750000D01*
X96750000Y-100101500D02*
X96750000Y-101750000D01*
X105915000Y-114335000D02*
X106000000Y-114250000D01*
X104287500Y-114335000D02*
X105915000Y-114335000D01*
X93515000Y-107985000D02*
X93500000Y-108000000D01*
X95410000Y-107985000D02*
X93515000Y-107985000D01*
X99949100Y-95000000D02*
X103500000Y-95000000D01*
X105000000Y-93500000D02*
X114750000Y-93500000D01*
X103500000Y-95000000D02*
X105000000Y-93500000D01*
X54250000Y-165000000D02*
X54250000Y-163750000D01*
%TO.N,+5V*%
X99037500Y-37000000D02*
X99000000Y-37037500D01*
X100000000Y-37000000D02*
X99037500Y-37000000D01*
X105707300Y-67792700D02*
X105750000Y-67750000D01*
X104750000Y-67792700D02*
X105707300Y-67792700D01*
X87916000Y-76416000D02*
X88000000Y-76500000D01*
X87000000Y-76416000D02*
X87916000Y-76416000D01*
X76075000Y-102675000D02*
X76000000Y-102750000D01*
X77000000Y-102675000D02*
X76075000Y-102675000D01*
X113825000Y-91925000D02*
X113750000Y-92000000D01*
X114750000Y-91925000D02*
X113825000Y-91925000D01*
X96723500Y-98500000D02*
X96750000Y-98526500D01*
X95750000Y-98500000D02*
X96723500Y-98500000D01*
X131174300Y-117424300D02*
X131250000Y-117500000D01*
X130250000Y-117424300D02*
X131174300Y-117424300D01*
X114925000Y-125825000D02*
X115000000Y-125750000D01*
X114000000Y-125825000D02*
X114925000Y-125825000D01*
X138596700Y-150596700D02*
X138750000Y-150750000D01*
X137750000Y-150596700D02*
X138596700Y-150596700D01*
X120250000Y-158407200D02*
X121157200Y-158407200D01*
X99000000Y-163787500D02*
X99787500Y-163787500D01*
X75140000Y-163360000D02*
X75000000Y-163500000D01*
X76000000Y-163360000D02*
X75140000Y-163360000D01*
X53325000Y-162175000D02*
X53250000Y-162250000D01*
X54250000Y-162175000D02*
X53325000Y-162175000D01*
X102712500Y-114335000D02*
X96951900Y-114335000D01*
X148636647Y-150493720D02*
X147130367Y-152000000D01*
X105806010Y-67693990D02*
X105750000Y-67750000D01*
X102712500Y-111797500D02*
X102710000Y-111795000D01*
X102712500Y-114335000D02*
X102712500Y-111797500D01*
X93212500Y-133037500D02*
X93250000Y-133000000D01*
X92250000Y-133037500D02*
X93212500Y-133037500D01*
X71712500Y-136287500D02*
X71750000Y-136250000D01*
X70750000Y-136287500D02*
X71712500Y-136287500D01*
X118750000Y-96250000D02*
X118750000Y-87250000D01*
X92250000Y-134750000D02*
X91000000Y-136000000D01*
X92250000Y-133037500D02*
X92250000Y-134750000D01*
X70750000Y-136287500D02*
X70750000Y-138500000D01*
X99000000Y-37037500D02*
X99000000Y-39000000D01*
X99000000Y-37037500D02*
X99000000Y-55250000D01*
D16*
X87750000Y-127750000D02*
X87750000Y-134500000D01*
X87750000Y-134500000D02*
X89250000Y-136000000D01*
D15*
X99000000Y-163787500D02*
X99000000Y-166000000D01*
X76000000Y-163360000D02*
X76000000Y-161000000D01*
X54250000Y-162175000D02*
X54250000Y-160500000D01*
X54250000Y-160500000D02*
X54250000Y-159750000D01*
X96750000Y-98526500D02*
X96750000Y-97250000D01*
X96750000Y-97250000D02*
X95000000Y-95500000D01*
X114750000Y-91925000D02*
X114750000Y-89750000D01*
D17*
X114750000Y-87250000D02*
X116250000Y-87250000D01*
D15*
X87000000Y-76416000D02*
X87000000Y-78500000D01*
D17*
X89250000Y-80750000D02*
X97750000Y-80750000D01*
X87000000Y-78500000D02*
X89250000Y-80750000D01*
D15*
X104750000Y-67792700D02*
X104750000Y-70500000D01*
D17*
X97750000Y-77500000D02*
X97750000Y-78250000D01*
X97750000Y-80750000D02*
X97750000Y-78250000D01*
X97750000Y-77500000D02*
X97750000Y-72750000D01*
X118750000Y-78250000D02*
X118750000Y-87250000D01*
D15*
X77000000Y-102675000D02*
X77000000Y-100750000D01*
D17*
X46750000Y-155500000D02*
X46750000Y-158500000D01*
X46750000Y-158500000D02*
X46750000Y-163500000D01*
X66250000Y-168000000D02*
X82250000Y-168000000D01*
X51250000Y-168000000D02*
X66250000Y-168000000D01*
X120212500Y-160037500D02*
X120250000Y-160000000D01*
D15*
X120250000Y-158407200D02*
X120250000Y-160000000D01*
X137750000Y-150596700D02*
X137750000Y-152750000D01*
D17*
X137750000Y-155750000D02*
X140000000Y-153500000D01*
D15*
X114000000Y-125825000D02*
X114000000Y-128000000D01*
D18*
X102712500Y-114335000D02*
X102712500Y-116537500D01*
D16*
X74250000Y-127750000D02*
X76250000Y-129750000D01*
X76250000Y-129750000D02*
X76250000Y-137750000D01*
X76250000Y-137750000D02*
X74500000Y-139500000D01*
X74500000Y-139500000D02*
X71750000Y-139500000D01*
X71750000Y-139500000D02*
X70750000Y-138500000D01*
X91000000Y-136000000D02*
X89250000Y-136000000D01*
X99000000Y-55250000D02*
X99000000Y-39000000D01*
X114750000Y-89750000D02*
X114750000Y-87250000D01*
X118500000Y-87250000D02*
X118750000Y-87500000D01*
X114750000Y-87250000D02*
X118500000Y-87250000D01*
X89500000Y-81000000D02*
X87000000Y-78500000D01*
X64250000Y-138000000D02*
X46750000Y-155500000D01*
X46750000Y-163500000D02*
X51250000Y-168000000D01*
X145630367Y-153500000D02*
X147130367Y-152000000D01*
X140000000Y-153500000D02*
X145630367Y-153500000D01*
X140000000Y-153500000D02*
X137750000Y-153500000D01*
X137750000Y-155750000D02*
X137625000Y-155875000D01*
X137750000Y-153500000D02*
X137750000Y-155750000D01*
X137625000Y-155875000D02*
X140000000Y-153500000D01*
X137750000Y-153500000D02*
X137750000Y-152750000D01*
X76000000Y-161000000D02*
X74250000Y-159250000D01*
X74250000Y-159250000D02*
X69750000Y-159250000D01*
X69750000Y-159250000D02*
X66250000Y-162750000D01*
X54250000Y-159750000D02*
X53000000Y-158500000D01*
X118750000Y-96250000D02*
X135000000Y-112500000D01*
X122875000Y-119875000D02*
X122500000Y-119500000D01*
X120750000Y-130250000D02*
X122875000Y-128125000D01*
X116250000Y-130250000D02*
X120750000Y-130250000D01*
X114000000Y-128000000D02*
X116250000Y-130250000D01*
D15*
X130250000Y-119250000D02*
X130000000Y-119500000D01*
X130250000Y-117424300D02*
X130250000Y-119250000D01*
D16*
X135000000Y-116500000D02*
X132000000Y-119500000D01*
X132000000Y-119500000D02*
X130000000Y-119500000D01*
X135000000Y-112500000D02*
X135000000Y-116500000D01*
X87750000Y-123250000D02*
X87750000Y-127750000D01*
X91500000Y-119500000D02*
X87750000Y-123250000D01*
X102712500Y-119037500D02*
X102250000Y-119500000D01*
X102712500Y-116537500D02*
X102712500Y-119037500D01*
X81000000Y-93250000D02*
X81000000Y-73250000D01*
X77000000Y-97250000D02*
X77125000Y-97125000D01*
X77000000Y-100750000D02*
X77000000Y-97250000D01*
X77125000Y-97125000D02*
X81000000Y-93250000D01*
X75000000Y-99250000D02*
X77125000Y-97125000D01*
X76500000Y-100750000D02*
X75000000Y-99250000D01*
X77000000Y-100750000D02*
X76500000Y-100750000D01*
X71000000Y-106500000D02*
X64250000Y-113250000D01*
X71000000Y-103250000D02*
X71000000Y-106500000D01*
X75000000Y-99250000D02*
X71000000Y-103250000D01*
X95500000Y-70500000D02*
X95000000Y-70000000D01*
X95000000Y-70000000D02*
X97750000Y-72750000D01*
X97750000Y-70750000D02*
X98000000Y-70500000D01*
X97750000Y-72750000D02*
X97750000Y-70750000D01*
X98000000Y-70500000D02*
X95500000Y-70500000D01*
X98000000Y-87250000D02*
X97750000Y-87000000D01*
X96500000Y-87250000D02*
X98000000Y-87250000D01*
X93250000Y-90500000D02*
X96500000Y-87250000D01*
X93250000Y-93750000D02*
X93250000Y-90500000D01*
X95000000Y-95500000D02*
X93250000Y-93750000D01*
X97750000Y-86000000D02*
X96500000Y-87250000D01*
X97750000Y-85000000D02*
X97750000Y-86000000D01*
X97750000Y-87000000D02*
X97750000Y-85000000D01*
X118750000Y-78250000D02*
X118750000Y-75000000D01*
X114250000Y-70500000D02*
X116125000Y-72375000D01*
X118750000Y-75000000D02*
X116125000Y-72375000D01*
X111000000Y-70250000D02*
X112500000Y-68750000D01*
X111000000Y-70500000D02*
X111000000Y-70250000D01*
X112500000Y-68750000D02*
X111000000Y-67250000D01*
X116125000Y-72375000D02*
X112500000Y-68750000D01*
X104750000Y-70500000D02*
X111000000Y-70500000D01*
X111000000Y-70500000D02*
X114250000Y-70500000D01*
X99750000Y-70750000D02*
X97750000Y-72750000D01*
X99750000Y-70500000D02*
X99750000Y-70750000D01*
X104750000Y-70500000D02*
X99750000Y-70500000D01*
X99750000Y-70500000D02*
X98000000Y-70500000D01*
X91250000Y-66250000D02*
X91250000Y-63000000D01*
X89625000Y-64625000D02*
X91375000Y-62875000D01*
X89625000Y-64625000D02*
X91250000Y-66250000D01*
X91250000Y-63000000D02*
X91375000Y-62875000D01*
X91250000Y-66250000D02*
X95000000Y-70000000D01*
X91250000Y-66250000D02*
X88000000Y-66250000D01*
X88000000Y-66250000D02*
X89625000Y-64625000D01*
X81000000Y-73250000D02*
X88000000Y-66250000D01*
X97875000Y-56375000D02*
X100125000Y-56375000D01*
X100125000Y-56375000D02*
X99000000Y-55250000D01*
X111000000Y-67250000D02*
X100125000Y-56375000D01*
X91375000Y-62875000D02*
X97875000Y-56375000D01*
X97875000Y-56375000D02*
X99000000Y-55250000D01*
X95750000Y-81000000D02*
X97750000Y-83000000D01*
X97750000Y-83000000D02*
X97750000Y-81000000D01*
X97750000Y-81000000D02*
X95750000Y-81000000D01*
X97750000Y-85000000D02*
X97750000Y-83000000D01*
X95750000Y-81000000D02*
X89500000Y-81000000D01*
X97750000Y-78750000D02*
X97750000Y-79000000D01*
X97750000Y-81000000D02*
X97750000Y-78750000D01*
X97750000Y-79000000D02*
X95750000Y-81000000D01*
X97750000Y-78750000D02*
X97750000Y-72750000D01*
X99000000Y-87250000D02*
X97750000Y-86000000D01*
X99500000Y-87250000D02*
X99000000Y-87250000D01*
X101000000Y-87250000D02*
X99500000Y-87250000D01*
X99500000Y-87250000D02*
X98000000Y-87250000D01*
X99500000Y-87250000D02*
X99750000Y-87250000D01*
X101000000Y-88500000D02*
X101000000Y-87250000D01*
X99750000Y-87250000D02*
X101000000Y-88500000D01*
X101000000Y-91750000D02*
X101000000Y-88500000D01*
X101000000Y-88500000D02*
X102250000Y-87250000D01*
X102250000Y-87250000D02*
X101000000Y-87250000D01*
X114750000Y-88750000D02*
X116250000Y-87250000D01*
X114750000Y-89750000D02*
X114750000Y-88750000D01*
X114750000Y-89000000D02*
X113000000Y-87250000D01*
X114750000Y-89750000D02*
X114750000Y-89000000D01*
X113000000Y-87250000D02*
X102250000Y-87250000D01*
X114750000Y-87250000D02*
X113000000Y-87250000D01*
X118750000Y-88750000D02*
X117250000Y-87250000D01*
X118750000Y-89000000D02*
X118750000Y-88750000D01*
D17*
X117250000Y-87250000D02*
X116250000Y-87250000D01*
D16*
X118750000Y-87500000D02*
X118750000Y-89000000D01*
D17*
X118750000Y-87250000D02*
X117250000Y-87250000D01*
D16*
X117250000Y-87250000D02*
X118750000Y-85750000D01*
X118750000Y-85750000D02*
X118750000Y-87500000D01*
X118750000Y-78250000D02*
X118750000Y-85750000D01*
X118750000Y-90250000D02*
X117500000Y-89000000D01*
X117500000Y-89000000D02*
X114750000Y-89000000D01*
X118750000Y-89000000D02*
X117500000Y-89000000D01*
X118750000Y-89000000D02*
X118750000Y-90250000D01*
X118750000Y-90250000D02*
X118750000Y-96250000D01*
X64250000Y-127750000D02*
X64250000Y-129500000D01*
X66000000Y-127750000D02*
X64250000Y-129500000D01*
X64250000Y-129500000D02*
X64250000Y-138000000D01*
X64250000Y-127750000D02*
X66250000Y-127750000D01*
X66250000Y-127750000D02*
X66000000Y-127750000D01*
X66250000Y-127750000D02*
X74250000Y-127750000D01*
X64250000Y-125750000D02*
X64250000Y-127750000D01*
X66250000Y-127750000D02*
X64250000Y-125750000D01*
X64250000Y-113250000D02*
X64250000Y-125750000D01*
X48000000Y-158500000D02*
X46750000Y-157250000D01*
X46750000Y-155500000D02*
X46750000Y-157250000D01*
X53000000Y-158500000D02*
X48250000Y-158500000D01*
X48250000Y-158500000D02*
X46750000Y-158500000D01*
X48000000Y-158500000D02*
X46750000Y-159750000D01*
X48250000Y-158500000D02*
X48000000Y-158500000D01*
X46750000Y-159750000D02*
X46750000Y-163500000D01*
X46750000Y-157250000D02*
X46750000Y-159750000D01*
X66250000Y-166500000D02*
X64750000Y-168000000D01*
X51250000Y-168000000D02*
X64750000Y-168000000D01*
X66250000Y-162750000D02*
X66250000Y-166000000D01*
X66250000Y-166000000D02*
X66250000Y-168000000D01*
X66250000Y-166500000D02*
X67750000Y-168000000D01*
X67750000Y-168000000D02*
X82250000Y-168000000D01*
X66250000Y-166000000D02*
X66250000Y-166500000D01*
X64750000Y-168000000D02*
X67750000Y-168000000D01*
X122875000Y-121125000D02*
X121250000Y-119500000D01*
X122875000Y-121375000D02*
X122875000Y-121125000D01*
X121250000Y-119500000D02*
X110250000Y-119500000D01*
X122500000Y-119500000D02*
X121250000Y-119500000D01*
X122875000Y-128125000D02*
X122875000Y-121375000D01*
X122875000Y-121375000D02*
X122875000Y-119875000D01*
X122875000Y-121375000D02*
X124750000Y-119500000D01*
X124750000Y-119500000D02*
X122500000Y-119500000D01*
X130000000Y-119500000D02*
X124750000Y-119500000D01*
X102712500Y-118037500D02*
X101250000Y-119500000D01*
X102712500Y-116537500D02*
X102712500Y-118037500D01*
X102250000Y-119500000D02*
X101250000Y-119500000D01*
X102712500Y-117962500D02*
X104250000Y-119500000D01*
X102712500Y-116537500D02*
X102712500Y-117962500D01*
X104250000Y-119500000D02*
X102250000Y-119500000D01*
X110250000Y-119500000D02*
X104250000Y-119500000D01*
X104500000Y-168000000D02*
X110500000Y-162000000D01*
X131500000Y-162000000D02*
X135000000Y-158500000D01*
X135000000Y-158500000D02*
X137625000Y-155875000D01*
X120250000Y-161750000D02*
X120500000Y-162000000D01*
X120250000Y-160000000D02*
X120250000Y-161750000D01*
X99000000Y-167750000D02*
X99250000Y-168000000D01*
X99000000Y-166000000D02*
X99000000Y-167750000D01*
X120250000Y-160000000D02*
X120250000Y-160250000D01*
X120250000Y-160250000D02*
X118500000Y-162000000D01*
X118500000Y-162000000D02*
X120500000Y-162000000D01*
X110500000Y-162000000D02*
X118500000Y-162000000D01*
X122250000Y-162000000D02*
X131500000Y-162000000D01*
X120250000Y-160000000D02*
X122250000Y-162000000D01*
X120500000Y-162000000D02*
X122250000Y-162000000D01*
X99000000Y-166500000D02*
X97500000Y-168000000D01*
X99000000Y-166000000D02*
X99000000Y-166500000D01*
X97500000Y-168000000D02*
X99250000Y-168000000D01*
X82250000Y-168000000D02*
X97500000Y-168000000D01*
X100500000Y-168000000D02*
X99000000Y-166500000D01*
X100750000Y-168000000D02*
X100500000Y-168000000D01*
X99250000Y-168000000D02*
X100750000Y-168000000D01*
X100750000Y-168000000D02*
X104500000Y-168000000D01*
X110500000Y-162000000D02*
X110500000Y-138750000D01*
X110500000Y-138750000D02*
X97750000Y-126000000D01*
X96000000Y-119500000D02*
X97750000Y-121250000D01*
X97750000Y-121250000D02*
X97750000Y-119500000D01*
X97750000Y-126000000D02*
X97750000Y-121250000D01*
X97750000Y-119500000D02*
X96000000Y-119500000D01*
X96000000Y-119500000D02*
X91500000Y-119500000D01*
X99500000Y-119500000D02*
X97750000Y-121250000D01*
X100000000Y-119500000D02*
X99500000Y-119500000D01*
X101250000Y-119500000D02*
X100000000Y-119500000D01*
X100000000Y-119500000D02*
X97750000Y-119500000D01*
D15*
%TO.N,Net-(D1-Pad4)*%
X80750000Y-160000000D02*
X77500000Y-163250000D01*
X81500000Y-159250000D02*
X80750000Y-160000000D01*
X81500000Y-116000000D02*
X81500000Y-159250000D01*
X88245000Y-109255000D02*
X81500000Y-116000000D01*
X90779500Y-109255000D02*
X88245000Y-109255000D01*
%TO.N,Net-(D2-Pad2)*%
X52500000Y-166250000D02*
X51750000Y-165500000D01*
X51750000Y-165500000D02*
X51750000Y-164000000D01*
X58000000Y-166250000D02*
X52500000Y-166250000D01*
X67750000Y-156500000D02*
X58000000Y-166250000D01*
X67750000Y-135500000D02*
X67750000Y-156500000D01*
X68250000Y-135000000D02*
X67750000Y-135500000D01*
%TO.N,Net-(D4-Pad2)*%
X94500000Y-131250000D02*
X94500000Y-160500000D01*
X94500000Y-160500000D02*
X96500000Y-162500000D01*
%TO.N,Net-(D10-Pad4)*%
X117000000Y-97500000D02*
X117000000Y-93250000D01*
X132750000Y-113250000D02*
X117000000Y-97500000D01*
X132750000Y-115750000D02*
X132750000Y-113250000D01*
%TO.N,Net-(D12-Pad2)*%
X74500000Y-106250000D02*
X74500000Y-104500000D01*
X76750000Y-108500000D02*
X74500000Y-106250000D01*
X84000000Y-105000000D02*
X80500000Y-108500000D01*
X84000000Y-75500000D02*
X84000000Y-105000000D01*
X80500000Y-108500000D02*
X76750000Y-108500000D01*
X84500000Y-75000000D02*
X84000000Y-75500000D01*
%TO.N,PB5_RESET*%
X95376900Y-111828100D02*
X95410000Y-111795000D01*
X95376900Y-114335000D02*
X95376900Y-111828100D01*
%TO.N,PB4*%
X95410000Y-109255000D02*
X92354500Y-109255000D01*
%TO.N,PB3_AI*%
X98374100Y-92524100D02*
X97600000Y-91750000D01*
X98374100Y-95000000D02*
X98374100Y-92524100D01*
X98374100Y-95000000D02*
X98374100Y-109625900D01*
X97475000Y-110525000D02*
X95410000Y-110525000D01*
X98374100Y-109625900D02*
X97475000Y-110525000D01*
%TO.N,Net-(D7-Pad2)*%
X109750000Y-126250000D02*
X111750000Y-124250000D01*
X125500000Y-145250000D02*
X109750000Y-129500000D01*
X137750000Y-145250000D02*
X125500000Y-145250000D01*
X109750000Y-129500000D02*
X109750000Y-126250000D01*
X140250000Y-147750000D02*
X137750000Y-145250000D01*
X140250000Y-149000000D02*
X140250000Y-147750000D01*
%TO.N,Net-(J2-Pad1)*%
X145951935Y-148951935D02*
X146708284Y-148195586D01*
D17*
X143500000Y-146000000D02*
X143500000Y-147750000D01*
X130750000Y-133250000D02*
X143500000Y-146000000D01*
X130750000Y-128000000D02*
X130750000Y-133250000D01*
X136250000Y-122500000D02*
X130750000Y-128000000D01*
X143500000Y-147750000D02*
X144701935Y-148951935D01*
D15*
X144701935Y-148951935D02*
X145951935Y-148951935D01*
%TD*%
D19*
%TO.N,GND*%
X103437297Y-27373560D02*
X103437943Y-27376520D01*
X103465594Y-27439927D01*
X103478655Y-27470559D01*
X103480114Y-27473221D01*
X103495818Y-27509233D01*
X103514801Y-27536534D01*
X103530789Y-27565716D01*
X103556043Y-27595848D01*
X103578471Y-27628103D01*
X103602416Y-27651177D01*
X103623790Y-27676679D01*
X103654432Y-27701301D01*
X103682727Y-27728566D01*
X103710720Y-27746529D01*
X103736652Y-27767366D01*
X103771505Y-27785535D01*
X103804579Y-27806758D01*
X103835540Y-27818915D01*
X103865037Y-27834292D01*
X103902761Y-27845311D01*
X103939344Y-27859676D01*
X103972083Y-27865560D01*
X104004012Y-27874886D01*
X104043164Y-27878334D01*
X104046136Y-27878868D01*
X104079154Y-27881503D01*
X104148237Y-27887587D01*
X104151256Y-27887258D01*
X115759638Y-28813765D01*
X107044262Y-36240760D01*
X107036323Y-36245458D01*
X106989222Y-36287664D01*
X106968705Y-36305148D01*
X106962348Y-36311745D01*
X106928496Y-36342079D01*
X106912222Y-36363764D01*
X106893417Y-36383279D01*
X106868877Y-36421521D01*
X106841592Y-36457878D01*
X106829862Y-36482320D01*
X106815224Y-36505131D01*
X106798614Y-36547430D01*
X106778949Y-36588407D01*
X106772214Y-36614665D01*
X106762306Y-36639896D01*
X106754267Y-36684627D01*
X106742975Y-36728649D01*
X106741492Y-36755716D01*
X106736697Y-36782395D01*
X106737539Y-36827836D01*
X106735052Y-36873213D01*
X106738877Y-36900045D01*
X106739379Y-36927152D01*
X106749071Y-36971561D01*
X106750364Y-36980630D01*
X106756764Y-37006809D01*
X106770251Y-37068605D01*
X106773939Y-37077062D01*
X109540328Y-48392761D01*
X102206964Y-43940638D01*
X102185056Y-43923402D01*
X102145235Y-43903162D01*
X102138057Y-43898804D01*
X102113044Y-43886800D01*
X102055989Y-43857800D01*
X102047856Y-43855515D01*
X102040236Y-43851858D01*
X101978230Y-43835953D01*
X101916604Y-43818638D01*
X101908178Y-43817983D01*
X101899994Y-43815884D01*
X101836085Y-43812381D01*
X101772258Y-43807421D01*
X101763868Y-43808422D01*
X101755430Y-43807960D01*
X101692062Y-43816993D01*
X101628495Y-43824581D01*
X101620459Y-43827201D01*
X101612096Y-43828393D01*
X101551716Y-43849612D01*
X101490844Y-43869457D01*
X101483475Y-43873593D01*
X101475503Y-43876395D01*
X101420402Y-43908998D01*
X101364592Y-43940326D01*
X101358174Y-43945818D01*
X101350899Y-43950123D01*
X101303223Y-43992845D01*
X101254592Y-44034463D01*
X101249366Y-44041106D01*
X101243074Y-44046744D01*
X101204663Y-44097926D01*
X101165070Y-44148252D01*
X101161240Y-44155787D01*
X101156170Y-44162543D01*
X101128476Y-44220247D01*
X101099468Y-44277319D01*
X101097183Y-44285452D01*
X101093526Y-44293072D01*
X101077621Y-44355078D01*
X101060306Y-44416704D01*
X101059651Y-44425130D01*
X101057552Y-44433314D01*
X101054049Y-44497223D01*
X101049089Y-44561050D01*
X101050090Y-44569440D01*
X101049628Y-44577878D01*
X101058661Y-44641246D01*
X101066249Y-44704813D01*
X101068869Y-44712849D01*
X101070061Y-44721212D01*
X101091280Y-44781592D01*
X101111125Y-44842464D01*
X101115261Y-44849833D01*
X101118063Y-44857805D01*
X101150670Y-44912912D01*
X101164236Y-44937080D01*
X101169038Y-44943956D01*
X101191791Y-44982409D01*
X101210398Y-45003173D01*
X131818212Y-88826785D01*
X131754267Y-88851266D01*
X131521421Y-88939024D01*
X131265446Y-89033930D01*
X130987224Y-89135319D01*
X130687711Y-89242499D01*
X130367850Y-89354779D01*
X130028554Y-89471486D01*
X129670736Y-89591940D01*
X129295542Y-89715389D01*
X128903738Y-89841202D01*
X128496265Y-89968697D01*
X128074159Y-90097157D01*
X127638427Y-90225880D01*
X127189983Y-90354192D01*
X126729724Y-90481423D01*
X126258743Y-90606850D01*
X125777873Y-90729824D01*
X125288077Y-90849658D01*
X124790502Y-90965626D01*
X124285970Y-91077083D01*
X123775480Y-91183342D01*
X123259960Y-91283733D01*
X122740512Y-91377559D01*
X122218074Y-91464155D01*
X121738499Y-91536122D01*
X121717477Y-91536320D01*
X121575749Y-91565900D01*
X121442514Y-91622562D01*
X121322894Y-91704127D01*
X121221485Y-91807462D01*
X121142184Y-91928595D01*
X121088039Y-92062872D01*
X121061130Y-92205132D01*
X121062492Y-92349907D01*
X121092072Y-92491635D01*
X121148734Y-92624870D01*
X121209860Y-92714515D01*
X148673606Y-125544572D01*
X148627209Y-125569549D01*
X148386997Y-125696757D01*
X148118691Y-125836423D01*
X147823402Y-125987382D01*
X147502047Y-126148576D01*
X147155545Y-126318934D01*
X146785260Y-126497178D01*
X146391987Y-126682304D01*
X145976781Y-126873179D01*
X145540737Y-127068660D01*
X145084917Y-127267614D01*
X144610373Y-127468922D01*
X144118034Y-127671513D01*
X143609151Y-127874185D01*
X143084519Y-128075921D01*
X142545385Y-128275532D01*
X141992667Y-128471953D01*
X141427619Y-128664002D01*
X140851105Y-128850636D01*
X140264222Y-129030737D01*
X139668134Y-129203168D01*
X139063882Y-129366839D01*
X138452491Y-129520666D01*
X137835020Y-129663563D01*
X137212683Y-129794413D01*
X136637688Y-129902530D01*
X136625830Y-129902785D01*
X136484470Y-129934083D01*
X136351933Y-129992356D01*
X136233312Y-130075367D01*
X136133164Y-130179924D01*
X136055338Y-130302011D01*
X136002826Y-130436935D01*
X135977645Y-130579511D01*
X135980763Y-130724258D01*
X136012061Y-130865618D01*
X136070334Y-130998155D01*
X136132544Y-131087052D01*
X147436467Y-144271351D01*
X146961312Y-144670053D01*
X146873834Y-144759461D01*
X146805480Y-144864216D01*
X146758876Y-144980294D01*
X146735813Y-145103234D01*
X146737178Y-145228310D01*
X146762917Y-145350717D01*
X146812042Y-145465751D01*
X146882666Y-145568990D01*
X147525454Y-146335034D01*
X147614861Y-146422511D01*
X147719616Y-146490866D01*
X147835694Y-146537470D01*
X147958633Y-146560533D01*
X148083710Y-146559169D01*
X148206117Y-146533429D01*
X148321150Y-146484304D01*
X148424390Y-146413681D01*
X148918080Y-145999426D01*
X152188262Y-149813594D01*
X151653661Y-150262177D01*
X151566183Y-150351585D01*
X151497829Y-150456340D01*
X151451225Y-150572418D01*
X151428162Y-150695358D01*
X151429527Y-150820434D01*
X151455266Y-150942841D01*
X151504391Y-151057875D01*
X151575015Y-151161114D01*
X152217803Y-151927158D01*
X152307210Y-152014635D01*
X152411965Y-152082990D01*
X152528043Y-152129594D01*
X152650982Y-152152657D01*
X152776059Y-152151293D01*
X152898466Y-152125553D01*
X153013499Y-152076428D01*
X153116739Y-152005805D01*
X153669875Y-151541669D01*
X163699561Y-163239765D01*
X163574791Y-163298867D01*
X162581395Y-163752588D01*
X161584434Y-164191462D01*
X160584218Y-164615662D01*
X159580603Y-165025549D01*
X158573715Y-165421374D01*
X157563633Y-165803406D01*
X156550476Y-166171901D01*
X155534220Y-166527164D01*
X154514941Y-166869463D01*
X153492878Y-167199019D01*
X152467899Y-167516166D01*
X151440090Y-167821171D01*
X150409700Y-168114256D01*
X149376650Y-168395734D01*
X148340892Y-168665908D01*
X147302903Y-168924944D01*
X146262245Y-169173242D01*
X145219435Y-169410967D01*
X144174272Y-169638455D01*
X143126994Y-169855939D01*
X142077504Y-170063727D01*
X141026056Y-170262055D01*
X139972662Y-170451210D01*
X138917176Y-170631497D01*
X137860159Y-170803108D01*
X136801171Y-170966400D01*
X135740683Y-171121582D01*
X134678455Y-171268974D01*
X133614930Y-171408796D01*
X132549741Y-171541381D01*
X131482399Y-171667064D01*
X131128496Y-171707204D01*
X130773879Y-171746677D01*
X130418418Y-171785506D01*
X130063301Y-171823570D01*
X129707590Y-171860980D01*
X129352436Y-171897627D01*
X128996904Y-171933616D01*
X128640868Y-171968971D01*
X128285058Y-172003629D01*
X127929087Y-172037639D01*
X127573310Y-172070977D01*
X127216848Y-172103736D01*
X126860468Y-172135856D01*
X126504025Y-172167359D01*
X126147718Y-172198238D01*
X125791339Y-172228524D01*
X125433948Y-172258303D01*
X125077618Y-172287415D01*
X124720794Y-172315998D01*
X124363735Y-172344039D01*
X124006055Y-172371581D01*
X123649089Y-172398528D01*
X123291934Y-172424963D01*
X122935345Y-172450839D01*
X122577258Y-172476316D01*
X122220322Y-172501215D01*
X121862733Y-172525673D01*
X121504753Y-172549681D01*
X121147039Y-172573205D01*
X120789430Y-172596267D01*
X120432319Y-172618852D01*
X120432308Y-172618853D01*
X120096347Y-172639694D01*
X109891105Y-172639694D01*
X109855000Y-172636138D01*
X109818895Y-172639694D01*
X109710915Y-172650329D01*
X109572367Y-172692357D01*
X109444680Y-172760607D01*
X109332762Y-172852456D01*
X109240913Y-172964374D01*
X109172663Y-173092061D01*
X109130635Y-173230609D01*
X109116444Y-173374694D01*
X109120001Y-173410809D01*
X109120000Y-195910553D01*
X108280554Y-196750000D01*
X100205325Y-196750000D01*
X100323175Y-196573624D01*
X100414462Y-196353236D01*
X100461000Y-196119273D01*
X100461000Y-195880727D01*
X100414462Y-195646764D01*
X100323175Y-195426376D01*
X100190646Y-195228032D01*
X100021968Y-195059354D01*
X99823624Y-194926825D01*
X99603236Y-194835538D01*
X99369273Y-194789000D01*
X99130727Y-194789000D01*
X98896764Y-194835538D01*
X98676376Y-194926825D01*
X98478032Y-195059354D01*
X98309354Y-195228032D01*
X98176825Y-195426376D01*
X98085538Y-195646764D01*
X98039000Y-195880727D01*
X98039000Y-196119273D01*
X98085538Y-196353236D01*
X98176825Y-196573624D01*
X98294675Y-196750000D01*
X90664947Y-196750000D01*
X89762000Y-195847054D01*
X89762000Y-173491304D01*
X89765551Y-173453901D01*
X89758348Y-173383314D01*
X89751365Y-173312414D01*
X89750985Y-173311162D01*
X89750853Y-173309866D01*
X89730009Y-173242012D01*
X89709337Y-173173866D01*
X89708721Y-173172713D01*
X89708338Y-173171467D01*
X89674657Y-173108983D01*
X89641087Y-173046179D01*
X89640257Y-173045168D01*
X89639639Y-173044021D01*
X89594414Y-172989308D01*
X89549237Y-172934261D01*
X89548226Y-172933432D01*
X89547396Y-172932427D01*
X89492300Y-172887534D01*
X89437319Y-172842412D01*
X89436169Y-172841797D01*
X89435156Y-172840972D01*
X89372304Y-172807661D01*
X89309632Y-172774162D01*
X89308383Y-172773783D01*
X89307230Y-172773172D01*
X89239167Y-172752787D01*
X89171084Y-172732134D01*
X89169783Y-172732006D01*
X89168535Y-172731632D01*
X89097894Y-172724925D01*
X89027000Y-172717943D01*
X88989600Y-172721627D01*
X78855927Y-172757286D01*
X78519779Y-172738357D01*
X78161452Y-172717745D01*
X77803772Y-172696725D01*
X77445473Y-172675213D01*
X77088300Y-172653304D01*
X76730081Y-172630853D01*
X76372369Y-172607948D01*
X76015316Y-172584590D01*
X75657131Y-172560650D01*
X75300233Y-172536279D01*
X74943015Y-172511359D01*
X74585194Y-172485858D01*
X74228225Y-172459869D01*
X73871205Y-172433317D01*
X73513992Y-172406182D01*
X73156759Y-172378465D01*
X72800378Y-172350224D01*
X72443509Y-172321344D01*
X72086805Y-172291865D01*
X71730218Y-172261775D01*
X71374041Y-172231088D01*
X71017595Y-172199734D01*
X70661263Y-172167739D01*
X70304883Y-172135073D01*
X69949525Y-172101828D01*
X69593131Y-172067802D01*
X69237806Y-172033182D01*
X68881607Y-171997771D01*
X68526304Y-171961733D01*
X68170944Y-171924962D01*
X67815397Y-171887432D01*
X67461418Y-171849323D01*
X66393579Y-171729743D01*
X65327684Y-171603230D01*
X64263204Y-171469444D01*
X63200293Y-171328122D01*
X62138881Y-171178972D01*
X61079123Y-171021735D01*
X60021006Y-170856124D01*
X58964516Y-170681851D01*
X57910157Y-170498715D01*
X56857427Y-170306346D01*
X55806947Y-170104571D01*
X54758252Y-169893014D01*
X53711974Y-169671517D01*
X53047433Y-169524000D01*
X64675151Y-169524000D01*
X64750000Y-169531372D01*
X64824849Y-169524000D01*
X66175141Y-169524000D01*
X66250000Y-169531373D01*
X66324859Y-169524000D01*
X67675150Y-169524000D01*
X67749999Y-169531372D01*
X67824848Y-169524000D01*
X97425151Y-169524000D01*
X97500000Y-169531372D01*
X97574849Y-169524000D01*
X99175150Y-169524000D01*
X99249999Y-169531372D01*
X99324848Y-169524000D01*
X100425150Y-169524000D01*
X100499999Y-169531372D01*
X100574848Y-169524000D01*
X104425151Y-169524000D01*
X104500000Y-169531372D01*
X104574849Y-169524000D01*
X104574859Y-169524000D01*
X104798756Y-169501948D01*
X105086031Y-169414804D01*
X105350785Y-169273290D01*
X105582844Y-169082844D01*
X105630564Y-169024697D01*
X111131261Y-163524000D01*
X118425151Y-163524000D01*
X118500000Y-163531372D01*
X118574849Y-163524000D01*
X120425150Y-163524000D01*
X120499999Y-163531372D01*
X120574848Y-163524000D01*
X122175150Y-163524000D01*
X122249999Y-163531372D01*
X122324848Y-163524000D01*
X131425151Y-163524000D01*
X131500000Y-163531372D01*
X131574849Y-163524000D01*
X131574859Y-163524000D01*
X131798756Y-163501948D01*
X132086031Y-163414804D01*
X132350785Y-163273290D01*
X132582844Y-163082844D01*
X132630564Y-163024697D01*
X136130564Y-159524697D01*
X138755564Y-156899698D01*
X138755569Y-156899692D01*
X138774697Y-156880564D01*
X138832844Y-156832844D01*
X138880564Y-156774697D01*
X140631261Y-155024000D01*
X145555518Y-155024000D01*
X145630367Y-155031372D01*
X145705216Y-155024000D01*
X145705226Y-155024000D01*
X145929123Y-155001948D01*
X146216398Y-154914804D01*
X146481152Y-154773290D01*
X146713211Y-154582844D01*
X146760931Y-154524697D01*
X148260930Y-153024698D01*
X148403656Y-152850786D01*
X148545170Y-152586032D01*
X148554500Y-152555277D01*
X148762479Y-152803137D01*
X148851887Y-152890614D01*
X148956642Y-152958969D01*
X149072720Y-153005573D01*
X149195659Y-153028636D01*
X149320736Y-153027272D01*
X149443143Y-153001532D01*
X149558176Y-152952407D01*
X149661416Y-152881784D01*
X149938668Y-152649142D01*
X150524845Y-153347719D01*
X150614252Y-153435196D01*
X150719007Y-153503551D01*
X150835085Y-153550155D01*
X150958024Y-153573218D01*
X151083101Y-153571854D01*
X151205508Y-153546114D01*
X151320541Y-153496989D01*
X151423781Y-153426366D01*
X152036617Y-152912136D01*
X152124095Y-152822728D01*
X152192449Y-152717973D01*
X152239053Y-152601895D01*
X152262116Y-152478955D01*
X152260751Y-152353879D01*
X152235012Y-152231472D01*
X152185887Y-152116438D01*
X152115263Y-152013199D01*
X151472475Y-151247155D01*
X151383068Y-151159678D01*
X151278313Y-151091323D01*
X151162235Y-151044719D01*
X151039296Y-151021656D01*
X150914219Y-151023020D01*
X150894889Y-151027085D01*
X150889130Y-151018666D01*
X150837955Y-150957678D01*
X150980916Y-150898462D01*
X151158623Y-150779722D01*
X151309751Y-150628594D01*
X151428491Y-150450887D01*
X151510280Y-150253430D01*
X151551976Y-150043810D01*
X151551976Y-149830084D01*
X151510280Y-149620464D01*
X151428491Y-149423007D01*
X151309751Y-149245300D01*
X151158623Y-149094172D01*
X150980916Y-148975432D01*
X150783459Y-148893643D01*
X150573839Y-148851947D01*
X150360113Y-148851947D01*
X150150493Y-148893643D01*
X149953036Y-148975432D01*
X149775329Y-149094172D01*
X149624201Y-149245300D01*
X149525299Y-149393317D01*
X149474997Y-149333369D01*
X149385589Y-149245892D01*
X149280834Y-149177537D01*
X149164756Y-149130933D01*
X149041817Y-149107870D01*
X148916740Y-149109234D01*
X148794333Y-149134974D01*
X148679300Y-149184099D01*
X148576060Y-149254722D01*
X148184207Y-149583525D01*
X148069457Y-149644860D01*
X147953512Y-149740014D01*
X147723014Y-149970512D01*
X147426993Y-150218903D01*
X147339516Y-150308311D01*
X147271161Y-150413066D01*
X147264923Y-150428604D01*
X147216423Y-150477104D01*
X147130366Y-150468628D01*
X146831610Y-150498053D01*
X146544335Y-150585197D01*
X146279581Y-150726711D01*
X146105669Y-150869437D01*
X144999106Y-151976000D01*
X140074848Y-151976000D01*
X139999999Y-151968628D01*
X139925150Y-151976000D01*
X139064332Y-151976000D01*
X139023290Y-151899215D01*
X138918664Y-151771728D01*
X139051898Y-151745226D01*
X139240256Y-151667205D01*
X139409774Y-151553937D01*
X139553937Y-151409774D01*
X139667205Y-151240256D01*
X139745226Y-151051898D01*
X139785000Y-150851939D01*
X139785000Y-150648061D01*
X139745226Y-150448102D01*
X139667205Y-150259744D01*
X139553937Y-150090226D01*
X139409774Y-149946063D01*
X139337378Y-149897689D01*
X139318596Y-149874804D01*
X139163890Y-149747840D01*
X138987387Y-149653498D01*
X138795871Y-149595402D01*
X138646602Y-149580700D01*
X138596700Y-149575785D01*
X138546798Y-149580700D01*
X138315516Y-149580700D01*
X138173408Y-149537592D01*
X138006250Y-149521128D01*
X137493750Y-149521128D01*
X137326592Y-149537592D01*
X137165858Y-149586350D01*
X137017725Y-149665529D01*
X136887885Y-149772085D01*
X136781329Y-149901925D01*
X136702150Y-150050058D01*
X136653392Y-150210792D01*
X136636928Y-150377950D01*
X136636928Y-150815450D01*
X136653392Y-150982608D01*
X136702150Y-151143342D01*
X136734000Y-151202930D01*
X136734000Y-151612298D01*
X136667156Y-151667156D01*
X136476710Y-151899215D01*
X136335196Y-152163969D01*
X136248052Y-152451244D01*
X136226000Y-152675141D01*
X136226000Y-153425141D01*
X136218627Y-153500000D01*
X136226000Y-153574858D01*
X136226001Y-155118737D01*
X133975303Y-157369436D01*
X130868739Y-160476000D01*
X122881261Y-160476000D01*
X121696737Y-159291476D01*
X121816974Y-159211137D01*
X121961137Y-159066974D01*
X122074405Y-158897456D01*
X122152426Y-158709098D01*
X122192200Y-158509139D01*
X122192200Y-158305261D01*
X122152426Y-158105302D01*
X122074405Y-157916944D01*
X121961137Y-157747426D01*
X121816974Y-157603263D01*
X121647456Y-157489995D01*
X121459098Y-157411974D01*
X121259139Y-157372200D01*
X121055261Y-157372200D01*
X120959741Y-157391200D01*
X120815516Y-157391200D01*
X120673408Y-157348092D01*
X120506250Y-157331628D01*
X119993750Y-157331628D01*
X119826592Y-157348092D01*
X119665858Y-157396850D01*
X119517725Y-157476029D01*
X119387885Y-157582585D01*
X119281329Y-157712425D01*
X119202150Y-157860558D01*
X119153392Y-158021292D01*
X119136928Y-158188450D01*
X119136928Y-158625950D01*
X119153392Y-158793108D01*
X119186264Y-158901474D01*
X119167156Y-158917156D01*
X118976710Y-159149215D01*
X118935234Y-159226812D01*
X118835196Y-159413970D01*
X118793581Y-159551158D01*
X117868739Y-160476000D01*
X112024000Y-160476000D01*
X112024000Y-138824849D01*
X112031372Y-138750000D01*
X112024000Y-138675151D01*
X112024000Y-138675141D01*
X112001948Y-138451244D01*
X111914804Y-138163969D01*
X111867174Y-138074859D01*
X111773290Y-137899214D01*
X111630564Y-137725302D01*
X111630560Y-137725298D01*
X111582844Y-137667156D01*
X111524702Y-137619440D01*
X100155262Y-126250000D01*
X108729085Y-126250000D01*
X108734001Y-126299911D01*
X108734000Y-129450098D01*
X108729085Y-129500000D01*
X108734000Y-129549901D01*
X108748702Y-129699170D01*
X108806798Y-129890686D01*
X108901140Y-130067190D01*
X109028104Y-130221896D01*
X109066872Y-130253712D01*
X124746292Y-145933133D01*
X124778104Y-145971896D01*
X124816865Y-146003706D01*
X124932810Y-146098860D01*
X125109313Y-146193202D01*
X125300829Y-146251298D01*
X125500000Y-146270915D01*
X125549902Y-146266000D01*
X137329160Y-146266000D01*
X139234001Y-148170842D01*
X139234000Y-148802540D01*
X139215000Y-148898061D01*
X139215000Y-149101939D01*
X139254774Y-149301898D01*
X139332795Y-149490256D01*
X139446063Y-149659774D01*
X139590226Y-149803937D01*
X139759744Y-149917205D01*
X139948102Y-149995226D01*
X140148061Y-150035000D01*
X140351939Y-150035000D01*
X140551898Y-149995226D01*
X140740256Y-149917205D01*
X140909774Y-149803937D01*
X141053937Y-149659774D01*
X141167205Y-149490256D01*
X141245226Y-149301898D01*
X141285000Y-149101939D01*
X141285000Y-148898061D01*
X141266000Y-148802541D01*
X141266000Y-147799902D01*
X141270915Y-147750000D01*
X141251298Y-147550829D01*
X141193202Y-147359312D01*
X141160340Y-147297832D01*
X141098860Y-147182810D01*
X140971896Y-147028104D01*
X140933133Y-146996292D01*
X138503712Y-144566872D01*
X138471896Y-144528104D01*
X138317190Y-144401140D01*
X138140687Y-144306798D01*
X137949171Y-144248702D01*
X137799902Y-144234000D01*
X137750000Y-144229085D01*
X137700098Y-144234000D01*
X125920841Y-144234000D01*
X110766000Y-129079160D01*
X110766000Y-126670840D01*
X112328797Y-125108044D01*
X112409774Y-125053937D01*
X112553937Y-124909774D01*
X112667205Y-124740256D01*
X112745226Y-124551898D01*
X112785000Y-124351939D01*
X112785000Y-124148061D01*
X112745226Y-123948102D01*
X112667205Y-123759744D01*
X112553937Y-123590226D01*
X112409774Y-123446063D01*
X112240256Y-123332795D01*
X112051898Y-123254774D01*
X111851939Y-123215000D01*
X111648061Y-123215000D01*
X111448102Y-123254774D01*
X111259744Y-123332795D01*
X111090226Y-123446063D01*
X110946063Y-123590226D01*
X110891956Y-123671203D01*
X109066868Y-125496292D01*
X109028105Y-125528104D01*
X108901141Y-125682810D01*
X108835221Y-125806139D01*
X108806799Y-125859313D01*
X108748702Y-126050830D01*
X108729085Y-126250000D01*
X100155262Y-126250000D01*
X99274000Y-125368739D01*
X99274000Y-121881261D01*
X100131262Y-121024000D01*
X101175151Y-121024000D01*
X101250000Y-121031372D01*
X101324849Y-121024000D01*
X102175151Y-121024000D01*
X102250000Y-121031372D01*
X102324849Y-121024000D01*
X104175150Y-121024000D01*
X104249999Y-121031372D01*
X104324848Y-121024000D01*
X120618739Y-121024000D01*
X121351001Y-121756263D01*
X121351000Y-127493738D01*
X120118739Y-128726000D01*
X116881262Y-128726000D01*
X115024697Y-126869436D01*
X115016000Y-126862299D01*
X115016000Y-126836952D01*
X115124171Y-126826298D01*
X115315687Y-126768202D01*
X115492190Y-126673860D01*
X115544302Y-126631092D01*
X115659774Y-126553937D01*
X115803937Y-126409774D01*
X115917205Y-126240256D01*
X115995226Y-126051898D01*
X116035000Y-125851939D01*
X116035000Y-125648061D01*
X115995226Y-125448102D01*
X115917205Y-125259744D01*
X115803937Y-125090226D01*
X115659774Y-124946063D01*
X115490256Y-124832795D01*
X115301898Y-124754774D01*
X115101939Y-124715000D01*
X114898061Y-124715000D01*
X114698102Y-124754774D01*
X114567190Y-124809000D01*
X114565516Y-124809000D01*
X114423408Y-124765892D01*
X114256250Y-124749428D01*
X113743750Y-124749428D01*
X113576592Y-124765892D01*
X113415858Y-124814650D01*
X113267725Y-124893829D01*
X113137885Y-125000385D01*
X113031329Y-125130225D01*
X112952150Y-125278358D01*
X112903392Y-125439092D01*
X112886928Y-125606250D01*
X112886928Y-126043750D01*
X112903392Y-126210908D01*
X112952150Y-126371642D01*
X112984000Y-126431230D01*
X112984000Y-126862298D01*
X112917156Y-126917156D01*
X112726710Y-127149215D01*
X112585197Y-127413969D01*
X112498053Y-127701244D01*
X112468628Y-128000000D01*
X112498053Y-128298756D01*
X112585197Y-128586031D01*
X112726710Y-128850785D01*
X112869436Y-129024697D01*
X115119440Y-131274702D01*
X115167156Y-131332844D01*
X115225298Y-131380560D01*
X115225302Y-131380564D01*
X115399215Y-131523290D01*
X115663969Y-131664804D01*
X115951244Y-131751948D01*
X116250000Y-131781373D01*
X116324859Y-131774000D01*
X120675151Y-131774000D01*
X120750000Y-131781372D01*
X120824849Y-131774000D01*
X120824859Y-131774000D01*
X121048756Y-131751948D01*
X121336031Y-131664804D01*
X121600785Y-131523290D01*
X121832844Y-131332844D01*
X121880564Y-131274697D01*
X123899703Y-129255559D01*
X123957844Y-129207844D01*
X124005560Y-129149702D01*
X124005564Y-129149698D01*
X124148290Y-128975786D01*
X124289804Y-128711031D01*
X124309440Y-128646300D01*
X124376948Y-128423756D01*
X124399000Y-128199859D01*
X124399000Y-128199849D01*
X124406372Y-128125000D01*
X124399000Y-128050151D01*
X124399000Y-128000000D01*
X129358300Y-128000000D01*
X129365000Y-128068029D01*
X129365001Y-133181961D01*
X129358300Y-133250000D01*
X129385040Y-133521507D01*
X129464236Y-133782580D01*
X129592844Y-134023188D01*
X129722548Y-134181233D01*
X129722551Y-134181236D01*
X129765920Y-134234081D01*
X129818765Y-134277450D01*
X142115000Y-146573686D01*
X142115000Y-147681971D01*
X142108300Y-147750000D01*
X142115000Y-147818029D01*
X142115000Y-147818037D01*
X142117466Y-147843071D01*
X142135040Y-148021507D01*
X142214236Y-148282580D01*
X142342844Y-148523188D01*
X142472548Y-148681233D01*
X142472551Y-148681236D01*
X142515920Y-148734081D01*
X142568764Y-148777449D01*
X143770701Y-149979387D01*
X143928747Y-150109092D01*
X144169354Y-150237699D01*
X144430428Y-150316895D01*
X144701935Y-150343635D01*
X144973442Y-150316895D01*
X145234515Y-150237699D01*
X145475123Y-150109092D01*
X145647123Y-149967935D01*
X145902033Y-149967935D01*
X145951935Y-149972850D01*
X146001837Y-149967935D01*
X146151106Y-149953233D01*
X146342622Y-149895137D01*
X146519125Y-149800795D01*
X146673831Y-149673831D01*
X146705647Y-149635063D01*
X147461990Y-148878721D01*
X147529812Y-148796079D01*
X147879055Y-148503029D01*
X148024673Y-148600328D01*
X148222130Y-148682117D01*
X148431750Y-148723813D01*
X148645476Y-148723813D01*
X148855096Y-148682117D01*
X149052553Y-148600328D01*
X149230260Y-148481588D01*
X149381388Y-148330460D01*
X149500128Y-148152753D01*
X149581917Y-147955296D01*
X149623613Y-147745676D01*
X149623613Y-147531950D01*
X149581917Y-147322330D01*
X149500128Y-147124873D01*
X149381388Y-146947166D01*
X149230260Y-146796038D01*
X149052553Y-146677298D01*
X148855096Y-146595509D01*
X148645476Y-146553813D01*
X148431750Y-146553813D01*
X148222130Y-146595509D01*
X148024673Y-146677298D01*
X147846966Y-146796038D01*
X147695838Y-146947166D01*
X147596936Y-147095183D01*
X147546634Y-147035235D01*
X147539344Y-147028102D01*
X147546704Y-147009770D01*
X147569767Y-146886830D01*
X147568402Y-146761754D01*
X147542663Y-146639347D01*
X147493538Y-146524313D01*
X147422914Y-146421074D01*
X146780126Y-145655030D01*
X146690719Y-145567553D01*
X146585964Y-145499198D01*
X146469886Y-145452594D01*
X146346947Y-145429531D01*
X146221870Y-145430895D01*
X146099463Y-145456635D01*
X145984430Y-145505760D01*
X145881190Y-145576383D01*
X145268354Y-146090613D01*
X145180876Y-146180021D01*
X145112522Y-146284776D01*
X145065918Y-146400854D01*
X145042855Y-146523794D01*
X145044220Y-146648870D01*
X145069959Y-146771277D01*
X145119084Y-146886311D01*
X145189708Y-146989550D01*
X145775883Y-147688126D01*
X145569765Y-147861079D01*
X144885000Y-147176315D01*
X144885000Y-146068029D01*
X144891700Y-146000000D01*
X144885000Y-145931971D01*
X144885000Y-145931963D01*
X144864960Y-145728493D01*
X144838325Y-145640687D01*
X144785764Y-145467419D01*
X144776010Y-145449170D01*
X144657157Y-145226812D01*
X144597932Y-145154647D01*
X144527452Y-145068766D01*
X144527445Y-145068759D01*
X144484080Y-145015919D01*
X144431241Y-144972555D01*
X132135000Y-132676315D01*
X132135000Y-128573685D01*
X135109472Y-125599213D01*
X135334488Y-125596759D01*
X135746045Y-125510218D01*
X136132812Y-125345049D01*
X136392939Y-125167103D01*
X138851762Y-123103908D01*
X139072175Y-122878632D01*
X139301997Y-122526423D01*
X139458690Y-122136146D01*
X139536232Y-121722798D01*
X139531645Y-121302264D01*
X139445104Y-120890707D01*
X139279935Y-120503940D01*
X139042485Y-120156829D01*
X138741880Y-119862711D01*
X138389670Y-119632889D01*
X137999393Y-119476196D01*
X137586045Y-119398654D01*
X137165511Y-119403241D01*
X136753954Y-119489782D01*
X136367188Y-119654951D01*
X136107060Y-119832897D01*
X133648238Y-121896093D01*
X133427825Y-122121368D01*
X133198003Y-122473578D01*
X133041310Y-122863855D01*
X132963768Y-123277203D01*
X132968355Y-123697736D01*
X132990112Y-123801203D01*
X129818765Y-126972550D01*
X129765919Y-127015920D01*
X129722550Y-127068765D01*
X129722548Y-127068767D01*
X129663012Y-127141312D01*
X129592843Y-127226813D01*
X129487697Y-127423528D01*
X129464236Y-127467420D01*
X129385040Y-127728493D01*
X129382922Y-127749999D01*
X129365000Y-127931964D01*
X129365000Y-127931971D01*
X129358300Y-128000000D01*
X124399000Y-128000000D01*
X124399000Y-122006261D01*
X125381261Y-121024000D01*
X131925151Y-121024000D01*
X132000000Y-121031372D01*
X132074849Y-121024000D01*
X132074859Y-121024000D01*
X132298756Y-121001948D01*
X132586031Y-120914804D01*
X132850785Y-120773290D01*
X133082844Y-120582844D01*
X133130564Y-120524697D01*
X136024702Y-117630560D01*
X136082844Y-117582844D01*
X136130560Y-117524702D01*
X136130564Y-117524698D01*
X136273290Y-117350786D01*
X136414804Y-117086031D01*
X136501948Y-116798756D01*
X136507220Y-116745226D01*
X136524000Y-116574859D01*
X136524000Y-116574851D01*
X136531372Y-116500000D01*
X136524000Y-116425149D01*
X136524000Y-112574848D01*
X136531372Y-112499999D01*
X136524000Y-112425150D01*
X136524000Y-112425141D01*
X136501948Y-112201244D01*
X136414804Y-111913969D01*
X136273290Y-111649215D01*
X136082844Y-111417156D01*
X136024698Y-111369437D01*
X120274000Y-95618739D01*
X120274000Y-90324849D01*
X120281372Y-90250000D01*
X120274000Y-90175151D01*
X120274000Y-89074858D01*
X120281373Y-89000000D01*
X120274000Y-88925141D01*
X120274000Y-88824848D01*
X120281372Y-88749999D01*
X120274000Y-88675150D01*
X120274000Y-87574848D01*
X120281372Y-87499999D01*
X120274000Y-87425150D01*
X120274000Y-85824850D01*
X120281372Y-85750001D01*
X120274000Y-85675152D01*
X120274000Y-75074851D01*
X120281372Y-75000000D01*
X120274000Y-74925149D01*
X120274000Y-74925141D01*
X120251948Y-74701244D01*
X120164804Y-74413969D01*
X120023290Y-74149215D01*
X119983545Y-74100785D01*
X119880564Y-73975302D01*
X119880560Y-73975298D01*
X119832844Y-73917156D01*
X119774702Y-73869440D01*
X117149697Y-71244436D01*
X115380564Y-69475303D01*
X115332844Y-69417156D01*
X115274697Y-69369436D01*
X113630554Y-67725293D01*
X113582843Y-67667157D01*
X113524707Y-67619446D01*
X101255563Y-55350302D01*
X101207844Y-55292156D01*
X101149697Y-55244436D01*
X100524000Y-54618739D01*
X100524000Y-38925141D01*
X100501948Y-38701244D01*
X100414804Y-38413969D01*
X100273290Y-38149215D01*
X100168664Y-38021728D01*
X100301898Y-37995226D01*
X100490256Y-37917205D01*
X100659774Y-37803937D01*
X100803937Y-37659774D01*
X100917205Y-37490256D01*
X100995226Y-37301898D01*
X101035000Y-37101939D01*
X101035000Y-36898061D01*
X100995226Y-36698102D01*
X100917205Y-36509744D01*
X100803937Y-36340226D01*
X100659774Y-36196063D01*
X100490256Y-36082795D01*
X100301898Y-36004774D01*
X100101939Y-35965000D01*
X99898061Y-35965000D01*
X99802541Y-35984000D01*
X99441895Y-35984000D01*
X99423408Y-35978392D01*
X99256250Y-35961928D01*
X98743750Y-35961928D01*
X98576592Y-35978392D01*
X98415858Y-36027150D01*
X98267725Y-36106329D01*
X98137885Y-36212885D01*
X98031329Y-36342725D01*
X97952150Y-36490858D01*
X97903392Y-36651592D01*
X97886928Y-36818750D01*
X97886928Y-37256250D01*
X97903392Y-37423408D01*
X97952150Y-37584142D01*
X97984000Y-37643729D01*
X97984000Y-37862299D01*
X97917157Y-37917156D01*
X97726711Y-38149215D01*
X97585197Y-38413969D01*
X97498053Y-38701244D01*
X97476001Y-38925141D01*
X97476000Y-54618739D01*
X96850303Y-55244436D01*
X96792156Y-55292156D01*
X96744437Y-55350302D01*
X90350308Y-61744431D01*
X90350302Y-61744436D01*
X90225293Y-61869445D01*
X90167157Y-61917156D01*
X90119445Y-61975293D01*
X88600307Y-63494432D01*
X88600302Y-63494436D01*
X88600298Y-63494440D01*
X88542156Y-63542156D01*
X88494440Y-63600298D01*
X86975307Y-65119432D01*
X86975302Y-65119436D01*
X86975298Y-65119440D01*
X86917156Y-65167156D01*
X86869440Y-65225298D01*
X79975299Y-72119440D01*
X79917157Y-72167156D01*
X79869441Y-72225298D01*
X79869436Y-72225303D01*
X79726710Y-72399215D01*
X79585197Y-72663969D01*
X79498053Y-72951244D01*
X79468628Y-73250000D01*
X79476001Y-73324859D01*
X79476000Y-92618738D01*
X76100307Y-95994432D01*
X76100302Y-95994436D01*
X75975293Y-96119445D01*
X75917157Y-96167156D01*
X75869445Y-96225293D01*
X73975303Y-98119436D01*
X73917156Y-98167156D01*
X73869436Y-98225303D01*
X69975303Y-102119436D01*
X69917156Y-102167156D01*
X69869437Y-102225302D01*
X69869436Y-102225303D01*
X69726710Y-102399215D01*
X69685759Y-102475829D01*
X69585196Y-102663970D01*
X69498052Y-102951245D01*
X69476000Y-103175142D01*
X69476000Y-103175151D01*
X69468628Y-103250000D01*
X69476000Y-103324849D01*
X69476001Y-105868737D01*
X63225303Y-112119436D01*
X63167156Y-112167156D01*
X63119437Y-112225302D01*
X63119436Y-112225303D01*
X62976710Y-112399215D01*
X62962852Y-112425142D01*
X62835196Y-112663970D01*
X62748052Y-112951245D01*
X62726000Y-113175142D01*
X62726000Y-113175151D01*
X62718628Y-113250000D01*
X62726000Y-113324849D01*
X62726001Y-125675132D01*
X62726000Y-125675142D01*
X62726000Y-125675151D01*
X62718628Y-125750000D01*
X62726000Y-125824850D01*
X62726001Y-127675131D01*
X62718627Y-127750000D01*
X62726000Y-127824859D01*
X62726000Y-129425151D01*
X62718628Y-129500000D01*
X62726000Y-129574849D01*
X62726000Y-130752794D01*
X62706442Y-130645621D01*
X62653162Y-130510998D01*
X62574642Y-130389356D01*
X62473901Y-130285371D01*
X62354808Y-130203037D01*
X62221941Y-130145519D01*
X62080406Y-130115027D01*
X62068770Y-130114843D01*
X61958059Y-130094609D01*
X61666247Y-130037333D01*
X61471333Y-129997147D01*
X61243433Y-129948513D01*
X60985282Y-129891485D01*
X60697919Y-129825758D01*
X60382710Y-129751100D01*
X60041233Y-129667326D01*
X59674907Y-129574222D01*
X59284791Y-129471475D01*
X58872724Y-129358978D01*
X58439649Y-129236389D01*
X57987289Y-129103578D01*
X57516931Y-128960293D01*
X57029832Y-128806272D01*
X56527551Y-128641350D01*
X56011380Y-128465275D01*
X55482910Y-128277904D01*
X54943143Y-128078882D01*
X54393886Y-127868149D01*
X53836233Y-127645383D01*
X53271727Y-127410437D01*
X52701723Y-127163090D01*
X52127618Y-126903143D01*
X51550760Y-126630379D01*
X50972658Y-126344660D01*
X50394538Y-126045715D01*
X50001791Y-125833006D01*
X77284367Y-92839579D01*
X77344982Y-92749587D01*
X77400884Y-92616032D01*
X77429657Y-92474137D01*
X77430194Y-92329356D01*
X77402476Y-92187252D01*
X77347566Y-92053285D01*
X77267577Y-91932606D01*
X77165581Y-91829850D01*
X77045499Y-91748967D01*
X76911944Y-91693065D01*
X76770049Y-91664292D01*
X76749184Y-91664215D01*
X76657469Y-91650945D01*
X76413541Y-91613322D01*
X76056695Y-91554817D01*
X75840444Y-91517712D01*
X75598802Y-91474928D01*
X75333555Y-91426453D01*
X75045990Y-91372197D01*
X74737157Y-91312026D01*
X74407931Y-91245768D01*
X74059887Y-91173396D01*
X73693659Y-91094687D01*
X73310653Y-91009584D01*
X72912034Y-90917976D01*
X72498691Y-90819693D01*
X72071775Y-90714623D01*
X71632559Y-90602687D01*
X71181973Y-90483718D01*
X70721383Y-90357668D01*
X70251656Y-90224354D01*
X69774107Y-90083716D01*
X69289647Y-89935584D01*
X68799570Y-89779899D01*
X68304941Y-89616533D01*
X67806950Y-89445408D01*
X67306581Y-89266370D01*
X66805158Y-89079394D01*
X66649532Y-89018861D01*
X97011829Y-45015122D01*
X97030312Y-44994257D01*
X97052840Y-44955684D01*
X97057609Y-44948773D01*
X97071049Y-44924508D01*
X97103330Y-44869236D01*
X97106086Y-44861249D01*
X97110180Y-44853857D01*
X97129669Y-44792900D01*
X97150554Y-44732371D01*
X97151699Y-44723994D01*
X97154271Y-44715951D01*
X97161493Y-44652373D01*
X97170169Y-44588924D01*
X97169658Y-44580488D01*
X97170612Y-44572094D01*
X97165291Y-44508317D01*
X97161423Y-44444406D01*
X97159276Y-44436232D01*
X97158574Y-44427813D01*
X97140910Y-44366292D01*
X97124650Y-44304371D01*
X97120951Y-44296774D01*
X97118619Y-44288653D01*
X97089292Y-44231760D01*
X97061265Y-44174202D01*
X97056154Y-44167472D01*
X97052283Y-44159962D01*
X97012427Y-44109892D01*
X96973703Y-44058899D01*
X96967375Y-44053294D01*
X96962115Y-44046685D01*
X96913268Y-44005361D01*
X96865329Y-43962894D01*
X96858028Y-43958630D01*
X96851580Y-43953175D01*
X96795618Y-43922180D01*
X96740307Y-43889876D01*
X96732313Y-43887118D01*
X96724927Y-43883027D01*
X96664007Y-43863549D01*
X96603443Y-43842652D01*
X96595064Y-43841506D01*
X96587022Y-43838935D01*
X96523452Y-43831714D01*
X96459996Y-43823037D01*
X96451559Y-43823548D01*
X96443164Y-43822594D01*
X96379404Y-43827914D01*
X96315477Y-43831783D01*
X96307297Y-43833931D01*
X96298884Y-43834633D01*
X96237380Y-43852291D01*
X96175443Y-43868556D01*
X96167847Y-43872255D01*
X96159724Y-43874587D01*
X96102830Y-43903914D01*
X96077891Y-43916058D01*
X96070737Y-43920457D01*
X96031032Y-43940924D01*
X96009223Y-43958284D01*
X88701329Y-48452095D01*
X91403241Y-37120822D01*
X91406880Y-37112347D01*
X91420010Y-37050495D01*
X91426266Y-37024261D01*
X91427508Y-37015178D01*
X91436946Y-36970720D01*
X91437294Y-36943613D01*
X91440966Y-36916759D01*
X91438221Y-36871397D01*
X91438804Y-36825950D01*
X91433857Y-36799299D01*
X91432220Y-36772242D01*
X91420677Y-36728285D01*
X91412383Y-36683599D01*
X91402331Y-36658422D01*
X91395447Y-36632207D01*
X91375555Y-36591355D01*
X91358699Y-36549137D01*
X91343926Y-36526401D01*
X91332062Y-36502037D01*
X91304582Y-36465851D01*
X91279814Y-36427733D01*
X91260891Y-36408318D01*
X91244500Y-36386734D01*
X91210485Y-36356602D01*
X91204082Y-36350032D01*
X91183439Y-36332643D01*
X91136125Y-36290729D01*
X91128164Y-36286079D01*
X82370633Y-28908829D01*
X93973552Y-27916236D01*
X93976572Y-27916548D01*
X94045593Y-27910073D01*
X94078621Y-27907248D01*
X94081593Y-27906696D01*
X94120721Y-27903026D01*
X94152594Y-27893519D01*
X94185302Y-27887448D01*
X94221809Y-27872873D01*
X94259462Y-27861641D01*
X94288863Y-27846101D01*
X94319763Y-27833764D01*
X94352724Y-27812347D01*
X94387464Y-27793985D01*
X94413270Y-27773006D01*
X94441168Y-27754879D01*
X94469318Y-27727443D01*
X94499808Y-27702656D01*
X94521026Y-27677045D01*
X94544850Y-27653825D01*
X94567104Y-27621428D01*
X94592175Y-27591166D01*
X94607990Y-27561905D01*
X94626825Y-27534485D01*
X94642333Y-27498364D01*
X94643766Y-27495713D01*
X94656542Y-27465269D01*
X94683944Y-27401446D01*
X94684576Y-27398468D01*
X99031479Y-17040388D01*
X103437297Y-27373560D01*
%TA.AperFunction,Conductor*%
D20*
G36*
X103437297Y-27373560D02*
G01*
X103437943Y-27376520D01*
X103465594Y-27439927D01*
X103478655Y-27470559D01*
X103480114Y-27473221D01*
X103495818Y-27509233D01*
X103514801Y-27536534D01*
X103530789Y-27565716D01*
X103556043Y-27595848D01*
X103578471Y-27628103D01*
X103602416Y-27651177D01*
X103623790Y-27676679D01*
X103654432Y-27701301D01*
X103682727Y-27728566D01*
X103710720Y-27746529D01*
X103736652Y-27767366D01*
X103771505Y-27785535D01*
X103804579Y-27806758D01*
X103835540Y-27818915D01*
X103865037Y-27834292D01*
X103902761Y-27845311D01*
X103939344Y-27859676D01*
X103972083Y-27865560D01*
X104004012Y-27874886D01*
X104043164Y-27878334D01*
X104046136Y-27878868D01*
X104079154Y-27881503D01*
X104148237Y-27887587D01*
X104151256Y-27887258D01*
X115759638Y-28813765D01*
X107044262Y-36240760D01*
X107036323Y-36245458D01*
X106989222Y-36287664D01*
X106968705Y-36305148D01*
X106962348Y-36311745D01*
X106928496Y-36342079D01*
X106912222Y-36363764D01*
X106893417Y-36383279D01*
X106868877Y-36421521D01*
X106841592Y-36457878D01*
X106829862Y-36482320D01*
X106815224Y-36505131D01*
X106798614Y-36547430D01*
X106778949Y-36588407D01*
X106772214Y-36614665D01*
X106762306Y-36639896D01*
X106754267Y-36684627D01*
X106742975Y-36728649D01*
X106741492Y-36755716D01*
X106736697Y-36782395D01*
X106737539Y-36827836D01*
X106735052Y-36873213D01*
X106738877Y-36900045D01*
X106739379Y-36927152D01*
X106749071Y-36971561D01*
X106750364Y-36980630D01*
X106756764Y-37006809D01*
X106770251Y-37068605D01*
X106773939Y-37077062D01*
X109540328Y-48392761D01*
X102206964Y-43940638D01*
X102185056Y-43923402D01*
X102145235Y-43903162D01*
X102138057Y-43898804D01*
X102113044Y-43886800D01*
X102055989Y-43857800D01*
X102047856Y-43855515D01*
X102040236Y-43851858D01*
X101978230Y-43835953D01*
X101916604Y-43818638D01*
X101908178Y-43817983D01*
X101899994Y-43815884D01*
X101836085Y-43812381D01*
X101772258Y-43807421D01*
X101763868Y-43808422D01*
X101755430Y-43807960D01*
X101692062Y-43816993D01*
X101628495Y-43824581D01*
X101620459Y-43827201D01*
X101612096Y-43828393D01*
X101551716Y-43849612D01*
X101490844Y-43869457D01*
X101483475Y-43873593D01*
X101475503Y-43876395D01*
X101420402Y-43908998D01*
X101364592Y-43940326D01*
X101358174Y-43945818D01*
X101350899Y-43950123D01*
X101303223Y-43992845D01*
X101254592Y-44034463D01*
X101249366Y-44041106D01*
X101243074Y-44046744D01*
X101204663Y-44097926D01*
X101165070Y-44148252D01*
X101161240Y-44155787D01*
X101156170Y-44162543D01*
X101128476Y-44220247D01*
X101099468Y-44277319D01*
X101097183Y-44285452D01*
X101093526Y-44293072D01*
X101077621Y-44355078D01*
X101060306Y-44416704D01*
X101059651Y-44425130D01*
X101057552Y-44433314D01*
X101054049Y-44497223D01*
X101049089Y-44561050D01*
X101050090Y-44569440D01*
X101049628Y-44577878D01*
X101058661Y-44641246D01*
X101066249Y-44704813D01*
X101068869Y-44712849D01*
X101070061Y-44721212D01*
X101091280Y-44781592D01*
X101111125Y-44842464D01*
X101115261Y-44849833D01*
X101118063Y-44857805D01*
X101150670Y-44912912D01*
X101164236Y-44937080D01*
X101169038Y-44943956D01*
X101191791Y-44982409D01*
X101210398Y-45003173D01*
X131818212Y-88826785D01*
X131754267Y-88851266D01*
X131521421Y-88939024D01*
X131265446Y-89033930D01*
X130987224Y-89135319D01*
X130687711Y-89242499D01*
X130367850Y-89354779D01*
X130028554Y-89471486D01*
X129670736Y-89591940D01*
X129295542Y-89715389D01*
X128903738Y-89841202D01*
X128496265Y-89968697D01*
X128074159Y-90097157D01*
X127638427Y-90225880D01*
X127189983Y-90354192D01*
X126729724Y-90481423D01*
X126258743Y-90606850D01*
X125777873Y-90729824D01*
X125288077Y-90849658D01*
X124790502Y-90965626D01*
X124285970Y-91077083D01*
X123775480Y-91183342D01*
X123259960Y-91283733D01*
X122740512Y-91377559D01*
X122218074Y-91464155D01*
X121738499Y-91536122D01*
X121717477Y-91536320D01*
X121575749Y-91565900D01*
X121442514Y-91622562D01*
X121322894Y-91704127D01*
X121221485Y-91807462D01*
X121142184Y-91928595D01*
X121088039Y-92062872D01*
X121061130Y-92205132D01*
X121062492Y-92349907D01*
X121092072Y-92491635D01*
X121148734Y-92624870D01*
X121209860Y-92714515D01*
X148673606Y-125544572D01*
X148627209Y-125569549D01*
X148386997Y-125696757D01*
X148118691Y-125836423D01*
X147823402Y-125987382D01*
X147502047Y-126148576D01*
X147155545Y-126318934D01*
X146785260Y-126497178D01*
X146391987Y-126682304D01*
X145976781Y-126873179D01*
X145540737Y-127068660D01*
X145084917Y-127267614D01*
X144610373Y-127468922D01*
X144118034Y-127671513D01*
X143609151Y-127874185D01*
X143084519Y-128075921D01*
X142545385Y-128275532D01*
X141992667Y-128471953D01*
X141427619Y-128664002D01*
X140851105Y-128850636D01*
X140264222Y-129030737D01*
X139668134Y-129203168D01*
X139063882Y-129366839D01*
X138452491Y-129520666D01*
X137835020Y-129663563D01*
X137212683Y-129794413D01*
X136637688Y-129902530D01*
X136625830Y-129902785D01*
X136484470Y-129934083D01*
X136351933Y-129992356D01*
X136233312Y-130075367D01*
X136133164Y-130179924D01*
X136055338Y-130302011D01*
X136002826Y-130436935D01*
X135977645Y-130579511D01*
X135980763Y-130724258D01*
X136012061Y-130865618D01*
X136070334Y-130998155D01*
X136132544Y-131087052D01*
X147436467Y-144271351D01*
X146961312Y-144670053D01*
X146873834Y-144759461D01*
X146805480Y-144864216D01*
X146758876Y-144980294D01*
X146735813Y-145103234D01*
X146737178Y-145228310D01*
X146762917Y-145350717D01*
X146812042Y-145465751D01*
X146882666Y-145568990D01*
X147525454Y-146335034D01*
X147614861Y-146422511D01*
X147719616Y-146490866D01*
X147835694Y-146537470D01*
X147958633Y-146560533D01*
X148083710Y-146559169D01*
X148206117Y-146533429D01*
X148321150Y-146484304D01*
X148424390Y-146413681D01*
X148918080Y-145999426D01*
X152188262Y-149813594D01*
X151653661Y-150262177D01*
X151566183Y-150351585D01*
X151497829Y-150456340D01*
X151451225Y-150572418D01*
X151428162Y-150695358D01*
X151429527Y-150820434D01*
X151455266Y-150942841D01*
X151504391Y-151057875D01*
X151575015Y-151161114D01*
X152217803Y-151927158D01*
X152307210Y-152014635D01*
X152411965Y-152082990D01*
X152528043Y-152129594D01*
X152650982Y-152152657D01*
X152776059Y-152151293D01*
X152898466Y-152125553D01*
X153013499Y-152076428D01*
X153116739Y-152005805D01*
X153669875Y-151541669D01*
X163699561Y-163239765D01*
X163574791Y-163298867D01*
X162581395Y-163752588D01*
X161584434Y-164191462D01*
X160584218Y-164615662D01*
X159580603Y-165025549D01*
X158573715Y-165421374D01*
X157563633Y-165803406D01*
X156550476Y-166171901D01*
X155534220Y-166527164D01*
X154514941Y-166869463D01*
X153492878Y-167199019D01*
X152467899Y-167516166D01*
X151440090Y-167821171D01*
X150409700Y-168114256D01*
X149376650Y-168395734D01*
X148340892Y-168665908D01*
X147302903Y-168924944D01*
X146262245Y-169173242D01*
X145219435Y-169410967D01*
X144174272Y-169638455D01*
X143126994Y-169855939D01*
X142077504Y-170063727D01*
X141026056Y-170262055D01*
X139972662Y-170451210D01*
X138917176Y-170631497D01*
X137860159Y-170803108D01*
X136801171Y-170966400D01*
X135740683Y-171121582D01*
X134678455Y-171268974D01*
X133614930Y-171408796D01*
X132549741Y-171541381D01*
X131482399Y-171667064D01*
X131128496Y-171707204D01*
X130773879Y-171746677D01*
X130418418Y-171785506D01*
X130063301Y-171823570D01*
X129707590Y-171860980D01*
X129352436Y-171897627D01*
X128996904Y-171933616D01*
X128640868Y-171968971D01*
X128285058Y-172003629D01*
X127929087Y-172037639D01*
X127573310Y-172070977D01*
X127216848Y-172103736D01*
X126860468Y-172135856D01*
X126504025Y-172167359D01*
X126147718Y-172198238D01*
X125791339Y-172228524D01*
X125433948Y-172258303D01*
X125077618Y-172287415D01*
X124720794Y-172315998D01*
X124363735Y-172344039D01*
X124006055Y-172371581D01*
X123649089Y-172398528D01*
X123291934Y-172424963D01*
X122935345Y-172450839D01*
X122577258Y-172476316D01*
X122220322Y-172501215D01*
X121862733Y-172525673D01*
X121504753Y-172549681D01*
X121147039Y-172573205D01*
X120789430Y-172596267D01*
X120432319Y-172618852D01*
X120432308Y-172618853D01*
X120096347Y-172639694D01*
X109891105Y-172639694D01*
X109855000Y-172636138D01*
X109818895Y-172639694D01*
X109710915Y-172650329D01*
X109572367Y-172692357D01*
X109444680Y-172760607D01*
X109332762Y-172852456D01*
X109240913Y-172964374D01*
X109172663Y-173092061D01*
X109130635Y-173230609D01*
X109116444Y-173374694D01*
X109120001Y-173410809D01*
X109120000Y-195910553D01*
X108280554Y-196750000D01*
X100205325Y-196750000D01*
X100323175Y-196573624D01*
X100414462Y-196353236D01*
X100461000Y-196119273D01*
X100461000Y-195880727D01*
X100414462Y-195646764D01*
X100323175Y-195426376D01*
X100190646Y-195228032D01*
X100021968Y-195059354D01*
X99823624Y-194926825D01*
X99603236Y-194835538D01*
X99369273Y-194789000D01*
X99130727Y-194789000D01*
X98896764Y-194835538D01*
X98676376Y-194926825D01*
X98478032Y-195059354D01*
X98309354Y-195228032D01*
X98176825Y-195426376D01*
X98085538Y-195646764D01*
X98039000Y-195880727D01*
X98039000Y-196119273D01*
X98085538Y-196353236D01*
X98176825Y-196573624D01*
X98294675Y-196750000D01*
X90664947Y-196750000D01*
X89762000Y-195847054D01*
X89762000Y-173491304D01*
X89765551Y-173453901D01*
X89758348Y-173383314D01*
X89751365Y-173312414D01*
X89750985Y-173311162D01*
X89750853Y-173309866D01*
X89730009Y-173242012D01*
X89709337Y-173173866D01*
X89708721Y-173172713D01*
X89708338Y-173171467D01*
X89674657Y-173108983D01*
X89641087Y-173046179D01*
X89640257Y-173045168D01*
X89639639Y-173044021D01*
X89594414Y-172989308D01*
X89549237Y-172934261D01*
X89548226Y-172933432D01*
X89547396Y-172932427D01*
X89492300Y-172887534D01*
X89437319Y-172842412D01*
X89436169Y-172841797D01*
X89435156Y-172840972D01*
X89372304Y-172807661D01*
X89309632Y-172774162D01*
X89308383Y-172773783D01*
X89307230Y-172773172D01*
X89239167Y-172752787D01*
X89171084Y-172732134D01*
X89169783Y-172732006D01*
X89168535Y-172731632D01*
X89097894Y-172724925D01*
X89027000Y-172717943D01*
X88989600Y-172721627D01*
X78855927Y-172757286D01*
X78519779Y-172738357D01*
X78161452Y-172717745D01*
X77803772Y-172696725D01*
X77445473Y-172675213D01*
X77088300Y-172653304D01*
X76730081Y-172630853D01*
X76372369Y-172607948D01*
X76015316Y-172584590D01*
X75657131Y-172560650D01*
X75300233Y-172536279D01*
X74943015Y-172511359D01*
X74585194Y-172485858D01*
X74228225Y-172459869D01*
X73871205Y-172433317D01*
X73513992Y-172406182D01*
X73156759Y-172378465D01*
X72800378Y-172350224D01*
X72443509Y-172321344D01*
X72086805Y-172291865D01*
X71730218Y-172261775D01*
X71374041Y-172231088D01*
X71017595Y-172199734D01*
X70661263Y-172167739D01*
X70304883Y-172135073D01*
X69949525Y-172101828D01*
X69593131Y-172067802D01*
X69237806Y-172033182D01*
X68881607Y-171997771D01*
X68526304Y-171961733D01*
X68170944Y-171924962D01*
X67815397Y-171887432D01*
X67461418Y-171849323D01*
X66393579Y-171729743D01*
X65327684Y-171603230D01*
X64263204Y-171469444D01*
X63200293Y-171328122D01*
X62138881Y-171178972D01*
X61079123Y-171021735D01*
X60021006Y-170856124D01*
X58964516Y-170681851D01*
X57910157Y-170498715D01*
X56857427Y-170306346D01*
X55806947Y-170104571D01*
X54758252Y-169893014D01*
X53711974Y-169671517D01*
X53047433Y-169524000D01*
X64675151Y-169524000D01*
X64750000Y-169531372D01*
X64824849Y-169524000D01*
X66175141Y-169524000D01*
X66250000Y-169531373D01*
X66324859Y-169524000D01*
X67675150Y-169524000D01*
X67749999Y-169531372D01*
X67824848Y-169524000D01*
X97425151Y-169524000D01*
X97500000Y-169531372D01*
X97574849Y-169524000D01*
X99175150Y-169524000D01*
X99249999Y-169531372D01*
X99324848Y-169524000D01*
X100425150Y-169524000D01*
X100499999Y-169531372D01*
X100574848Y-169524000D01*
X104425151Y-169524000D01*
X104500000Y-169531372D01*
X104574849Y-169524000D01*
X104574859Y-169524000D01*
X104798756Y-169501948D01*
X105086031Y-169414804D01*
X105350785Y-169273290D01*
X105582844Y-169082844D01*
X105630564Y-169024697D01*
X111131261Y-163524000D01*
X118425151Y-163524000D01*
X118500000Y-163531372D01*
X118574849Y-163524000D01*
X120425150Y-163524000D01*
X120499999Y-163531372D01*
X120574848Y-163524000D01*
X122175150Y-163524000D01*
X122249999Y-163531372D01*
X122324848Y-163524000D01*
X131425151Y-163524000D01*
X131500000Y-163531372D01*
X131574849Y-163524000D01*
X131574859Y-163524000D01*
X131798756Y-163501948D01*
X132086031Y-163414804D01*
X132350785Y-163273290D01*
X132582844Y-163082844D01*
X132630564Y-163024697D01*
X136130564Y-159524697D01*
X138755564Y-156899698D01*
X138755569Y-156899692D01*
X138774697Y-156880564D01*
X138832844Y-156832844D01*
X138880564Y-156774697D01*
X140631261Y-155024000D01*
X145555518Y-155024000D01*
X145630367Y-155031372D01*
X145705216Y-155024000D01*
X145705226Y-155024000D01*
X145929123Y-155001948D01*
X146216398Y-154914804D01*
X146481152Y-154773290D01*
X146713211Y-154582844D01*
X146760931Y-154524697D01*
X148260930Y-153024698D01*
X148403656Y-152850786D01*
X148545170Y-152586032D01*
X148554500Y-152555277D01*
X148762479Y-152803137D01*
X148851887Y-152890614D01*
X148956642Y-152958969D01*
X149072720Y-153005573D01*
X149195659Y-153028636D01*
X149320736Y-153027272D01*
X149443143Y-153001532D01*
X149558176Y-152952407D01*
X149661416Y-152881784D01*
X149938668Y-152649142D01*
X150524845Y-153347719D01*
X150614252Y-153435196D01*
X150719007Y-153503551D01*
X150835085Y-153550155D01*
X150958024Y-153573218D01*
X151083101Y-153571854D01*
X151205508Y-153546114D01*
X151320541Y-153496989D01*
X151423781Y-153426366D01*
X152036617Y-152912136D01*
X152124095Y-152822728D01*
X152192449Y-152717973D01*
X152239053Y-152601895D01*
X152262116Y-152478955D01*
X152260751Y-152353879D01*
X152235012Y-152231472D01*
X152185887Y-152116438D01*
X152115263Y-152013199D01*
X151472475Y-151247155D01*
X151383068Y-151159678D01*
X151278313Y-151091323D01*
X151162235Y-151044719D01*
X151039296Y-151021656D01*
X150914219Y-151023020D01*
X150894889Y-151027085D01*
X150889130Y-151018666D01*
X150837955Y-150957678D01*
X150980916Y-150898462D01*
X151158623Y-150779722D01*
X151309751Y-150628594D01*
X151428491Y-150450887D01*
X151510280Y-150253430D01*
X151551976Y-150043810D01*
X151551976Y-149830084D01*
X151510280Y-149620464D01*
X151428491Y-149423007D01*
X151309751Y-149245300D01*
X151158623Y-149094172D01*
X150980916Y-148975432D01*
X150783459Y-148893643D01*
X150573839Y-148851947D01*
X150360113Y-148851947D01*
X150150493Y-148893643D01*
X149953036Y-148975432D01*
X149775329Y-149094172D01*
X149624201Y-149245300D01*
X149525299Y-149393317D01*
X149474997Y-149333369D01*
X149385589Y-149245892D01*
X149280834Y-149177537D01*
X149164756Y-149130933D01*
X149041817Y-149107870D01*
X148916740Y-149109234D01*
X148794333Y-149134974D01*
X148679300Y-149184099D01*
X148576060Y-149254722D01*
X148184207Y-149583525D01*
X148069457Y-149644860D01*
X147953512Y-149740014D01*
X147723014Y-149970512D01*
X147426993Y-150218903D01*
X147339516Y-150308311D01*
X147271161Y-150413066D01*
X147264923Y-150428604D01*
X147216423Y-150477104D01*
X147130366Y-150468628D01*
X146831610Y-150498053D01*
X146544335Y-150585197D01*
X146279581Y-150726711D01*
X146105669Y-150869437D01*
X144999106Y-151976000D01*
X140074848Y-151976000D01*
X139999999Y-151968628D01*
X139925150Y-151976000D01*
X139064332Y-151976000D01*
X139023290Y-151899215D01*
X138918664Y-151771728D01*
X139051898Y-151745226D01*
X139240256Y-151667205D01*
X139409774Y-151553937D01*
X139553937Y-151409774D01*
X139667205Y-151240256D01*
X139745226Y-151051898D01*
X139785000Y-150851939D01*
X139785000Y-150648061D01*
X139745226Y-150448102D01*
X139667205Y-150259744D01*
X139553937Y-150090226D01*
X139409774Y-149946063D01*
X139337378Y-149897689D01*
X139318596Y-149874804D01*
X139163890Y-149747840D01*
X138987387Y-149653498D01*
X138795871Y-149595402D01*
X138646602Y-149580700D01*
X138596700Y-149575785D01*
X138546798Y-149580700D01*
X138315516Y-149580700D01*
X138173408Y-149537592D01*
X138006250Y-149521128D01*
X137493750Y-149521128D01*
X137326592Y-149537592D01*
X137165858Y-149586350D01*
X137017725Y-149665529D01*
X136887885Y-149772085D01*
X136781329Y-149901925D01*
X136702150Y-150050058D01*
X136653392Y-150210792D01*
X136636928Y-150377950D01*
X136636928Y-150815450D01*
X136653392Y-150982608D01*
X136702150Y-151143342D01*
X136734000Y-151202930D01*
X136734000Y-151612298D01*
X136667156Y-151667156D01*
X136476710Y-151899215D01*
X136335196Y-152163969D01*
X136248052Y-152451244D01*
X136226000Y-152675141D01*
X136226000Y-153425141D01*
X136218627Y-153500000D01*
X136226000Y-153574858D01*
X136226001Y-155118737D01*
X133975303Y-157369436D01*
X130868739Y-160476000D01*
X122881261Y-160476000D01*
X121696737Y-159291476D01*
X121816974Y-159211137D01*
X121961137Y-159066974D01*
X122074405Y-158897456D01*
X122152426Y-158709098D01*
X122192200Y-158509139D01*
X122192200Y-158305261D01*
X122152426Y-158105302D01*
X122074405Y-157916944D01*
X121961137Y-157747426D01*
X121816974Y-157603263D01*
X121647456Y-157489995D01*
X121459098Y-157411974D01*
X121259139Y-157372200D01*
X121055261Y-157372200D01*
X120959741Y-157391200D01*
X120815516Y-157391200D01*
X120673408Y-157348092D01*
X120506250Y-157331628D01*
X119993750Y-157331628D01*
X119826592Y-157348092D01*
X119665858Y-157396850D01*
X119517725Y-157476029D01*
X119387885Y-157582585D01*
X119281329Y-157712425D01*
X119202150Y-157860558D01*
X119153392Y-158021292D01*
X119136928Y-158188450D01*
X119136928Y-158625950D01*
X119153392Y-158793108D01*
X119186264Y-158901474D01*
X119167156Y-158917156D01*
X118976710Y-159149215D01*
X118935234Y-159226812D01*
X118835196Y-159413970D01*
X118793581Y-159551158D01*
X117868739Y-160476000D01*
X112024000Y-160476000D01*
X112024000Y-138824849D01*
X112031372Y-138750000D01*
X112024000Y-138675151D01*
X112024000Y-138675141D01*
X112001948Y-138451244D01*
X111914804Y-138163969D01*
X111867174Y-138074859D01*
X111773290Y-137899214D01*
X111630564Y-137725302D01*
X111630560Y-137725298D01*
X111582844Y-137667156D01*
X111524702Y-137619440D01*
X100155262Y-126250000D01*
X108729085Y-126250000D01*
X108734001Y-126299911D01*
X108734000Y-129450098D01*
X108729085Y-129500000D01*
X108734000Y-129549901D01*
X108748702Y-129699170D01*
X108806798Y-129890686D01*
X108901140Y-130067190D01*
X109028104Y-130221896D01*
X109066872Y-130253712D01*
X124746292Y-145933133D01*
X124778104Y-145971896D01*
X124816865Y-146003706D01*
X124932810Y-146098860D01*
X125109313Y-146193202D01*
X125300829Y-146251298D01*
X125500000Y-146270915D01*
X125549902Y-146266000D01*
X137329160Y-146266000D01*
X139234001Y-148170842D01*
X139234000Y-148802540D01*
X139215000Y-148898061D01*
X139215000Y-149101939D01*
X139254774Y-149301898D01*
X139332795Y-149490256D01*
X139446063Y-149659774D01*
X139590226Y-149803937D01*
X139759744Y-149917205D01*
X139948102Y-149995226D01*
X140148061Y-150035000D01*
X140351939Y-150035000D01*
X140551898Y-149995226D01*
X140740256Y-149917205D01*
X140909774Y-149803937D01*
X141053937Y-149659774D01*
X141167205Y-149490256D01*
X141245226Y-149301898D01*
X141285000Y-149101939D01*
X141285000Y-148898061D01*
X141266000Y-148802541D01*
X141266000Y-147799902D01*
X141270915Y-147750000D01*
X141251298Y-147550829D01*
X141193202Y-147359312D01*
X141160340Y-147297832D01*
X141098860Y-147182810D01*
X140971896Y-147028104D01*
X140933133Y-146996292D01*
X138503712Y-144566872D01*
X138471896Y-144528104D01*
X138317190Y-144401140D01*
X138140687Y-144306798D01*
X137949171Y-144248702D01*
X137799902Y-144234000D01*
X137750000Y-144229085D01*
X137700098Y-144234000D01*
X125920841Y-144234000D01*
X110766000Y-129079160D01*
X110766000Y-126670840D01*
X112328797Y-125108044D01*
X112409774Y-125053937D01*
X112553937Y-124909774D01*
X112667205Y-124740256D01*
X112745226Y-124551898D01*
X112785000Y-124351939D01*
X112785000Y-124148061D01*
X112745226Y-123948102D01*
X112667205Y-123759744D01*
X112553937Y-123590226D01*
X112409774Y-123446063D01*
X112240256Y-123332795D01*
X112051898Y-123254774D01*
X111851939Y-123215000D01*
X111648061Y-123215000D01*
X111448102Y-123254774D01*
X111259744Y-123332795D01*
X111090226Y-123446063D01*
X110946063Y-123590226D01*
X110891956Y-123671203D01*
X109066868Y-125496292D01*
X109028105Y-125528104D01*
X108901141Y-125682810D01*
X108835221Y-125806139D01*
X108806799Y-125859313D01*
X108748702Y-126050830D01*
X108729085Y-126250000D01*
X100155262Y-126250000D01*
X99274000Y-125368739D01*
X99274000Y-121881261D01*
X100131262Y-121024000D01*
X101175151Y-121024000D01*
X101250000Y-121031372D01*
X101324849Y-121024000D01*
X102175151Y-121024000D01*
X102250000Y-121031372D01*
X102324849Y-121024000D01*
X104175150Y-121024000D01*
X104249999Y-121031372D01*
X104324848Y-121024000D01*
X120618739Y-121024000D01*
X121351001Y-121756263D01*
X121351000Y-127493738D01*
X120118739Y-128726000D01*
X116881262Y-128726000D01*
X115024697Y-126869436D01*
X115016000Y-126862299D01*
X115016000Y-126836952D01*
X115124171Y-126826298D01*
X115315687Y-126768202D01*
X115492190Y-126673860D01*
X115544302Y-126631092D01*
X115659774Y-126553937D01*
X115803937Y-126409774D01*
X115917205Y-126240256D01*
X115995226Y-126051898D01*
X116035000Y-125851939D01*
X116035000Y-125648061D01*
X115995226Y-125448102D01*
X115917205Y-125259744D01*
X115803937Y-125090226D01*
X115659774Y-124946063D01*
X115490256Y-124832795D01*
X115301898Y-124754774D01*
X115101939Y-124715000D01*
X114898061Y-124715000D01*
X114698102Y-124754774D01*
X114567190Y-124809000D01*
X114565516Y-124809000D01*
X114423408Y-124765892D01*
X114256250Y-124749428D01*
X113743750Y-124749428D01*
X113576592Y-124765892D01*
X113415858Y-124814650D01*
X113267725Y-124893829D01*
X113137885Y-125000385D01*
X113031329Y-125130225D01*
X112952150Y-125278358D01*
X112903392Y-125439092D01*
X112886928Y-125606250D01*
X112886928Y-126043750D01*
X112903392Y-126210908D01*
X112952150Y-126371642D01*
X112984000Y-126431230D01*
X112984000Y-126862298D01*
X112917156Y-126917156D01*
X112726710Y-127149215D01*
X112585197Y-127413969D01*
X112498053Y-127701244D01*
X112468628Y-128000000D01*
X112498053Y-128298756D01*
X112585197Y-128586031D01*
X112726710Y-128850785D01*
X112869436Y-129024697D01*
X115119440Y-131274702D01*
X115167156Y-131332844D01*
X115225298Y-131380560D01*
X115225302Y-131380564D01*
X115399215Y-131523290D01*
X115663969Y-131664804D01*
X115951244Y-131751948D01*
X116250000Y-131781373D01*
X116324859Y-131774000D01*
X120675151Y-131774000D01*
X120750000Y-131781372D01*
X120824849Y-131774000D01*
X120824859Y-131774000D01*
X121048756Y-131751948D01*
X121336031Y-131664804D01*
X121600785Y-131523290D01*
X121832844Y-131332844D01*
X121880564Y-131274697D01*
X123899703Y-129255559D01*
X123957844Y-129207844D01*
X124005560Y-129149702D01*
X124005564Y-129149698D01*
X124148290Y-128975786D01*
X124289804Y-128711031D01*
X124309440Y-128646300D01*
X124376948Y-128423756D01*
X124399000Y-128199859D01*
X124399000Y-128199849D01*
X124406372Y-128125000D01*
X124399000Y-128050151D01*
X124399000Y-128000000D01*
X129358300Y-128000000D01*
X129365000Y-128068029D01*
X129365001Y-133181961D01*
X129358300Y-133250000D01*
X129385040Y-133521507D01*
X129464236Y-133782580D01*
X129592844Y-134023188D01*
X129722548Y-134181233D01*
X129722551Y-134181236D01*
X129765920Y-134234081D01*
X129818765Y-134277450D01*
X142115000Y-146573686D01*
X142115000Y-147681971D01*
X142108300Y-147750000D01*
X142115000Y-147818029D01*
X142115000Y-147818037D01*
X142117466Y-147843071D01*
X142135040Y-148021507D01*
X142214236Y-148282580D01*
X142342844Y-148523188D01*
X142472548Y-148681233D01*
X142472551Y-148681236D01*
X142515920Y-148734081D01*
X142568764Y-148777449D01*
X143770701Y-149979387D01*
X143928747Y-150109092D01*
X144169354Y-150237699D01*
X144430428Y-150316895D01*
X144701935Y-150343635D01*
X144973442Y-150316895D01*
X145234515Y-150237699D01*
X145475123Y-150109092D01*
X145647123Y-149967935D01*
X145902033Y-149967935D01*
X145951935Y-149972850D01*
X146001837Y-149967935D01*
X146151106Y-149953233D01*
X146342622Y-149895137D01*
X146519125Y-149800795D01*
X146673831Y-149673831D01*
X146705647Y-149635063D01*
X147461990Y-148878721D01*
X147529812Y-148796079D01*
X147879055Y-148503029D01*
X148024673Y-148600328D01*
X148222130Y-148682117D01*
X148431750Y-148723813D01*
X148645476Y-148723813D01*
X148855096Y-148682117D01*
X149052553Y-148600328D01*
X149230260Y-148481588D01*
X149381388Y-148330460D01*
X149500128Y-148152753D01*
X149581917Y-147955296D01*
X149623613Y-147745676D01*
X149623613Y-147531950D01*
X149581917Y-147322330D01*
X149500128Y-147124873D01*
X149381388Y-146947166D01*
X149230260Y-146796038D01*
X149052553Y-146677298D01*
X148855096Y-146595509D01*
X148645476Y-146553813D01*
X148431750Y-146553813D01*
X148222130Y-146595509D01*
X148024673Y-146677298D01*
X147846966Y-146796038D01*
X147695838Y-146947166D01*
X147596936Y-147095183D01*
X147546634Y-147035235D01*
X147539344Y-147028102D01*
X147546704Y-147009770D01*
X147569767Y-146886830D01*
X147568402Y-146761754D01*
X147542663Y-146639347D01*
X147493538Y-146524313D01*
X147422914Y-146421074D01*
X146780126Y-145655030D01*
X146690719Y-145567553D01*
X146585964Y-145499198D01*
X146469886Y-145452594D01*
X146346947Y-145429531D01*
X146221870Y-145430895D01*
X146099463Y-145456635D01*
X145984430Y-145505760D01*
X145881190Y-145576383D01*
X145268354Y-146090613D01*
X145180876Y-146180021D01*
X145112522Y-146284776D01*
X145065918Y-146400854D01*
X145042855Y-146523794D01*
X145044220Y-146648870D01*
X145069959Y-146771277D01*
X145119084Y-146886311D01*
X145189708Y-146989550D01*
X145775883Y-147688126D01*
X145569765Y-147861079D01*
X144885000Y-147176315D01*
X144885000Y-146068029D01*
X144891700Y-146000000D01*
X144885000Y-145931971D01*
X144885000Y-145931963D01*
X144864960Y-145728493D01*
X144838325Y-145640687D01*
X144785764Y-145467419D01*
X144776010Y-145449170D01*
X144657157Y-145226812D01*
X144597932Y-145154647D01*
X144527452Y-145068766D01*
X144527445Y-145068759D01*
X144484080Y-145015919D01*
X144431241Y-144972555D01*
X132135000Y-132676315D01*
X132135000Y-128573685D01*
X135109472Y-125599213D01*
X135334488Y-125596759D01*
X135746045Y-125510218D01*
X136132812Y-125345049D01*
X136392939Y-125167103D01*
X138851762Y-123103908D01*
X139072175Y-122878632D01*
X139301997Y-122526423D01*
X139458690Y-122136146D01*
X139536232Y-121722798D01*
X139531645Y-121302264D01*
X139445104Y-120890707D01*
X139279935Y-120503940D01*
X139042485Y-120156829D01*
X138741880Y-119862711D01*
X138389670Y-119632889D01*
X137999393Y-119476196D01*
X137586045Y-119398654D01*
X137165511Y-119403241D01*
X136753954Y-119489782D01*
X136367188Y-119654951D01*
X136107060Y-119832897D01*
X133648238Y-121896093D01*
X133427825Y-122121368D01*
X133198003Y-122473578D01*
X133041310Y-122863855D01*
X132963768Y-123277203D01*
X132968355Y-123697736D01*
X132990112Y-123801203D01*
X129818765Y-126972550D01*
X129765919Y-127015920D01*
X129722550Y-127068765D01*
X129722548Y-127068767D01*
X129663012Y-127141312D01*
X129592843Y-127226813D01*
X129487697Y-127423528D01*
X129464236Y-127467420D01*
X129385040Y-127728493D01*
X129382922Y-127749999D01*
X129365000Y-127931964D01*
X129365000Y-127931971D01*
X129358300Y-128000000D01*
X124399000Y-128000000D01*
X124399000Y-122006261D01*
X125381261Y-121024000D01*
X131925151Y-121024000D01*
X132000000Y-121031372D01*
X132074849Y-121024000D01*
X132074859Y-121024000D01*
X132298756Y-121001948D01*
X132586031Y-120914804D01*
X132850785Y-120773290D01*
X133082844Y-120582844D01*
X133130564Y-120524697D01*
X136024702Y-117630560D01*
X136082844Y-117582844D01*
X136130560Y-117524702D01*
X136130564Y-117524698D01*
X136273290Y-117350786D01*
X136414804Y-117086031D01*
X136501948Y-116798756D01*
X136507220Y-116745226D01*
X136524000Y-116574859D01*
X136524000Y-116574851D01*
X136531372Y-116500000D01*
X136524000Y-116425149D01*
X136524000Y-112574848D01*
X136531372Y-112499999D01*
X136524000Y-112425150D01*
X136524000Y-112425141D01*
X136501948Y-112201244D01*
X136414804Y-111913969D01*
X136273290Y-111649215D01*
X136082844Y-111417156D01*
X136024698Y-111369437D01*
X120274000Y-95618739D01*
X120274000Y-90324849D01*
X120281372Y-90250000D01*
X120274000Y-90175151D01*
X120274000Y-89074858D01*
X120281373Y-89000000D01*
X120274000Y-88925141D01*
X120274000Y-88824848D01*
X120281372Y-88749999D01*
X120274000Y-88675150D01*
X120274000Y-87574848D01*
X120281372Y-87499999D01*
X120274000Y-87425150D01*
X120274000Y-85824850D01*
X120281372Y-85750001D01*
X120274000Y-85675152D01*
X120274000Y-75074851D01*
X120281372Y-75000000D01*
X120274000Y-74925149D01*
X120274000Y-74925141D01*
X120251948Y-74701244D01*
X120164804Y-74413969D01*
X120023290Y-74149215D01*
X119983545Y-74100785D01*
X119880564Y-73975302D01*
X119880560Y-73975298D01*
X119832844Y-73917156D01*
X119774702Y-73869440D01*
X117149697Y-71244436D01*
X115380564Y-69475303D01*
X115332844Y-69417156D01*
X115274697Y-69369436D01*
X113630554Y-67725293D01*
X113582843Y-67667157D01*
X113524707Y-67619446D01*
X101255563Y-55350302D01*
X101207844Y-55292156D01*
X101149697Y-55244436D01*
X100524000Y-54618739D01*
X100524000Y-38925141D01*
X100501948Y-38701244D01*
X100414804Y-38413969D01*
X100273290Y-38149215D01*
X100168664Y-38021728D01*
X100301898Y-37995226D01*
X100490256Y-37917205D01*
X100659774Y-37803937D01*
X100803937Y-37659774D01*
X100917205Y-37490256D01*
X100995226Y-37301898D01*
X101035000Y-37101939D01*
X101035000Y-36898061D01*
X100995226Y-36698102D01*
X100917205Y-36509744D01*
X100803937Y-36340226D01*
X100659774Y-36196063D01*
X100490256Y-36082795D01*
X100301898Y-36004774D01*
X100101939Y-35965000D01*
X99898061Y-35965000D01*
X99802541Y-35984000D01*
X99441895Y-35984000D01*
X99423408Y-35978392D01*
X99256250Y-35961928D01*
X98743750Y-35961928D01*
X98576592Y-35978392D01*
X98415858Y-36027150D01*
X98267725Y-36106329D01*
X98137885Y-36212885D01*
X98031329Y-36342725D01*
X97952150Y-36490858D01*
X97903392Y-36651592D01*
X97886928Y-36818750D01*
X97886928Y-37256250D01*
X97903392Y-37423408D01*
X97952150Y-37584142D01*
X97984000Y-37643729D01*
X97984000Y-37862299D01*
X97917157Y-37917156D01*
X97726711Y-38149215D01*
X97585197Y-38413969D01*
X97498053Y-38701244D01*
X97476001Y-38925141D01*
X97476000Y-54618739D01*
X96850303Y-55244436D01*
X96792156Y-55292156D01*
X96744437Y-55350302D01*
X90350308Y-61744431D01*
X90350302Y-61744436D01*
X90225293Y-61869445D01*
X90167157Y-61917156D01*
X90119445Y-61975293D01*
X88600307Y-63494432D01*
X88600302Y-63494436D01*
X88600298Y-63494440D01*
X88542156Y-63542156D01*
X88494440Y-63600298D01*
X86975307Y-65119432D01*
X86975302Y-65119436D01*
X86975298Y-65119440D01*
X86917156Y-65167156D01*
X86869440Y-65225298D01*
X79975299Y-72119440D01*
X79917157Y-72167156D01*
X79869441Y-72225298D01*
X79869436Y-72225303D01*
X79726710Y-72399215D01*
X79585197Y-72663969D01*
X79498053Y-72951244D01*
X79468628Y-73250000D01*
X79476001Y-73324859D01*
X79476000Y-92618738D01*
X76100307Y-95994432D01*
X76100302Y-95994436D01*
X75975293Y-96119445D01*
X75917157Y-96167156D01*
X75869445Y-96225293D01*
X73975303Y-98119436D01*
X73917156Y-98167156D01*
X73869436Y-98225303D01*
X69975303Y-102119436D01*
X69917156Y-102167156D01*
X69869437Y-102225302D01*
X69869436Y-102225303D01*
X69726710Y-102399215D01*
X69685759Y-102475829D01*
X69585196Y-102663970D01*
X69498052Y-102951245D01*
X69476000Y-103175142D01*
X69476000Y-103175151D01*
X69468628Y-103250000D01*
X69476000Y-103324849D01*
X69476001Y-105868737D01*
X63225303Y-112119436D01*
X63167156Y-112167156D01*
X63119437Y-112225302D01*
X63119436Y-112225303D01*
X62976710Y-112399215D01*
X62962852Y-112425142D01*
X62835196Y-112663970D01*
X62748052Y-112951245D01*
X62726000Y-113175142D01*
X62726000Y-113175151D01*
X62718628Y-113250000D01*
X62726000Y-113324849D01*
X62726001Y-125675132D01*
X62726000Y-125675142D01*
X62726000Y-125675151D01*
X62718628Y-125750000D01*
X62726000Y-125824850D01*
X62726001Y-127675131D01*
X62718627Y-127750000D01*
X62726000Y-127824859D01*
X62726000Y-129425151D01*
X62718628Y-129500000D01*
X62726000Y-129574849D01*
X62726000Y-130752794D01*
X62706442Y-130645621D01*
X62653162Y-130510998D01*
X62574642Y-130389356D01*
X62473901Y-130285371D01*
X62354808Y-130203037D01*
X62221941Y-130145519D01*
X62080406Y-130115027D01*
X62068770Y-130114843D01*
X61958059Y-130094609D01*
X61666247Y-130037333D01*
X61471333Y-129997147D01*
X61243433Y-129948513D01*
X60985282Y-129891485D01*
X60697919Y-129825758D01*
X60382710Y-129751100D01*
X60041233Y-129667326D01*
X59674907Y-129574222D01*
X59284791Y-129471475D01*
X58872724Y-129358978D01*
X58439649Y-129236389D01*
X57987289Y-129103578D01*
X57516931Y-128960293D01*
X57029832Y-128806272D01*
X56527551Y-128641350D01*
X56011380Y-128465275D01*
X55482910Y-128277904D01*
X54943143Y-128078882D01*
X54393886Y-127868149D01*
X53836233Y-127645383D01*
X53271727Y-127410437D01*
X52701723Y-127163090D01*
X52127618Y-126903143D01*
X51550760Y-126630379D01*
X50972658Y-126344660D01*
X50394538Y-126045715D01*
X50001791Y-125833006D01*
X77284367Y-92839579D01*
X77344982Y-92749587D01*
X77400884Y-92616032D01*
X77429657Y-92474137D01*
X77430194Y-92329356D01*
X77402476Y-92187252D01*
X77347566Y-92053285D01*
X77267577Y-91932606D01*
X77165581Y-91829850D01*
X77045499Y-91748967D01*
X76911944Y-91693065D01*
X76770049Y-91664292D01*
X76749184Y-91664215D01*
X76657469Y-91650945D01*
X76413541Y-91613322D01*
X76056695Y-91554817D01*
X75840444Y-91517712D01*
X75598802Y-91474928D01*
X75333555Y-91426453D01*
X75045990Y-91372197D01*
X74737157Y-91312026D01*
X74407931Y-91245768D01*
X74059887Y-91173396D01*
X73693659Y-91094687D01*
X73310653Y-91009584D01*
X72912034Y-90917976D01*
X72498691Y-90819693D01*
X72071775Y-90714623D01*
X71632559Y-90602687D01*
X71181973Y-90483718D01*
X70721383Y-90357668D01*
X70251656Y-90224354D01*
X69774107Y-90083716D01*
X69289647Y-89935584D01*
X68799570Y-89779899D01*
X68304941Y-89616533D01*
X67806950Y-89445408D01*
X67306581Y-89266370D01*
X66805158Y-89079394D01*
X66649532Y-89018861D01*
X97011829Y-45015122D01*
X97030312Y-44994257D01*
X97052840Y-44955684D01*
X97057609Y-44948773D01*
X97071049Y-44924508D01*
X97103330Y-44869236D01*
X97106086Y-44861249D01*
X97110180Y-44853857D01*
X97129669Y-44792900D01*
X97150554Y-44732371D01*
X97151699Y-44723994D01*
X97154271Y-44715951D01*
X97161493Y-44652373D01*
X97170169Y-44588924D01*
X97169658Y-44580488D01*
X97170612Y-44572094D01*
X97165291Y-44508317D01*
X97161423Y-44444406D01*
X97159276Y-44436232D01*
X97158574Y-44427813D01*
X97140910Y-44366292D01*
X97124650Y-44304371D01*
X97120951Y-44296774D01*
X97118619Y-44288653D01*
X97089292Y-44231760D01*
X97061265Y-44174202D01*
X97056154Y-44167472D01*
X97052283Y-44159962D01*
X97012427Y-44109892D01*
X96973703Y-44058899D01*
X96967375Y-44053294D01*
X96962115Y-44046685D01*
X96913268Y-44005361D01*
X96865329Y-43962894D01*
X96858028Y-43958630D01*
X96851580Y-43953175D01*
X96795618Y-43922180D01*
X96740307Y-43889876D01*
X96732313Y-43887118D01*
X96724927Y-43883027D01*
X96664007Y-43863549D01*
X96603443Y-43842652D01*
X96595064Y-43841506D01*
X96587022Y-43838935D01*
X96523452Y-43831714D01*
X96459996Y-43823037D01*
X96451559Y-43823548D01*
X96443164Y-43822594D01*
X96379404Y-43827914D01*
X96315477Y-43831783D01*
X96307297Y-43833931D01*
X96298884Y-43834633D01*
X96237380Y-43852291D01*
X96175443Y-43868556D01*
X96167847Y-43872255D01*
X96159724Y-43874587D01*
X96102830Y-43903914D01*
X96077891Y-43916058D01*
X96070737Y-43920457D01*
X96031032Y-43940924D01*
X96009223Y-43958284D01*
X88701329Y-48452095D01*
X91403241Y-37120822D01*
X91406880Y-37112347D01*
X91420010Y-37050495D01*
X91426266Y-37024261D01*
X91427508Y-37015178D01*
X91436946Y-36970720D01*
X91437294Y-36943613D01*
X91440966Y-36916759D01*
X91438221Y-36871397D01*
X91438804Y-36825950D01*
X91433857Y-36799299D01*
X91432220Y-36772242D01*
X91420677Y-36728285D01*
X91412383Y-36683599D01*
X91402331Y-36658422D01*
X91395447Y-36632207D01*
X91375555Y-36591355D01*
X91358699Y-36549137D01*
X91343926Y-36526401D01*
X91332062Y-36502037D01*
X91304582Y-36465851D01*
X91279814Y-36427733D01*
X91260891Y-36408318D01*
X91244500Y-36386734D01*
X91210485Y-36356602D01*
X91204082Y-36350032D01*
X91183439Y-36332643D01*
X91136125Y-36290729D01*
X91128164Y-36286079D01*
X82370633Y-28908829D01*
X93973552Y-27916236D01*
X93976572Y-27916548D01*
X94045593Y-27910073D01*
X94078621Y-27907248D01*
X94081593Y-27906696D01*
X94120721Y-27903026D01*
X94152594Y-27893519D01*
X94185302Y-27887448D01*
X94221809Y-27872873D01*
X94259462Y-27861641D01*
X94288863Y-27846101D01*
X94319763Y-27833764D01*
X94352724Y-27812347D01*
X94387464Y-27793985D01*
X94413270Y-27773006D01*
X94441168Y-27754879D01*
X94469318Y-27727443D01*
X94499808Y-27702656D01*
X94521026Y-27677045D01*
X94544850Y-27653825D01*
X94567104Y-27621428D01*
X94592175Y-27591166D01*
X94607990Y-27561905D01*
X94626825Y-27534485D01*
X94642333Y-27498364D01*
X94643766Y-27495713D01*
X94656542Y-27465269D01*
X94683944Y-27401446D01*
X94684576Y-27398468D01*
X99031479Y-17040388D01*
X103437297Y-27373560D01*
G37*
%TD.AperFunction*%
D19*
X62726001Y-137368738D02*
X45725303Y-154369436D01*
X45667156Y-154417156D01*
X45619437Y-154475302D01*
X45619436Y-154475303D01*
X45476710Y-154649215D01*
X45425814Y-154744436D01*
X45335196Y-154913970D01*
X45248052Y-155201245D01*
X45226000Y-155425142D01*
X45226000Y-155425151D01*
X45218628Y-155500000D01*
X45226000Y-155574849D01*
X45226000Y-157175151D01*
X45218628Y-157250000D01*
X45226000Y-157324849D01*
X45226000Y-158425136D01*
X45218627Y-158500000D01*
X45226001Y-158574864D01*
X45226001Y-159675132D01*
X45226000Y-159675142D01*
X45226000Y-159675151D01*
X45218628Y-159750000D01*
X45226000Y-159824849D01*
X45226001Y-163425141D01*
X45218628Y-163500000D01*
X45248053Y-163798756D01*
X45335197Y-164086031D01*
X45476710Y-164350785D01*
X45619436Y-164524697D01*
X45619441Y-164524702D01*
X45667157Y-164582844D01*
X45725298Y-164630560D01*
X49851863Y-168757125D01*
X49549019Y-168679968D01*
X48514352Y-168404369D01*
X47482291Y-168117152D01*
X46452789Y-167818011D01*
X45425963Y-167506688D01*
X44402037Y-167182958D01*
X43380923Y-166846498D01*
X42362633Y-166497019D01*
X41347377Y-166134295D01*
X40335138Y-165758022D01*
X39326028Y-165367942D01*
X38320140Y-164963794D01*
X37317396Y-164545244D01*
X36318058Y-164112099D01*
X35322061Y-163664028D01*
X35196942Y-163605631D01*
X62580427Y-131296467D01*
X62642130Y-131207217D01*
X62699648Y-131074350D01*
X62726000Y-130952030D01*
X62726001Y-137368738D01*
%TA.AperFunction,Conductor*%
D20*
G36*
X62726001Y-137368738D02*
G01*
X45725303Y-154369436D01*
X45667156Y-154417156D01*
X45619437Y-154475302D01*
X45619436Y-154475303D01*
X45476710Y-154649215D01*
X45425814Y-154744436D01*
X45335196Y-154913970D01*
X45248052Y-155201245D01*
X45226000Y-155425142D01*
X45226000Y-155425151D01*
X45218628Y-155500000D01*
X45226000Y-155574849D01*
X45226000Y-157175151D01*
X45218628Y-157250000D01*
X45226000Y-157324849D01*
X45226000Y-158425136D01*
X45218627Y-158500000D01*
X45226001Y-158574864D01*
X45226001Y-159675132D01*
X45226000Y-159675142D01*
X45226000Y-159675151D01*
X45218628Y-159750000D01*
X45226000Y-159824849D01*
X45226001Y-163425141D01*
X45218628Y-163500000D01*
X45248053Y-163798756D01*
X45335197Y-164086031D01*
X45476710Y-164350785D01*
X45619436Y-164524697D01*
X45619441Y-164524702D01*
X45667157Y-164582844D01*
X45725298Y-164630560D01*
X49851863Y-168757125D01*
X49549019Y-168679968D01*
X48514352Y-168404369D01*
X47482291Y-168117152D01*
X46452789Y-167818011D01*
X45425963Y-167506688D01*
X44402037Y-167182958D01*
X43380923Y-166846498D01*
X42362633Y-166497019D01*
X41347377Y-166134295D01*
X40335138Y-165758022D01*
X39326028Y-165367942D01*
X38320140Y-164963794D01*
X37317396Y-164545244D01*
X36318058Y-164112099D01*
X35322061Y-163664028D01*
X35196942Y-163605631D01*
X62580427Y-131296467D01*
X62642130Y-131207217D01*
X62699648Y-131074350D01*
X62726000Y-130952030D01*
X62726001Y-137368738D01*
G37*
%TD.AperFunction*%
D19*
X93975302Y-71130564D02*
X93975308Y-71130569D01*
X94369436Y-71524697D01*
X94417156Y-71582844D01*
X94475303Y-71630564D01*
X96226001Y-73381262D01*
X96226000Y-78368739D01*
X95229739Y-79365000D01*
X90020262Y-79365000D01*
X88175608Y-77520347D01*
X88301898Y-77495226D01*
X88490256Y-77417205D01*
X88659774Y-77303937D01*
X88803937Y-77159774D01*
X88917205Y-76990256D01*
X88995226Y-76801898D01*
X89035000Y-76601939D01*
X89035000Y-76398061D01*
X88995226Y-76198102D01*
X88917205Y-76009744D01*
X88803937Y-75840226D01*
X88659774Y-75696063D01*
X88554885Y-75625979D01*
X88483190Y-75567140D01*
X88306687Y-75472798D01*
X88115171Y-75414702D01*
X87965902Y-75400000D01*
X87916000Y-75395085D01*
X87866098Y-75400000D01*
X87565516Y-75400000D01*
X87423408Y-75356892D01*
X87256250Y-75340428D01*
X86743750Y-75340428D01*
X86576592Y-75356892D01*
X86415858Y-75405650D01*
X86267725Y-75484829D01*
X86137885Y-75591385D01*
X86031329Y-75721225D01*
X85952150Y-75869358D01*
X85903392Y-76030092D01*
X85886928Y-76197250D01*
X85886928Y-76634750D01*
X85903392Y-76801908D01*
X85952150Y-76962642D01*
X85984000Y-77022230D01*
X85984000Y-77362298D01*
X85917156Y-77417156D01*
X85726710Y-77649215D01*
X85585197Y-77913969D01*
X85498053Y-78201244D01*
X85468628Y-78500000D01*
X85498053Y-78798756D01*
X85585197Y-79086031D01*
X85726710Y-79350785D01*
X85869436Y-79524697D01*
X88369440Y-82024702D01*
X88417156Y-82082844D01*
X88475298Y-82130560D01*
X88475302Y-82130564D01*
X88649214Y-82273290D01*
X88912405Y-82413968D01*
X88913969Y-82414804D01*
X89201244Y-82501948D01*
X89425141Y-82524000D01*
X89425151Y-82524000D01*
X89500000Y-82531372D01*
X89574849Y-82524000D01*
X95118739Y-82524000D01*
X96226001Y-83631262D01*
X96226000Y-84925141D01*
X96226000Y-85368738D01*
X95475303Y-86119436D01*
X95417156Y-86167156D01*
X95369437Y-86225302D01*
X92225299Y-89369440D01*
X92167157Y-89417156D01*
X92119441Y-89475298D01*
X92119436Y-89475303D01*
X91976710Y-89649215D01*
X91835197Y-89913969D01*
X91748053Y-90201244D01*
X91718628Y-90500000D01*
X91726001Y-90574859D01*
X91726000Y-93675151D01*
X91718628Y-93750000D01*
X91726000Y-93824849D01*
X91726000Y-93824858D01*
X91748052Y-94048755D01*
X91835196Y-94336030D01*
X91835197Y-94336031D01*
X91976710Y-94600785D01*
X92119436Y-94774697D01*
X92167156Y-94832844D01*
X92225303Y-94880564D01*
X93975302Y-96630564D01*
X94149214Y-96773290D01*
X94413969Y-96914804D01*
X94701244Y-97001948D01*
X95000000Y-97031372D01*
X95086056Y-97022896D01*
X95548052Y-97484893D01*
X95448102Y-97504774D01*
X95259744Y-97582795D01*
X95090226Y-97696063D01*
X94946063Y-97840226D01*
X94832795Y-98009744D01*
X94754774Y-98198102D01*
X94715000Y-98398061D01*
X94715000Y-98601939D01*
X94754774Y-98801898D01*
X94832795Y-98990256D01*
X94946063Y-99159774D01*
X95090226Y-99303937D01*
X95259744Y-99417205D01*
X95448102Y-99495226D01*
X95648061Y-99535000D01*
X95851939Y-99535000D01*
X95947459Y-99516000D01*
X96126851Y-99516000D01*
X96165858Y-99536850D01*
X96326592Y-99585608D01*
X96493750Y-99602072D01*
X97006250Y-99602072D01*
X97173408Y-99585608D01*
X97334142Y-99536850D01*
X97358100Y-99524044D01*
X97358101Y-109205058D01*
X97054160Y-109509000D01*
X96898072Y-109509000D01*
X96898072Y-108930000D01*
X96885812Y-108805518D01*
X96849502Y-108685820D01*
X96790537Y-108575506D01*
X96711185Y-108478815D01*
X96614494Y-108399463D01*
X96504180Y-108340498D01*
X96384482Y-108304188D01*
X96260000Y-108291928D01*
X95735185Y-108291928D01*
X95609171Y-108253702D01*
X95459902Y-108239000D01*
X92960729Y-108239000D01*
X92901142Y-108207150D01*
X92740408Y-108158392D01*
X92573250Y-108141928D01*
X92135750Y-108141928D01*
X91968592Y-108158392D01*
X91807858Y-108207150D01*
X91659725Y-108286329D01*
X91567000Y-108362426D01*
X91474275Y-108286329D01*
X91326142Y-108207150D01*
X91165408Y-108158392D01*
X90998250Y-108141928D01*
X90560750Y-108141928D01*
X90393592Y-108158392D01*
X90232858Y-108207150D01*
X90173271Y-108239000D01*
X88294893Y-108239000D01*
X88244999Y-108234086D01*
X88195105Y-108239000D01*
X88195098Y-108239000D01*
X88065177Y-108251796D01*
X88045828Y-108253702D01*
X87987732Y-108271326D01*
X87854313Y-108311798D01*
X87677810Y-108406140D01*
X87523104Y-108533104D01*
X87491292Y-108571867D01*
X80816872Y-115246288D01*
X80778104Y-115278104D01*
X80651140Y-115432810D01*
X80556798Y-115609314D01*
X80498984Y-115799901D01*
X80498702Y-115800830D01*
X80479085Y-116000000D01*
X80484000Y-116049902D01*
X80484001Y-158829158D01*
X80066870Y-159246290D01*
X80066865Y-159246294D01*
X77016000Y-162297160D01*
X77016000Y-162137701D01*
X77082844Y-162082844D01*
X77273290Y-161850785D01*
X77414804Y-161586031D01*
X77501948Y-161298756D01*
X77531372Y-161000000D01*
X77501948Y-160701244D01*
X77414804Y-160413969D01*
X77273290Y-160149214D01*
X77130564Y-159975302D01*
X75380564Y-158225303D01*
X75332844Y-158167156D01*
X75100785Y-157976710D01*
X74836031Y-157835196D01*
X74548756Y-157748052D01*
X74324859Y-157726000D01*
X74324849Y-157726000D01*
X74250000Y-157718628D01*
X74175151Y-157726000D01*
X69824848Y-157726000D01*
X69749999Y-157718628D01*
X69675150Y-157726000D01*
X69675141Y-157726000D01*
X69451244Y-157748052D01*
X69163969Y-157835196D01*
X68899215Y-157976710D01*
X68667156Y-158167156D01*
X68619436Y-158225303D01*
X65225303Y-161619436D01*
X65167156Y-161667156D01*
X65119437Y-161725302D01*
X65119436Y-161725303D01*
X64976710Y-161899215D01*
X64901070Y-162040729D01*
X64835196Y-162163970D01*
X64748052Y-162451245D01*
X64726000Y-162675142D01*
X64726000Y-162675151D01*
X64718628Y-162750000D01*
X64726000Y-162824849D01*
X64726001Y-165868738D01*
X64118739Y-166476000D01*
X59210840Y-166476000D01*
X68433133Y-157253708D01*
X68471896Y-157221896D01*
X68598860Y-157067190D01*
X68693202Y-156890687D01*
X68751298Y-156699171D01*
X68766000Y-156549902D01*
X68766000Y-156549895D01*
X68770914Y-156500001D01*
X68766000Y-156450107D01*
X68766000Y-135920840D01*
X68828794Y-135858046D01*
X68909774Y-135803937D01*
X69053937Y-135659774D01*
X69167205Y-135490256D01*
X69245226Y-135301898D01*
X69285000Y-135101939D01*
X69285000Y-134898061D01*
X69245226Y-134698102D01*
X69167205Y-134509744D01*
X69053937Y-134340226D01*
X68909774Y-134196063D01*
X68740256Y-134082795D01*
X68551898Y-134004774D01*
X68351939Y-133965000D01*
X68148061Y-133965000D01*
X67948102Y-134004774D01*
X67759744Y-134082795D01*
X67590226Y-134196063D01*
X67446063Y-134340226D01*
X67391954Y-134421206D01*
X67066873Y-134746287D01*
X67028104Y-134778104D01*
X66901140Y-134932810D01*
X66806798Y-135109314D01*
X66770676Y-135228392D01*
X66748702Y-135300830D01*
X66729085Y-135500000D01*
X66734000Y-135549902D01*
X66734001Y-156079158D01*
X57579160Y-165234000D01*
X52920841Y-165234000D01*
X52766000Y-165079160D01*
X52766000Y-164197459D01*
X52785000Y-164101939D01*
X52785000Y-163898061D01*
X52745226Y-163698102D01*
X52667205Y-163509744D01*
X52553937Y-163340226D01*
X52409774Y-163196063D01*
X52240256Y-163082795D01*
X52051898Y-163004774D01*
X51851939Y-162965000D01*
X51648061Y-162965000D01*
X51448102Y-163004774D01*
X51259744Y-163082795D01*
X51090226Y-163196063D01*
X50946063Y-163340226D01*
X50832795Y-163509744D01*
X50754774Y-163698102D01*
X50715000Y-163898061D01*
X50715000Y-164101939D01*
X50734001Y-164197463D01*
X50734000Y-165328738D01*
X48274000Y-162868739D01*
X48274000Y-160381261D01*
X48631262Y-160024000D01*
X52368739Y-160024000D01*
X53225302Y-160880564D01*
X53234001Y-160887703D01*
X53234001Y-161163048D01*
X53125829Y-161173702D01*
X52934313Y-161231798D01*
X52757810Y-161326140D01*
X52705698Y-161368908D01*
X52590226Y-161446063D01*
X52446063Y-161590226D01*
X52332795Y-161759744D01*
X52254774Y-161948102D01*
X52215000Y-162148061D01*
X52215000Y-162351939D01*
X52254774Y-162551898D01*
X52332795Y-162740256D01*
X52446063Y-162909774D01*
X52590226Y-163053937D01*
X52759744Y-163167205D01*
X52948102Y-163245226D01*
X53148061Y-163285000D01*
X53351939Y-163285000D01*
X53551898Y-163245226D01*
X53682810Y-163191000D01*
X53684484Y-163191000D01*
X53826592Y-163234108D01*
X53993750Y-163250572D01*
X54506250Y-163250572D01*
X54673408Y-163234108D01*
X54834142Y-163185350D01*
X54982275Y-163106171D01*
X55112115Y-162999615D01*
X55218671Y-162869775D01*
X55297850Y-162721642D01*
X55346608Y-162560908D01*
X55363072Y-162393750D01*
X55363072Y-161956250D01*
X55346608Y-161789092D01*
X55297850Y-161628358D01*
X55266000Y-161568771D01*
X55266000Y-160887701D01*
X55332844Y-160832844D01*
X55523290Y-160600785D01*
X55664804Y-160336031D01*
X55751947Y-160048756D01*
X55781372Y-159750000D01*
X55751947Y-159451243D01*
X55664804Y-159163969D01*
X55523290Y-158899214D01*
X55380564Y-158725302D01*
X54130563Y-157475302D01*
X54082844Y-157417156D01*
X53850785Y-157226710D01*
X53586031Y-157085196D01*
X53298756Y-156998052D01*
X53074859Y-156976000D01*
X53074849Y-156976000D01*
X53000000Y-156968628D01*
X52925151Y-156976000D01*
X48631262Y-156976000D01*
X48274000Y-156618739D01*
X48274000Y-156131261D01*
X65274697Y-139130564D01*
X65332844Y-139082844D01*
X65523290Y-138850785D01*
X65664804Y-138586031D01*
X65751948Y-138298756D01*
X65774000Y-138074859D01*
X65774000Y-138074850D01*
X65781372Y-138000001D01*
X65774000Y-137925152D01*
X65774000Y-130131261D01*
X66631262Y-129274000D01*
X73618739Y-129274000D01*
X74726000Y-130381261D01*
X74726001Y-137118737D01*
X73868739Y-137976000D01*
X72381261Y-137976000D01*
X71774697Y-137369436D01*
X71766000Y-137362299D01*
X71766000Y-137303146D01*
X71911671Y-137288798D01*
X72103187Y-137230702D01*
X72159058Y-137200838D01*
X72240256Y-137167205D01*
X72409774Y-137053937D01*
X72553937Y-136909774D01*
X72667205Y-136740256D01*
X72745226Y-136551898D01*
X72785000Y-136351939D01*
X72785000Y-136148061D01*
X72745226Y-135948102D01*
X72667205Y-135759744D01*
X72553937Y-135590226D01*
X72409774Y-135446063D01*
X72240256Y-135332795D01*
X72051898Y-135254774D01*
X71851939Y-135215000D01*
X71648061Y-135215000D01*
X71448102Y-135254774D01*
X71407722Y-135271500D01*
X71315516Y-135271500D01*
X71173408Y-135228392D01*
X71006250Y-135211928D01*
X70493750Y-135211928D01*
X70326592Y-135228392D01*
X70165858Y-135277150D01*
X70017725Y-135356329D01*
X69887885Y-135462885D01*
X69781329Y-135592725D01*
X69702150Y-135740858D01*
X69653392Y-135901592D01*
X69636928Y-136068750D01*
X69636928Y-136506250D01*
X69653392Y-136673408D01*
X69702150Y-136834142D01*
X69734000Y-136893729D01*
X69734000Y-137362298D01*
X69667156Y-137417156D01*
X69476710Y-137649215D01*
X69335197Y-137913969D01*
X69248053Y-138201244D01*
X69218628Y-138500000D01*
X69248053Y-138798756D01*
X69335197Y-139086031D01*
X69476710Y-139350785D01*
X69619436Y-139524697D01*
X70619436Y-140524697D01*
X70667156Y-140582844D01*
X70899215Y-140773290D01*
X71163969Y-140914804D01*
X71451244Y-141001948D01*
X71675141Y-141024000D01*
X71675149Y-141024000D01*
X71750000Y-141031372D01*
X71824851Y-141024000D01*
X74425151Y-141024000D01*
X74500000Y-141031372D01*
X74574849Y-141024000D01*
X74574859Y-141024000D01*
X74798756Y-141001948D01*
X75086031Y-140914804D01*
X75350785Y-140773290D01*
X75582844Y-140582844D01*
X75630564Y-140524697D01*
X77274702Y-138880560D01*
X77332844Y-138832844D01*
X77380560Y-138774702D01*
X77380564Y-138774698D01*
X77523290Y-138600786D01*
X77664804Y-138336031D01*
X77751948Y-138048756D01*
X77765223Y-137913969D01*
X77774000Y-137824859D01*
X77774000Y-137824851D01*
X77781372Y-137750000D01*
X77774000Y-137675149D01*
X77774000Y-129824848D01*
X77781372Y-129749999D01*
X77774000Y-129675150D01*
X77774000Y-129675141D01*
X77751948Y-129451244D01*
X77664804Y-129163969D01*
X77523290Y-128899215D01*
X77332844Y-128667156D01*
X77274698Y-128619437D01*
X75380563Y-126725302D01*
X75332844Y-126667156D01*
X75100785Y-126476710D01*
X74836031Y-126335196D01*
X74548756Y-126248052D01*
X74324859Y-126226000D01*
X74324849Y-126226000D01*
X74250000Y-126218628D01*
X74175151Y-126226000D01*
X66881261Y-126226000D01*
X65774000Y-125118739D01*
X65774000Y-113881261D01*
X72024702Y-107630560D01*
X72082844Y-107582844D01*
X72130560Y-107524702D01*
X72130564Y-107524698D01*
X72273290Y-107350785D01*
X72414804Y-107086031D01*
X72501948Y-106798756D01*
X72517516Y-106640687D01*
X72524000Y-106574859D01*
X72524000Y-106574851D01*
X72531372Y-106500000D01*
X72524000Y-106425149D01*
X72524000Y-104398061D01*
X73465000Y-104398061D01*
X73465000Y-104601939D01*
X73484001Y-104697464D01*
X73484000Y-106200098D01*
X73479085Y-106250000D01*
X73484000Y-106299901D01*
X73498702Y-106449170D01*
X73556798Y-106640686D01*
X73651140Y-106817190D01*
X73778104Y-106971896D01*
X73816872Y-107003712D01*
X75996292Y-109183133D01*
X76028104Y-109221896D01*
X76068443Y-109255001D01*
X76182810Y-109348860D01*
X76359313Y-109443202D01*
X76550829Y-109501298D01*
X76750000Y-109520915D01*
X76799902Y-109516000D01*
X80450098Y-109516000D01*
X80500000Y-109520915D01*
X80549902Y-109516000D01*
X80699171Y-109501298D01*
X80890687Y-109443202D01*
X81067190Y-109348860D01*
X81221896Y-109221896D01*
X81253712Y-109183128D01*
X84683133Y-105753708D01*
X84721896Y-105721896D01*
X84848860Y-105567190D01*
X84943202Y-105390687D01*
X85001298Y-105199171D01*
X85016000Y-105049902D01*
X85016000Y-105049895D01*
X85020914Y-105000001D01*
X85016000Y-104950107D01*
X85016000Y-75920840D01*
X85078794Y-75858046D01*
X85159774Y-75803937D01*
X85303937Y-75659774D01*
X85417205Y-75490256D01*
X85495226Y-75301898D01*
X85535000Y-75101939D01*
X85535000Y-74898061D01*
X85495226Y-74698102D01*
X85417205Y-74509744D01*
X85303937Y-74340226D01*
X85159774Y-74196063D01*
X84990256Y-74082795D01*
X84801898Y-74004774D01*
X84601939Y-73965000D01*
X84398061Y-73965000D01*
X84198102Y-74004774D01*
X84009744Y-74082795D01*
X83840226Y-74196063D01*
X83696063Y-74340226D01*
X83641954Y-74421206D01*
X83316873Y-74746287D01*
X83278104Y-74778104D01*
X83151140Y-74932810D01*
X83056798Y-75109314D01*
X83029540Y-75199171D01*
X82998702Y-75300830D01*
X82979085Y-75500000D01*
X82984000Y-75549902D01*
X82984001Y-104579158D01*
X80079160Y-107484000D01*
X77170841Y-107484000D01*
X75516000Y-105829160D01*
X75516000Y-104697459D01*
X75535000Y-104601939D01*
X75535000Y-104398061D01*
X75495226Y-104198102D01*
X75417205Y-104009744D01*
X75303937Y-103840226D01*
X75159774Y-103696063D01*
X74990256Y-103582795D01*
X74801898Y-103504774D01*
X74601939Y-103465000D01*
X74398061Y-103465000D01*
X74198102Y-103504774D01*
X74009744Y-103582795D01*
X73840226Y-103696063D01*
X73696063Y-103840226D01*
X73582795Y-104009744D01*
X73504774Y-104198102D01*
X73465000Y-104398061D01*
X72524000Y-104398061D01*
X72524000Y-103881261D01*
X75000000Y-101405261D01*
X75369436Y-101774697D01*
X75417156Y-101832844D01*
X75458399Y-101866691D01*
X75455698Y-101868908D01*
X75340226Y-101946063D01*
X75196063Y-102090226D01*
X75082795Y-102259744D01*
X75004774Y-102448102D01*
X74965000Y-102648061D01*
X74965000Y-102851939D01*
X75004774Y-103051898D01*
X75082795Y-103240256D01*
X75196063Y-103409774D01*
X75340226Y-103553937D01*
X75509744Y-103667205D01*
X75698102Y-103745226D01*
X75898061Y-103785000D01*
X76101939Y-103785000D01*
X76301898Y-103745226D01*
X76432810Y-103691000D01*
X76434484Y-103691000D01*
X76576592Y-103734108D01*
X76743750Y-103750572D01*
X77256250Y-103750572D01*
X77423408Y-103734108D01*
X77584142Y-103685350D01*
X77732275Y-103606171D01*
X77862115Y-103499615D01*
X77968671Y-103369775D01*
X78047850Y-103221642D01*
X78096608Y-103060908D01*
X78113072Y-102893750D01*
X78113072Y-102456250D01*
X78096608Y-102289092D01*
X78047850Y-102128358D01*
X78016000Y-102068771D01*
X78016000Y-101887701D01*
X78082844Y-101832844D01*
X78273290Y-101600785D01*
X78414804Y-101336031D01*
X78501948Y-101048756D01*
X78531373Y-100750000D01*
X78524000Y-100675141D01*
X78524000Y-97881261D01*
X82024703Y-94380559D01*
X82082844Y-94332844D01*
X82130560Y-94274702D01*
X82130564Y-94274698D01*
X82273290Y-94100785D01*
X82414804Y-93836031D01*
X82501948Y-93548756D01*
X82502316Y-93545015D01*
X82524000Y-93324859D01*
X82524000Y-93324851D01*
X82531372Y-93250000D01*
X82524000Y-93175149D01*
X82524000Y-73881261D01*
X88631262Y-67774000D01*
X90618739Y-67774000D01*
X93975302Y-71130564D01*
%TA.AperFunction,Conductor*%
D20*
G36*
X93975302Y-71130564D02*
G01*
X93975308Y-71130569D01*
X94369436Y-71524697D01*
X94417156Y-71582844D01*
X94475303Y-71630564D01*
X96226001Y-73381262D01*
X96226000Y-78368739D01*
X95229739Y-79365000D01*
X90020262Y-79365000D01*
X88175608Y-77520347D01*
X88301898Y-77495226D01*
X88490256Y-77417205D01*
X88659774Y-77303937D01*
X88803937Y-77159774D01*
X88917205Y-76990256D01*
X88995226Y-76801898D01*
X89035000Y-76601939D01*
X89035000Y-76398061D01*
X88995226Y-76198102D01*
X88917205Y-76009744D01*
X88803937Y-75840226D01*
X88659774Y-75696063D01*
X88554885Y-75625979D01*
X88483190Y-75567140D01*
X88306687Y-75472798D01*
X88115171Y-75414702D01*
X87965902Y-75400000D01*
X87916000Y-75395085D01*
X87866098Y-75400000D01*
X87565516Y-75400000D01*
X87423408Y-75356892D01*
X87256250Y-75340428D01*
X86743750Y-75340428D01*
X86576592Y-75356892D01*
X86415858Y-75405650D01*
X86267725Y-75484829D01*
X86137885Y-75591385D01*
X86031329Y-75721225D01*
X85952150Y-75869358D01*
X85903392Y-76030092D01*
X85886928Y-76197250D01*
X85886928Y-76634750D01*
X85903392Y-76801908D01*
X85952150Y-76962642D01*
X85984000Y-77022230D01*
X85984000Y-77362298D01*
X85917156Y-77417156D01*
X85726710Y-77649215D01*
X85585197Y-77913969D01*
X85498053Y-78201244D01*
X85468628Y-78500000D01*
X85498053Y-78798756D01*
X85585197Y-79086031D01*
X85726710Y-79350785D01*
X85869436Y-79524697D01*
X88369440Y-82024702D01*
X88417156Y-82082844D01*
X88475298Y-82130560D01*
X88475302Y-82130564D01*
X88649214Y-82273290D01*
X88912405Y-82413968D01*
X88913969Y-82414804D01*
X89201244Y-82501948D01*
X89425141Y-82524000D01*
X89425151Y-82524000D01*
X89500000Y-82531372D01*
X89574849Y-82524000D01*
X95118739Y-82524000D01*
X96226001Y-83631262D01*
X96226000Y-84925141D01*
X96226000Y-85368738D01*
X95475303Y-86119436D01*
X95417156Y-86167156D01*
X95369437Y-86225302D01*
X92225299Y-89369440D01*
X92167157Y-89417156D01*
X92119441Y-89475298D01*
X92119436Y-89475303D01*
X91976710Y-89649215D01*
X91835197Y-89913969D01*
X91748053Y-90201244D01*
X91718628Y-90500000D01*
X91726001Y-90574859D01*
X91726000Y-93675151D01*
X91718628Y-93750000D01*
X91726000Y-93824849D01*
X91726000Y-93824858D01*
X91748052Y-94048755D01*
X91835196Y-94336030D01*
X91835197Y-94336031D01*
X91976710Y-94600785D01*
X92119436Y-94774697D01*
X92167156Y-94832844D01*
X92225303Y-94880564D01*
X93975302Y-96630564D01*
X94149214Y-96773290D01*
X94413969Y-96914804D01*
X94701244Y-97001948D01*
X95000000Y-97031372D01*
X95086056Y-97022896D01*
X95548052Y-97484893D01*
X95448102Y-97504774D01*
X95259744Y-97582795D01*
X95090226Y-97696063D01*
X94946063Y-97840226D01*
X94832795Y-98009744D01*
X94754774Y-98198102D01*
X94715000Y-98398061D01*
X94715000Y-98601939D01*
X94754774Y-98801898D01*
X94832795Y-98990256D01*
X94946063Y-99159774D01*
X95090226Y-99303937D01*
X95259744Y-99417205D01*
X95448102Y-99495226D01*
X95648061Y-99535000D01*
X95851939Y-99535000D01*
X95947459Y-99516000D01*
X96126851Y-99516000D01*
X96165858Y-99536850D01*
X96326592Y-99585608D01*
X96493750Y-99602072D01*
X97006250Y-99602072D01*
X97173408Y-99585608D01*
X97334142Y-99536850D01*
X97358100Y-99524044D01*
X97358101Y-109205058D01*
X97054160Y-109509000D01*
X96898072Y-109509000D01*
X96898072Y-108930000D01*
X96885812Y-108805518D01*
X96849502Y-108685820D01*
X96790537Y-108575506D01*
X96711185Y-108478815D01*
X96614494Y-108399463D01*
X96504180Y-108340498D01*
X96384482Y-108304188D01*
X96260000Y-108291928D01*
X95735185Y-108291928D01*
X95609171Y-108253702D01*
X95459902Y-108239000D01*
X92960729Y-108239000D01*
X92901142Y-108207150D01*
X92740408Y-108158392D01*
X92573250Y-108141928D01*
X92135750Y-108141928D01*
X91968592Y-108158392D01*
X91807858Y-108207150D01*
X91659725Y-108286329D01*
X91567000Y-108362426D01*
X91474275Y-108286329D01*
X91326142Y-108207150D01*
X91165408Y-108158392D01*
X90998250Y-108141928D01*
X90560750Y-108141928D01*
X90393592Y-108158392D01*
X90232858Y-108207150D01*
X90173271Y-108239000D01*
X88294893Y-108239000D01*
X88244999Y-108234086D01*
X88195105Y-108239000D01*
X88195098Y-108239000D01*
X88065177Y-108251796D01*
X88045828Y-108253702D01*
X87987732Y-108271326D01*
X87854313Y-108311798D01*
X87677810Y-108406140D01*
X87523104Y-108533104D01*
X87491292Y-108571867D01*
X80816872Y-115246288D01*
X80778104Y-115278104D01*
X80651140Y-115432810D01*
X80556798Y-115609314D01*
X80498984Y-115799901D01*
X80498702Y-115800830D01*
X80479085Y-116000000D01*
X80484000Y-116049902D01*
X80484001Y-158829158D01*
X80066870Y-159246290D01*
X80066865Y-159246294D01*
X77016000Y-162297160D01*
X77016000Y-162137701D01*
X77082844Y-162082844D01*
X77273290Y-161850785D01*
X77414804Y-161586031D01*
X77501948Y-161298756D01*
X77531372Y-161000000D01*
X77501948Y-160701244D01*
X77414804Y-160413969D01*
X77273290Y-160149214D01*
X77130564Y-159975302D01*
X75380564Y-158225303D01*
X75332844Y-158167156D01*
X75100785Y-157976710D01*
X74836031Y-157835196D01*
X74548756Y-157748052D01*
X74324859Y-157726000D01*
X74324849Y-157726000D01*
X74250000Y-157718628D01*
X74175151Y-157726000D01*
X69824848Y-157726000D01*
X69749999Y-157718628D01*
X69675150Y-157726000D01*
X69675141Y-157726000D01*
X69451244Y-157748052D01*
X69163969Y-157835196D01*
X68899215Y-157976710D01*
X68667156Y-158167156D01*
X68619436Y-158225303D01*
X65225303Y-161619436D01*
X65167156Y-161667156D01*
X65119437Y-161725302D01*
X65119436Y-161725303D01*
X64976710Y-161899215D01*
X64901070Y-162040729D01*
X64835196Y-162163970D01*
X64748052Y-162451245D01*
X64726000Y-162675142D01*
X64726000Y-162675151D01*
X64718628Y-162750000D01*
X64726000Y-162824849D01*
X64726001Y-165868738D01*
X64118739Y-166476000D01*
X59210840Y-166476000D01*
X68433133Y-157253708D01*
X68471896Y-157221896D01*
X68598860Y-157067190D01*
X68693202Y-156890687D01*
X68751298Y-156699171D01*
X68766000Y-156549902D01*
X68766000Y-156549895D01*
X68770914Y-156500001D01*
X68766000Y-156450107D01*
X68766000Y-135920840D01*
X68828794Y-135858046D01*
X68909774Y-135803937D01*
X69053937Y-135659774D01*
X69167205Y-135490256D01*
X69245226Y-135301898D01*
X69285000Y-135101939D01*
X69285000Y-134898061D01*
X69245226Y-134698102D01*
X69167205Y-134509744D01*
X69053937Y-134340226D01*
X68909774Y-134196063D01*
X68740256Y-134082795D01*
X68551898Y-134004774D01*
X68351939Y-133965000D01*
X68148061Y-133965000D01*
X67948102Y-134004774D01*
X67759744Y-134082795D01*
X67590226Y-134196063D01*
X67446063Y-134340226D01*
X67391954Y-134421206D01*
X67066873Y-134746287D01*
X67028104Y-134778104D01*
X66901140Y-134932810D01*
X66806798Y-135109314D01*
X66770676Y-135228392D01*
X66748702Y-135300830D01*
X66729085Y-135500000D01*
X66734000Y-135549902D01*
X66734001Y-156079158D01*
X57579160Y-165234000D01*
X52920841Y-165234000D01*
X52766000Y-165079160D01*
X52766000Y-164197459D01*
X52785000Y-164101939D01*
X52785000Y-163898061D01*
X52745226Y-163698102D01*
X52667205Y-163509744D01*
X52553937Y-163340226D01*
X52409774Y-163196063D01*
X52240256Y-163082795D01*
X52051898Y-163004774D01*
X51851939Y-162965000D01*
X51648061Y-162965000D01*
X51448102Y-163004774D01*
X51259744Y-163082795D01*
X51090226Y-163196063D01*
X50946063Y-163340226D01*
X50832795Y-163509744D01*
X50754774Y-163698102D01*
X50715000Y-163898061D01*
X50715000Y-164101939D01*
X50734001Y-164197463D01*
X50734000Y-165328738D01*
X48274000Y-162868739D01*
X48274000Y-160381261D01*
X48631262Y-160024000D01*
X52368739Y-160024000D01*
X53225302Y-160880564D01*
X53234001Y-160887703D01*
X53234001Y-161163048D01*
X53125829Y-161173702D01*
X52934313Y-161231798D01*
X52757810Y-161326140D01*
X52705698Y-161368908D01*
X52590226Y-161446063D01*
X52446063Y-161590226D01*
X52332795Y-161759744D01*
X52254774Y-161948102D01*
X52215000Y-162148061D01*
X52215000Y-162351939D01*
X52254774Y-162551898D01*
X52332795Y-162740256D01*
X52446063Y-162909774D01*
X52590226Y-163053937D01*
X52759744Y-163167205D01*
X52948102Y-163245226D01*
X53148061Y-163285000D01*
X53351939Y-163285000D01*
X53551898Y-163245226D01*
X53682810Y-163191000D01*
X53684484Y-163191000D01*
X53826592Y-163234108D01*
X53993750Y-163250572D01*
X54506250Y-163250572D01*
X54673408Y-163234108D01*
X54834142Y-163185350D01*
X54982275Y-163106171D01*
X55112115Y-162999615D01*
X55218671Y-162869775D01*
X55297850Y-162721642D01*
X55346608Y-162560908D01*
X55363072Y-162393750D01*
X55363072Y-161956250D01*
X55346608Y-161789092D01*
X55297850Y-161628358D01*
X55266000Y-161568771D01*
X55266000Y-160887701D01*
X55332844Y-160832844D01*
X55523290Y-160600785D01*
X55664804Y-160336031D01*
X55751947Y-160048756D01*
X55781372Y-159750000D01*
X55751947Y-159451243D01*
X55664804Y-159163969D01*
X55523290Y-158899214D01*
X55380564Y-158725302D01*
X54130563Y-157475302D01*
X54082844Y-157417156D01*
X53850785Y-157226710D01*
X53586031Y-157085196D01*
X53298756Y-156998052D01*
X53074859Y-156976000D01*
X53074849Y-156976000D01*
X53000000Y-156968628D01*
X52925151Y-156976000D01*
X48631262Y-156976000D01*
X48274000Y-156618739D01*
X48274000Y-156131261D01*
X65274697Y-139130564D01*
X65332844Y-139082844D01*
X65523290Y-138850785D01*
X65664804Y-138586031D01*
X65751948Y-138298756D01*
X65774000Y-138074859D01*
X65774000Y-138074850D01*
X65781372Y-138000001D01*
X65774000Y-137925152D01*
X65774000Y-130131261D01*
X66631262Y-129274000D01*
X73618739Y-129274000D01*
X74726000Y-130381261D01*
X74726001Y-137118737D01*
X73868739Y-137976000D01*
X72381261Y-137976000D01*
X71774697Y-137369436D01*
X71766000Y-137362299D01*
X71766000Y-137303146D01*
X71911671Y-137288798D01*
X72103187Y-137230702D01*
X72159058Y-137200838D01*
X72240256Y-137167205D01*
X72409774Y-137053937D01*
X72553937Y-136909774D01*
X72667205Y-136740256D01*
X72745226Y-136551898D01*
X72785000Y-136351939D01*
X72785000Y-136148061D01*
X72745226Y-135948102D01*
X72667205Y-135759744D01*
X72553937Y-135590226D01*
X72409774Y-135446063D01*
X72240256Y-135332795D01*
X72051898Y-135254774D01*
X71851939Y-135215000D01*
X71648061Y-135215000D01*
X71448102Y-135254774D01*
X71407722Y-135271500D01*
X71315516Y-135271500D01*
X71173408Y-135228392D01*
X71006250Y-135211928D01*
X70493750Y-135211928D01*
X70326592Y-135228392D01*
X70165858Y-135277150D01*
X70017725Y-135356329D01*
X69887885Y-135462885D01*
X69781329Y-135592725D01*
X69702150Y-135740858D01*
X69653392Y-135901592D01*
X69636928Y-136068750D01*
X69636928Y-136506250D01*
X69653392Y-136673408D01*
X69702150Y-136834142D01*
X69734000Y-136893729D01*
X69734000Y-137362298D01*
X69667156Y-137417156D01*
X69476710Y-137649215D01*
X69335197Y-137913969D01*
X69248053Y-138201244D01*
X69218628Y-138500000D01*
X69248053Y-138798756D01*
X69335197Y-139086031D01*
X69476710Y-139350785D01*
X69619436Y-139524697D01*
X70619436Y-140524697D01*
X70667156Y-140582844D01*
X70899215Y-140773290D01*
X71163969Y-140914804D01*
X71451244Y-141001948D01*
X71675141Y-141024000D01*
X71675149Y-141024000D01*
X71750000Y-141031372D01*
X71824851Y-141024000D01*
X74425151Y-141024000D01*
X74500000Y-141031372D01*
X74574849Y-141024000D01*
X74574859Y-141024000D01*
X74798756Y-141001948D01*
X75086031Y-140914804D01*
X75350785Y-140773290D01*
X75582844Y-140582844D01*
X75630564Y-140524697D01*
X77274702Y-138880560D01*
X77332844Y-138832844D01*
X77380560Y-138774702D01*
X77380564Y-138774698D01*
X77523290Y-138600786D01*
X77664804Y-138336031D01*
X77751948Y-138048756D01*
X77765223Y-137913969D01*
X77774000Y-137824859D01*
X77774000Y-137824851D01*
X77781372Y-137750000D01*
X77774000Y-137675149D01*
X77774000Y-129824848D01*
X77781372Y-129749999D01*
X77774000Y-129675150D01*
X77774000Y-129675141D01*
X77751948Y-129451244D01*
X77664804Y-129163969D01*
X77523290Y-128899215D01*
X77332844Y-128667156D01*
X77274698Y-128619437D01*
X75380563Y-126725302D01*
X75332844Y-126667156D01*
X75100785Y-126476710D01*
X74836031Y-126335196D01*
X74548756Y-126248052D01*
X74324859Y-126226000D01*
X74324849Y-126226000D01*
X74250000Y-126218628D01*
X74175151Y-126226000D01*
X66881261Y-126226000D01*
X65774000Y-125118739D01*
X65774000Y-113881261D01*
X72024702Y-107630560D01*
X72082844Y-107582844D01*
X72130560Y-107524702D01*
X72130564Y-107524698D01*
X72273290Y-107350785D01*
X72414804Y-107086031D01*
X72501948Y-106798756D01*
X72517516Y-106640687D01*
X72524000Y-106574859D01*
X72524000Y-106574851D01*
X72531372Y-106500000D01*
X72524000Y-106425149D01*
X72524000Y-104398061D01*
X73465000Y-104398061D01*
X73465000Y-104601939D01*
X73484001Y-104697464D01*
X73484000Y-106200098D01*
X73479085Y-106250000D01*
X73484000Y-106299901D01*
X73498702Y-106449170D01*
X73556798Y-106640686D01*
X73651140Y-106817190D01*
X73778104Y-106971896D01*
X73816872Y-107003712D01*
X75996292Y-109183133D01*
X76028104Y-109221896D01*
X76068443Y-109255001D01*
X76182810Y-109348860D01*
X76359313Y-109443202D01*
X76550829Y-109501298D01*
X76750000Y-109520915D01*
X76799902Y-109516000D01*
X80450098Y-109516000D01*
X80500000Y-109520915D01*
X80549902Y-109516000D01*
X80699171Y-109501298D01*
X80890687Y-109443202D01*
X81067190Y-109348860D01*
X81221896Y-109221896D01*
X81253712Y-109183128D01*
X84683133Y-105753708D01*
X84721896Y-105721896D01*
X84848860Y-105567190D01*
X84943202Y-105390687D01*
X85001298Y-105199171D01*
X85016000Y-105049902D01*
X85016000Y-105049895D01*
X85020914Y-105000001D01*
X85016000Y-104950107D01*
X85016000Y-75920840D01*
X85078794Y-75858046D01*
X85159774Y-75803937D01*
X85303937Y-75659774D01*
X85417205Y-75490256D01*
X85495226Y-75301898D01*
X85535000Y-75101939D01*
X85535000Y-74898061D01*
X85495226Y-74698102D01*
X85417205Y-74509744D01*
X85303937Y-74340226D01*
X85159774Y-74196063D01*
X84990256Y-74082795D01*
X84801898Y-74004774D01*
X84601939Y-73965000D01*
X84398061Y-73965000D01*
X84198102Y-74004774D01*
X84009744Y-74082795D01*
X83840226Y-74196063D01*
X83696063Y-74340226D01*
X83641954Y-74421206D01*
X83316873Y-74746287D01*
X83278104Y-74778104D01*
X83151140Y-74932810D01*
X83056798Y-75109314D01*
X83029540Y-75199171D01*
X82998702Y-75300830D01*
X82979085Y-75500000D01*
X82984000Y-75549902D01*
X82984001Y-104579158D01*
X80079160Y-107484000D01*
X77170841Y-107484000D01*
X75516000Y-105829160D01*
X75516000Y-104697459D01*
X75535000Y-104601939D01*
X75535000Y-104398061D01*
X75495226Y-104198102D01*
X75417205Y-104009744D01*
X75303937Y-103840226D01*
X75159774Y-103696063D01*
X74990256Y-103582795D01*
X74801898Y-103504774D01*
X74601939Y-103465000D01*
X74398061Y-103465000D01*
X74198102Y-103504774D01*
X74009744Y-103582795D01*
X73840226Y-103696063D01*
X73696063Y-103840226D01*
X73582795Y-104009744D01*
X73504774Y-104198102D01*
X73465000Y-104398061D01*
X72524000Y-104398061D01*
X72524000Y-103881261D01*
X75000000Y-101405261D01*
X75369436Y-101774697D01*
X75417156Y-101832844D01*
X75458399Y-101866691D01*
X75455698Y-101868908D01*
X75340226Y-101946063D01*
X75196063Y-102090226D01*
X75082795Y-102259744D01*
X75004774Y-102448102D01*
X74965000Y-102648061D01*
X74965000Y-102851939D01*
X75004774Y-103051898D01*
X75082795Y-103240256D01*
X75196063Y-103409774D01*
X75340226Y-103553937D01*
X75509744Y-103667205D01*
X75698102Y-103745226D01*
X75898061Y-103785000D01*
X76101939Y-103785000D01*
X76301898Y-103745226D01*
X76432810Y-103691000D01*
X76434484Y-103691000D01*
X76576592Y-103734108D01*
X76743750Y-103750572D01*
X77256250Y-103750572D01*
X77423408Y-103734108D01*
X77584142Y-103685350D01*
X77732275Y-103606171D01*
X77862115Y-103499615D01*
X77968671Y-103369775D01*
X78047850Y-103221642D01*
X78096608Y-103060908D01*
X78113072Y-102893750D01*
X78113072Y-102456250D01*
X78096608Y-102289092D01*
X78047850Y-102128358D01*
X78016000Y-102068771D01*
X78016000Y-101887701D01*
X78082844Y-101832844D01*
X78273290Y-101600785D01*
X78414804Y-101336031D01*
X78501948Y-101048756D01*
X78531373Y-100750000D01*
X78524000Y-100675141D01*
X78524000Y-97881261D01*
X82024703Y-94380559D01*
X82082844Y-94332844D01*
X82130560Y-94274702D01*
X82130564Y-94274698D01*
X82273290Y-94100785D01*
X82414804Y-93836031D01*
X82501948Y-93548756D01*
X82502316Y-93545015D01*
X82524000Y-93324859D01*
X82524000Y-93324851D01*
X82531372Y-93250000D01*
X82524000Y-93175149D01*
X82524000Y-73881261D01*
X88631262Y-67774000D01*
X90618739Y-67774000D01*
X93975302Y-71130564D01*
G37*
%TD.AperFunction*%
D19*
X91659725Y-110223671D02*
X91807858Y-110302850D01*
X91968592Y-110351608D01*
X92135750Y-110368072D01*
X92573250Y-110368072D01*
X92740408Y-110351608D01*
X92901142Y-110302850D01*
X92960729Y-110271000D01*
X93921928Y-110271000D01*
X93921928Y-110850000D01*
X93934188Y-110974482D01*
X93970498Y-111094180D01*
X94005680Y-111160000D01*
X93970498Y-111225820D01*
X93934188Y-111345518D01*
X93921928Y-111470000D01*
X93921928Y-112120000D01*
X93934188Y-112244482D01*
X93970498Y-112364180D01*
X94029463Y-112474494D01*
X94108815Y-112571185D01*
X94205506Y-112650537D01*
X94315820Y-112709502D01*
X94360901Y-112723177D01*
X94360900Y-113769483D01*
X94317792Y-113911592D01*
X94301328Y-114078750D01*
X94301328Y-114591250D01*
X94317792Y-114758408D01*
X94366550Y-114919142D01*
X94445729Y-115067275D01*
X94552285Y-115197115D01*
X94682125Y-115303671D01*
X94830258Y-115382850D01*
X94990992Y-115431608D01*
X95158150Y-115448072D01*
X95595650Y-115448072D01*
X95762808Y-115431608D01*
X95923542Y-115382850D01*
X96071675Y-115303671D01*
X96164400Y-115227574D01*
X96257125Y-115303671D01*
X96405258Y-115382850D01*
X96565992Y-115431608D01*
X96733150Y-115448072D01*
X97170650Y-115448072D01*
X97337808Y-115431608D01*
X97498542Y-115382850D01*
X97558129Y-115351000D01*
X101755961Y-115351000D01*
X101629656Y-115454656D01*
X101439210Y-115686716D01*
X101297696Y-115951470D01*
X101210552Y-116238745D01*
X101188500Y-116462642D01*
X101188500Y-117406239D01*
X100618739Y-117976000D01*
X99574851Y-117976000D01*
X99500000Y-117968628D01*
X99425149Y-117976000D01*
X97824859Y-117976000D01*
X97750000Y-117968627D01*
X97675141Y-117976000D01*
X96074849Y-117976000D01*
X96000000Y-117968628D01*
X95925151Y-117976000D01*
X91574849Y-117976000D01*
X91500000Y-117968628D01*
X91425151Y-117976000D01*
X91425141Y-117976000D01*
X91201244Y-117998052D01*
X90913969Y-118085196D01*
X90649214Y-118226710D01*
X90475302Y-118369436D01*
X90475298Y-118369440D01*
X90417156Y-118417156D01*
X90369440Y-118475298D01*
X86725303Y-122119436D01*
X86667156Y-122167156D01*
X86619437Y-122225302D01*
X86619436Y-122225303D01*
X86476710Y-122399215D01*
X86422840Y-122500000D01*
X86335196Y-122663970D01*
X86248052Y-122951245D01*
X86226000Y-123175142D01*
X86226000Y-123175151D01*
X86218628Y-123250000D01*
X86226000Y-123324849D01*
X86226001Y-127675132D01*
X86226000Y-127675142D01*
X86226001Y-134425141D01*
X86218628Y-134500000D01*
X86248053Y-134798756D01*
X86335197Y-135086031D01*
X86476710Y-135350785D01*
X86619436Y-135524697D01*
X86619441Y-135524702D01*
X86667157Y-135582844D01*
X86725299Y-135630560D01*
X88119436Y-137024697D01*
X88167156Y-137082844D01*
X88399215Y-137273290D01*
X88663969Y-137414804D01*
X88951244Y-137501948D01*
X89175141Y-137524000D01*
X89175150Y-137524000D01*
X89249999Y-137531372D01*
X89324848Y-137524000D01*
X91074859Y-137524000D01*
X91298756Y-137501948D01*
X91586031Y-137414804D01*
X91850785Y-137273290D01*
X92082844Y-137082844D01*
X92273290Y-136850785D01*
X92414804Y-136586031D01*
X92501948Y-136298756D01*
X92531373Y-136000000D01*
X92522897Y-135913943D01*
X92933133Y-135503708D01*
X92971896Y-135471896D01*
X93098860Y-135317190D01*
X93193202Y-135140687D01*
X93251298Y-134949171D01*
X93266000Y-134799902D01*
X93270915Y-134750000D01*
X93266000Y-134700098D01*
X93266000Y-134053146D01*
X93411671Y-134038798D01*
X93484000Y-134016857D01*
X93484001Y-160450088D01*
X93479085Y-160500000D01*
X93498702Y-160699170D01*
X93544111Y-160848860D01*
X93556799Y-160890687D01*
X93651141Y-161067190D01*
X93778105Y-161221896D01*
X93816868Y-161253708D01*
X95641956Y-163078797D01*
X95696063Y-163159774D01*
X95840226Y-163303937D01*
X96009744Y-163417205D01*
X96198102Y-163495226D01*
X96398061Y-163535000D01*
X96601939Y-163535000D01*
X96801898Y-163495226D01*
X96990256Y-163417205D01*
X97159774Y-163303937D01*
X97303937Y-163159774D01*
X97417205Y-162990256D01*
X97495226Y-162801898D01*
X97535000Y-162601939D01*
X97535000Y-162398061D01*
X97495226Y-162198102D01*
X97417205Y-162009744D01*
X97303937Y-161840226D01*
X97159774Y-161696063D01*
X97078797Y-161641956D01*
X95516000Y-160079160D01*
X95516000Y-131447459D01*
X95535000Y-131351939D01*
X95535000Y-131148061D01*
X95495226Y-130948102D01*
X95417205Y-130759744D01*
X95303937Y-130590226D01*
X95159774Y-130446063D01*
X94990256Y-130332795D01*
X94801898Y-130254774D01*
X94601939Y-130215000D01*
X94398061Y-130215000D01*
X94198102Y-130254774D01*
X94009744Y-130332795D01*
X93840226Y-130446063D01*
X93696063Y-130590226D01*
X93582795Y-130759744D01*
X93504774Y-130948102D01*
X93465000Y-131148061D01*
X93465000Y-131351939D01*
X93484000Y-131447459D01*
X93484000Y-131991268D01*
X93351939Y-131965000D01*
X93148061Y-131965000D01*
X92948102Y-132004774D01*
X92907722Y-132021500D01*
X92815516Y-132021500D01*
X92673408Y-131978392D01*
X92506250Y-131961928D01*
X91993750Y-131961928D01*
X91826592Y-131978392D01*
X91665858Y-132027150D01*
X91517725Y-132106329D01*
X91387885Y-132212885D01*
X91281329Y-132342725D01*
X91202150Y-132490858D01*
X91153392Y-132651592D01*
X91136928Y-132818750D01*
X91136928Y-133256250D01*
X91153392Y-133423408D01*
X91202150Y-133584142D01*
X91234000Y-133643730D01*
X91234001Y-134329159D01*
X91086057Y-134477103D01*
X91074859Y-134476000D01*
X89881261Y-134476000D01*
X89274000Y-133868739D01*
X89274000Y-123881261D01*
X92131262Y-121024000D01*
X95368739Y-121024000D01*
X96226001Y-121881263D01*
X96226000Y-125925151D01*
X96218628Y-126000000D01*
X96226000Y-126074849D01*
X96226000Y-126074858D01*
X96248052Y-126298755D01*
X96335196Y-126586030D01*
X96380338Y-126670485D01*
X96476710Y-126850785D01*
X96617652Y-127022523D01*
X96667156Y-127082844D01*
X96725303Y-127130564D01*
X108976001Y-139381263D01*
X108976000Y-161368739D01*
X103868739Y-166476000D01*
X101131261Y-166476000D01*
X100517838Y-165862577D01*
X100501948Y-165701244D01*
X100414804Y-165413969D01*
X100273290Y-165149215D01*
X100082844Y-164917156D01*
X100016000Y-164862299D01*
X100016000Y-164797326D01*
X100089398Y-164782726D01*
X100277756Y-164704705D01*
X100447274Y-164591437D01*
X100591437Y-164447274D01*
X100704705Y-164277756D01*
X100782726Y-164089398D01*
X100822500Y-163889439D01*
X100822500Y-163685561D01*
X100782726Y-163485602D01*
X100704705Y-163297244D01*
X100591437Y-163127726D01*
X100447274Y-162983563D01*
X100277756Y-162870295D01*
X100089398Y-162792274D01*
X99889439Y-162752500D01*
X99685561Y-162752500D01*
X99590041Y-162771500D01*
X99565516Y-162771500D01*
X99423408Y-162728392D01*
X99256250Y-162711928D01*
X98743750Y-162711928D01*
X98576592Y-162728392D01*
X98415858Y-162777150D01*
X98267725Y-162856329D01*
X98137885Y-162962885D01*
X98031329Y-163092725D01*
X97952150Y-163240858D01*
X97903392Y-163401592D01*
X97886928Y-163568750D01*
X97886928Y-164006250D01*
X97903392Y-164173408D01*
X97952150Y-164334142D01*
X97984000Y-164393729D01*
X97984000Y-164862298D01*
X97917156Y-164917156D01*
X97726710Y-165149216D01*
X97585196Y-165413970D01*
X97498052Y-165701245D01*
X97482162Y-165862577D01*
X96868739Y-166476000D01*
X75785000Y-166476000D01*
X75785000Y-166398061D01*
X75745226Y-166198102D01*
X75667205Y-166009744D01*
X75553937Y-165840226D01*
X75409774Y-165696063D01*
X75240256Y-165582795D01*
X75051898Y-165504774D01*
X74851939Y-165465000D01*
X74648061Y-165465000D01*
X74448102Y-165504774D01*
X74259744Y-165582795D01*
X74090226Y-165696063D01*
X73946063Y-165840226D01*
X73832795Y-166009744D01*
X73754774Y-166198102D01*
X73715000Y-166398061D01*
X73715000Y-166476000D01*
X68381261Y-166476000D01*
X67774000Y-165868739D01*
X67774000Y-163381261D01*
X70381261Y-160774000D01*
X73618739Y-160774000D01*
X74975302Y-162130564D01*
X74984001Y-162137703D01*
X74984000Y-162354450D01*
X74940829Y-162358702D01*
X74749313Y-162416798D01*
X74572810Y-162511140D01*
X74418104Y-162638104D01*
X74407342Y-162651218D01*
X74340226Y-162696063D01*
X74196063Y-162840226D01*
X74082795Y-163009744D01*
X74004774Y-163198102D01*
X73965000Y-163398061D01*
X73965000Y-163601939D01*
X74004774Y-163801898D01*
X74082795Y-163990256D01*
X74196063Y-164159774D01*
X74340226Y-164303937D01*
X74509744Y-164417205D01*
X74698102Y-164495226D01*
X74898061Y-164535000D01*
X75101939Y-164535000D01*
X75301898Y-164495226D01*
X75490256Y-164417205D01*
X75515255Y-164400502D01*
X75576592Y-164419108D01*
X75743750Y-164435572D01*
X76256250Y-164435572D01*
X76423408Y-164419108D01*
X76584142Y-164370350D01*
X76732275Y-164291171D01*
X76862115Y-164184615D01*
X76923626Y-164109663D01*
X77009744Y-164167205D01*
X77198102Y-164245226D01*
X77398061Y-164285000D01*
X77601939Y-164285000D01*
X77801898Y-164245226D01*
X77990256Y-164167205D01*
X78159774Y-164053937D01*
X78303937Y-163909774D01*
X78358046Y-163828794D01*
X81503706Y-160683135D01*
X81503710Y-160683130D01*
X82183133Y-160003708D01*
X82221896Y-159971896D01*
X82348860Y-159817190D01*
X82443202Y-159640687D01*
X82501298Y-159449171D01*
X82516000Y-159299902D01*
X82516000Y-159299895D01*
X82520914Y-159250001D01*
X82516000Y-159200107D01*
X82516000Y-116420840D01*
X88665841Y-110271000D01*
X90173271Y-110271000D01*
X90232858Y-110302850D01*
X90393592Y-110351608D01*
X90560750Y-110368072D01*
X90998250Y-110368072D01*
X91165408Y-110351608D01*
X91326142Y-110302850D01*
X91474275Y-110223671D01*
X91567000Y-110147574D01*
X91659725Y-110223671D01*
%TA.AperFunction,Conductor*%
D20*
G36*
X91659725Y-110223671D02*
G01*
X91807858Y-110302850D01*
X91968592Y-110351608D01*
X92135750Y-110368072D01*
X92573250Y-110368072D01*
X92740408Y-110351608D01*
X92901142Y-110302850D01*
X92960729Y-110271000D01*
X93921928Y-110271000D01*
X93921928Y-110850000D01*
X93934188Y-110974482D01*
X93970498Y-111094180D01*
X94005680Y-111160000D01*
X93970498Y-111225820D01*
X93934188Y-111345518D01*
X93921928Y-111470000D01*
X93921928Y-112120000D01*
X93934188Y-112244482D01*
X93970498Y-112364180D01*
X94029463Y-112474494D01*
X94108815Y-112571185D01*
X94205506Y-112650537D01*
X94315820Y-112709502D01*
X94360901Y-112723177D01*
X94360900Y-113769483D01*
X94317792Y-113911592D01*
X94301328Y-114078750D01*
X94301328Y-114591250D01*
X94317792Y-114758408D01*
X94366550Y-114919142D01*
X94445729Y-115067275D01*
X94552285Y-115197115D01*
X94682125Y-115303671D01*
X94830258Y-115382850D01*
X94990992Y-115431608D01*
X95158150Y-115448072D01*
X95595650Y-115448072D01*
X95762808Y-115431608D01*
X95923542Y-115382850D01*
X96071675Y-115303671D01*
X96164400Y-115227574D01*
X96257125Y-115303671D01*
X96405258Y-115382850D01*
X96565992Y-115431608D01*
X96733150Y-115448072D01*
X97170650Y-115448072D01*
X97337808Y-115431608D01*
X97498542Y-115382850D01*
X97558129Y-115351000D01*
X101755961Y-115351000D01*
X101629656Y-115454656D01*
X101439210Y-115686716D01*
X101297696Y-115951470D01*
X101210552Y-116238745D01*
X101188500Y-116462642D01*
X101188500Y-117406239D01*
X100618739Y-117976000D01*
X99574851Y-117976000D01*
X99500000Y-117968628D01*
X99425149Y-117976000D01*
X97824859Y-117976000D01*
X97750000Y-117968627D01*
X97675141Y-117976000D01*
X96074849Y-117976000D01*
X96000000Y-117968628D01*
X95925151Y-117976000D01*
X91574849Y-117976000D01*
X91500000Y-117968628D01*
X91425151Y-117976000D01*
X91425141Y-117976000D01*
X91201244Y-117998052D01*
X90913969Y-118085196D01*
X90649214Y-118226710D01*
X90475302Y-118369436D01*
X90475298Y-118369440D01*
X90417156Y-118417156D01*
X90369440Y-118475298D01*
X86725303Y-122119436D01*
X86667156Y-122167156D01*
X86619437Y-122225302D01*
X86619436Y-122225303D01*
X86476710Y-122399215D01*
X86422840Y-122500000D01*
X86335196Y-122663970D01*
X86248052Y-122951245D01*
X86226000Y-123175142D01*
X86226000Y-123175151D01*
X86218628Y-123250000D01*
X86226000Y-123324849D01*
X86226001Y-127675132D01*
X86226000Y-127675142D01*
X86226001Y-134425141D01*
X86218628Y-134500000D01*
X86248053Y-134798756D01*
X86335197Y-135086031D01*
X86476710Y-135350785D01*
X86619436Y-135524697D01*
X86619441Y-135524702D01*
X86667157Y-135582844D01*
X86725299Y-135630560D01*
X88119436Y-137024697D01*
X88167156Y-137082844D01*
X88399215Y-137273290D01*
X88663969Y-137414804D01*
X88951244Y-137501948D01*
X89175141Y-137524000D01*
X89175150Y-137524000D01*
X89249999Y-137531372D01*
X89324848Y-137524000D01*
X91074859Y-137524000D01*
X91298756Y-137501948D01*
X91586031Y-137414804D01*
X91850785Y-137273290D01*
X92082844Y-137082844D01*
X92273290Y-136850785D01*
X92414804Y-136586031D01*
X92501948Y-136298756D01*
X92531373Y-136000000D01*
X92522897Y-135913943D01*
X92933133Y-135503708D01*
X92971896Y-135471896D01*
X93098860Y-135317190D01*
X93193202Y-135140687D01*
X93251298Y-134949171D01*
X93266000Y-134799902D01*
X93270915Y-134750000D01*
X93266000Y-134700098D01*
X93266000Y-134053146D01*
X93411671Y-134038798D01*
X93484000Y-134016857D01*
X93484001Y-160450088D01*
X93479085Y-160500000D01*
X93498702Y-160699170D01*
X93544111Y-160848860D01*
X93556799Y-160890687D01*
X93651141Y-161067190D01*
X93778105Y-161221896D01*
X93816868Y-161253708D01*
X95641956Y-163078797D01*
X95696063Y-163159774D01*
X95840226Y-163303937D01*
X96009744Y-163417205D01*
X96198102Y-163495226D01*
X96398061Y-163535000D01*
X96601939Y-163535000D01*
X96801898Y-163495226D01*
X96990256Y-163417205D01*
X97159774Y-163303937D01*
X97303937Y-163159774D01*
X97417205Y-162990256D01*
X97495226Y-162801898D01*
X97535000Y-162601939D01*
X97535000Y-162398061D01*
X97495226Y-162198102D01*
X97417205Y-162009744D01*
X97303937Y-161840226D01*
X97159774Y-161696063D01*
X97078797Y-161641956D01*
X95516000Y-160079160D01*
X95516000Y-131447459D01*
X95535000Y-131351939D01*
X95535000Y-131148061D01*
X95495226Y-130948102D01*
X95417205Y-130759744D01*
X95303937Y-130590226D01*
X95159774Y-130446063D01*
X94990256Y-130332795D01*
X94801898Y-130254774D01*
X94601939Y-130215000D01*
X94398061Y-130215000D01*
X94198102Y-130254774D01*
X94009744Y-130332795D01*
X93840226Y-130446063D01*
X93696063Y-130590226D01*
X93582795Y-130759744D01*
X93504774Y-130948102D01*
X93465000Y-131148061D01*
X93465000Y-131351939D01*
X93484000Y-131447459D01*
X93484000Y-131991268D01*
X93351939Y-131965000D01*
X93148061Y-131965000D01*
X92948102Y-132004774D01*
X92907722Y-132021500D01*
X92815516Y-132021500D01*
X92673408Y-131978392D01*
X92506250Y-131961928D01*
X91993750Y-131961928D01*
X91826592Y-131978392D01*
X91665858Y-132027150D01*
X91517725Y-132106329D01*
X91387885Y-132212885D01*
X91281329Y-132342725D01*
X91202150Y-132490858D01*
X91153392Y-132651592D01*
X91136928Y-132818750D01*
X91136928Y-133256250D01*
X91153392Y-133423408D01*
X91202150Y-133584142D01*
X91234000Y-133643730D01*
X91234001Y-134329159D01*
X91086057Y-134477103D01*
X91074859Y-134476000D01*
X89881261Y-134476000D01*
X89274000Y-133868739D01*
X89274000Y-123881261D01*
X92131262Y-121024000D01*
X95368739Y-121024000D01*
X96226001Y-121881263D01*
X96226000Y-125925151D01*
X96218628Y-126000000D01*
X96226000Y-126074849D01*
X96226000Y-126074858D01*
X96248052Y-126298755D01*
X96335196Y-126586030D01*
X96380338Y-126670485D01*
X96476710Y-126850785D01*
X96617652Y-127022523D01*
X96667156Y-127082844D01*
X96725303Y-127130564D01*
X108976001Y-139381263D01*
X108976000Y-161368739D01*
X103868739Y-166476000D01*
X101131261Y-166476000D01*
X100517838Y-165862577D01*
X100501948Y-165701244D01*
X100414804Y-165413969D01*
X100273290Y-165149215D01*
X100082844Y-164917156D01*
X100016000Y-164862299D01*
X100016000Y-164797326D01*
X100089398Y-164782726D01*
X100277756Y-164704705D01*
X100447274Y-164591437D01*
X100591437Y-164447274D01*
X100704705Y-164277756D01*
X100782726Y-164089398D01*
X100822500Y-163889439D01*
X100822500Y-163685561D01*
X100782726Y-163485602D01*
X100704705Y-163297244D01*
X100591437Y-163127726D01*
X100447274Y-162983563D01*
X100277756Y-162870295D01*
X100089398Y-162792274D01*
X99889439Y-162752500D01*
X99685561Y-162752500D01*
X99590041Y-162771500D01*
X99565516Y-162771500D01*
X99423408Y-162728392D01*
X99256250Y-162711928D01*
X98743750Y-162711928D01*
X98576592Y-162728392D01*
X98415858Y-162777150D01*
X98267725Y-162856329D01*
X98137885Y-162962885D01*
X98031329Y-163092725D01*
X97952150Y-163240858D01*
X97903392Y-163401592D01*
X97886928Y-163568750D01*
X97886928Y-164006250D01*
X97903392Y-164173408D01*
X97952150Y-164334142D01*
X97984000Y-164393729D01*
X97984000Y-164862298D01*
X97917156Y-164917156D01*
X97726710Y-165149216D01*
X97585196Y-165413970D01*
X97498052Y-165701245D01*
X97482162Y-165862577D01*
X96868739Y-166476000D01*
X75785000Y-166476000D01*
X75785000Y-166398061D01*
X75745226Y-166198102D01*
X75667205Y-166009744D01*
X75553937Y-165840226D01*
X75409774Y-165696063D01*
X75240256Y-165582795D01*
X75051898Y-165504774D01*
X74851939Y-165465000D01*
X74648061Y-165465000D01*
X74448102Y-165504774D01*
X74259744Y-165582795D01*
X74090226Y-165696063D01*
X73946063Y-165840226D01*
X73832795Y-166009744D01*
X73754774Y-166198102D01*
X73715000Y-166398061D01*
X73715000Y-166476000D01*
X68381261Y-166476000D01*
X67774000Y-165868739D01*
X67774000Y-163381261D01*
X70381261Y-160774000D01*
X73618739Y-160774000D01*
X74975302Y-162130564D01*
X74984001Y-162137703D01*
X74984000Y-162354450D01*
X74940829Y-162358702D01*
X74749313Y-162416798D01*
X74572810Y-162511140D01*
X74418104Y-162638104D01*
X74407342Y-162651218D01*
X74340226Y-162696063D01*
X74196063Y-162840226D01*
X74082795Y-163009744D01*
X74004774Y-163198102D01*
X73965000Y-163398061D01*
X73965000Y-163601939D01*
X74004774Y-163801898D01*
X74082795Y-163990256D01*
X74196063Y-164159774D01*
X74340226Y-164303937D01*
X74509744Y-164417205D01*
X74698102Y-164495226D01*
X74898061Y-164535000D01*
X75101939Y-164535000D01*
X75301898Y-164495226D01*
X75490256Y-164417205D01*
X75515255Y-164400502D01*
X75576592Y-164419108D01*
X75743750Y-164435572D01*
X76256250Y-164435572D01*
X76423408Y-164419108D01*
X76584142Y-164370350D01*
X76732275Y-164291171D01*
X76862115Y-164184615D01*
X76923626Y-164109663D01*
X77009744Y-164167205D01*
X77198102Y-164245226D01*
X77398061Y-164285000D01*
X77601939Y-164285000D01*
X77801898Y-164245226D01*
X77990256Y-164167205D01*
X78159774Y-164053937D01*
X78303937Y-163909774D01*
X78358046Y-163828794D01*
X81503706Y-160683135D01*
X81503710Y-160683130D01*
X82183133Y-160003708D01*
X82221896Y-159971896D01*
X82348860Y-159817190D01*
X82443202Y-159640687D01*
X82501298Y-159449171D01*
X82516000Y-159299902D01*
X82516000Y-159299895D01*
X82520914Y-159250001D01*
X82516000Y-159200107D01*
X82516000Y-116420840D01*
X88665841Y-110271000D01*
X90173271Y-110271000D01*
X90232858Y-110302850D01*
X90393592Y-110351608D01*
X90560750Y-110368072D01*
X90998250Y-110368072D01*
X91165408Y-110351608D01*
X91326142Y-110302850D01*
X91474275Y-110223671D01*
X91567000Y-110147574D01*
X91659725Y-110223671D01*
G37*
%TD.AperFunction*%
D19*
X97999999Y-88781372D02*
X98074848Y-88774000D01*
X98925151Y-88774000D01*
X99000000Y-88781372D01*
X99074849Y-88774000D01*
X99118739Y-88774000D01*
X99476001Y-89131262D01*
X99476000Y-91824858D01*
X99498052Y-92048755D01*
X99585196Y-92336030D01*
X99726710Y-92600784D01*
X99917156Y-92832844D01*
X100149215Y-93023290D01*
X100413969Y-93164804D01*
X100701244Y-93251948D01*
X101000000Y-93281373D01*
X101298755Y-93251948D01*
X101586030Y-93164804D01*
X101850784Y-93023290D01*
X102082844Y-92832844D01*
X102273290Y-92600785D01*
X102414804Y-92336031D01*
X102501948Y-92048756D01*
X102524000Y-91824859D01*
X102524000Y-89131261D01*
X102881262Y-88774000D01*
X112368739Y-88774000D01*
X113226000Y-89631262D01*
X113226000Y-89824858D01*
X113248052Y-90048755D01*
X113335196Y-90336030D01*
X113476710Y-90600784D01*
X113667156Y-90832844D01*
X113734000Y-90887702D01*
X113734000Y-90913048D01*
X113625829Y-90923702D01*
X113434313Y-90981798D01*
X113257810Y-91076140D01*
X113205698Y-91118908D01*
X113090226Y-91196063D01*
X112946063Y-91340226D01*
X112832795Y-91509744D01*
X112754774Y-91698102D01*
X112715000Y-91898061D01*
X112715000Y-92101939D01*
X112754774Y-92301898D01*
X112832795Y-92490256D01*
X112946063Y-92659774D01*
X113090226Y-92803937D01*
X113259744Y-92917205D01*
X113448102Y-92995226D01*
X113648061Y-93035000D01*
X113851939Y-93035000D01*
X114051898Y-92995226D01*
X114182810Y-92941000D01*
X114184484Y-92941000D01*
X114326592Y-92984108D01*
X114493750Y-93000572D01*
X115006250Y-93000572D01*
X115173408Y-92984108D01*
X115334142Y-92935350D01*
X115482275Y-92856171D01*
X115612115Y-92749615D01*
X115718671Y-92619775D01*
X115797850Y-92471642D01*
X115846608Y-92310908D01*
X115863072Y-92143750D01*
X115863072Y-91706250D01*
X115846608Y-91539092D01*
X115797850Y-91378358D01*
X115766000Y-91318771D01*
X115766000Y-90887701D01*
X115832844Y-90832844D01*
X116023290Y-90600785D01*
X116064332Y-90524000D01*
X116868739Y-90524000D01*
X117226000Y-90881262D01*
X117226000Y-92239677D01*
X117101939Y-92215000D01*
X116898061Y-92215000D01*
X116698102Y-92254774D01*
X116509744Y-92332795D01*
X116340226Y-92446063D01*
X116196063Y-92590226D01*
X116082795Y-92759744D01*
X116004774Y-92948102D01*
X115965000Y-93148061D01*
X115965000Y-93351939D01*
X115984001Y-93447464D01*
X115984000Y-97450098D01*
X115979085Y-97500000D01*
X115984000Y-97549901D01*
X115998702Y-97699170D01*
X116056798Y-97890686D01*
X116151140Y-98067190D01*
X116278104Y-98221896D01*
X116316872Y-98253712D01*
X131734001Y-113670842D01*
X131734000Y-115552540D01*
X131715000Y-115648061D01*
X131715000Y-115851939D01*
X131754774Y-116051898D01*
X131832795Y-116240256D01*
X131946063Y-116409774D01*
X132090226Y-116553937D01*
X132259744Y-116667205D01*
X132448102Y-116745226D01*
X132574392Y-116770346D01*
X132216350Y-117128389D01*
X132167205Y-117009744D01*
X132053937Y-116840226D01*
X131909774Y-116696063D01*
X131795125Y-116619457D01*
X131741490Y-116575440D01*
X131564987Y-116481098D01*
X131373471Y-116423002D01*
X131224202Y-116408300D01*
X131174300Y-116403385D01*
X131124398Y-116408300D01*
X130815516Y-116408300D01*
X130673408Y-116365192D01*
X130506250Y-116348728D01*
X129993750Y-116348728D01*
X129826592Y-116365192D01*
X129665858Y-116413950D01*
X129517725Y-116493129D01*
X129387885Y-116599685D01*
X129281329Y-116729525D01*
X129202150Y-116877658D01*
X129153392Y-117038392D01*
X129136928Y-117205550D01*
X129136928Y-117643050D01*
X129153392Y-117810208D01*
X129202150Y-117970942D01*
X129204854Y-117976000D01*
X124824848Y-117976000D01*
X124749999Y-117968628D01*
X124675150Y-117976000D01*
X122574849Y-117976000D01*
X122500000Y-117968628D01*
X122425151Y-117976000D01*
X121324849Y-117976000D01*
X121250000Y-117968628D01*
X121175151Y-117976000D01*
X104881261Y-117976000D01*
X104236500Y-117331239D01*
X104236500Y-116462641D01*
X104214448Y-116238744D01*
X104127304Y-115951469D01*
X103985790Y-115686715D01*
X103795344Y-115454656D01*
X103665000Y-115347686D01*
X103665000Y-115027371D01*
X103722850Y-114919142D01*
X103771608Y-114758408D01*
X103788072Y-114591250D01*
X103788072Y-114078750D01*
X103771608Y-113911592D01*
X103728500Y-113769484D01*
X103728500Y-112732459D01*
X103804180Y-112709502D01*
X103914494Y-112650537D01*
X104011185Y-112571185D01*
X104090537Y-112474494D01*
X104149502Y-112364180D01*
X104185812Y-112244482D01*
X104198072Y-112120000D01*
X104198072Y-111470000D01*
X104185812Y-111345518D01*
X104149502Y-111225820D01*
X104114320Y-111160000D01*
X104149502Y-111094180D01*
X104185812Y-110974482D01*
X104198072Y-110850000D01*
X104198072Y-110200000D01*
X104185812Y-110075518D01*
X104149502Y-109955820D01*
X104114320Y-109890000D01*
X104149502Y-109824180D01*
X104185812Y-109704482D01*
X104198072Y-109580000D01*
X104198072Y-108930000D01*
X104185812Y-108805518D01*
X104149502Y-108685820D01*
X104114320Y-108620000D01*
X104149502Y-108554180D01*
X104185812Y-108434482D01*
X104198072Y-108310000D01*
X104198072Y-107660000D01*
X104185812Y-107535518D01*
X104149502Y-107415820D01*
X104090537Y-107305506D01*
X104011185Y-107208815D01*
X103914494Y-107129463D01*
X103804180Y-107070498D01*
X103684482Y-107034188D01*
X103560000Y-107021928D01*
X101860000Y-107021928D01*
X101735518Y-107034188D01*
X101615820Y-107070498D01*
X101505506Y-107129463D01*
X101408815Y-107208815D01*
X101329463Y-107305506D01*
X101270498Y-107415820D01*
X101234188Y-107535518D01*
X101221928Y-107660000D01*
X101221928Y-108310000D01*
X101234188Y-108434482D01*
X101270498Y-108554180D01*
X101305680Y-108620000D01*
X101270498Y-108685820D01*
X101234188Y-108805518D01*
X101221928Y-108930000D01*
X101221928Y-109580000D01*
X101234188Y-109704482D01*
X101270498Y-109824180D01*
X101305680Y-109890000D01*
X101270498Y-109955820D01*
X101234188Y-110075518D01*
X101221928Y-110200000D01*
X101221928Y-110850000D01*
X101234188Y-110974482D01*
X101270498Y-111094180D01*
X101305680Y-111160000D01*
X101270498Y-111225820D01*
X101234188Y-111345518D01*
X101221928Y-111470000D01*
X101221928Y-112120000D01*
X101234188Y-112244482D01*
X101270498Y-112364180D01*
X101329463Y-112474494D01*
X101408815Y-112571185D01*
X101505506Y-112650537D01*
X101615820Y-112709502D01*
X101696501Y-112733976D01*
X101696500Y-113319000D01*
X97558129Y-113319000D01*
X97498542Y-113287150D01*
X97337808Y-113238392D01*
X97170650Y-113221928D01*
X96733150Y-113221928D01*
X96565992Y-113238392D01*
X96405258Y-113287150D01*
X96392900Y-113293756D01*
X96392900Y-112743258D01*
X96504180Y-112709502D01*
X96614494Y-112650537D01*
X96711185Y-112571185D01*
X96790537Y-112474494D01*
X96849502Y-112364180D01*
X96885812Y-112244482D01*
X96898072Y-112120000D01*
X96898072Y-111541000D01*
X97425098Y-111541000D01*
X97475000Y-111545915D01*
X97524902Y-111541000D01*
X97674171Y-111526298D01*
X97865687Y-111468202D01*
X98042190Y-111373860D01*
X98196896Y-111246896D01*
X98228712Y-111208128D01*
X99057233Y-110379608D01*
X99095996Y-110347796D01*
X99222960Y-110193090D01*
X99317302Y-110016587D01*
X99375398Y-109825071D01*
X99390100Y-109675802D01*
X99390100Y-109675795D01*
X99395014Y-109625901D01*
X99390100Y-109576007D01*
X99390100Y-95565516D01*
X99433208Y-95423408D01*
X99449672Y-95256250D01*
X99449672Y-94743750D01*
X99433208Y-94576592D01*
X99390100Y-94434484D01*
X99390100Y-92574002D01*
X99395015Y-92524100D01*
X99375398Y-92324929D01*
X99317302Y-92133413D01*
X99309831Y-92119436D01*
X99222960Y-91956910D01*
X99095996Y-91802204D01*
X99057233Y-91770392D01*
X98985000Y-91698159D01*
X98985000Y-91613589D01*
X98931775Y-91346011D01*
X98827371Y-91093957D01*
X98675799Y-90867114D01*
X98482886Y-90674201D01*
X98256043Y-90522629D01*
X98003989Y-90418225D01*
X97736411Y-90365000D01*
X97463589Y-90365000D01*
X97196011Y-90418225D01*
X96943957Y-90522629D01*
X96717114Y-90674201D01*
X96524201Y-90867114D01*
X96372629Y-91093957D01*
X96268225Y-91346011D01*
X96215000Y-91613589D01*
X96215000Y-91886411D01*
X96268225Y-92153989D01*
X96372629Y-92406043D01*
X96524201Y-92632886D01*
X96717114Y-92825799D01*
X96943957Y-92977371D01*
X97196011Y-93081775D01*
X97358101Y-93114017D01*
X97358100Y-94434483D01*
X97314992Y-94576592D01*
X97298528Y-94743750D01*
X97298528Y-95256250D01*
X97314992Y-95423408D01*
X97358100Y-95565517D01*
X97358100Y-96421259D01*
X96522896Y-95586056D01*
X96531372Y-95500000D01*
X96501948Y-95201244D01*
X96414804Y-94913969D01*
X96273290Y-94649214D01*
X96130564Y-94475302D01*
X94774000Y-93118739D01*
X94774000Y-91131261D01*
X97131261Y-88774000D01*
X97925150Y-88774000D01*
X97999999Y-88781372D01*
%TA.AperFunction,Conductor*%
D20*
G36*
X97999999Y-88781372D02*
G01*
X98074848Y-88774000D01*
X98925151Y-88774000D01*
X99000000Y-88781372D01*
X99074849Y-88774000D01*
X99118739Y-88774000D01*
X99476001Y-89131262D01*
X99476000Y-91824858D01*
X99498052Y-92048755D01*
X99585196Y-92336030D01*
X99726710Y-92600784D01*
X99917156Y-92832844D01*
X100149215Y-93023290D01*
X100413969Y-93164804D01*
X100701244Y-93251948D01*
X101000000Y-93281373D01*
X101298755Y-93251948D01*
X101586030Y-93164804D01*
X101850784Y-93023290D01*
X102082844Y-92832844D01*
X102273290Y-92600785D01*
X102414804Y-92336031D01*
X102501948Y-92048756D01*
X102524000Y-91824859D01*
X102524000Y-89131261D01*
X102881262Y-88774000D01*
X112368739Y-88774000D01*
X113226000Y-89631262D01*
X113226000Y-89824858D01*
X113248052Y-90048755D01*
X113335196Y-90336030D01*
X113476710Y-90600784D01*
X113667156Y-90832844D01*
X113734000Y-90887702D01*
X113734000Y-90913048D01*
X113625829Y-90923702D01*
X113434313Y-90981798D01*
X113257810Y-91076140D01*
X113205698Y-91118908D01*
X113090226Y-91196063D01*
X112946063Y-91340226D01*
X112832795Y-91509744D01*
X112754774Y-91698102D01*
X112715000Y-91898061D01*
X112715000Y-92101939D01*
X112754774Y-92301898D01*
X112832795Y-92490256D01*
X112946063Y-92659774D01*
X113090226Y-92803937D01*
X113259744Y-92917205D01*
X113448102Y-92995226D01*
X113648061Y-93035000D01*
X113851939Y-93035000D01*
X114051898Y-92995226D01*
X114182810Y-92941000D01*
X114184484Y-92941000D01*
X114326592Y-92984108D01*
X114493750Y-93000572D01*
X115006250Y-93000572D01*
X115173408Y-92984108D01*
X115334142Y-92935350D01*
X115482275Y-92856171D01*
X115612115Y-92749615D01*
X115718671Y-92619775D01*
X115797850Y-92471642D01*
X115846608Y-92310908D01*
X115863072Y-92143750D01*
X115863072Y-91706250D01*
X115846608Y-91539092D01*
X115797850Y-91378358D01*
X115766000Y-91318771D01*
X115766000Y-90887701D01*
X115832844Y-90832844D01*
X116023290Y-90600785D01*
X116064332Y-90524000D01*
X116868739Y-90524000D01*
X117226000Y-90881262D01*
X117226000Y-92239677D01*
X117101939Y-92215000D01*
X116898061Y-92215000D01*
X116698102Y-92254774D01*
X116509744Y-92332795D01*
X116340226Y-92446063D01*
X116196063Y-92590226D01*
X116082795Y-92759744D01*
X116004774Y-92948102D01*
X115965000Y-93148061D01*
X115965000Y-93351939D01*
X115984001Y-93447464D01*
X115984000Y-97450098D01*
X115979085Y-97500000D01*
X115984000Y-97549901D01*
X115998702Y-97699170D01*
X116056798Y-97890686D01*
X116151140Y-98067190D01*
X116278104Y-98221896D01*
X116316872Y-98253712D01*
X131734001Y-113670842D01*
X131734000Y-115552540D01*
X131715000Y-115648061D01*
X131715000Y-115851939D01*
X131754774Y-116051898D01*
X131832795Y-116240256D01*
X131946063Y-116409774D01*
X132090226Y-116553937D01*
X132259744Y-116667205D01*
X132448102Y-116745226D01*
X132574392Y-116770346D01*
X132216350Y-117128389D01*
X132167205Y-117009744D01*
X132053937Y-116840226D01*
X131909774Y-116696063D01*
X131795125Y-116619457D01*
X131741490Y-116575440D01*
X131564987Y-116481098D01*
X131373471Y-116423002D01*
X131224202Y-116408300D01*
X131174300Y-116403385D01*
X131124398Y-116408300D01*
X130815516Y-116408300D01*
X130673408Y-116365192D01*
X130506250Y-116348728D01*
X129993750Y-116348728D01*
X129826592Y-116365192D01*
X129665858Y-116413950D01*
X129517725Y-116493129D01*
X129387885Y-116599685D01*
X129281329Y-116729525D01*
X129202150Y-116877658D01*
X129153392Y-117038392D01*
X129136928Y-117205550D01*
X129136928Y-117643050D01*
X129153392Y-117810208D01*
X129202150Y-117970942D01*
X129204854Y-117976000D01*
X124824848Y-117976000D01*
X124749999Y-117968628D01*
X124675150Y-117976000D01*
X122574849Y-117976000D01*
X122500000Y-117968628D01*
X122425151Y-117976000D01*
X121324849Y-117976000D01*
X121250000Y-117968628D01*
X121175151Y-117976000D01*
X104881261Y-117976000D01*
X104236500Y-117331239D01*
X104236500Y-116462641D01*
X104214448Y-116238744D01*
X104127304Y-115951469D01*
X103985790Y-115686715D01*
X103795344Y-115454656D01*
X103665000Y-115347686D01*
X103665000Y-115027371D01*
X103722850Y-114919142D01*
X103771608Y-114758408D01*
X103788072Y-114591250D01*
X103788072Y-114078750D01*
X103771608Y-113911592D01*
X103728500Y-113769484D01*
X103728500Y-112732459D01*
X103804180Y-112709502D01*
X103914494Y-112650537D01*
X104011185Y-112571185D01*
X104090537Y-112474494D01*
X104149502Y-112364180D01*
X104185812Y-112244482D01*
X104198072Y-112120000D01*
X104198072Y-111470000D01*
X104185812Y-111345518D01*
X104149502Y-111225820D01*
X104114320Y-111160000D01*
X104149502Y-111094180D01*
X104185812Y-110974482D01*
X104198072Y-110850000D01*
X104198072Y-110200000D01*
X104185812Y-110075518D01*
X104149502Y-109955820D01*
X104114320Y-109890000D01*
X104149502Y-109824180D01*
X104185812Y-109704482D01*
X104198072Y-109580000D01*
X104198072Y-108930000D01*
X104185812Y-108805518D01*
X104149502Y-108685820D01*
X104114320Y-108620000D01*
X104149502Y-108554180D01*
X104185812Y-108434482D01*
X104198072Y-108310000D01*
X104198072Y-107660000D01*
X104185812Y-107535518D01*
X104149502Y-107415820D01*
X104090537Y-107305506D01*
X104011185Y-107208815D01*
X103914494Y-107129463D01*
X103804180Y-107070498D01*
X103684482Y-107034188D01*
X103560000Y-107021928D01*
X101860000Y-107021928D01*
X101735518Y-107034188D01*
X101615820Y-107070498D01*
X101505506Y-107129463D01*
X101408815Y-107208815D01*
X101329463Y-107305506D01*
X101270498Y-107415820D01*
X101234188Y-107535518D01*
X101221928Y-107660000D01*
X101221928Y-108310000D01*
X101234188Y-108434482D01*
X101270498Y-108554180D01*
X101305680Y-108620000D01*
X101270498Y-108685820D01*
X101234188Y-108805518D01*
X101221928Y-108930000D01*
X101221928Y-109580000D01*
X101234188Y-109704482D01*
X101270498Y-109824180D01*
X101305680Y-109890000D01*
X101270498Y-109955820D01*
X101234188Y-110075518D01*
X101221928Y-110200000D01*
X101221928Y-110850000D01*
X101234188Y-110974482D01*
X101270498Y-111094180D01*
X101305680Y-111160000D01*
X101270498Y-111225820D01*
X101234188Y-111345518D01*
X101221928Y-111470000D01*
X101221928Y-112120000D01*
X101234188Y-112244482D01*
X101270498Y-112364180D01*
X101329463Y-112474494D01*
X101408815Y-112571185D01*
X101505506Y-112650537D01*
X101615820Y-112709502D01*
X101696501Y-112733976D01*
X101696500Y-113319000D01*
X97558129Y-113319000D01*
X97498542Y-113287150D01*
X97337808Y-113238392D01*
X97170650Y-113221928D01*
X96733150Y-113221928D01*
X96565992Y-113238392D01*
X96405258Y-113287150D01*
X96392900Y-113293756D01*
X96392900Y-112743258D01*
X96504180Y-112709502D01*
X96614494Y-112650537D01*
X96711185Y-112571185D01*
X96790537Y-112474494D01*
X96849502Y-112364180D01*
X96885812Y-112244482D01*
X96898072Y-112120000D01*
X96898072Y-111541000D01*
X97425098Y-111541000D01*
X97475000Y-111545915D01*
X97524902Y-111541000D01*
X97674171Y-111526298D01*
X97865687Y-111468202D01*
X98042190Y-111373860D01*
X98196896Y-111246896D01*
X98228712Y-111208128D01*
X99057233Y-110379608D01*
X99095996Y-110347796D01*
X99222960Y-110193090D01*
X99317302Y-110016587D01*
X99375398Y-109825071D01*
X99390100Y-109675802D01*
X99390100Y-109675795D01*
X99395014Y-109625901D01*
X99390100Y-109576007D01*
X99390100Y-95565516D01*
X99433208Y-95423408D01*
X99449672Y-95256250D01*
X99449672Y-94743750D01*
X99433208Y-94576592D01*
X99390100Y-94434484D01*
X99390100Y-92574002D01*
X99395015Y-92524100D01*
X99375398Y-92324929D01*
X99317302Y-92133413D01*
X99309831Y-92119436D01*
X99222960Y-91956910D01*
X99095996Y-91802204D01*
X99057233Y-91770392D01*
X98985000Y-91698159D01*
X98985000Y-91613589D01*
X98931775Y-91346011D01*
X98827371Y-91093957D01*
X98675799Y-90867114D01*
X98482886Y-90674201D01*
X98256043Y-90522629D01*
X98003989Y-90418225D01*
X97736411Y-90365000D01*
X97463589Y-90365000D01*
X97196011Y-90418225D01*
X96943957Y-90522629D01*
X96717114Y-90674201D01*
X96524201Y-90867114D01*
X96372629Y-91093957D01*
X96268225Y-91346011D01*
X96215000Y-91613589D01*
X96215000Y-91886411D01*
X96268225Y-92153989D01*
X96372629Y-92406043D01*
X96524201Y-92632886D01*
X96717114Y-92825799D01*
X96943957Y-92977371D01*
X97196011Y-93081775D01*
X97358101Y-93114017D01*
X97358100Y-94434483D01*
X97314992Y-94576592D01*
X97298528Y-94743750D01*
X97298528Y-95256250D01*
X97314992Y-95423408D01*
X97358100Y-95565517D01*
X97358100Y-96421259D01*
X96522896Y-95586056D01*
X96531372Y-95500000D01*
X96501948Y-95201244D01*
X96414804Y-94913969D01*
X96273290Y-94649214D01*
X96130564Y-94475302D01*
X94774000Y-93118739D01*
X94774000Y-91131261D01*
X97131261Y-88774000D01*
X97925150Y-88774000D01*
X97999999Y-88781372D01*
G37*
%TD.AperFunction*%
D19*
X111000000Y-72031373D02*
X111074859Y-72024000D01*
X113618739Y-72024000D01*
X114994436Y-73399697D01*
X117226001Y-75631263D01*
X117226000Y-78175141D01*
X117226000Y-78175142D01*
X117226001Y-85118738D01*
X116618739Y-85726000D01*
X116324848Y-85726000D01*
X116249999Y-85718628D01*
X116175150Y-85726000D01*
X114824859Y-85726000D01*
X114750000Y-85718627D01*
X114675141Y-85726000D01*
X113074849Y-85726000D01*
X113000000Y-85718628D01*
X112925151Y-85726000D01*
X102324849Y-85726000D01*
X102250000Y-85718628D01*
X102175151Y-85726000D01*
X101074859Y-85726000D01*
X101000000Y-85718627D01*
X100925141Y-85726000D01*
X99824849Y-85726000D01*
X99750000Y-85718628D01*
X99675151Y-85726000D01*
X99631262Y-85726000D01*
X99274000Y-85368739D01*
X99274000Y-83074848D01*
X99281372Y-82999999D01*
X99274000Y-82925150D01*
X99274000Y-81074858D01*
X99281373Y-81000000D01*
X99274000Y-80925141D01*
X99274000Y-79074850D01*
X99281372Y-79000001D01*
X99274000Y-78925152D01*
X99274000Y-73381261D01*
X100631261Y-72024000D01*
X110925141Y-72024000D01*
X111000000Y-72031373D01*
%TA.AperFunction,Conductor*%
D20*
G36*
X111000000Y-72031373D02*
G01*
X111074859Y-72024000D01*
X113618739Y-72024000D01*
X114994436Y-73399697D01*
X117226001Y-75631263D01*
X117226000Y-78175141D01*
X117226000Y-78175142D01*
X117226001Y-85118738D01*
X116618739Y-85726000D01*
X116324848Y-85726000D01*
X116249999Y-85718628D01*
X116175150Y-85726000D01*
X114824859Y-85726000D01*
X114750000Y-85718627D01*
X114675141Y-85726000D01*
X113074849Y-85726000D01*
X113000000Y-85718628D01*
X112925151Y-85726000D01*
X102324849Y-85726000D01*
X102250000Y-85718628D01*
X102175151Y-85726000D01*
X101074859Y-85726000D01*
X101000000Y-85718627D01*
X100925141Y-85726000D01*
X99824849Y-85726000D01*
X99750000Y-85718628D01*
X99675151Y-85726000D01*
X99631262Y-85726000D01*
X99274000Y-85368739D01*
X99274000Y-83074848D01*
X99281372Y-82999999D01*
X99274000Y-82925150D01*
X99274000Y-81074858D01*
X99281373Y-81000000D01*
X99274000Y-80925141D01*
X99274000Y-79074850D01*
X99281372Y-79000001D01*
X99274000Y-78925152D01*
X99274000Y-73381261D01*
X100631261Y-72024000D01*
X110925141Y-72024000D01*
X111000000Y-72031373D01*
G37*
%TD.AperFunction*%
D19*
X110344739Y-68750000D02*
X110118739Y-68976000D01*
X105766000Y-68976000D01*
X105766000Y-68807833D01*
X105906471Y-68793998D01*
X106097987Y-68735902D01*
X106179181Y-68692503D01*
X106240256Y-68667205D01*
X106409774Y-68553937D01*
X106553937Y-68409774D01*
X106646020Y-68271961D01*
X106654869Y-68261179D01*
X106661444Y-68248878D01*
X106667205Y-68240256D01*
X106671173Y-68230676D01*
X106749211Y-68084677D01*
X106807308Y-67893160D01*
X106826925Y-67693991D01*
X106807308Y-67494820D01*
X106749211Y-67303303D01*
X106654869Y-67126801D01*
X106527905Y-66972095D01*
X106373199Y-66845131D01*
X106196697Y-66750789D01*
X106005180Y-66692692D01*
X105806009Y-66673075D01*
X105606840Y-66692692D01*
X105415323Y-66750789D01*
X105366847Y-66776700D01*
X105315516Y-66776700D01*
X105173408Y-66733592D01*
X105006250Y-66717128D01*
X104493750Y-66717128D01*
X104326592Y-66733592D01*
X104165858Y-66782350D01*
X104017725Y-66861529D01*
X103887885Y-66968085D01*
X103781329Y-67097925D01*
X103702150Y-67246058D01*
X103653392Y-67406792D01*
X103636928Y-67573950D01*
X103636928Y-68011450D01*
X103653392Y-68178608D01*
X103702150Y-68339342D01*
X103734000Y-68398929D01*
X103734000Y-68976000D01*
X99824859Y-68976000D01*
X99750000Y-68968627D01*
X99675141Y-68976000D01*
X98074848Y-68976000D01*
X97999999Y-68968628D01*
X97925150Y-68976000D01*
X96131261Y-68976000D01*
X96130569Y-68975308D01*
X96130564Y-68975302D01*
X92774000Y-65618739D01*
X92774000Y-63631261D01*
X95774534Y-60630727D01*
X97539000Y-60630727D01*
X97539000Y-60869273D01*
X97585538Y-61103236D01*
X97676825Y-61323624D01*
X97809354Y-61521968D01*
X97978032Y-61690646D01*
X98176376Y-61823175D01*
X98396764Y-61914462D01*
X98630727Y-61961000D01*
X98869273Y-61961000D01*
X99103236Y-61914462D01*
X99323624Y-61823175D01*
X99521968Y-61690646D01*
X99690646Y-61521968D01*
X99823175Y-61323624D01*
X99914462Y-61103236D01*
X99961000Y-60869273D01*
X99961000Y-60630727D01*
X99914462Y-60396764D01*
X99823175Y-60176376D01*
X99690646Y-59978032D01*
X99521968Y-59809354D01*
X99323624Y-59676825D01*
X99103236Y-59585538D01*
X98869273Y-59539000D01*
X98630727Y-59539000D01*
X98396764Y-59585538D01*
X98176376Y-59676825D01*
X97978032Y-59809354D01*
X97809354Y-59978032D01*
X97676825Y-60176376D01*
X97585538Y-60396764D01*
X97539000Y-60630727D01*
X95774534Y-60630727D01*
X98506261Y-57899000D01*
X99493739Y-57899000D01*
X110344739Y-68750000D01*
%TA.AperFunction,Conductor*%
D20*
G36*
X110344739Y-68750000D02*
G01*
X110118739Y-68976000D01*
X105766000Y-68976000D01*
X105766000Y-68807833D01*
X105906471Y-68793998D01*
X106097987Y-68735902D01*
X106179181Y-68692503D01*
X106240256Y-68667205D01*
X106409774Y-68553937D01*
X106553937Y-68409774D01*
X106646020Y-68271961D01*
X106654869Y-68261179D01*
X106661444Y-68248878D01*
X106667205Y-68240256D01*
X106671173Y-68230676D01*
X106749211Y-68084677D01*
X106807308Y-67893160D01*
X106826925Y-67693991D01*
X106807308Y-67494820D01*
X106749211Y-67303303D01*
X106654869Y-67126801D01*
X106527905Y-66972095D01*
X106373199Y-66845131D01*
X106196697Y-66750789D01*
X106005180Y-66692692D01*
X105806009Y-66673075D01*
X105606840Y-66692692D01*
X105415323Y-66750789D01*
X105366847Y-66776700D01*
X105315516Y-66776700D01*
X105173408Y-66733592D01*
X105006250Y-66717128D01*
X104493750Y-66717128D01*
X104326592Y-66733592D01*
X104165858Y-66782350D01*
X104017725Y-66861529D01*
X103887885Y-66968085D01*
X103781329Y-67097925D01*
X103702150Y-67246058D01*
X103653392Y-67406792D01*
X103636928Y-67573950D01*
X103636928Y-68011450D01*
X103653392Y-68178608D01*
X103702150Y-68339342D01*
X103734000Y-68398929D01*
X103734000Y-68976000D01*
X99824859Y-68976000D01*
X99750000Y-68968627D01*
X99675141Y-68976000D01*
X98074848Y-68976000D01*
X97999999Y-68968628D01*
X97925150Y-68976000D01*
X96131261Y-68976000D01*
X96130569Y-68975308D01*
X96130564Y-68975302D01*
X92774000Y-65618739D01*
X92774000Y-63631261D01*
X95774534Y-60630727D01*
X97539000Y-60630727D01*
X97539000Y-60869273D01*
X97585538Y-61103236D01*
X97676825Y-61323624D01*
X97809354Y-61521968D01*
X97978032Y-61690646D01*
X98176376Y-61823175D01*
X98396764Y-61914462D01*
X98630727Y-61961000D01*
X98869273Y-61961000D01*
X99103236Y-61914462D01*
X99323624Y-61823175D01*
X99521968Y-61690646D01*
X99690646Y-61521968D01*
X99823175Y-61323624D01*
X99914462Y-61103236D01*
X99961000Y-60869273D01*
X99961000Y-60630727D01*
X99914462Y-60396764D01*
X99823175Y-60176376D01*
X99690646Y-59978032D01*
X99521968Y-59809354D01*
X99323624Y-59676825D01*
X99103236Y-59585538D01*
X98869273Y-59539000D01*
X98630727Y-59539000D01*
X98396764Y-59585538D01*
X98176376Y-59676825D01*
X97978032Y-59809354D01*
X97809354Y-59978032D01*
X97676825Y-60176376D01*
X97585538Y-60396764D01*
X97539000Y-60630727D01*
X95774534Y-60630727D01*
X98506261Y-57899000D01*
X99493739Y-57899000D01*
X110344739Y-68750000D01*
G37*
%TD.AperFunction*%
%TD*%
M02*
