  0
SECTION
  2
HEADER
  9
$ACADVER
  1
AC1009
  9
$INSBASE
 10
0.0
 20
0.0
 30
0.0
  9
$EXTMIN
 10
0.0
 20
0.0
 30
0.0
  9
$EXTMAX
 10
0.0
 20
0.0
 30
0.0
  0
ENDSEC
  0
SECTION
  2
TABLES
  0
TABLE
  2
VPORT
 70
0
  0
ENDTAB
  0
TABLE
  2
LTYPE
 70
1
  0
LTYPE
  2
CONTINUOUS
 70
0
  3
Solid line
 72
65
 73
0
 40
0.0
  0
ENDTAB
  0
TABLE
  2
LAYER
 70
1
  0
LAYER
  2
0
 70
64
 62
7
  6
continuous
  0
ENDTAB
  0
TABLE
  2
STYLE
 70
1
  0
STYLE
  2
STANDARD
 70
0
 40
0
 41
1.0
 50
0.0
 71
0
 42
1
 3
ARIAL.TTF
 4

  0
ENDTAB
  0
TABLE
  2
VIEW
 70
0
  0
ENDTAB
  0
ENDSEC
  0
SECTION
  2
BLOCKS
  0
ENDSEC
  0
SECTION
  2
ENTITIES
  0
ARC
  8
0
 62
0
 10
-33.1813301975
 20
90.7454563918
 30
0.0
 40
0.12000000000000455
 50
90.0
 51
-149.53445508050194
  0
LINE
  8
0
 62
0
 10
-33.2847686459
 20
90.6846142658
 30
0.0
 11
-32.1493299652
 21
88.7414581426
 31
0.0
  0
ARC
  8
0
 62
0
 10
-32.2513301975
 20
88.6814563918
 30
0.0
 40
0.11833849753992265
 50
-32.905242922998596
 51
30.4655449195007
  0
ARC
  8
0
 62
0
 10
-33.1813301975
 20
86.6114563918
 30
0.0
 40
0.11833849753992547
 50
149.53445508049933
 51
-90.0
  0
LINE
  8
0
 62
0
 10
-33.1813247849
 20
86.4931187876
 30
0.0
 11
-30.9253336836
 21
86.4974550255
 31
0.0
  0
ARC
  8
0
 62
0
 10
-30.9253301975
 20
86.3774563918
 30
0.0
 40
0.1200000000000024
 50
30.465544919498914
 51
90.0
  0
LINE
  8
0
 62
0
 10
-30.8219047238
 20
86.4382974156
 30
0.0
 11
-29.701337402
 21
84.4814545759
 31
0.0
  0
ARC
  8
0
 62
0
 10
-29.5993301975
 20
84.5414563918
 30
0.0
 40
0.11833849753989682
 50
-149.53445508049913
 51
-29.054604099100363
  0
LINE
  8
0
 62
0
 10
-29.4958801915
 20
84.4839877733
 30
0.0
 11
-28.3705295969
 21
86.435056413
 31
0.0
  0
ARC
  8
0
 62
0
 10
-28.2666686733
 20
86.3751629549
 30
0.0
 40
0.11989345269864336
 50
90.02940176150001
 51
150.02940176149923
  0
LINE
  8
0
 62
0
 10
-28.2667281081
 20
86.4950559386
 30
0.0
 11
-26.0113330532
 21
86.4914573081
 31
0.0
  0
ARC
  8
0
 62
0
 10
-26.0113301975
 20
86.6114563918
 30
0.0
 40
0.12000000000003297
 50
-90.0
 51
30.465544919498768
  0
LINE
  8
0
 62
0
 10
-25.9079040934
 20
86.6722978004
 30
0.0
 11
-27.0433278729
 21
88.6154539235
 31
0.0
  0
ARC
  8
0
 62
0
 10
-26.9413301975
 20
88.6754563918
 30
0.0
 40
0.11833849753992563
 50
147.09475707700233
 51
-149.53445508050018
  0
LINE
  8
0
 62
0
 10
-27.0406903673
 20
88.7397445091
 30
0.0
 11
-25.9093346049
 21
90.6854561814
 31
0.0
  0
ARC
  8
0
 62
0
 10
-26.0113301975
 20
90.7454563918
 30
0.0
 40
0.11833849753994005
 50
-30.46554491940074
 51
90.0
  0
LINE
  8
0
 62
0
 10
-26.0113330532
 20
90.8637932785
 30
0.0
 11
-28.2673241545
 21
90.8594570406
 31
0.0
  0
ARC
  8
0
 62
0
 10
-28.2673301975
 20
90.9794563918
 30
0.0
 40
0.12000000000002185
 50
-149.53445508049867
 51
-90.0
  0
LINE
  8
0
 62
0
 10
-28.3707680155
 20
90.9186146506
 30
0.0
 11
-29.4913353373
 21
92.8754574903
 31
0.0
  0
ARC
  8
0
 62
0
 10
-29.5933301975
 20
92.8154563918
 30
0.0
 40
0.1183384975399224
 50
30.465544919501568
 51
150.94539590089863
  0
LINE
  8
0
 62
0
 10
-29.6967776467
 20
92.8729242929
 30
0.0
 11
-30.8233352352
 21
90.9194565662
 31
0.0
  0
ARC
  8
0
 62
0
 10
-30.9253301975
 20
90.9794563918
 30
0.0
 40
0.11833849753992354
 50
-90.0
 51
-30.46554491949983
  0
LINE
  8
0
 62
0
 10
-30.9253336836
 20
90.8611185201
 30
0.0
 11
-33.1813247849
 21
90.865454758
 31
0.0
  0
ARC
  8
0
 62
0
 10
-23.3533301975
 20
125.0957695311
 30
0.0
 40
0.11833849753986818
 50
-30.46554491950105
 51
90.0
  0
LINE
  8
0
 62
0
 10
-23.3533235241
 20
125.2141065248
 30
0.0
 11
-25.6093295266
 21
125.2097702869
 31
0.0
  0
ARC
  8
0
 62
0
 10
-25.6093301975
 20
125.3297695311
 30
0.0
 40
0.11999999999999934
 50
-149.5344550805002
 51
-90.0
  0
LINE
  8
0
 62
0
 10
-25.7127584864
 20
125.2689278968
 30
0.0
 11
-26.8333258082
 21
127.2257707365
 31
0.0
  0
ARC
  8
0
 62
0
 10
-26.9353301975
 20
127.1657695311
 30
0.0
 40
0.11833849753993465
 50
30.465544919498086
 51
150.94539590090196
  0
LINE
  8
0
 62
0
 10
-27.0387830187
 20
127.2232375391
 30
0.0
 11
-28.1653257061
 21
125.2697698124
 31
0.0
  0
ARC
  8
0
 62
0
 10
-28.2672486183
 20
125.3299080005
 30
0.0
 40
0.1183384975399533
 50
-90.03949809289965
 51
-30.543357528499858
  0
LINE
  8
0
 62
0
 10
-28.2673241545
 20
125.2115658768
 30
0.0
 11
-30.5233301569
 21
125.2157680043
 31
0.0
  0
ARC
  8
0
 62
0
 10
-30.5233301975
 20
125.0957695311
 30
0.0
 40
0.12000000000001876
 50
90.0
 51
-149.53445508049867
  0
LINE
  8
0
 62
0
 10
-30.6267591168
 20
125.034927512
 30
0.0
 11
-29.4913353373
 21
123.0857662209
 31
0.0
  0
ARC
  8
0
 62
0
 10
-29.5933301975
 20
123.0257695311
 30
0.0
 40
0.11833849753993698
 50
-30.46554491940162
 51
30.465544919498086
  0
LINE
  8
0
 62
0
 10
-29.4913353373
 20
122.9657671698
 30
0.0
 11
-30.6253286053
 21
121.0157714136
 31
0.0
  0
ARC
  8
0
 62
0
 10
-30.5233301975
 20
120.9557695311
 30
0.0
 40
0.11833849753992547
 50
149.53445508049933
 51
-90.0
  0
LINE
  8
0
 62
0
 10
-30.5233301569
 20
120.8374343165
 30
0.0
 11
-28.2673241545
 21
120.8417705544
 31
0.0
  0
ARC
  8
0
 62
0
 10
-28.2673301975
 20
120.7217695311
 30
0.0
 40
0.1200000000000024
 50
30.465544919498914
 51
90.0
  0
LINE
  8
0
 62
0
 10
-28.1638951947
 20
120.7826129444
 30
0.0
 11
-27.0433278729
 21
118.8257701047
 31
0.0
  0
ARC
  8
0
 62
0
 10
-26.9413301975
 20
118.8857695311
 30
0.0
 40
0.11833849753989682
 50
-149.53445508049913
 51
-29.054604099100363
  0
LINE
  8
0
 62
0
 10
-26.8378855635
 20
118.8282958515
 30
0.0
 11
-25.7107319285
 21
120.7829705723
 31
0.0
  0
ARC
  8
0
 62
0
 10
-25.6063959557
 20
120.7234541046
 30
0.0
 40
0.12011544446907882
 50
89.96863294749971
 51
150.29824914420277
  0
LINE
  8
0
 62
0
 10
-25.6063343932
 20
120.8435661443
 30
0.0
 11
-23.3533235241
 21
120.835772837
 31
0.0
  0
ARC
  8
0
 62
0
 10
-23.3533301975
 20
120.9557695311
 30
0.0
 40
0.12000000000000455
 50
-90.0
 51
30.465544919498914
  0
LINE
  8
0
 62
0
 10
-23.2498945643
 20
121.0166133292
 30
0.0
 11
-24.3853332449
 21
122.9657671698
 31
0.0
  0
ARC
  8
0
 62
0
 10
-24.2833301975
 20
123.0257695311
 30
0.0
 40
0.1183384975398835
 50
149.5344550805033
 51
-149.5344550805033
  0
LINE
  8
0
 62
0
 10
-24.3853332449
 20
123.0857662209
 30
0.0
 11
-23.2513250758
 21
125.0357694276
 31
0.0
  0
ARC
  8
0
 62
0
 10
-107.7463301975
 20
32.2097110537
 30
0.0
 40
1.1868084677817943
 50
-151.29954816130012
 51
-28.700451838699884
  0
LINE
  8
0
 62
0
 10
-106.7053230454
 20
31.6397763141
 30
0.0
 11
-101.6181113173
 21
40.5082172998
 31
0.0
  0
ARC
  8
0
 62
0
 10
-101.0953301975
 20
40.2137695311
 30
0.0
 40
0.5999999999999943
 50
90.0
 51
150.61098853370024
  0
LINE
  8
0
 62
0
 10
-101.0953338791
 20
40.8137656101
 30
0.0
 11
-89.8272993018
 21
40.7809234508
 31
0.0
  0
ARC
  8
0
 62
0
 10
-89.8213301975
 20
41.3777695311
 30
0.0
 40
0.5968718455414194
 50
-90.57293869769939
 51
30.17352002959975
  0
LINE
  8
0
 62
0
 10
-89.3053265263
 20
41.6777647384
 30
0.0
 11
-94.9667097975
 21
51.4233178743
 31
0.0
  0
ARC
  8
0
 62
0
 10
-94.4533301975
 20
51.7277695311
 30
0.0
 40
0.5968718455414183
 50
149.82647997040024
 51
-149.3310733503
  0
LINE
  8
0
 62
0
 10
-94.9693324019
 20
52.0277685769
 30
0.0
 11
-89.3071146656
 21
61.7728001722
 31
0.0
  0
ARC
  8
0
 62
0
 10
-89.8273301975
 20
62.0717695311
 30
0.0
 40
0.6000000000000447
 50
-29.88652694040021
 51
90.0
  0
LINE
  8
0
 62
0
 10
-89.8273291041
 20
62.6717723258
 30
0.0
 11
-101.0953338791
 21
62.6397050269
 31
0.0
  0
ARC
  8
0
 62
0
 10
-101.0953301975
 20
63.2417695311
 30
0.0
 40
0.6020664415162248
 50
-150.11347305960012
 51
-90.0
  0
LINE
  8
0
 62
0
 10
-101.6173364569
 20
62.9417664655
 30
0.0
 11
-107.2228403736
 21
72.7183810719
 31
0.0
  0
ARC
  8
0
 62
0
 10
-107.7433301975
 20
72.4157695311
 30
0.0
 40
0.6020664415162807
 50
30.173520029599825
 51
150.1134730596005
  0
LINE
  8
0
 62
0
 10
-108.2653256108
 20
72.7157659181
 30
0.0
 11
-113.8745399166
 21
62.9413343318
 31
0.0
  0
ARC
  8
0
 62
0
 10
-114.3973301975
 20
63.2357695311
 30
0.0
 40
0.6000000000000014
 50
-90.0
 51
-29.389011466300353
  0
LINE
  8
0
 62
0
 10
-114.397332256
 20
62.6357711204
 30
0.0
 11
-125.6653519322
 21
62.6686132797
 31
0.0
  0
ARC
  8
0
 62
0
 10
-125.6713301975
 20
62.0717695311
 30
0.0
 40
0.5968718455414336
 50
89.42706130230064
 51
-149.82647997040036
  0
LINE
  8
0
 62
0
 10
-126.1873396088
 20
61.771771992
 30
0.0
 11
-120.5259414364
 21
52.0262188562
 31
0.0
  0
ARC
  8
0
 62
0
 10
-121.0393301975
 20
51.7217695311
 30
0.0
 40
0.5968718455414218
 50
-30.173520029600347
 51
30.668926649700026
  0
LINE
  8
0
 62
0
 10
-120.523318832
 20
51.4217681535
 30
0.0
 11
-126.1855514695
 21
41.6767365583
 31
0.0
  0
ARC
  8
0
 62
0
 10
-125.6653301975
 20
41.3777695311
 30
0.0
 40
0.6000000000000447
 50
150.11347305959978
 51
-90.0
  0
LINE
  8
0
 62
0
 10
-125.6653221299
 20
40.7777644046
 30
0.0
 11
-114.397332256
 21
40.8098317035
 31
0.0
  0
ARC
  8
0
 62
0
 10
-114.3973301975
 20
40.2077695311
 30
0.0
 40
0.6020664415162283
 50
29.886526940400465
 51
90.0
  0
LINE
  8
0
 62
0
 10
-113.8753445793
 20
40.5077702649
 30
0.0
 11
-108.7873430897
 21
31.6397763141
 31
0.0
  0
ARC
  8
0
 62
0
 10
54.4066698025
 20
47.2637695311
 30
0.0
 40
0.11833849753988404
 50
149.53445508049947
 51
-149.53445508049947
  0
LINE
  8
0
 62
0
 10
54.3046666335
 20
47.3237700113
 30
0.0
 11
55.4416699361
 21
49.273169721
 31
0.0
  0
ARC
  8
0
 62
0
 10
55.3386616628
 20
49.3340950854
 30
0.0
 40
0.11967706547201888
 50
-30.60276521439957
 51
90.37910847649923
  0
LINE
  8
0
 62
0
 10
55.3378684472
 20
49.4537717946
 30
0.0
 11
53.0770717214
 21
49.4417763599
 31
0.0
  0
ARC
  8
0
 62
0
 10
53.076594261
 20
49.5617700888
 30
0.0
 40
0.12000149999064026
 50
-150.00010598910006
 51
-89.77294789170016
  0
LINE
  8
0
 62
0
 10
52.9726667355
 20
49.5017684348
 30
0.0
 11
51.8506689023
 21
51.4577693589
 31
0.0
  0
ARC
  8
0
 62
0
 10
51.7486698025
 20
51.3977695311
 30
0.0
 40
0.11833849753997842
 50
30.465544919401797
 51
149.5344550805982
  0
LINE
  8
0
 62
0
 10
51.6466720055
 20
51.4577693589
 30
0.0
 11
50.5246667217
 21
49.5017684348
 31
0.0
  0
ARC
  8
0
 62
0
 10
50.4226698025
 20
49.5617695311
 30
0.0
 40
0.11833849753987431
 50
-92.86240522609835
 51
-30.465544919499294
  0
LINE
  8
0
 62
0
 10
50.4167599629
 20
49.4435794004
 30
0.0
 11
48.1594724606
 21
49.4537717946
 31
0.0
  0
ARC
  8
0
 62
0
 10
48.1592466177
 20
49.3337682387
 30
0.0
 40
0.12000149999068055
 50
89.89343839079984
 51
-149.66978163780027
  0
LINE
  8
0
 62
0
 10
48.0556709717
 20
49.273169721
 30
0.0
 11
49.1926668237
 21
47.3237700113
 31
0.0
  0
ARC
  8
0
 62
0
 10
49.0906698025
 20
47.2637695311
 30
0.0
 40
0.11833849753994743
 50
-30.46554491949843
 51
30.46554491939988
  0
LINE
  8
0
 62
0
 10
49.1926668237
 20
47.2037709602
 30
0.0
 11
48.0586661051
 21
45.253775204
 31
0.0
  0
ARC
  8
0
 62
0
 10
48.1606698025
 20
45.1937695311
 30
0.0
 40
0.11833849753994131
 50
149.53445508049984
 51
-87.13759477389976
  0
LINE
  8
0
 62
0
 10
48.1665803145
 20
45.0755722173
 30
0.0
 11
50.4166705559
 21
45.0797743448
 31
0.0
  0
ARC
  8
0
 62
0
 10
50.4166698025
 20
44.9597695311
 30
0.0
 40
0.12000000000002993
 50
29.054604099100203
 51
90.0
  0
LINE
  8
0
 62
0
 10
50.5215672802
 20
45.0180537351
 30
0.0
 11
51.6466720055
 21
43.0637664445
 31
0.0
  0
ARC
  8
0
 62
0
 10
51.7486698025
 20
43.1237695311
 30
0.0
 40
0.11833849753998886
 50
-149.5344550805014
 51
-30.4655449194986
  0
LINE
  8
0
 62
0
 10
51.8506689023
 20
43.0637664445
 30
0.0
 11
52.9732702326
 21
45.0209743627
 31
0.0
  0
ARC
  8
0
 62
0
 10
53.0776040443
 20
44.9614541046
 30
0.0
 40
0.12011544446903619
 50
89.96863294749971
 51
150.29824914419945
  0
LINE
  8
0
 62
0
 10
53.0776677679
 20
45.0815624841
 30
0.0
 11
55.3306711863
 21
45.0737691768
 31
0.0
  0
ARC
  8
0
 62
0
 10
55.3306698025
 20
45.1937695311
 30
0.0
 40
0.12000000000006139
 50
-90.0
 51
29.05460409909955
  0
LINE
  8
0
 62
0
 10
55.4355679105
 20
45.2520466693
 30
0.0
 11
54.3046666335
 21
47.2037709602
 31
0.0
  0
ARC
  8
0
 62
0
 10
-68.6593301975
 20
40.3637695311
 30
0.0
 40
0.11833849753989989
 50
149.5344550805
 51
-90.0
  0
LINE
  8
0
 62
0
 10
-68.6593355585
 20
40.2454353221
 30
0.0
 11
-66.4033295561
 21
40.255776728
 31
0.0
  0
ARC
  8
0
 62
0
 10
-66.4033301975
 20
40.1357695311
 30
0.0
 40
0.12000000000002133
 50
30.465544919497557
 51
90.0
  0
LINE
  8
0
 62
0
 10
-66.2999005963
 20
40.1966191181
 30
0.0
 11
-65.1793332745
 21
38.2397688278
 31
0.0
  0
ARC
  8
0
 62
0
 10
-65.0773301975
 20
38.2997695311
 30
0.0
 40
0.11833849753989989
 50
-149.5344550805
 51
-29.05460409910086
  0
LINE
  8
0
 62
0
 10
-64.9738909651
 20
38.2423020252
 30
0.0
 11
-63.8497324635
 21
40.190971578
 31
0.0
  0
ARC
  8
0
 62
0
 10
-63.74569877
 20
40.1319757848
 30
0.0
 40
0.11959431424614193
 50
89.82342233329955
 51
150.4434597582997
  0
LINE
  8
0
 62
0
 10
-63.7453349282
 20
40.2515746005
 30
0.0
 11
-61.4893289257
 21
40.2437663921
 31
0.0
  0
ARC
  8
0
 62
0
 10
-61.4893301975
 20
40.3637695311
 30
0.0
 40
0.12000000000004007
 50
-90.0
 51
30.46554491949996
  0
LINE
  8
0
 62
0
 10
-61.3858999659
 20
40.4246068843
 30
0.0
 11
-62.5213237454
 21
42.3737681754
 31
0.0
  0
ARC
  8
0
 62
0
 10
-62.4193301975
 20
42.4337695311
 30
0.0
 40
0.11833849753990962
 50
149.5344550804988
 51
-149.5344550804988
  0
LINE
  8
0
 62
0
 10
-62.5213237454
 20
42.4937672265
 30
0.0
 11
-61.3873304774
 21
44.4437629827
 31
0.0
  0
ARC
  8
0
 62
0
 10
-61.4893301975
 20
44.5037695311
 30
0.0
 40
0.11833849753994131
 50
-30.46554491950017
 51
90.0
  0
LINE
  8
0
 62
0
 10
-61.4893289257
 20
44.622114981
 30
0.0
 11
-63.7453349282
 21
44.6177638419
 31
0.0
  0
ARC
  8
0
 62
0
 10
-63.7453301975
 20
44.7377695311
 30
0.0
 40
0.11999999999998961
 50
-149.5344550805014
 51
-90.0
  0
LINE
  8
0
 62
0
 10
-63.848763888
 20
44.6769214519
 30
0.0
 11
-64.9693312098
 21
46.6337717422
 31
0.0
  0
ARC
  8
0
 62
0
 10
-65.0713301975
 20
46.5737695311
 30
0.0
 40
0.11833849753991572
 50
30.465544919499468
 51
150.94539590089914
  0
LINE
  8
0
 62
0
 10
-65.1747735192
 20
46.6312385448
 30
0.0
 11
-66.3013311077
 21
44.6777708181
 31
0.0
  0
ARC
  8
0
 62
0
 10
-66.4033301975
 20
44.7377695311
 30
0.0
 40
0.11833849753993064
 50
-90.0
 51
-30.465544919498953
  0
LINE
  8
0
 62
0
 10
-66.4033295561
 20
44.619432772
 30
0.0
 11
-68.6593355585
 21
44.6237690099
 31
0.0
  0
ARC
  8
0
 62
0
 10
-68.6593301975
 20
44.5037695311
 30
0.0
 40
0.12000000000000455
 50
90.0
 51
-149.53445508050194
  0
LINE
  8
0
 62
0
 10
-68.7627645184
 20
44.4429285177
 30
0.0
 11
-67.6273258377
 21
42.4937672265
 31
0.0
  0
ARC
  8
0
 62
0
 10
-67.7293301975
 20
42.4337695311
 30
0.0
 40
0.11833849753989628
 50
-30.465544919497038
 51
30.465544919497038
  0
LINE
  8
0
 62
0
 10
-67.6273258377
 20
42.3737681754
 30
0.0
 11
-68.7613340069
 21
40.4237724193
 31
0.0
  0
ARC
  8
0
 62
0
 10
21.5746698025
 20
68.0117695311
 30
0.0
 40
0.11833849753987125
 50
-30.46554491950017
 51
30.46554491950017
  0
LINE
  8
0
 62
0
 10
21.6766668509
 20
67.9517678269
 30
0.0
 11
20.5426661323
 21
66.0017720707
 31
0.0
  0
ARC
  8
0
 62
0
 10
20.6446698025
 20
65.9417695311
 30
0.0
 40
0.11833849753983954
 50
149.5344550804988
 51
-87.13759477390096
  0
LINE
  8
0
 62
0
 10
20.6505803417
 20
65.8235765346
 30
0.0
 11
22.9006705831
 21
65.8277712115
 31
0.0
  0
ARC
  8
0
 62
0
 10
22.9006698025
 20
65.7077695311
 30
0.0
 40
0.12000000000002373
 50
29.054604099101873
 51
90.0
  0
LINE
  8
0
 62
0
 10
23.0055673073
 20
65.7660431512
 30
0.0
 11
24.1306720327
 21
63.8117707618
 31
0.0
  0
ARC
  8
0
 62
0
 10
24.2326698025
 20
63.8717695311
 30
0.0
 40
0.11833849754000707
 50
-149.53445508059838
 51
-30.46554491940162
  0
LINE
  8
0
 62
0
 10
24.3346689295
 20
63.8117707618
 30
0.0
 11
25.4572702597
 21
65.7689712294
 31
0.0
  0
ARC
  8
0
 62
0
 10
25.5616040443
 20
65.7094541046
 30
0.0
 40
0.12011544446910737
 50
89.96863294739974
 51
150.29824914420195
  0
LINE
  8
0
 62
0
 10
25.5616677951
 20
65.8295668014
 30
0.0
 11
27.8146712135
 21
65.8217660435
 31
0.0
  0
ARC
  8
0
 62
0
 10
27.8146698025
 20
65.9417695311
 30
0.0
 40
0.12000000000004718
 50
-90.0
 51
29.05460409910285
  0
LINE
  8
0
 62
0
 10
27.9195679377
 20
66.000043536
 30
0.0
 11
26.7886666607
 21
67.9517678269
 31
0.0
  0
ARC
  8
0
 62
0
 10
26.8906698025
 20
68.0117695311
 30
0.0
 40
0.11833849753987125
 50
149.53445508049984
 51
-149.53445508049984
  0
LINE
  8
0
 62
0
 10
26.7886666607
 20
68.071766878
 30
0.0
 11
27.9226673793
 21
70.0217700847
 31
0.0
  0
ARC
  8
0
 62
0
 10
27.8206698025
 20
70.0817695311
 30
0.0
 40
0.11833849753993159
 50
-30.465544919498953
 51
92.8624052262004
  0
LINE
  8
0
 62
0
 10
27.8147606205
 20
70.1999581703
 30
0.0
 11
25.564670379
 21
70.195770944
 31
0.0
  0
ARC
  8
0
 62
0
 10
25.5646698025
 20
70.3157695311
 30
0.0
 40
0.12000000000002373
 50
-150.94539590089812
 51
-90.0
  0
LINE
  8
0
 62
0
 10
25.4597736548
 20
70.2574915536
 30
0.0
 11
24.3346689295
 21
72.2117713936
 31
0.0
  0
ARC
  8
0
 62
0
 10
24.2326698025
 20
72.1517695311
 30
0.0
 40
0.1183384975400022
 50
30.465544919502793
 51
149.53445508040076
  0
LINE
  8
0
 62
0
 10
24.1306720327
 20
72.2117713936
 30
0.0
 11
23.0086667489
 21
70.2557704695
 31
0.0
  0
ARC
  8
0
 62
0
 10
22.9066698025
 20
70.3157695311
 30
0.0
 40
0.1183384975398887
 50
-92.86240522609972
 51
-30.465544919502616
  0
LINE
  8
0
 62
0
 10
22.9007599901
 20
70.197581435
 30
0.0
 11
20.6506697487
 21
70.2017686613
 31
0.0
  0
ARC
  8
0
 62
0
 10
20.6506698025
 20
70.0817695311
 30
0.0
 40
0.12000000000006139
 50
90.0
 51
-150.94539590090048
  0
LINE
  8
0
 62
0
 10
20.5457730244
 20
70.0234911688
 30
0.0
 11
21.6766668509
 21
68.071766878
 31
0.0
  0
ARC
  8
0
 62
0
 10
-132.4153301975
 20
104.6897695311
 30
0.0
 40
0.11833849753985594
 50
-30.465544919504538
 51
30.465544919504538
  0
LINE
  8
0
 62
0
 10
-132.3133261849
 20
104.6297691115
 30
0.0
 11
-133.447334354
 21
102.6797659047
 31
0.0
  0
ARC
  8
0
 62
0
 10
-133.3453301975
 20
102.6197695311
 30
0.0
 40
0.11833849753991213
 50
149.5344550805035
 51
-90.0
  0
LINE
  8
0
 62
0
 10
-133.3453210045
 20
102.5014288076
 30
0.0
 11
-131.0893448044
 21
102.5057724961
 31
0.0
  0
ARC
  8
0
 62
0
 10
-131.0893301975
 20
102.3857695311
 30
0.0
 40
0.12000000000003645
 50
30.465544919402777
 51
90.0
  0
LINE
  8
0
 62
0
 10
-130.9859009434
 20
102.4466148861
 30
0.0
 11
-129.8653336216
 21
100.4897720464
 31
0.0
  0
ARC
  8
0
 62
0
 10
-129.7633301975
 20
100.5497695311
 30
0.0
 40
0.11833849753993088
 50
-149.53445508059662
 51
-29.05460409909387
  0
LINE
  8
0
 62
0
 10
-129.6598764111
 20
100.4922977932
 30
0.0
 11
-128.5327227761
 21
102.446972514
 31
0.0
  0
ARC
  8
0
 62
0
 10
-128.4283959557
 20
102.3874541046
 30
0.0
 40
0.12011544446906461
 50
89.96863294750649
 51
150.29824914419692
  0
LINE
  8
0
 62
0
 10
-128.4283252407
 20
102.507568086
 30
0.0
 11
-126.1753292729
 21
102.4997673281
 31
0.0
  0
ARC
  8
0
 62
0
 10
-126.1753301975
 20
102.6197695311
 30
0.0
 40
0.12000000000003297
 50
-90.0
 51
30.465544919497024
  0
LINE
  8
0
 62
0
 10
-126.0718854119
 20
102.6806152709
 30
0.0
 11
-127.2073240925
 21
104.6297691115
 31
0.0
  0
ARC
  8
0
 62
0
 10
-127.1053301975
 20
104.6897695311
 30
0.0
 40
0.11833849753991933
 50
149.53445508049757
 51
-149.53445508049757
  0
LINE
  8
0
 62
0
 10
-127.2073240925
 20
104.7497681626
 30
0.0
 11
-126.0733159233
 21
106.6997713693
 31
0.0
  0
ARC
  8
0
 62
0
 10
-126.1753301975
 20
106.7597695311
 30
0.0
 40
0.11833849753991213
 50
-30.46554491949651
 51
90.0
  0
LINE
  8
0
 62
0
 10
-126.1753292729
 20
106.8781084665
 30
0.0
 11
-128.4313352753
 21
106.8677670606
 31
0.0
  0
ARC
  8
0
 62
0
 10
-128.4313301975
 20
106.9877695311
 30
0.0
 40
0.12000000000000816
 50
-152.10272896909646
 51
-90.0
  0
LINE
  8
0
 62
0
 10
-128.5373719384
 20
106.9316259869
 30
0.0
 11
-129.6553166558
 21
108.8837675103
 31
0.0
  0
ARC
  8
0
 62
0
 10
-129.7573301975
 20
108.8237695311
 30
0.0
 40
0.11833849753995104
 50
30.4655449195014
 51
150.9453959009001
  0
LINE
  8
0
 62
0
 10
-129.8607738663
 20
108.8812417634
 30
0.0
 11
-130.9909375359
 21
106.9277665861
 31
0.0
  0
ARC
  8
0
 62
0
 10
-131.0947924082
 20
106.9876617776
 30
0.0
 40
0.11989345269864086
 50
-90.25700454909445
 51
-29.96994157010004
  0
LINE
  8
0
 62
0
 10
-131.0953350712
 20
106.8677670606
 30
0.0
 11
-133.3453210045
 21
106.8797699459
 31
0.0
  0
ARC
  8
0
 62
0
 10
-133.3453301975
 20
106.7597695311
 30
0.0
 40
0.12000000000004718
 50
90.0
 51
-149.53445508050058
  0
LINE
  8
0
 62
0
 10
-133.4487648655
 20
106.6989294537
 30
0.0
 11
-132.3133261849
 21
104.7497681626
 31
0.0
  0
ARC
  8
0
 62
0
 10
9.1486698025
 20
143.9357695311
 30
0.0
 40
0.6000000000000227
 50
-90.0
 51
29.886526940400476
  0
LINE
  8
0
 62
0
 10
9.6688715767
 20
144.2347384342
 30
0.0
 11
4.0066687416
 21
153.9797700294
 31
0.0
  0
ARC
  8
0
 62
0
 10
4.5226698025
 20
154.2797695311
 30
0.0
 40
0.5968718455414079
 50
149.33107335030115
 51
-149.82647997039945
  0
LINE
  8
0
 62
0
 10
4.0092764448
 20
154.584220732
 30
0.0
 11
9.6706746172
 21
164.3297701426
 31
0.0
  0
ARC
  8
0
 62
0
 10
9.1546698025
 20
164.6297695311
 30
0.0
 40
0.5968718455414326
 50
-30.17352002959975
 51
90.57293869770005
  0
LINE
  8
0
 62
0
 10
9.1487018417
 20
165.2266114302
 30
0.0
 11
-2.1193327357
 21
165.193769271
 31
0.0
  0
ARC
  8
0
 62
0
 10
-2.1193301975
 20
165.7937695311
 30
0.0
 40
0.6000000000000439
 50
-150.61098853370052
 51
-90.0
  0
LINE
  8
0
 62
0
 10
-2.6421101738
 20
165.4993268945
 30
0.0
 11
-8.2513244797
 21
175.2737696566
 31
0.0
  0
ARC
  8
0
 62
0
 10
-8.7733301975
 20
174.9737695311
 30
0.0
 40
0.6020664415162079
 50
29.88652694040082
 51
149.82647997040047
  0
LINE
  8
0
 62
0
 10
-9.293824618
 20
175.2763801538
 30
0.0
 11
-14.8993285347
 21
165.499770204
 31
0.0
  0
ARC
  8
0
 62
0
 10
-15.4213301975
 20
165.7997695311
 30
0.0
 40
0.6020664415162287
 50
-90.0
 51
-29.886526940400312
  0
LINE
  8
0
 62
0
 10
-15.4213311125
 20
165.1977031775
 30
0.0
 11
-26.6893358876
 21
165.2297686138
 31
0.0
  0
ARC
  8
0
 62
0
 10
-26.6893301975
 20
164.6297695311
 30
0.0
 40
0.6000000000000227
 50
90.0
 51
-150.11347305959953
  0
LINE
  8
0
 62
0
 10
-27.2095354248
 20
164.3307983228
 30
0.0
 11
-21.5473325898
 21
154.5857704528
 31
0.0
  0
ARC
  8
0
 62
0
 10
-22.0633301975
 20
154.2857695311
 30
0.0
 40
0.5968718455414347
 50
-30.66892664970051
 51
30.173520029600017
  0
LINE
  8
0
 62
0
 10
-21.549940293
 20
153.9813197501
 30
0.0
 11
-27.2113235642
 21
144.2357703396
 31
0.0
  0
ARC
  8
0
 62
0
 10
-26.6953301975
 20
143.9357695311
 30
0.0
 40
0.5968718455414126
 50
149.82647997039916
 51
-89.42706130229993
  0
LINE
  8
0
 62
0
 10
-26.6893656899
 20
143.338929052
 30
0.0
 11
-15.4213311125
 21
143.3717712112
 31
0.0
  0
ARC
  8
0
 62
0
 10
-15.4213301975
 20
142.7717695311
 30
0.0
 40
0.6000000000000331
 50
29.389011466300047
 51
90.0
  0
LINE
  8
0
 62
0
 10
-14.8985387732
 20
143.0662117251
 30
0.0
 11
-9.8113270451
 21
134.1977707394
 31
0.0
  0
ARC
  8
0
 62
0
 10
-8.7703301975
 20
134.7343032882
 30
0.0
 40
1.171131705878928
 50
-152.73331899810015
 51
-27.26668100230025
  0
LINE
  8
0
 62
0
 10
-7.7293368031
 20
134.1977707394
 30
0.0
 11
-2.6413353134
 21
143.0657684155
 31
0.0
  0
ARC
  8
0
 62
0
 10
-2.1193301975
 20
142.7657695311
 30
0.0
 40
0.6020664415162287
 50
90.0
 51
150.11347305960024
  0
LINE
  8
0
 62
0
 10
-2.1193327357
 20
143.3678373047
 30
0.0
 11
9.1486720394
 21
143.3357700058
 31
0.0
  0
ARC
  8
0
 62
0
 10
-69.6553301975
 20
184.3157695311
 30
0.0
 40
0.11833849753993088
 50
149.53445508059662
 51
-149.53445508050106
  0
LINE
  8
0
 62
0
 10
-69.7573276211
 20
184.3757695802
 30
0.0
 11
-68.6293246199
 21
186.3197694816
 31
0.0
  0
ARC
  8
0
 62
0
 10
-68.7313301975
 20
186.3797695311
 30
0.0
 40
0.11833849753991933
 50
-30.465544919502445
 51
90.0
  0
LINE
  8
0
 62
0
 10
-68.7313230683
 20
186.4981079758
 30
0.0
 11
-70.9873290707
 21
186.4937696424
 31
0.0
  0
ARC
  8
0
 62
0
 10
-70.9873301975
 20
186.6137695311
 30
0.0
 40
0.12000000000003716
 50
-149.534455080503
 51
-90.0
  0
LINE
  8
0
 62
0
 10
-71.0907580305
 20
186.5529270195
 30
0.0
 11
-72.2113253523
 21
188.50976951
 31
0.0
  0
ARC
  8
0
 62
0
 10
-72.3133301975
 20
188.4497695311
 30
0.0
 40
0.1183384975399705
 50
30.465544919503838
 51
150.94539590090346
  0
LINE
  8
0
 62
0
 10
-72.4167825629
 20
188.507239805
 30
0.0
 11
-73.5433252503
 21
186.5537696336
 31
0.0
  0
ARC
  8
0
 62
0
 10
-73.6453301975
 20
186.6137695311
 30
0.0
 40
0.11833849753992354
 50
-90.0
 51
-30.465544919502445
  0
LINE
  8
0
 62
0
 10
-73.6453236986
 20
186.4954311219
 30
0.0
 11
-75.9013297011
 21
186.4997694552
 31
0.0
  0
ARC
  8
0
 62
0
 10
-75.9013301975
 20
186.3797695311
 30
0.0
 40
0.12000000000008981
 50
90.0
 51
-149.5344550805993
  0
LINE
  8
0
 62
0
 10
-76.0047586609
 20
186.3189271003
 30
0.0
 11
-74.8693348814
 21
184.3757695802
 31
0.0
  0
ARC
  8
0
 62
0
 10
-74.9713301975
 20
184.3157695311
 30
0.0
 40
0.11833849753995825
 50
-30.465544919507323
 51
30.465544919396404
  0
LINE
  8
0
 62
0
 10
-74.8693348814
 20
184.2557695978
 30
0.0
 11
-76.0033281494
 21
182.305769185
 31
0.0
  0
ARC
  8
0
 62
0
 10
-75.9013301975
 20
182.2457695311
 30
0.0
 40
0.11833849753994312
 50
149.53445508060014
 51
-90.0
  0
LINE
  8
0
 62
0
 10
-75.9013297011
 20
182.1274311565
 30
0.0
 11
-73.6453236986
 21
182.1317692571
 31
0.0
  0
ARC
  8
0
 62
0
 10
-73.6457048608
 20
182.011770116
 30
0.0
 40
0.12000000000006376
 50
30.33102881280432
 51
89.82111113710044
  0
LINE
  8
0
 62
0
 10
-73.5421331574
 20
182.0723695033
 30
0.0
 11
-72.421327417
 21
180.1157697387
 31
0.0
  0
ARC
  8
0
 62
0
 10
-72.3193301975
 20
180.1757695311
 30
0.0
 40
0.11833849753993159
 50
-149.53445508050106
 51
-29.054604099094526
  0
LINE
  8
0
 62
0
 10
-72.2158851076
 20
180.1182992109
 30
0.0
 11
-71.0905345131
 21
182.0693697133
 31
0.0
  0
ARC
  8
0
 62
0
 10
-70.9866686733
 20
182.0094760942
 30
0.0
 40
0.11989345269864336
 50
90.02940176150001
 51
150.02940176149835
  0
LINE
  8
0
 62
0
 10
-70.9867330242
 20
182.1293692388
 30
0.0
 11
-68.7313230683
 21
182.1257696771
 31
0.0
  0
ARC
  8
0
 62
0
 10
-68.7313301975
 20
182.2457695311
 30
0.0
 40
0.12000000000000455
 50
-90.0
 51
30.46554491950392
  0
LINE
  8
0
 62
0
 10
-68.6278941084
 20
182.306612032
 30
0.0
 11
-69.7573276211
 21
184.2557695978
 31
0.0
  0
ARC
  8
0
 62
0
 10
-16.5913301975
 20
233.1917695311
 30
0.0
 40
0.11833849753992168
 50
-30.46554491940599
 51
92.86240522610075
  0
LINE
  8
0
 62
0
 10
-16.597241347
 20
233.3099610456
 30
0.0
 11
-18.8473315884
 21
233.305770094
 31
0.0
  0
ARC
  8
0
 62
0
 10
-18.8473301975
 20
233.4257695311
 30
0.0
 40
0.12000000000006858
 50
-150.9453959008945
 51
-90.0
  0
LINE
  8
0
 62
0
 10
-18.9522357632
 20
233.3674907037
 30
0.0
 11
-20.077333038
 21
235.3217705437
 31
0.0
  0
ARC
  8
0
 62
0
 10
-20.1793301975
 20
235.2617695311
 30
0.0
 40
0.1183384975399705
 50
30.465544919503838
 51
149.53445508049617
  0
LINE
  8
0
 62
0
 10
-20.2813299347
 20
235.3217705437
 30
0.0
 11
-21.403327768
 21
233.3657696195
 31
0.0
  0
ARC
  8
0
 62
0
 10
-21.5053301975
 20
233.4257695311
 30
0.0
 40
0.11833849753994564
 50
-92.86240522610007
 51
-30.46554491949633
  0
LINE
  8
0
 62
0
 10
-21.5112419773
 20
233.3075768598
 30
0.0
 11
-23.7613322188
 21
233.3117678114
 31
0.0
  0
ARC
  8
0
 62
0
 10
-23.7613301975
 20
233.1917695311
 30
0.0
 40
0.12000000000000455
 50
90.0
 51
-150.94539590089485
  0
LINE
  8
0
 62
0
 10
-23.8662363936
 20
233.1334940441
 30
0.0
 11
-22.7353276659
 21
231.1817697533
 31
0.0
  0
ARC
  8
0
 62
0
 10
-22.8373301975
 20
231.1217695311
 30
0.0
 40
0.1183384975399042
 50
-30.465544919394997
 51
30.465544919504186
  0
LINE
  8
0
 62
0
 10
-22.7353276659
 20
231.0617707022
 30
0.0
 11
-23.8693358351
 21
229.1117712208
 31
0.0
  0
ARC
  8
0
 62
0
 10
-23.7673301975
 20
229.0517695311
 30
0.0
 40
0.1183384975398835
 50
149.5344550805033
 51
-87.13759477390028
  0
LINE
  8
0
 62
0
 10
-23.7614216257
 20
228.9335794099
 30
0.0
 11
-21.5113313843
 21
228.9377703615
 31
0.0
  0
ARC
  8
0
 62
0
 10
-21.5113301975
 20
228.8177695311
 30
0.0
 40
0.11999999999997575
 50
29.054604099099052
 51
90.0
  0
LINE
  8
0
 62
0
 10
-21.4064272095
 20
228.8760460265
 30
0.0
 11
-20.2813299347
 21
226.9217699118
 31
0.0
  0
ARC
  8
0
 62
0
 10
-20.1793301975
 20
226.9817695311
 30
0.0
 40
0.11833849753991627
 50
-149.5344550804967
 51
-30.46554491939412
  0
LINE
  8
0
 62
0
 10
-20.077333038
 20
226.9217699118
 30
0.0
 11
-18.9547242571
 21
228.8789703794
 31
0.0
  0
ARC
  8
0
 62
0
 10
-18.8503959557
 20
228.8194541046
 30
0.0
 40
0.12011544446907882
 50
89.96863294749971
 51
150.29824914420277
  0
LINE
  8
0
 62
0
 10
-18.8503267218
 20
228.9395696767
 30
0.0
 11
-16.5973307539
 21
228.9317689188
 31
0.0
  0
ARC
  8
0
 62
0
 10
-16.5972718878
 20
229.051769517
 30
0.0
 40
0.12000000000002702
 50
-90.02784087100069
 51
29.012480125498776
  0
LINE
  8
0
 62
0
 10
-16.4923371722
 20
229.1099681803
 30
0.0
 11
-17.6233353068
 21
231.0617707022
 31
0.0
  0
ARC
  8
0
 62
0
 10
-17.5213301975
 20
231.1217695311
 30
0.0
 40
0.1183384975399523
 50
149.53445508060273
 51
-149.53445508060273
  0
LINE
  8
0
 62
0
 10
-17.6233353068
 20
231.1817697533
 30
0.0
 11
-16.4893271376
 21
233.1317692347
 31
0.0
  0
CIRCLE
  8
0
 62
0
 10
-113.7735690439
 20
211.5833713777
 30
0.0
 40
1.0
  0
CIRCLE
  8
0
 62
0
 10
-152.3608779442
 20
97.4969688966
 30
0.0
 40
1.0
  0
CIRCLE
  8
0
 62
0
 10
75.9746172282
 20
45.5296288179
 30
0.0
 40
1.0
  0
CIRCLE
  8
0
 62
0
 10
42.3944172771
 20
153.6498645083
 30
0.0
 40
1.0
  0
ARC
  8
0
 62
0
 10
-20.1313301975
 20
19.5497695311
 30
0.0
 40
3.7523718419154926
 50
84.0332005173
 51
-174.67866575579998
  0
LINE
  8
0
 62
0
 10
-22.4173368861
 20
3.5717702754
 30
0.0
 11
-23.8675327946
 21
19.2017621644
 31
0.0
  0
LINE
  8
0
 62
0
 10
-26.1673333098
 20
3.5717702754
 30
0.0
 11
-22.4173368861
 21
3.5717702754
 31
0.0
  0
LINE
  8
0
 62
0
 10
-26.1673333098
 20
0.5717641958
 30
0.0
 11
-26.1673333098
 21
3.5717702754
 31
0.0
  0
LINE
  8
0
 62
0
 10
-67.417323773
 20
0.5717641958
 30
0.0
 11
-26.1673333098
 21
0.5717641958
 31
0.0
  0
LINE
  8
0
 62
0
 10
-67.417323773
 20
3.5717702754
 30
0.0
 11
-67.417323773
 21
0.5717641958
 31
0.0
  0
LINE
  8
0
 62
0
 10
-71.1685271908
 20
3.5717702754
 30
0.0
 11
-67.417323773
 21
3.5717702754
 31
0.0
  0
LINE
  8
0
 62
0
 10
-69.7213264157
 20
19.2017621644
 30
0.0
 11
-71.1685271908
 21
3.5717702754
 31
0.0
  0
ARC
  8
0
 62
0
 10
-73.4528292855
 20
19.5539623145
 30
0.0
 40
3.748082869948313
 50
-5.391816331300099
 51
95.97703757599992
  0
ARC
  8
0
 62
0
 10
-90.3676636427
 20
198.5657380966
 30
0.0
 40
176.0612545451154
 50
-117.41114555290001
 51
-84.61447439850001
  0
ARC
  8
0
 62
0
 10
-169.5679450042
 20
45.5301193167
 30
0.0
 40
3.748765284730478
 50
110.31617663360015
 51
-119.63169557909987
  0
ARC
  8
0
 62
0
 10
-209.8753301975
 20
154.5677695311
 30
0.0
 40
112.500512466033
 50
-69.71337204930002
 51
-42.84090046890001
  0
ARC
  8
0
 62
0
 10
-130.1350699024
 20
80.6193771143
 30
0.0
 40
3.749081359479962
 50
-42.81514126559999
 51
83.3855466365002
  0
ARC
  8
0
 62
0
 10
-123.9051898835
 20
134.1968234714
 30
0.0
 40
50.1893482121456
 50
-127.78632948410002
 51
-96.63380071569999
  0
ARC
  8
0
 62
0
 10
-152.3608779442
 20
97.4969688966
 30
0.0
 40
3.750081839107003
 50
110.38791132899995
 51
-127.75752919600002
  0
ARC
  8
0
 62
0
 10
-180.403338436
 20
172.9097664675
 30
0.0
 40
76.70779308518759
 50
-69.60172457310001
 51
-29.49250787429997
  0
ARC
  8
0
 62
0
 10
-116.8993301975
 20
136.9937695311
 30
0.0
 40
3.750834243205098
 50
-29.51751828659996
 51
81.89841332449996
  0
ARC
  8
0
 62
0
 10
-110.4291741447
 20
182.82750975
 30
0.0
 40
42.53733828626329
 50
-131.21662071900002
 51
-98.02924891060005
  0
ARC
  8
0
 62
0
 10
-135.9855127936
 20
153.6499295932
 30
0.0
 40
3.7499999999999987
 50
110.6079409571001
 51
-131.23565787700016
  0
ARC
  8
0
 62
0
 10
-167.4493301975
 20
237.4277695311
 30
0.0
 40
85.741331032356
 50
-69.41673722240002
 51
-27.56922505600005
  0
ARC
  8
0
 62
0
 10
-94.7662918415
 20
199.4816150799
 30
0.0
 40
3.749047030913327
 50
-27.595290847699857
 51
92.37250646230004
  0
ARC
  8
0
 62
0
 10
-96.4773871221
 20
241.5199299494
 30
0.0
 40
38.32407806953748
 50
-120.01043933189999
 51
-87.6732395675
  0
ARC
  8
0
 62
0
 10
-113.7735690439
 20
211.5833713777
 30
0.0
 40
3.750168044234862
 50
126.0372267107
 51
-119.94391417530004
  0
ARC
  8
0
 62
0
 10
-240.8038349876
 20
376.9337695311
 30
0.0
 40
204.76358560818701
 50
-52.43937169650004
 51
-21.461057709400006
  0
ARC
  8
0
 62
0
 10
-49.2672349876
 20
301.5773937073
 30
0.0
 40
1.0650365135479414
 50
24.388453020898964
 51
155.61154697910104
  0
ARC
  8
0
 62
0
 10
-44.3269085352
 20
301.2924077749
 30
0.0
 40
1.2111205668984462
 50
36.80858252159956
 51
143.24300155480026
  0
ARC
  8
0
 62
0
 10
20.1851647408
 20
211.5804468529
 30
0.0
 40
3.7493001907022467
 50
-59.989655024400065
 51
53.944791879300055
  0
ARC
  8
0
 62
0
 10
2.8936428603
 20
241.5154870378
 30
0.0
 40
38.31956717970603
 50
-92.33751046390003
 51
-59.98795746800003
  0
ARC
  8
0
 62
0
 10
1.1806698025
 20
199.4837695311
 30
0.0
 40
3.747042273580596
 50
87.70462065930002
 51
-152.37221389490009
  0
ARC
  8
0
 62
0
 10
73.8654032412
 20
237.4193377529
 30
0.0
 40
85.73592817481509
 50
-152.4361509294
 51
-110.58945634470001
  0
ARC
  8
0
 62
0
 10
42.3944172771
 20
153.6498645083
 30
0.0
 40
3.7500911988910914
 50
-48.76038719320002
 51
69.38618498739989
  0
ARC
  8
0
 62
0
 10
16.8305598493
 20
182.8181678451
 30
0.0
 40
42.53540702708752
 50
-81.95083497439997
 51
-48.767178397699986
  0
ARC
  8
0
 62
0
 10
23.3086698025
 20
136.9877695311
 30
0.0
 40
3.750567317086798
 50
98.00317005450003
 51
-150.5643555613
  0
ARC
  8
0
 62
0
 10
86.808432553
 20
172.9113450663
 30
0.0
 40
76.70756040156874
 50
-150.5050069871
 51
-110.39494074410004
  0
ARC
  8
0
 62
0
 10
58.7682906731
 20
97.4966108401
 30
0.0
 40
3.7513217830519694
 50
-52.21511578380005
 51
69.58739954530003
  0
ARC
  8
0
 62
0
 10
30.3171666365
 20
134.1935035522
 30
0.0
 40
50.18545140297146
 50
-83.36880082650002
 51
-52.213672543700035
  0
ARC
  8
0
 62
0
 10
36.5446698025
 20
80.6177695311
 30
0.0
 40
3.7510027299377016
 50
96.61622857269998
 51
-137.14556168060005
  0
ARC
  8
0
 62
0
 10
116.2803648008
 20
154.5693607822
 30
0.0
 40
112.5012620121217
 50
-137.15501422000003
 51
-110.28457709370004
  0
ARC
  8
0
 62
0
 10
75.9746172282
 20
45.5296288179
 30
0.0
 40
3.7494019683144564
 50
-60.32520277739995
 51
69.65679455970003
  0
ARC
  8
0
 62
0
 10
-3.2222712833
 20
198.566318681
 30
0.0
 40
176.0611692598908
 50
-95.38371237459998
 51
-62.58906987010001
  0
CIRCLE
  8
0
 62
0
 10
20.1851647408
 20
211.5804468529
 30
0.0
 40
1.0000000000000036
  0
CIRCLE
  8
0
 62
0
 10
58.7682906731
 20
97.4966108401
 30
0.0
 40
1.0
  0
CIRCLE
  8
0
 62
0
 10
-169.5679450042
 20
45.5301193167
 30
0.0
 40
1.0
  0
CIRCLE
  8
0
 62
0
 10
-135.9855127936
 20
153.6499295932
 30
0.0
 40
1.0
  0
ARC
  8
0
 62
0
 10
-64.7953301975
 20
252.2177695311
 30
0.0
 40
0.11833849753995537
 50
149.5344550806036
 51
-90.0
  0
LINE
  8
0
 62
0
 10
-64.7953303505
 20
252.0994312413
 30
0.0
 11
-62.5393243481
 21
252.1037712045
 31
0.0
  0
ARC
  8
0
 62
0
 10
-62.5393301975
 20
251.9837695311
 30
0.0
 40
0.12000000000004869
 50
30.465544919399324
 51
90.0
  0
LINE
  8
0
 62
0
 10
-62.4358953883
 20
252.0446135946
 30
0.0
 11
-61.3153280665
 21
250.0877707549
 31
0.0
  0
ARC
  8
0
 62
0
 10
-61.2133301975
 20
250.1477695311
 30
0.0
 40
0.1183384975399377
 50
-149.5344550805028
 51
-29.05460409910321
  0
LINE
  8
0
 62
0
 10
-61.1098857571
 20
250.090300227
 30
0.0
 11
-59.98873729
 21
252.0449712225
 31
0.0
  0
ARC
  8
0
 62
0
 10
-59.8843959557
 20
251.9854541046
 30
0.0
 40
0.12011544446910725
 50
89.96863294749971
 51
150.29824914419686
  0
LINE
  8
0
 62
0
 10
-59.8843248535
 20
252.1055705198
 30
0.0
 11
-57.6253237177
 21
252.0977697619
 31
0.0
  0
ARC
  8
0
 62
0
 10
-57.6253301975
 20
252.2177695311
 30
0.0
 40
0.12000000000003297
 50
-90.0
 51
30.465544919498768
  0
LINE
  8
0
 62
0
 10
-57.5218947579
 20
252.2786102541
 30
0.0
 11
-58.6573334385
 21
254.2277715452
 31
0.0
  0
ARC
  8
0
 62
0
 10
-58.5553301975
 20
254.2877695311
 30
0.0
 40
0.1183384975398743
 50
149.5344550805007
 51
-149.5344550805007
  0
LINE
  8
0
 62
0
 10
-58.6573334385
 20
254.3477705963
 30
0.0
 11
-57.5233252693
 21
256.2977663525
 31
0.0
  0
ARC
  8
0
 62
0
 10
-57.6253301975
 20
256.3577695311
 30
0.0
 40
0.1183384975399705
 50
-30.465544919503838
 51
89.99999999990023
  0
LINE
  8
0
 62
0
 10
-57.6253237177
 20
256.4761109002
 30
0.0
 11
-59.8813297201
 21
256.4717672118
 31
0.0
  0
ARC
  8
0
 62
0
 10
-59.8813301975
 20
256.5917695311
 30
0.0
 40
0.12000000000002993
 50
-150.9453959008998
 51
-90.0
  0
LINE
  8
0
 62
0
 10
-59.986233895
 20
256.533495272
 30
0.0
 11
-61.1053260018
 21
258.4877676614
 31
0.0
  0
ARC
  8
0
 62
0
 10
-61.2073301975
 20
258.4277695311
 30
0.0
 40
0.11833849753997662
 50
30.465544919502086
 51
150.9453959008079
  0
LINE
  8
0
 62
0
 10
-61.3107832123
 20
258.4852419146
 30
0.0
 11
-62.4373258997
 21
256.5317667373
 31
0.0
  0
ARC
  8
0
 62
0
 10
-62.5393301975
 20
256.5917695311
 30
0.0
 40
0.11833849754003722
 50
-90.0
 51
-30.46554491949163
  0
LINE
  8
0
 62
0
 10
-62.5393243481
 20
256.4734286912
 30
0.0
 11
-64.7953303505
 21
256.4777723797
 31
0.0
  0
ARC
  8
0
 62
0
 10
-64.7953301975
 20
256.3577695311
 30
0.0
 40
0.12000000000006139
 50
90.0
 51
-149.53445508059585
  0
LINE
  8
0
 62
0
 10
-64.8987593104
 20
256.2969244369
 30
0.0
 11
-63.7693257977
 21
254.3477705963
 31
0.0
  0
ARC
  8
0
 62
0
 10
-63.8713301975
 20
254.2877695311
 30
0.0
 40
0.11833849753988655
 50
-30.465544919495816
 51
30.465544919495816
  0
LINE
  8
0
 62
0
 10
-63.7693257977
 20
254.2277715452
 30
0.0
 11
-64.8973287989
 21
252.2777683385
 31
0.0
  0
ARC
  8
0
 62
0
 10
-17.5573301975
 20
192.6557695311
 30
0.0
 40
0.1183384975398835
 50
-30.465544919496693
 51
92.86240522609972
  0
LINE
  8
0
 62
0
 10
-17.5632389237
 20
192.7739604194
 30
0.0
 11
-19.8133291651
 21
192.7697694678
 31
0.0
  0
ARC
  8
0
 62
0
 10
-19.8133884915
 20
192.8897695169
 30
0.0
 40
0.11999999999996769
 50
-150.98753532170184
 51
-89.97216664120063
  0
LINE
  8
0
 62
0
 10
-19.918337648
 20
192.8315694727
 30
0.0
 11
-21.0433306147
 21
194.7857696847
 31
0.0
  0
ARC
  8
0
 62
0
 10
-21.1453301975
 20
194.7257695311
 30
0.0
 40
0.11833849753991321
 50
30.465544919504186
 51
149.5344550804958
  0
LINE
  8
0
 62
0
 10
-21.2473275114
 20
194.7857696847
 30
0.0
 11
-22.3693253447
 21
192.829769459
 31
0.0
  0
ARC
  8
0
 62
0
 10
-22.4713301975
 20
192.8897695311
 30
0.0
 40
0.1183384975398887
 50
-92.86240522609972
 51
-30.465544919496693
  0
LINE
  8
0
 62
0
 10
-22.4772395541
 20
192.7715787948
 30
0.0
 11
-24.7273297955
 21
192.7757695135
 31
0.0
  0
ARC
  8
0
 62
0
 10
-24.7273301975
 20
192.6557695311
 30
0.0
 40
0.12000000000000455
 50
90.0
 51
-150.94539590089568
  0
LINE
  8
0
 62
0
 10
-24.8322339703
 20
192.5974924867
 30
0.0
 11
-23.7013252426
 21
190.6457695346
 31
0.0
  0
ARC
  8
0
 62
0
 10
-23.8033301975
 20
190.5857695311
 30
0.0
 40
0.11833849753988962
 50
-30.46554491949494
 51
30.46554491949494
  0
LINE
  8
0
 62
0
 10
-23.7013252426
 20
190.5257695376
 30
0.0
 11
-24.8353334118
 21
188.5757695469
 31
0.0
  0
ARC
  8
0
 62
0
 10
-24.7333301975
 20
188.5157695311
 30
0.0
 40
0.11833849753992853
 50
149.53445508050018
 51
-87.13759477389925
  0
LINE
  8
0
 62
0
 10
-24.7274192025
 20
188.3975786673
 30
0.0
 11
-22.477328961
 21
188.4017695025
 31
0.0
  0
ARC
  8
0
 62
0
 10
-22.4773301975
 20
188.2817695311
 30
0.0
 40
0.12000000000002062
 50
29.05460409910268
 51
90.0
  0
LINE
  8
0
 62
0
 10
-22.3724247862
 20
188.3400467974
 30
0.0
 11
-21.2473275114
 21
186.3857695185
 31
0.0
  0
ARC
  8
0
 62
0
 10
-21.1453301975
 20
186.4457695311
 30
0.0
 40
0.11833849753988888
 50
-149.53445508060065
 51
-30.46554491939935
  0
LINE
  8
0
 62
0
 10
-21.0433306147
 20
186.3857695185
 30
0.0
 11
-19.920736735
 21
188.3429695204
 31
0.0
  0
ARC
  8
0
 62
0
 10
-19.8163959557
 20
188.2834541046
 30
0.0
 40
0.12011544446907882
 50
89.96863294749971
 51
150.29824914420277
  0
LINE
  8
0
 62
0
 10
-19.8163242985
 20
188.4035695162
 30
0.0
 11
-17.5633283306
 21
188.3957695732
 31
0.0
  0
ARC
  8
0
 62
0
 10
-17.5633301975
 20
188.5157695311
 30
0.0
 40
0.12000000000000455
 50
-90.0
 51
29.05460409910516
  0
LINE
  8
0
 62
0
 10
-17.4584241558
 20
188.5740467165
 30
0.0
 11
-18.5893328835
 21
190.5257695376
 31
0.0
  0
ARC
  8
0
 62
0
 10
-18.4873301975
 20
190.5857695311
 30
0.0
 40
0.11833849753994312
 50
149.53445508060014
 51
-149.5344550805028
  0
LINE
  8
0
 62
0
 10
-18.5893328835
 20
190.6457695346
 30
0.0
 11
-17.4553247143
 21
192.5957695399
 31
0.0
  0
ARC
  8
0
 62
0
 10
-90.4513301975
 20
145.0877695311
 30
0.0
 40
0.12000000000003297
 50
-90.0
 51
30.465544919497024
  0
LINE
  8
0
 62
0
 10
-90.3479011704
 20
145.148611749
 30
0.0
 11
-91.4833249499
 21
147.0917678722
 31
0.0
  0
ARC
  8
0
 62
0
 10
-91.381420899
 20
147.1519234577
 30
0.0
 40
0.11833849753991123
 50
147.2338983832971
 51
-149.44795247470594
  0
LINE
  8
0
 62
0
 10
-91.4809258629
 20
147.2159690507
 30
0.0
 11
-90.3493316819
 21
149.16177013
 31
0.0
  0
ARC
  8
0
 62
0
 10
-90.4513301975
 20
149.2217695311
 30
0.0
 40
0.11833849753991933
 50
-30.465544919502445
 51
90.0
  0
LINE
  8
0
 62
0
 10
-90.4513301302
 20
149.3401072272
 30
0.0
 11
-92.7073361327
 21
149.3357709893
 31
0.0
  0
ARC
  8
0
 62
0
 10
-92.7073301975
 20
149.4557695311
 30
0.0
 40
0.11999999999997886
 50
-150.94539590090176
 51
-90.0
  0
LINE
  8
0
 62
0
 10
-92.8122254063
 20
149.3974915989
 30
0.0
 11
-93.9313324143
 21
151.3517677136
 31
0.0
  0
ARC
  8
0
 62
0
 10
-94.0333301975
 20
151.2917695311
 30
0.0
 40
0.11833849753993159
 50
30.465544919498953
 51
150.94539590090548
  0
LINE
  8
0
 62
0
 10
-94.1367747237
 20
151.3492382415
 30
0.0
 11
-95.2633323122
 21
149.3957705148
 31
0.0
  0
ARC
  8
0
 62
0
 10
-95.3653301975
 20
149.4557695311
 30
0.0
 40
0.11833849753989512
 50
-90.0
 51
-30.46554491949406
  0
LINE
  8
0
 62
0
 10
-95.3653307606
 20
149.3374324687
 30
0.0
 11
-97.621336763
 21
149.3417687066
 31
0.0
  0
ARC
  8
0
 62
0
 10
-97.6213301975
 20
149.2217695311
 30
0.0
 40
0.12000000000000455
 50
90.0
 51
-149.5344550806055
  0
LINE
  8
0
 62
0
 10
-97.7247657229
 20
149.1609282144
 30
0.0
 11
-96.5953322102
 21
147.2177683659
 31
0.0
  0
ARC
  8
0
 62
0
 10
-96.6973301975
 20
147.1577695311
 30
0.0
 40
0.11833849753988511
 50
-32.905242923002184
 51
30.465544919497557
  0
LINE
  8
0
 62
0
 10
-96.5979697157
 20
147.0934815057
 30
0.0
 11
-97.7233352114
 21
145.1477698334
 31
0.0
  0
ARC
  8
0
 62
0
 10
-97.6213301975
 20
145.0877695311
 30
0.0
 40
0.11833849753990709
 50
149.53445508049407
 51
-90.0
  0
LINE
  8
0
 62
0
 10
-97.621336763
 20
144.9694327362
 30
0.0
 11
-95.3653307606
 21
144.9737689741
 31
0.0
  0
ARC
  8
0
 62
0
 10
-95.3653301975
 20
144.8537695311
 30
0.0
 40
0.12000000000001268
 50
30.46554491950392
 51
90.0
  0
LINE
  8
0
 62
0
 10
-95.2619018008
 20
144.9146113642
 30
0.0
 11
-94.141334479
 21
142.9577685245
 31
0.0
  0
ARC
  8
0
 62
0
 10
-94.0393301975
 20
143.0177695311
 30
0.0
 40
0.11833849753991933
 50
-149.53445508049757
 51
-29.054604099094526
  0
LINE
  8
0
 62
0
 10
-93.9358772684
 20
142.9602979966
 30
0.0
 11
-92.8171278883
 21
144.9107705899
 31
0.0
  0
ARC
  8
0
 62
0
 10
-92.7127949168
 20
144.8512559259
 30
0.0
 40
0.12011544446904471
 50
89.68292333309977
 51
150.2992493135944
  0
LINE
  8
0
 62
0
 10
-92.7121343066
 20
144.9713698872
 30
0.0
 11
-90.4513301302
 21
144.9677712568
 31
0.0
  0
ARC
  8
0
 62
0
 10
19.1626698025
 20
101.3117695311
 30
0.0
 40
0.11833849753987125
 50
-30.46554491950017
 51
30.46554491950017
  0
LINE
  8
0
 62
0
 10
19.2646680425
 20
101.2517727264
 30
0.0
 11
18.1306673239
 21
99.3017695196
 31
0.0
  0
ARC
  8
0
 62
0
 10
18.2326698025
 20
99.2417695311
 30
0.0
 40
0.11833849753994924
 50
149.53445508060187
 51
-90.0
  0
LINE
  8
0
 62
0
 10
18.2326732229
 20
99.1234324225
 30
0.0
 11
20.4886717747
 21
99.1277686604
 31
0.0
  0
ARC
  8
0
 62
0
 10
20.4886698025
 20
99.0077695311
 30
0.0
 40
0.12000000000002924
 50
30.46554491939692
 51
90.0
  0
LINE
  8
0
 62
0
 10
20.5921007346
 20
99.0686110504
 30
0.0
 11
21.7126680564
 21
97.1117682107
 31
0.0
  0
ARC
  8
0
 62
0
 10
21.8146698025
 20
97.1717695311
 30
0.0
 40
0.11833849753994617
 50
-149.534455080601
 51
-29.054604099102367
  0
LINE
  8
0
 62
0
 10
21.9181178163
 20
97.1143014081
 30
0.0
 11
23.0452714513
 21
99.0689686783
 31
0.0
  0
ARC
  8
0
 62
0
 10
23.1496040443
 20
99.0094541046
 30
0.0
 40
0.12011544446910725
 50
89.96863294749971
 51
150.29824914420195
  0
LINE
  8
0
 62
0
 10
23.1496689867
 20
99.1295717009
 30
0.0
 11
25.4026724051
 21
99.121770943
 31
0.0
  0
ARC
  8
0
 62
0
 10
25.4026698025
 20
99.2417695311
 30
0.0
 40
0.11999999999997613
 50
-90.0
 51
30.465544919499106
  0
LINE
  8
0
 62
0
 10
25.506101365
 20
99.3026114353
 30
0.0
 11
24.3766678523
 21
101.2517727264
 31
0.0
  0
ARC
  8
0
 62
0
 10
24.4786698025
 20
101.3117695311
 30
0.0
 40
0.11833849753994312
 50
149.53445508060014
 51
-149.53445508049688
  0
LINE
  8
0
 62
0
 10
24.3766678523
 20
101.3717717775
 30
0.0
 11
25.5046708535
 21
103.3217675336
 31
0.0
  0
ARC
  8
0
 62
0
 10
25.4026698025
 20
103.3817695311
 30
0.0
 40
0.1183384975398907
 50
-30.465544919502616
 51
90.0
  0
LINE
  8
0
 62
0
 10
25.4026724051
 20
103.5001046308
 30
0.0
 11
23.1466664027
 21
103.4897706755
 31
0.0
  0
ARC
  8
0
 62
0
 10
23.1466698025
 20
103.6097695311
 30
0.0
 40
0.12000000000000151
 50
-152.10272896910246
 51
-90.0
  0
LINE
  8
0
 62
0
 10
23.0406148385
 20
103.5536221512
 30
0.0
 11
21.9226701211
 21
105.5057711252
 31
0.0
  0
ARC
  8
0
 62
0
 10
21.8206698025
 20
105.4457695311
 30
0.0
 40
0.11833849753994924
 50
30.465544919398134
 51
150.94539590089929
  0
LINE
  8
0
 62
0
 10
21.7172203611
 20
105.5032379278
 30
0.0
 11
20.5870715927
 21
103.549770201
 31
0.0
  0
ARC
  8
0
 62
0
 10
20.4832075918
 20
103.6096617776
 30
0.0
 40
0.11989345269868354
 50
-90.25700454909945
 51
-29.969941570097433
  0
LINE
  8
0
 62
0
 10
20.4826666068
 20
103.4897706755
 30
0.0
 11
18.2326732229
 21
103.5017661103
 31
0.0
  0
ARC
  8
0
 62
0
 10
18.2326698025
 20
103.3817695311
 30
0.0
 40
0.12000000000004718
 50
90.0
 51
-149.53445508049884
  0
LINE
  8
0
 62
0
 10
18.1292368125
 20
103.320925618
 30
0.0
 11
19.2646680425
 21
101.3717717775
 31
0.0
  0
ARC
  8
0
 62
0
 10
-90.8653301975
 20
81.3857695311
 30
0.0
 40
0.11833849753991141
 50
149.5344550805991
 51
-90.0
  0
LINE
  8
0
 62
0
 10
-90.8653290917
 20
81.2674305685
 30
0.0
 11
-88.6093230892
 21
81.2717668064
 31
0.0
  0
ARC
  8
0
 62
0
 10
-88.6093301975
 20
81.1517695311
 30
0.0
 40
0.12000000000000546
 50
30.46554491949806
 51
90.0
  0
LINE
  8
0
 62
0
 10
-88.5058941294
 20
81.2126091965
 30
0.0
 11
-87.3853268076
 21
79.2557663568
 31
0.0
  0
ARC
  8
0
 62
0
 10
-87.2833301975
 20
79.3157695311
 30
0.0
 40
0.11833849753993159
 50
-149.53445508050106
 51
-29.054604099100537
  0
LINE
  8
0
 62
0
 10
-87.1798844982
 20
79.2582995542
 30
0.0
 11
-86.0527308632
 21
81.2129668244
 31
0.0
  0
ARC
  8
0
 62
0
 10
-85.9483959557
 20
81.1534541046
 30
0.0
 40
0.12011544446909304
 50
89.96863294749971
 51
150.2982491442011
  0
LINE
  8
0
 62
0
 10
-85.9483333279
 20
81.2735698469
 30
0.0
 11
-83.69533736
 21
81.2657690891
 31
0.0
  0
ARC
  8
0
 62
0
 10
-83.6953301975
 20
81.3857695311
 30
0.0
 40
0.12000000000000455
 50
-90.0
 51
30.46554491949806
  0
LINE
  8
0
 62
0
 10
-83.591893499
 20
81.4466095813
 30
0.0
 11
-84.7273321797
 21
83.3957708724
 31
0.0
  0
ARC
  8
0
 62
0
 10
-84.6253301975
 20
83.4557695311
 30
0.0
 40
0.11833849753993159
 50
149.53445508050106
 51
-149.53445508050106
  0
LINE
  8
0
 62
0
 10
-84.7273321797
 20
83.5157699235
 30
0.0
 11
-83.5933240105
 21
85.4657731303
 31
0.0
  0
ARC
  8
0
 62
0
 10
-83.6953301975
 20
85.5257695311
 30
0.0
 40
0.11833849753991141
 50
-30.46554491940092
 51
90.0
  0
LINE
  8
0
 62
0
 10
-83.69533736
 20
85.6441102274
 30
0.0
 11
-85.9513284613
 21
85.6397665389
 31
0.0
  0
ARC
  8
0
 62
0
 10
-85.9513301975
 20
85.7597695311
 30
0.0
 40
0.12000000000000546
 50
-149.53445508050194
 51
-90.0
  0
LINE
  8
0
 62
0
 10
-86.0547574211
 20
85.6989241489
 30
0.0
 11
-87.1753247429
 21
87.6557669886
 31
0.0
  0
ARC
  8
0
 62
0
 10
-87.2773301975
 20
87.5957695311
 30
0.0
 40
0.11833849753993159
 50
30.465544919498953
 51
150.9453959009028
  0
LINE
  8
0
 62
0
 10
-87.3807819535
 20
87.6532412418
 30
0.0
 11
-88.5073246409
 21
85.6997660645
 31
0.0
  0
ARC
  8
0
 62
0
 10
-88.6093301975
 20
85.7597695311
 30
0.0
 40
0.1183384975398809
 50
-90.0
 51
-30.465544919497557
  0
LINE
  8
0
 62
0
 10
-88.6093230892
 20
85.6414280184
 30
0.0
 11
-90.8653290917
 21
85.6457717069
 31
0.0
  0
ARC
  8
0
 62
0
 10
-90.8653301975
 20
85.5257695311
 30
0.0
 40
0.12000000000000455
 50
90.0
 51
-149.53445508050194
  0
LINE
  8
0
 62
0
 10
-90.9687580515
 20
85.4649237641
 30
0.0
 11
-89.833334272
 21
83.5157699235
 31
0.0
  0
ARC
  8
0
 62
0
 10
-89.9353301975
 20
83.4557695311
 30
0.0
 40
0.11833849753989989
 50
-30.465544919500008
 51
30.465544919500008
  0
LINE
  8
0
 62
0
 10
-89.833334272
 20
83.3957708724
 30
0.0
 11
-90.96732754
 21
81.4457676657
 31
0.0
  0
ARC
  8
0
 62
0
 10
-141.5893301975
 20
45.8117695311
 30
0.0
 40
0.11833849753985233
 50
-30.465544919501568
 51
30.465544919501568
  0
LINE
  8
0
 62
0
 10
-141.4873154808
 20
45.7517720111
 30
0.0
 11
-142.62132365
 21
43.801776255
 31
0.0
  0
ARC
  8
0
 62
0
 10
-142.5193301975
 20
43.7417695311
 30
0.0
 40
0.11833849753991933
 50
149.53445508049757
 51
-90.0
  0
LINE
  8
0
 62
0
 10
-142.5193401028
 20
43.6234242566
 30
0.0
 11
-140.2633341004
 21
43.6337656625
 31
0.0
  0
ARC
  8
0
 62
0
 10
-140.2633301975
 20
43.5137695311
 30
0.0
 40
0.11999999999998232
 50
29.054604099101205
 51
90.0
  0
LINE
  8
0
 62
0
 10
-140.1584299256
 20
43.5720450528
 30
0.0
 11
-139.0393229176
 21
41.6177726634
 31
0.0
  0
ARC
  8
0
 62
0
 10
-138.9373301975
 20
41.6777695311
 30
0.0
 40
0.11833849753995537
 50
-149.5344550806036
 51
-29.054604099096863
  0
LINE
  8
0
 62
0
 10
-138.8338955094
 20
41.6203058608
 30
0.0
 11
-137.710318153
 21
43.5689754136
 31
0.0
  0
ARC
  8
0
 62
0
 10
-137.6059949168
 20
43.5094559259
 30
0.0
 40
0.12011544446906602
 50
89.68292333309982
 51
150.29924931359776
  0
LINE
  8
0
 62
0
 10
-137.6053245713
 20
43.6295635351
 30
0.0
 11
-135.3493185688
 21
43.6217702277
 31
0.0
  0
ARC
  8
0
 62
0
 10
-135.3493301975
 20
43.7417695311
 30
0.0
 40
0.12000000000003297
 50
-90.0
 51
30.46554491950341
  0
LINE
  8
0
 62
0
 10
-135.2459045101
 20
43.80261072
 30
0.0
 11
-136.3753231217
 21
45.7517720111
 31
0.0
  0
ARC
  8
0
 62
0
 10
-136.2733301975
 20
45.8117695311
 30
0.0
 40
0.11833849753988404
 50
149.53445508049947
 51
-149.53445508049947
  0
LINE
  8
0
 62
0
 10
-136.3753231217
 20
45.8717710622
 30
0.0
 11
-135.2473350216
 21
47.8217668184
 31
0.0
  0
ARC
  8
0
 62
0
 10
-135.3493301975
 20
47.8817695311
 30
0.0
 40
0.11833849753991572
 50
-30.465544919499468
 51
90.0
  0
LINE
  8
0
 62
0
 10
-135.3493185688
 20
48.0001039155
 30
0.0
 11
-137.6053245713
 21
47.9957676776
 31
0.0
  0
ARC
  8
0
 62
0
 10
-137.6053301975
 20
48.1157695311
 30
0.0
 40
0.11999999999998961
 50
-149.5344550805014
 51
-90.0
  0
LINE
  8
0
 62
0
 10
-137.7087684323
 20
48.0549252876
 30
0.0
 11
-138.829335754
 21
50.0117755779
 31
0.0
  0
ARC
  8
0
 62
0
 10
-138.9313301975
 20
49.9517695311
 30
0.0
 40
0.11833849753991933
 50
30.465544919502445
 51
150.94539590089948
  0
LINE
  8
0
 62
0
 10
-139.0347631623
 20
50.0092423805
 30
0.0
 11
-140.155330484
 21
48.0557746537
 31
0.0
  0
ARC
  8
0
 62
0
 10
-140.2573301975
 20
48.1157695311
 30
0.0
 40
0.11833849753993109
 50
-92.86240522609697
 51
-30.465544919502445
  0
LINE
  8
0
 62
0
 10
-140.2632446934
 20
47.9975856193
 30
0.0
 11
-142.5193401028
 21
48.0017728456
 31
0.0
  0
ARC
  8
0
 62
0
 10
-142.5193301975
 20
47.8817695311
 30
0.0
 40
0.12000000000001165
 50
90.0
 51
-149.53445508050245
  0
LINE
  8
0
 62
0
 10
-142.6227541615
 20
47.8209323533
 30
0.0
 11
-141.4873154808
 21
45.8717710622
 31
0.0
  0
ARC
  8
0
 62
0
 10
0.2146698025
 20
34.6037695311
 30
0.0
 40
0.11833849753990933
 50
-90.00000000000001
 51
-30.465544919501088
  0
LINE
  8
0
 62
0
 10
0.2146659445
 20
34.4854361661
 30
0.0
 11
-2.0413251568
 21
34.489772404
 31
0.0
  0
ARC
  8
0
 62
0
 10
-2.0413301975
 20
34.3697695311
 30
0.0
 40
0.12000000000001165
 50
90.0
 51
-149.53445508049998
  0
LINE
  8
0
 62
0
 10
-2.1447690178
 20
34.3089319118
 30
0.0
 11
-1.0093303372
 21
32.3597706207
 31
0.0
  0
ARC
  8
0
 62
0
 10
-1.1113301975
 20
32.2997695311
 30
0.0
 40
0.11833849753992362
 50
-30.465544919401434
 51
30.465544919501298
  0
LINE
  8
0
 62
0
 10
-1.0093303372
 20
32.2397715696
 30
0.0
 11
-2.1433236052
 21
30.2897758134
 31
0.0
  0
ARC
  8
0
 62
0
 10
-2.0413301975
 20
30.2297695311
 30
0.0
 40
0.11833849753986676
 50
149.53445508050055
 51
-90.0
  0
LINE
  8
0
 62
0
 10
-2.0413251568
 20
30.1114238151
 30
0.0
 11
0.2146659445
 21
30.121765221
 31
0.0
  0
ARC
  8
0
 62
0
 10
0.2146698025
 20
30.0017695311
 30
0.0
 40
0.12000000000001365
 50
27.897271030900225
 51
90.0
  0
LINE
  8
0
 62
0
 10
0.3207175087
 20
30.0579137452
 30
0.0
 11
1.4386771272
 21
28.1057722219
 31
0.0
  0
ARC
  8
0
 62
0
 10
1.5406698025
 20
28.1657695311
 30
0.0
 40
0.11833849753991402
 50
-149.53445508050004
 51
-29.05460409909988
  0
LINE
  8
0
 62
0
 10
1.6441194366
 20
28.1083054193
 30
0.0
 11
2.7712730716
 21
30.0569749721
 31
0.0
  0
ARC
  8
0
 62
0
 10
2.8756040443
 20
29.9974541046
 30
0.0
 40
0.12011544446913568
 50
89.96863294749994
 51
150.29824914419973
  0
LINE
  8
0
 62
0
 10
2.875670607
 20
30.1175630935
 30
0.0
 11
5.1286665748
 21
30.1097697862
 31
0.0
  0
ARC
  8
0
 62
0
 10
5.1286698025
 20
30.2297695311
 30
0.0
 40
0.1200000000000081
 50
-90.0
 51
30.465544919499532
  0
LINE
  8
0
 62
0
 10
5.2320955347
 20
30.2906102784
 30
0.0
 11
4.0966717552
 21
32.2397715696
 31
0.0
  0
ARC
  8
0
 62
0
 10
4.1986698025
 20
32.2997695311
 30
0.0
 40
0.1183384975398848
 50
149.5344550804997
 51
-149.5344550804997
  0
LINE
  8
0
 62
0
 10
4.0966717552
 20
32.3597706207
 30
0.0
 11
5.2306650232
 21
34.3097663768
 31
0.0
  0
ARC
  8
0
 62
0
 10
5.1286698025
 20
34.3697695311
 30
0.0
 40
0.11833849753989606
 50
-30.465544919501088
 51
90.0
  0
LINE
  8
0
 62
0
 10
5.1286665748
 20
34.488103474
 30
0.0
 11
2.8726754736
 21
34.4837672361
 31
0.0
  0
ARC
  8
0
 62
0
 10
2.8726698025
 20
34.6037695311
 30
0.0
 40
0.12000000000001214
 50
-149.5344550804999
 51
-90.0
  0
LINE
  8
0
 62
0
 10
2.7692316126
 20
34.542924846
 30
0.0
 11
1.6486642908
 21
36.4997751363
 31
0.0
  0
ARC
  8
0
 62
0
 10
1.5466698025
 20
36.4397695311
 30
0.0
 40
0.11833849753996709
 50
30.46554491950082
 51
150.9453959008988
  0
LINE
  8
0
 62
0
 10
1.4432219814
 20
36.4972419389
 30
0.0
 11
0.3166643928
 21
34.5437742122
 31
0.0
  0
ARC
  8
0
 62
0
 10
-8.3203301975
 20
46.1569790845
 30
0.0
 40
1.1606313134394863
 50
-153.75685533199996
 51
-26.243144668000035
  0
LINE
  8
0
 62
0
 10
-7.2793366362
 20
45.6437683948
 30
0.0
 11
-2.189532106
 21
54.5167393335
 31
0.0
  0
ARC
  8
0
 62
0
 10
-1.6693301975
 20
54.2177695311
 30
0.0
 40
0.6000000000000156
 50
90.0
 51
150.1134730595998
  0
LINE
  8
0
 62
0
 10
-1.6693325688
 20
54.8177725919
 30
0.0
 11
9.6028743337
 21
54.7817713865
 31
0.0
  0
ARC
  8
0
 62
0
 10
9.6047580261
 20
55.3816180408
 30
0.0
 40
0.5998514816185787
 50
-90.18035701690007
 51
30.223678795300025
  0
LINE
  8
0
 62
0
 10
10.123073871
 20
55.6835747608
 30
0.0
 11
4.4566689085
 21
65.4317728527
 31
0.0
  0
ARC
  8
0
 62
0
 10
4.9726698025
 20
65.7317695311
 30
0.0
 40
0.5968718455413947
 50
149.8264799703997
 51
-149.8264799703997
  0
LINE
  8
0
 62
0
 10
4.4566689085
 20
66.0317681082
 30
0.0
 11
10.1188717436
 21
75.7767997034
 31
0.0
  0
ARC
  8
0
 62
0
 10
9.5986698025
 20
76.0757695311
 30
0.0
 40
0.6000000000000258
 50
-29.886526940400476
 51
90.0
  0
LINE
  8
0
 62
0
 10
9.5986722063
 20
76.6757718571
 30
0.0
 11
-1.6693325688
 21
76.6437045582
 31
0.0
  0
ARC
  8
0
 62
0
 10
-1.6693301975
 20
77.2457695311
 30
0.0
 40
0.6020664415162496
 50
-150.11347305959993
 51
-90.0
  0
LINE
  8
0
 62
0
 10
-2.1913351466
 20
76.9457659968
 30
0.0
 11
-7.795334046
 21
86.7197728999
 31
0.0
  0
ARC
  8
0
 62
0
 10
-8.3173301975
 20
86.4197695311
 30
0.0
 40
0.6020664415162295
 50
29.886526940399637
 51
150.11347305960038
  0
LINE
  8
0
 62
0
 10
-8.8393243004
 20
86.7197728999
 30
0.0
 11
-14.4451262404
 21
76.9468016275
 31
0.0
  0
ARC
  8
0
 62
0
 10
-14.9653301975
 20
77.2457695311
 30
0.0
 40
0.5999999999999943
 50
-90.0
 51
-29.88652694040049
  0
LINE
  8
0
 62
0
 10
-14.9653257777
 20
76.645768369
 30
0.0
 11
-26.2393357207
 21
76.6726426132
 31
0.0
  0
ARC
  8
0
 62
0
 10
-26.2393301975
 20
76.0757695311
 30
0.0
 40
0.5968718455414006
 50
90.0
 51
-149.82647997040016
  0
LINE
  8
0
 62
0
 10
-26.7553331305
 20
75.7757715233
 30
0.0
 11
-21.0913272549
 21
66.0317681082
 31
0.0
  0
ARC
  8
0
 62
0
 10
-21.6073301975
 20
65.7317695311
 30
0.0
 40
0.5968718455413798
 50
-30.17352002959952
 51
30.17352002959952
  0
LINE
  8
0
 62
0
 10
-21.0913272549
 20
65.4317728527
 30
0.0
 11
-26.7553331305
 21
55.6877768882
 31
0.0
  0
ARC
  8
0
 62
0
 10
-26.2392255624
 20
55.381769522
 30
0.0
 40
0.6000000000000235
 50
149.33616924470007
 51
-90.00999192019991
  0
LINE
  8
0
 62
0
 10
-26.2393357207
 20
54.7817713865
 30
0.0
 11
-14.9653257777
 21
54.8198289521
 31
0.0
  0
ARC
  8
0
 62
0
 10
-14.9653301975
 20
54.2177695311
 30
0.0
 40
0.602066441516193
 50
29.886526940400056
 51
90.0
  0
LINE
  8
0
 62
0
 10
-14.4433231999
 20
54.5177675136
 30
0.0
 11
-9.3613268782
 21
45.6437683948
 31
0.0
  0
ARC
  8
0
 62
0
 10
-52.3153301975
 20
105.0797695311
 30
0.0
 40
0.6000000000000085
 50
-90.0
 51
30.37912601139983
  0
LINE
  8
0
 62
0
 10
-51.7977179934
 20
105.3832016238
 30
0.0
 11
-57.4573280264
 21
115.1237703212
 31
0.0
  0
ARC
  8
0
 62
0
 10
-56.9413301975
 20
115.4237695311
 30
0.0
 40
0.5968718455414151
 50
149.3310733503
 51
-149.82647997039933
  0
LINE
  8
0
 62
0
 10
-57.4547203232
 20
115.7282210239
 30
0.0
 11
-51.793337052
 21
125.4737667092
 31
0.0
  0
ARC
  8
0
 62
0
 10
-52.3093301975
 20
125.7737695311
 30
0.0
 40
0.5968718455414086
 50
-30.17352002959952
 51
90.57293869770008
  0
LINE
  8
0
 62
0
 10
-52.3152949263
 20
126.3706079968
 30
0.0
 11
-63.5899307181
 21
126.3437710055
 31
0.0
  0
ARC
  8
0
 62
0
 10
-63.592219908
 20
126.9437678621
 30
0.0
 40
0.6000026999939722
 50
-150.1325628081006
 51
-89.78134920849985
  0
LINE
  8
0
 62
0
 10
-64.1125293423
 20
126.6449681767
 30
0.0
 11
-69.7153361489
 21
136.4177680858
 31
0.0
  0
ARC
  8
0
 62
0
 10
-70.2373301975
 20
136.1177695311
 30
0.0
 40
0.6020664415162637
 50
29.886526940400884
 51
149.82647997040067
  0
LINE
  8
0
 62
0
 10
-70.757821386
 20
136.4203795143
 30
0.0
 11
-76.3633253027
 21
126.6437686332
 31
0.0
  0
ARC
  8
0
 62
0
 10
-76.8853301975
 20
126.9437695311
 30
0.0
 40
0.6020664415162145
 50
-90.0
 51
-29.88652694039988
  0
LINE
  8
0
 62
0
 10
-76.8853278805
 20
126.3416997441
 30
0.0
 11
-88.1533326556
 21
126.373767043
 31
0.0
  0
ARC
  8
0
 62
0
 10
-88.1533301975
 20
125.7737695311
 30
0.0
 40
0.6000000000000227
 50
90.0
 51
-150.11347305959967
  0
LINE
  8
0
 62
0
 10
-88.6735321928
 20
125.4748023399
 30
0.0
 11
-83.0113293578
 21
115.7297707446
 31
0.0
  0
ARC
  8
0
 62
0
 10
-83.5273301975
 20
115.4297695311
 30
0.0
 40
0.5968718455413957
 50
-30.668926649699554
 51
30.17352002959985
  0
LINE
  8
0
 62
0
 10
-83.013937061
 20
115.125320042
 30
0.0
 11
-88.6777343203
 21
105.3815699466
 31
0.0
  0
ARC
  8
0
 62
0
 10
-88.1594184212
 20
105.0796180408
 30
0.0
 40
0.5998514816185707
 50
149.7763212026996
 51
-89.81964297860021
  0
LINE
  8
0
 62
0
 10
-88.157534783
 20
104.4797665723
 30
0.0
 11
-76.8853278805
 21
104.5157677778
 31
0.0
  0
ARC
  8
0
 62
0
 10
-76.8853301975
 20
103.9157695311
 30
0.0
 40
0.600000000000029
 50
29.886526940400323
 51
90.0
  0
LINE
  8
0
 62
0
 10
-76.3651283432
 20
104.2147419699
 30
0.0
 11
-71.2753238131
 21
95.3417710312
 31
0.0
  0
ARC
  8
0
 62
0
 10
-70.2343301975
 20
95.7215392484
 30
0.0
 40
1.1081092176079286
 50
-159.9574030387997
 51
-20.042596958899967
  0
LINE
  8
0
 62
0
 10
-69.1933335711
 20
95.3417710312
 30
0.0
 11
-64.1113372494
 21
104.21577015
 31
0.0
  0
ARC
  8
0
 62
0
 10
-63.5893301975
 20
103.9157695311
 30
0.0
 40
0.6020664415162349
 50
89.42706130230034
 51
150.11347305960044
  0
LINE
  8
0
 62
0
 10
-63.5833146025
 20
104.5178092368
 30
0.0
 11
-52.3153247286
 21
104.4797665723
 31
0.0
  0
ARC
  8
0
 62
0
 10
-57.3308869352
 20
208.3779168123
 30
0.0
 40
0.6000000000000512
 50
-90.0
 51
30.173520029599484
  0
LINE
  8
0
 62
0
 10
-56.8121822525
 20
208.6794889816
 30
0.0
 11
-62.4788852383
 21
218.4219165989
 31
0.0
  0
ARC
  8
0
 62
0
 10
-61.9628869352
 20
218.7219168123
 30
0.0
 40
0.5968718455414218
 50
149.82647997039967
 51
-149.82647997039967
  0
LINE
  8
0
 62
0
 10
-62.4788852383
 20
219.0219174423
 30
0.0
 11
-56.8148942639
 21
228.7659152695
 31
0.0
  0
ARC
  8
0
 62
0
 10
-57.3308869352
 20
229.0659168123
 30
0.0
 40
0.5968718455414157
 50
-30.173520029600684
 51
90.0
  0
LINE
  8
0
 62
0
 10
-57.3308916737
 20
229.6627900847
 30
0.0
 11
-68.6048867155
 21
229.6359158405
 31
0.0
  0
ARC
  8
0
 62
0
 10
-68.6048869352
 20
230.2359168123
 30
0.0
 40
0.5999999999999901
 50
-150.1134730596007
 51
-90.0
  0
LINE
  8
0
 62
0
 10
-69.125101154
 20
229.9369453736
 30
0.0
 11
-74.7308881928
 21
239.7159180888
 31
0.0
  0
ARC
  8
0
 62
0
 10
-75.2528869352
 20
239.4159168123
 30
0.0
 40
0.6020664415162248
 50
29.88652694039988
 51
150.11347305960012
  0
LINE
  8
0
 62
0
 10
-75.7748933483
 20
239.7159180888
 30
0.0
 11
-81.3788922478
 21
229.9359171935
 31
0.0
  0
ARC
  8
0
 62
0
 10
-81.9008869352
 20
230.2359168123
 30
0.0
 40
0.6020664415162287
 50
-90.0
 51
-29.886526940399197
  0
LINE
  8
0
 62
0
 10
-81.9008799244
 20
229.6338520296
 30
0.0
 11
-93.1748898674
 21
229.6659156032
 31
0.0
  0
ARC
  8
0
 62
0
 10
-93.1748869352
 20
229.0659168123
 30
0.0
 40
0.6000000000000227
 50
90.0
 51
-149.82647997039984
  0
LINE
  8
0
 62
0
 10
-93.6935843874
 20
228.7643431969
 30
0.0
 11
-88.0268814017
 21
219.0219174423
 31
0.0
  0
ARC
  8
0
 62
0
 10
-88.5428869352
 20
218.7219168123
 30
0.0
 40
0.5968718455414341
 50
-30.17352002959966
 51
30.17352002959966
  0
LINE
  8
0
 62
0
 10
-88.0268814017
 20
218.4219165989
 30
0.0
 11
-93.6908872773
 21
208.6779169091
 31
0.0
  0
ARC
  8
0
 62
0
 10
-93.1748869352
 20
208.3779168123
 30
0.0
 40
0.5968718455414465
 50
149.826479970401
 51
-90.0
  0
LINE
  8
0
 62
0
 10
-93.1748898674
 20
207.7810458191
 30
0.0
 11
-81.9008799244
 21
207.807916338
 31
0.0
  0
ARC
  8
0
 62
0
 10
-81.9008869352
 20
207.2079168123
 30
0.0
 40
0.6000000000000677
 50
29.88652694040131
 51
90.0
  0
LINE
  8
0
 62
0
 10
-81.3806803871
 20
207.5068868049
 30
0.0
 11
-76.2908907582
 21
198.6399163776
 31
0.0
  0
ARC
  8
0
 62
0
 10
-75.2498869352
 20
199.1637941614
 30
0.0
 40
1.1653876937998897
 50
-153.2864326886
 51
-26.71356730930059
  0
LINE
  8
0
 62
0
 10
-74.208885615
 20
198.6399163776
 30
0.0
 11
-69.1268892933
 21
207.5079168477
 31
0.0
  0
ARC
  8
0
 62
0
 10
-68.6048869352
 20
207.2079168123
 30
0.0
 40
0.6020664415162287
 50
90.0
 51
150.11347305960012
  0
LINE
  8
0
 62
0
 10
-68.6048867155
 20
207.8099838742
 30
0.0
 11
-57.3308916737
 21
207.7779165753
 31
0.0
  0
LINE
  8
0
 62
0
 10
-32.1519823719
 20
88.6171675571
 30
0.0
 11
-33.2833232333
 21
86.6714558848
 31
0.0
  0
ARC
  8
0
 62
0
 10
147.2086698025
 20
376.9337695311
 30
0.0
 40
204.762619086297
 50
-158.53909853909997
 51
-127.55829421469998
  0
ENDSEC
  0
EOF
